  0
SECTION
  2
ENTITIES
  0
LINE
  8
LAYE
 10
   -.00270
 20
    .00160
 30
    .00000
 11
   -.80270
 21
  -4.59840
 31
    .00000
  0
LINE
  8
LAYE
 10
   -.80270
 20
  -4.59840
 30
    .00000
 11
   -.97481
 21
  -4.12896
 31
    .00000
  0
LINE
  8
LAYE
 10
   -.80270
 20
  -4.59840
 30
    .00000
 11
   -.48220
 21
  -4.21463
 31
    .00000
  0
LINE
  8
LAYE
 10
  17.04270
 20
  -2.02570
 30
    .00000
 11
  18.54270
 21
  -4.02570
 31
    .00000
  0
LINE
  8
LAYE
 10
  18.54270
 20
  -4.02570
 30
    .00000
 11
  18.08289
 21
  -3.82929
 31
    .00000
  0
LINE
  8
LAYE
 10
  18.54270
 20
  -4.02570
 30
    .00000
 11
  18.48289
 21
  -3.52929
 31
    .00000
  0
LINE
  8
LAYE
 10
   -.62200
 20
  42.44270
 30
    .00000
 11
    .07800
 21
  40.34270
 31
    .00000
  0
LINE
  8
LAYE
 10
    .07800
 20
  40.34270
 30
    .00000
 11
   -.29610
 21
  40.67443
 31
    .00000
  0
LINE
  8
LAYE
 10
    .07800
 20
  40.34270
 30
    .00000
 11
    .17824
 21
  40.83255
 31
    .00000
  0
LINE
  8
LAYE
 10
   3.55980
 20
  42.39480
 30
    .00000
 11
   4.75980
 21
  41.99480
 31
    .00000
  0
LINE
  8
LAYE
 10
   4.75980
 20
  41.99480
 30
    .00000
 11
   4.26995
 21
  41.89456
 31
    .00000
  0
LINE
  8
LAYE
 10
   4.75980
 20
  41.99480
 30
    .00000
 11
   4.42807
 21
  42.36890
 31
    .00000
  0
LINE
  8
LAYE
 10
   8.09740
 20
  42.37760
 30
    .00000
 11
   8.39740
 21
  41.07760
 31
    .00000
  0
LINE
  8
LAYE
 10
   8.39740
 20
  41.07760
 30
    .00000
 11
   8.05644
 21
  41.44331
 31
    .00000
  0
LINE
  8
LAYE
 10
   8.39740
 20
  41.07760
 30
    .00000
 11
   8.54363
 21
  41.55574
 31
    .00000
  0
LINE
  8
LAYE
 10
  12.68500
 20
  42.39100
 30
    .00000
 11
  12.48500
 21
  41.59100
 31
    .00000
  0
LINE
  8
LAYE
 10
  12.48500
 20
  41.59100
 30
    .00000
 11
  12.34749
 21
  42.07172
 31
    .00000
  0
LINE
  8
LAYE
 10
  12.48500
 20
  41.59100
 30
    .00000
 11
  12.83256
 21
  41.95045
 31
    .00000
  0
LINE
  8
LAYE
 10
  17.32430
 20
  42.44430
 30
    .00000
 11
  18.92430
 21
  42.14430
 31
    .00000
  0
LINE
  8
LAYE
 10
  18.92430
 20
  42.14430
 30
    .00000
 11
  18.45263
 21
  41.97838
 31
    .00000
  0
LINE
  8
LAYE
 10
  18.92430
 20
  42.14430
 30
    .00000
 11
  18.54478
 21
  42.46982
 31
    .00000
  0
LINE
  8
LAYE
 10
   -.67030
 20
  42.22370
 30
    .00000
 11
   1.02970
 21
  40.92370
 31
    .00000
  0
LINE
  8
LAYE
 10
   1.02970
 20
  40.92370
 30
    .00000
 11
    .53387
 21
  40.98814
 31
    .00000
  0
LINE
  8
LAYE
 10
   1.02970
 20
  40.92370
 30
    .00000
 11
    .83760
 21
  41.38532
 31
    .00000
  0
LINE
  8
LAYE
 10
  17.29350
 20
  42.44970
 30
    .00000
 11
  19.09350
 21
  42.54970
 31
    .00000
  0
LINE
  8
LAYE
 10
  19.09350
 20
  42.54970
 30
    .00000
 11
  18.67502
 21
  42.27607
 31
    .00000
  0
LINE
  8
LAYE
 10
  19.09350
 20
  42.54970
 30
    .00000
 11
  18.64729
 21
  42.77530
 31
    .00000
  0
LINE
  8
LAYE
 10
   3.03260
 20
  42.23120
 30
    .00000
 11
   4.43260
 21
  42.23120
 31
    .00000
  0
LINE
  8
LAYE
 10
   4.43260
 20
  42.23120
 30
    .00000
 11
   3.99959
 21
  41.98120
 31
    .00000
  0
LINE
  8
LAYE
 10
   4.43260
 20
  42.23120
 30
    .00000
 11
   3.99959
 21
  42.48120
 31
    .00000
  0
LINE
  8
LAYE
 10
   7.85130
 20
  42.22180
 30
    .00000
 11
   9.25130
 21
  40.42180
 31
    .00000
  0
LINE
  8
LAYE
 10
   9.25130
 20
  40.42180
 30
    .00000
 11
   8.78812
 21
  40.61011
 31
    .00000
  0
LINE
  8
LAYE
 10
   9.25130
 20
  40.42180
 30
    .00000
 11
   9.18279
 21
  40.91708
 31
    .00000
  0
LINE
  8
LAYE
 10
  11.13850
 20
  42.23770
 30
    .00000
 11
  12.53850
 21
  41.73770
 31
    .00000
  0
LINE
  8
LAYE
 10
  12.53850
 20
  41.73770
 30
    .00000
 11
  12.04663
 21
  41.64790
 31
    .00000
  0
LINE
  8
LAYE
 10
  12.53850
 20
  41.73770
 30
    .00000
 11
  12.21480
 21
  42.11877
 31
    .00000
  0
LINE
  8
LAYE
 10
   -.31920
 20
  23.82580
 30
    .00000
 11
  -1.21920
 21
  26.82580
 31
    .00000
  0
LINE
  8
LAYE
 10
  -1.21920
 20
  26.82580
 30
    .00000
 11
   -.85532
 21
  26.48289
 31
    .00000
  0
LINE
  8
LAYE
 10
  -1.21920
 20
  26.82580
 30
    .00000
 11
  -1.33423
 21
  26.33921
 31
    .00000
  0
ENDSEC
  0
EOF
