  0
SECTION
  2
ENTITIES
  0
LINE
  8
LAYE
 10
   -.00270
 20
    .00160
 30
    .00000
 11
  -1.20270
 21
  -7.49840
 31
    .00000
  0
LINE
  8
LAYE
 10
  -1.20270
 20
  -7.49840
 30
    .00000
 11
  -1.38115
 21
  -7.03133
 31
    .00000
  0
LINE
  8
LAYE
 10
  -1.20270
 20
  -7.49840
 30
    .00000
 11
   -.88743
 21
  -7.11032
 31
    .00000
  0
LINE
  8
LAYE
 10
  17.04270
 20
  -2.02570
 30
    .00000
 11
  18.34270
 21
  -4.22570
 31
    .00000
  0
LINE
  8
LAYE
 10
  18.34270
 20
  -4.22570
 30
    .00000
 11
  17.90718
 21
  -3.98009
 31
    .00000
  0
LINE
  8
LAYE
 10
  18.34270
 20
  -4.22570
 30
    .00000
 11
  18.33765
 21
  -3.72573
 31
    .00000
  0
LINE
  8
LAYE
 10
   -.62200
 20
  42.44270
 30
    .00000
 11
   -.92200
 21
  41.04270
 31
    .00000
  0
LINE
  8
LAYE
 10
   -.92200
 20
  41.04270
 30
    .00000
 11
  -1.07572
 21
  41.51848
 31
    .00000
  0
LINE
  8
LAYE
 10
   -.92200
 20
  41.04270
 30
    .00000
 11
   -.58682
 21
  41.41372
 31
    .00000
  0
LINE
  8
LAYE
 10
   3.55980
 20
  42.39480
 30
    .00000
 11
   3.75980
 21
  38.09480
 31
    .00000
  0
LINE
  8
LAYE
 10
   3.75980
 20
  38.09480
 30
    .00000
 11
   3.48995
 21
  38.51573
 31
    .00000
  0
LINE
  8
LAYE
 10
   3.75980
 20
  38.09480
 30
    .00000
 11
   3.98941
 21
  38.53896
 31
    .00000
  0
LINE
  8
LAYE
 10
   8.09740
 20
  42.37760
 30
    .00000
 11
   7.69740
 21
  37.37760
 31
    .00000
  0
LINE
  8
LAYE
 10
   7.69740
 20
  37.37760
 30
    .00000
 11
   7.48273
 21
  37.82917
 31
    .00000
  0
LINE
  8
LAYE
 10
   7.69740
 20
  37.37760
 30
    .00000
 11
   7.98113
 21
  37.78930
 31
    .00000
  0
LINE
  8
LAYE
 10
  12.68500
 20
  42.39100
 30
    .00000
 11
  10.88500
 21
  40.79100
 31
    .00000
  0
LINE
  8
LAYE
 10
  10.88500
 20
  40.79100
 30
    .00000
 11
  11.04255
 21
  41.26553
 31
    .00000
  0
LINE
  8
LAYE
 10
  10.88500
 20
  40.79100
 30
    .00000
 11
  11.37473
 21
  40.89183
 31
    .00000
  0
LINE
  8
LAYE
 10
  17.32430
 20
  42.44430
 30
    .00000
 11
  18.12430
 21
  40.04430
 31
    .00000
  0
LINE
  8
LAYE
 10
  18.12430
 20
  40.04430
 30
    .00000
 11
  17.75020
 21
  40.37603
 31
    .00000
  0
LINE
  8
LAYE
 10
  18.12430
 20
  40.04430
 30
    .00000
 11
  18.22454
 21
  40.53415
 31
    .00000
  0
LINE
  8
LAYE
 10
   -.67030
 20
  42.22370
 30
    .00000
 11
   -.47030
 21
  39.62370
 31
    .00000
  0
LINE
  8
LAYE
 10
   -.47030
 20
  39.62370
 30
    .00000
 11
   -.75277
 21
  40.03626
 31
    .00000
  0
LINE
  8
LAYE
 10
   -.47030
 20
  39.62370
 30
    .00000
 11
   -.25425
 21
  40.07461
 31
    .00000
  0
LINE
  8
LAYE
 10
  17.29350
 20
  42.44970
 30
    .00000
 11
  17.19350
 21
  41.34970
 31
    .00000
  0
LINE
  8
LAYE
 10
  17.19350
 20
  41.34970
 30
    .00000
 11
  16.98373
 21
  41.80357
 31
    .00000
  0
LINE
  8
LAYE
 10
  17.19350
 20
  41.34970
 30
    .00000
 11
  17.48168
 21
  41.75830
 31
    .00000
  0
LINE
  8
LAYE
 10
   3.03260
 20
  42.23120
 30
    .00000
 11
   5.13260
 21
  41.53120
 31
    .00000
  0
LINE
  8
LAYE
 10
   5.13260
 20
  41.53120
 30
    .00000
 11
   4.64275
 21
  41.43096
 31
    .00000
  0
LINE
  8
LAYE
 10
   5.13260
 20
  41.53120
 30
    .00000
 11
   4.80087
 21
  41.90530
 31
    .00000
  0
LINE
  8
LAYE
 10
   7.85130
 20
  42.22180
 30
    .00000
 11
   7.75130
 21
  41.02180
 31
    .00000
  0
LINE
  8
LAYE
 10
   7.75130
 20
  41.02180
 30
    .00000
 11
   7.53812
 21
  41.47408
 31
    .00000
  0
LINE
  8
LAYE
 10
   7.75130
 20
  41.02180
 30
    .00000
 11
   8.03640
 21
  41.43256
 31
    .00000
  0
LINE
  8
LAYE
 10
  11.13850
 20
  42.23770
 30
    .00000
 11
  12.53850
 21
  42.73770
 31
    .00000
  0
LINE
  8
LAYE
 10
  12.53850
 20
  42.73770
 30
    .00000
 11
  12.21480
 21
  42.35663
 31
    .00000
  0
LINE
  8
LAYE
 10
  12.53850
 20
  42.73770
 30
    .00000
 11
  12.04663
 21
  42.82750
 31
    .00000
  0
LINE
  8
LAYE
 10
   -.31920
 20
  23.82580
 30
    .00000
 11
  -1.61920
 21
  24.62580
 31
    .00000
  0
LINE
  8
LAYE
 10
  -1.61920
 20
  24.62580
 30
    .00000
 11
  -1.11940
 21
  24.61177
 31
    .00000
  0
LINE
  8
LAYE
 10
  -1.61920
 20
  24.62580
 30
    .00000
 11
  -1.38145
 21
  24.18594
 31
    .00000
  0
ENDSEC
  0
EOF
