  0
SECTION
  2
ENTITIES
  0
LINE
  8
LAYE
 10
  17.04290
 20
  -2.02690
 30
    .00000
 11
  16.94290
 21
  -1.42690
 31
    .00000
  0
LINE
  8
LAYE
 10
  16.94290
 20
  -1.42690
 30
    .00000
 11
  17.26069
 21
  -1.81292
 31
    .00000
  0
LINE
  8
LAYE
 10
  16.94290
 20
  -1.42690
 30
    .00000
 11
  16.76749
 21
  -1.89512
 31
    .00000
  0
LINE
  8
LAYE
 10
   -.62320
 20
  42.44390
 30
    .00000
 11
   -.02320
 21
  41.84390
 31
    .00000
  0
LINE
  8
LAYE
 10
   -.02320
 20
  41.84390
 30
    .00000
 11
   -.50616
 21
  41.97331
 31
    .00000
  0
LINE
  8
LAYE
 10
   -.02320
 20
  41.84390
 30
    .00000
 11
   -.15261
 21
  42.32686
 31
    .00000
  0
LINE
  8
LAYE
 10
   3.55760
 20
  42.39220
 30
    .00000
 11
   4.65760
 21
  43.69220
 31
    .00000
  0
LINE
  8
LAYE
 10
   4.65760
 20
  43.69220
 30
    .00000
 11
   4.56875
 21
  43.20016
 31
    .00000
  0
LINE
  8
LAYE
 10
   4.65760
 20
  43.69220
 30
    .00000
 11
   4.18705
 21
  43.52313
 31
    .00000
  0
LINE
  8
LAYE
 10
   8.09480
 20
  42.37600
 30
    .00000
 11
   9.39480
 21
  43.17600
 31
    .00000
  0
LINE
  8
LAYE
 10
   9.39480
 20
  43.17600
 30
    .00000
 11
   9.15705
 21
  42.73614
 31
    .00000
  0
LINE
  8
LAYE
 10
   9.39480
 20
  43.17600
 30
    .00000
 11
   8.89500
 21
  43.16197
 31
    .00000
  0
LINE
  8
LAYE
 10
  12.68220
 20
  42.39020
 30
    .00000
 11
  14.08220
 21
  42.79020
 31
    .00000
  0
LINE
  8
LAYE
 10
  14.08220
 20
  42.79020
 30
    .00000
 11
  13.73453
 21
  42.43086
 31
    .00000
  0
LINE
  8
LAYE
 10
  14.08220
 20
  42.79020
 30
    .00000
 11
  13.59717
 21
  42.91162
 31
    .00000
  0
LINE
  8
LAYE
 10
  17.32150
 20
  42.44370
 30
    .00000
 11
  18.72150
 21
  42.74370
 31
    .00000
  0
LINE
  8
LAYE
 10
  18.72150
 20
  42.74370
 30
    .00000
 11
  18.35048
 21
  42.40852
 31
    .00000
  0
LINE
  8
LAYE
 10
  18.72150
 20
  42.74370
 30
    .00000
 11
  18.24572
 21
  42.89742
 31
    .00000
  0
LINE
  8
LAYE
 10
   -.67150
 20
  42.22550
 30
    .00000
 11
   -.07150
 21
  41.32550
 31
    .00000
  0
LINE
  8
LAYE
 10
   -.07150
 20
  41.32550
 30
    .00000
 11
   -.51970
 21
  41.54711
 31
    .00000
  0
LINE
  8
LAYE
 10
   -.07150
 20
  41.32550
 30
    .00000
 11
   -.10368
 21
  41.82446
 31
    .00000
  0
LINE
  8
LAYE
 10
  17.29310
 20
  42.45150
 30
    .00000
 11
  17.49310
 21
  41.55150
 31
    .00000
  0
LINE
  8
LAYE
 10
  17.49310
 20
  41.55150
 30
    .00000
 11
  17.15512
 21
  41.91997
 31
    .00000
  0
LINE
  8
LAYE
 10
  17.49310
 20
  41.55150
 30
    .00000
 11
  17.64321
 21
  42.02843
 31
    .00000
  0
LINE
  8
LAYE
 10
   3.03160
 20
  42.23240
 30
    .00000
 11
   3.53160
 21
  41.63240
 31
    .00000
  0
LINE
  8
LAYE
 10
   3.53160
 20
  41.63240
 30
    .00000
 11
   3.06234
 21
  41.80500
 31
    .00000
  0
LINE
  8
LAYE
 10
   3.53160
 20
  41.63240
 30
    .00000
 11
   3.44645
 21
  42.12510
 31
    .00000
  0
LINE
  8
LAYE
 10
   7.85030
 20
  42.22360
 30
    .00000
 11
   8.35030
 21
  41.32360
 31
    .00000
  0
LINE
  8
LAYE
 10
   8.35030
 20
  41.32360
 30
    .00000
 11
   7.92147
 21
  41.58071
 31
    .00000
  0
LINE
  8
LAYE
 10
   8.35030
 20
  41.32360
 30
    .00000
 11
   8.35855
 21
  41.82353
 31
    .00000
  0
LINE
  8
LAYE
 10
  11.13790
 20
  42.23950
 30
    .00000
 11
  11.43790
 21
  41.33950
 31
    .00000
  0
LINE
  8
LAYE
 10
  11.43790
 20
  41.33950
 30
    .00000
 11
  11.06380
 21
  41.67123
 31
    .00000
  0
LINE
  8
LAYE
 10
  11.43790
 20
  41.33950
 30
    .00000
 11
  11.53814
 21
  41.82935
 31
    .00000
  0
LINE
  8
LAYE
 10
   -.32040
 20
  23.82680
 30
    .00000
 11
    .27960
 21
  23.32680
 31
    .00000
  0
LINE
  8
LAYE
 10
    .27960
 20
  23.32680
 30
    .00000
 11
   -.21310
 21
  23.41195
 31
    .00000
  0
LINE
  8
LAYE
 10
    .27960
 20
  23.32680
 30
    .00000
 11
    .10700
 21
  23.79606
 31
    .00000
  0
LINE
  8
LAYE
 10
   -.00390
 20
    .00060
 30
    .00000
 11
    .59610
 21
    .50060
 31
    .00000
  0
LINE
  8
LAYE
 10
    .59610
 20
    .50060
 30
    .00000
 11
    .42350
 21
    .03134
 31
    .00000
  0
LINE
  8
LAYE
 10
    .59610
 20
    .50060
 30
    .00000
 11
    .10340
 21
    .41545
 31
    .00000
  0
ENDSEC
  0
EOF
