  0
SECTION
  2
ENTITIES
  0
LINE
  8
LAYE
 10
  17.04280
 20
  -2.02630
 30
    .00000
 11
  16.94280
 21
  -1.42630
 31
    .00000
  0
LINE
  8
LAYE
 10
  16.94280
 20
  -1.42630
 30
    .00000
 11
  17.26059
 21
  -1.81232
 31
    .00000
  0
LINE
  8
LAYE
 10
  16.94280
 20
  -1.42630
 30
    .00000
 11
  16.76739
 21
  -1.89452
 31
    .00000
  0
LINE
  8
LAYE
 10
   -.62260
 20
  42.44330
 30
    .00000
 11
   -.02260
 21
  41.84330
 31
    .00000
  0
LINE
  8
LAYE
 10
   -.02260
 20
  41.84330
 30
    .00000
 11
   -.50556
 21
  41.97271
 31
    .00000
  0
LINE
  8
LAYE
 10
   -.02260
 20
  41.84330
 30
    .00000
 11
   -.15201
 21
  42.32626
 31
    .00000
  0
LINE
  8
LAYE
 10
   3.55870
 20
  42.39350
 30
    .00000
 11
   4.65870
 21
  43.69350
 31
    .00000
  0
LINE
  8
LAYE
 10
   4.65870
 20
  43.69350
 30
    .00000
 11
   4.56985
 21
  43.20146
 31
    .00000
  0
LINE
  8
LAYE
 10
   4.65870
 20
  43.69350
 30
    .00000
 11
   4.18815
 21
  43.52443
 31
    .00000
  0
LINE
  8
LAYE
 10
   8.09610
 20
  42.37680
 30
    .00000
 11
   9.39610
 21
  43.17680
 31
    .00000
  0
LINE
  8
LAYE
 10
   9.39610
 20
  43.17680
 30
    .00000
 11
   9.15835
 21
  42.73694
 31
    .00000
  0
LINE
  8
LAYE
 10
   9.39610
 20
  43.17680
 30
    .00000
 11
   8.89630
 21
  43.16277
 31
    .00000
  0
LINE
  8
LAYE
 10
  12.68360
 20
  42.39060
 30
    .00000
 11
  14.08360
 21
  42.79060
 31
    .00000
  0
LINE
  8
LAYE
 10
  14.08360
 20
  42.79060
 30
    .00000
 11
  13.73593
 21
  42.43126
 31
    .00000
  0
LINE
  8
LAYE
 10
  14.08360
 20
  42.79060
 30
    .00000
 11
  13.59857
 21
  42.91202
 31
    .00000
  0
LINE
  8
LAYE
 10
  17.32290
 20
  42.44400
 30
    .00000
 11
  18.72290
 21
  42.74400
 31
    .00000
  0
LINE
  8
LAYE
 10
  18.72290
 20
  42.74400
 30
    .00000
 11
  18.35188
 21
  42.40882
 31
    .00000
  0
LINE
  8
LAYE
 10
  18.72290
 20
  42.74400
 30
    .00000
 11
  18.24712
 21
  42.89772
 31
    .00000
  0
LINE
  8
LAYE
 10
   -.67090
 20
  42.22460
 30
    .00000
 11
   -.07090
 21
  41.32460
 31
    .00000
  0
LINE
  8
LAYE
 10
   -.07090
 20
  41.32460
 30
    .00000
 11
   -.51910
 21
  41.54621
 31
    .00000
  0
LINE
  8
LAYE
 10
   -.07090
 20
  41.32460
 30
    .00000
 11
   -.10308
 21
  41.82356
 31
    .00000
  0
LINE
  8
LAYE
 10
  17.29330
 20
  42.45060
 30
    .00000
 11
  17.49330
 21
  41.55060
 31
    .00000
  0
LINE
  8
LAYE
 10
  17.49330
 20
  41.55060
 30
    .00000
 11
  17.15532
 21
  41.91907
 31
    .00000
  0
LINE
  8
LAYE
 10
  17.49330
 20
  41.55060
 30
    .00000
 11
  17.64341
 21
  42.02753
 31
    .00000
  0
LINE
  8
LAYE
 10
   3.03210
 20
  42.23180
 30
    .00000
 11
   3.53210
 21
  41.63180
 31
    .00000
  0
LINE
  8
LAYE
 10
   3.53210
 20
  41.63180
 30
    .00000
 11
   3.06284
 21
  41.80440
 31
    .00000
  0
LINE
  8
LAYE
 10
   3.53210
 20
  41.63180
 30
    .00000
 11
   3.44695
 21
  42.12450
 31
    .00000
  0
LINE
  8
LAYE
 10
   7.85080
 20
  42.22270
 30
    .00000
 11
   8.35080
 21
  41.32270
 31
    .00000
  0
LINE
  8
LAYE
 10
   8.35080
 20
  41.32270
 30
    .00000
 11
   7.92197
 21
  41.57981
 31
    .00000
  0
LINE
  8
LAYE
 10
   8.35080
 20
  41.32270
 30
    .00000
 11
   8.35905
 21
  41.82263
 31
    .00000
  0
LINE
  8
LAYE
 10
  11.13820
 20
  42.23860
 30
    .00000
 11
  11.43820
 21
  41.33860
 31
    .00000
  0
LINE
  8
LAYE
 10
  11.43820
 20
  41.33860
 30
    .00000
 11
  11.06410
 21
  41.67033
 31
    .00000
  0
LINE
  8
LAYE
 10
  11.43820
 20
  41.33860
 30
    .00000
 11
  11.53844
 21
  41.82845
 31
    .00000
  0
LINE
  8
LAYE
 10
   -.31980
 20
  23.82630
 30
    .00000
 11
    .28020
 21
  23.32630
 31
    .00000
  0
LINE
  8
LAYE
 10
    .28020
 20
  23.32630
 30
    .00000
 11
   -.21250
 21
  23.41145
 31
    .00000
  0
LINE
  8
LAYE
 10
    .28020
 20
  23.32630
 30
    .00000
 11
    .10760
 21
  23.79556
 31
    .00000
  0
LINE
  8
LAYE
 10
   -.00330
 20
    .00110
 30
    .00000
 11
    .59670
 21
    .50110
 31
    .00000
  0
LINE
  8
LAYE
 10
    .59670
 20
    .50110
 30
    .00000
 11
    .42410
 21
    .03184
 31
    .00000
  0
LINE
  8
LAYE
 10
    .59670
 20
    .50110
 30
    .00000
 11
    .10400
 21
    .41595
 31
    .00000
  0
ENDSEC
  0
EOF
