  0
SECTION
  2
ENTITIES
  0
LINE
  8
LAYER
 10
        -.19
 20
        -.17
 30
         .00
 11
        -.19
 21
        -.17
 31
         .00
  0
LINE
  8
LAYER
 10
        -.19
 20
        -.17
 30
         .00
 11
        -.19
 21
        -.17
 31
         .00
  0
LINE
  8
LAYER
 10
        -.19
 20
        -.17
 30
         .00
 11
        -.18
 21
        -.17
 31
         .00
  0
LINE
  8
LAYER
 10
        -.18
 20
        -.17
 30
         .00
 11
        -.17
 21
        -.18
 31
         .00
  0
LINE
  8
LAYER
 10
        -.17
 20
        -.18
 30
         .00
 11
        -.16
 21
        -.18
 31
         .00
  0
LINE
  8
LAYER
 10
        -.16
 20
        -.18
 30
         .00
 11
        -.15
 21
        -.18
 31
         .00
  0
LINE
  8
LAYER
 10
        -.15
 20
        -.18
 30
         .00
 11
        -.14
 21
        -.17
 31
         .00
  0
LINE
  8
LAYER
 10
        -.14
 20
        -.17
 30
         .00
 11
        -.13
 21
        -.17
 31
         .00
  0
LINE
  8
LAYER
 10
        -.13
 20
        -.17
 30
         .00
 11
        -.11
 21
        -.16
 31
         .00
  0
LINE
  8
LAYER
 10
        -.11
 20
        -.16
 30
         .00
 11
        -.10
 21
        -.16
 31
         .00
  0
LINE
  8
LAYER
 10
        -.10
 20
        -.16
 30
         .00
 11
        -.08
 21
        -.15
 31
         .00
  0
LINE
  8
LAYER
 10
        -.08
 20
        -.15
 30
         .00
 11
        -.07
 21
        -.14
 31
         .00
  0
LINE
  8
LAYER
 10
        -.07
 20
        -.14
 30
         .00
 11
        -.05
 21
        -.13
 31
         .00
  0
LINE
  8
LAYER
 10
        -.05
 20
        -.13
 30
         .00
 11
        -.03
 21
        -.12
 31
         .00
  0
LINE
  8
LAYER
 10
        -.03
 20
        -.12
 30
         .00
 11
        -.02
 21
        -.11
 31
         .00
  0
LINE
  8
LAYER
 10
        -.02
 20
        -.11
 30
         .00
 11
         .00
 21
        -.10
 31
         .00
  0
LINE
  8
LAYER
 10
         .00
 20
        -.10
 30
         .00
 11
         .02
 21
        -.09
 31
         .00
  0
LINE
  8
LAYER
 10
         .02
 20
        -.09
 30
         .00
 11
         .03
 21
        -.07
 31
         .00
  0
LINE
  8
LAYER
 10
         .03
 20
        -.07
 30
         .00
 11
         .05
 21
        -.06
 31
         .00
  0
LINE
  8
LAYER
 10
         .05
 20
        -.06
 30
         .00
 11
         .07
 21
        -.04
 31
         .00
  0
LINE
  8
LAYER
 10
         .07
 20
        -.04
 30
         .00
 11
         .08
 21
        -.03
 31
         .00
  0
LINE
  8
LAYER
 10
         .08
 20
        -.03
 30
         .00
 11
         .10
 21
        -.01
 31
         .00
  0
LINE
  8
LAYER
 10
         .10
 20
        -.01
 30
         .00
 11
         .11
 21
         .00
 31
         .00
  0
LINE
  8
LAYER
 10
         .11
 20
         .00
 30
         .00
 11
         .13
 21
         .02
 31
         .00
  0
LINE
  8
LAYER
 10
         .13
 20
         .02
 30
         .00
 11
         .14
 21
         .03
 31
         .00
  0
LINE
  8
LAYER
 10
         .14
 20
         .03
 30
         .00
 11
         .15
 21
         .05
 31
         .00
  0
LINE
  8
LAYER
 10
         .15
 20
         .05
 30
         .00
 11
         .16
 21
         .06
 31
         .00
  0
LINE
  8
LAYER
 10
         .16
 20
         .06
 30
         .00
 11
         .17
 21
         .08
 31
         .00
  0
LINE
  8
LAYER
 10
         .17
 20
         .08
 30
         .00
 11
         .18
 21
         .09
 31
         .00
  0
LINE
  8
LAYER
 10
         .18
 20
         .09
 30
         .00
 11
         .18
 21
         .10
 31
         .00
  0
LINE
  8
LAYER
 10
         .18
 20
         .10
 30
         .00
 11
         .19
 21
         .12
 31
         .00
  0
LINE
  8
LAYER
 10
         .19
 20
         .12
 30
         .00
 11
         .19
 21
         .13
 31
         .00
  0
LINE
  8
LAYER
 10
         .19
 20
         .13
 30
         .00
 11
         .19
 21
         .14
 31
         .00
  0
LINE
  8
LAYER
 10
         .19
 20
         .14
 30
         .00
 11
         .19
 21
         .15
 31
         .00
  0
LINE
  8
LAYER
 10
         .19
 20
         .15
 30
         .00
 11
         .19
 21
         .16
 31
         .00
  0
LINE
  8
LAYER
 10
         .19
 20
         .16
 30
         .00
 11
         .19
 21
         .16
 31
         .00
  0
LINE
  8
LAYER
 10
         .19
 20
         .16
 30
         .00
 11
         .19
 21
         .17
 31
         .00
  0
LINE
  8
LAYER
 10
         .19
 20
         .17
 30
         .00
 11
         .18
 21
         .17
 31
         .00
  0
LINE
  8
LAYER
 10
         .18
 20
         .17
 30
         .00
 11
         .17
 21
         .18
 31
         .00
  0
LINE
  8
LAYER
 10
         .17
 20
         .18
 30
         .00
 11
         .17
 21
         .18
 31
         .00
  0
LINE
  8
LAYER
 10
         .17
 20
         .18
 30
         .00
 11
         .16
 21
         .18
 31
         .00
  0
LINE
  8
LAYER
 10
         .16
 20
         .18
 30
         .00
 11
         .15
 21
         .18
 31
         .00
  0
LINE
  8
LAYER
 10
         .15
 20
         .18
 30
         .00
 11
         .13
 21
         .18
 31
         .00
  0
LINE
  8
LAYER
 10
         .13
 20
         .18
 30
         .00
 11
         .12
 21
         .17
 31
         .00
  0
LINE
  8
LAYER
 10
         .12
 20
         .17
 30
         .00
 11
         .11
 21
         .17
 31
         .00
  0
LINE
  8
LAYER
 10
         .11
 20
         .17
 30
         .00
 11
         .09
 21
         .16
 31
         .00
  0
LINE
  8
LAYER
 10
         .09
 20
         .16
 30
         .00
 11
         .08
 21
         .15
 31
         .00
  0
LINE
  8
LAYER
 10
         .08
 20
         .15
 30
         .00
 11
         .06
 21
         .15
 31
         .00
  0
LINE
  8
LAYER
 10
         .06
 20
         .15
 30
         .00
 11
         .05
 21
         .14
 31
         .00
  0
LINE
  8
LAYER
 10
         .05
 20
         .14
 30
         .00
 11
         .03
 21
         .13
 31
         .00
  0
LINE
  8
LAYER
 10
         .03
 20
         .13
 30
         .00
 11
         .01
 21
         .12
 31
         .00
  0
LINE
  8
LAYER
 10
         .01
 20
         .12
 30
         .00
 11
        -.01
 21
         .10
 31
         .00
  0
LINE
  8
LAYER
 10
        -.01
 20
         .10
 30
         .00
 11
        -.02
 21
         .09
 31
         .00
  0
LINE
  8
LAYER
 10
        -.02
 20
         .09
 30
         .00
 11
        -.04
 21
         .08
 31
         .00
  0
LINE
  8
LAYER
 10
        -.04
 20
         .08
 30
         .00
 11
        -.06
 21
         .06
 31
         .00
  0
LINE
  8
LAYER
 10
        -.06
 20
         .06
 30
         .00
 11
        -.07
 21
         .05
 31
         .00
  0
LINE
  8
LAYER
 10
        -.07
 20
         .05
 30
         .00
 11
        -.09
 21
         .03
 31
         .00
  0
LINE
  8
LAYER
 10
        -.09
 20
         .03
 30
         .00
 11
        -.10
 21
         .02
 31
         .00
  0
LINE
  8
LAYER
 10
        -.10
 20
         .02
 30
         .00
 11
        -.12
 21
         .00
 31
         .00
  0
LINE
  8
LAYER
 10
        -.12
 20
         .00
 30
         .00
 11
        -.13
 21
        -.01
 31
         .00
  0
LINE
  8
LAYER
 10
        -.13
 20
        -.01
 30
         .00
 11
        -.14
 21
        -.03
 31
         .00
  0
LINE
  8
LAYER
 10
        -.14
 20
        -.03
 30
         .00
 11
        -.15
 21
        -.04
 31
         .00
  0
LINE
  8
LAYER
 10
        -.15
 20
        -.04
 30
         .00
 11
        -.16
 21
        -.06
 31
         .00
  0
LINE
  8
LAYER
 10
        -.16
 20
        -.06
 30
         .00
 11
        -.17
 21
        -.07
 31
         .00
  0
LINE
  8
LAYER
 10
        -.17
 20
        -.07
 30
         .00
 11
        -.18
 21
        -.09
 31
         .00
  0
LINE
  8
LAYER
 10
        -.18
 20
        -.09
 30
         .00
 11
        -.19
 21
        -.10
 31
         .00
  0
LINE
  8
LAYER
 10
        -.19
 20
        -.10
 30
         .00
 11
        -.19
 21
        -.11
 31
         .00
  0
LINE
  8
LAYER
 10
        -.19
 20
        -.11
 30
         .00
 11
        -.20
 21
        -.12
 31
         .00
  0
LINE
  8
LAYER
 10
        -.20
 20
        -.12
 30
         .00
 11
        -.20
 21
        -.13
 31
         .00
  0
LINE
  8
LAYER
 10
        -.20
 20
        -.13
 30
         .00
 11
        -.20
 21
        -.14
 31
         .00
  0
LINE
  8
LAYER
 10
        -.20
 20
        -.14
 30
         .00
 11
        -.20
 21
        -.15
 31
         .00
  0
LINE
  8
LAYER
 10
        -.20
 20
        -.15
 30
         .00
 11
        -.19
 21
        -.16
 31
         .00
  0
LINE
  8
LAYER
 10
        -.19
 20
        -.16
 30
         .00
 11
        -.19
 21
        -.17
 31
         .00
  0
LINE
  8
LAYER
 10
       17.24
 20
       -2.07
 30
         .00
 11
       17.24
 21
       -2.07
 31
         .00
  0
LINE
  8
LAYER
 10
       17.24
 20
       -2.07
 30
         .00
 11
       17.24
 21
       -2.06
 31
         .00
  0
LINE
  8
LAYER
 10
       17.24
 20
       -2.06
 30
         .00
 11
       17.24
 21
       -2.05
 31
         .00
  0
LINE
  8
LAYER
 10
       17.24
 20
       -2.05
 30
         .00
 11
       17.24
 21
       -2.05
 31
         .00
  0
LINE
  8
LAYER
 10
       17.24
 20
       -2.05
 30
         .00
 11
       17.23
 21
       -2.04
 31
         .00
  0
LINE
  8
LAYER
 10
       17.23
 20
       -2.04
 30
         .00
 11
       17.23
 21
       -2.03
 31
         .00
  0
LINE
  8
LAYER
 10
       17.23
 20
       -2.03
 30
         .00
 11
       17.22
 21
       -2.02
 31
         .00
  0
LINE
  8
LAYER
 10
       17.22
 20
       -2.02
 30
         .00
 11
       17.21
 21
       -2.02
 31
         .00
  0
LINE
  8
LAYER
 10
       17.21
 20
       -2.02
 30
         .00
 11
       17.20
 21
       -2.01
 31
         .00
  0
LINE
  8
LAYER
 10
       17.20
 20
       -2.01
 30
         .00
 11
       17.19
 21
       -2.00
 31
         .00
  0
LINE
  8
LAYER
 10
       17.19
 20
       -2.00
 30
         .00
 11
       17.18
 21
       -2.00
 31
         .00
  0
LINE
  8
LAYER
 10
       17.18
 20
       -2.00
 30
         .00
 11
       17.17
 21
       -1.99
 31
         .00
  0
LINE
  8
LAYER
 10
       17.17
 20
       -1.99
 30
         .00
 11
       17.15
 21
       -1.98
 31
         .00
  0
LINE
  8
LAYER
 10
       17.15
 20
       -1.98
 30
         .00
 11
       17.14
 21
       -1.98
 31
         .00
  0
LINE
  8
LAYER
 10
       17.14
 20
       -1.98
 30
         .00
 11
       17.12
 21
       -1.97
 31
         .00
  0
LINE
  8
LAYER
 10
       17.12
 20
       -1.97
 30
         .00
 11
       17.11
 21
       -1.97
 31
         .00
  0
LINE
  8
LAYER
 10
       17.11
 20
       -1.97
 30
         .00
 11
       17.09
 21
       -1.96
 31
         .00
  0
LINE
  8
LAYER
 10
       17.09
 20
       -1.96
 30
         .00
 11
       17.07
 21
       -1.96
 31
         .00
  0
LINE
  8
LAYER
 10
       17.07
 20
       -1.96
 30
         .00
 11
       17.06
 21
       -1.95
 31
         .00
  0
LINE
  8
LAYER
 10
       17.06
 20
       -1.95
 30
         .00
 11
       17.04
 21
       -1.95
 31
         .00
  0
LINE
  8
LAYER
 10
       17.04
 20
       -1.95
 30
         .00
 11
       17.02
 21
       -1.95
 31
         .00
  0
LINE
  8
LAYER
 10
       17.02
 20
       -1.95
 30
         .00
 11
       17.01
 21
       -1.94
 31
         .00
  0
LINE
  8
LAYER
 10
       17.01
 20
       -1.94
 30
         .00
 11
       16.99
 21
       -1.94
 31
         .00
  0
LINE
  8
LAYER
 10
       16.99
 20
       -1.94
 30
         .00
 11
       16.97
 21
       -1.94
 31
         .00
  0
LINE
  8
LAYER
 10
       16.97
 20
       -1.94
 30
         .00
 11
       16.96
 21
       -1.94
 31
         .00
  0
LINE
  8
LAYER
 10
       16.96
 20
       -1.94
 30
         .00
 11
       16.94
 21
       -1.94
 31
         .00
  0
LINE
  8
LAYER
 10
       16.94
 20
       -1.94
 30
         .00
 11
       16.93
 21
       -1.94
 31
         .00
  0
LINE
  8
LAYER
 10
       16.93
 20
       -1.94
 30
         .00
 11
       16.91
 21
       -1.95
 31
         .00
  0
LINE
  8
LAYER
 10
       16.91
 20
       -1.95
 30
         .00
 11
       16.90
 21
       -1.95
 31
         .00
  0
LINE
  8
LAYER
 10
       16.90
 20
       -1.95
 30
         .00
 11
       16.89
 21
       -1.95
 31
         .00
  0
LINE
  8
LAYER
 10
       16.89
 20
       -1.95
 30
         .00
 11
       16.88
 21
       -1.95
 31
         .00
  0
LINE
  8
LAYER
 10
       16.88
 20
       -1.95
 30
         .00
 11
       16.87
 21
       -1.96
 31
         .00
  0
LINE
  8
LAYER
 10
       16.87
 20
       -1.96
 30
         .00
 11
       16.86
 21
       -1.96
 31
         .00
  0
LINE
  8
LAYER
 10
       16.86
 20
       -1.96
 30
         .00
 11
       16.86
 21
       -1.97
 31
         .00
  0
LINE
  8
LAYER
 10
       16.86
 20
       -1.97
 30
         .00
 11
       16.85
 21
       -1.97
 31
         .00
  0
LINE
  8
LAYER
 10
       16.85
 20
       -1.97
 30
         .00
 11
       16.85
 21
       -1.98
 31
         .00
  0
LINE
  8
LAYER
 10
       16.85
 20
       -1.98
 30
         .00
 11
       16.85
 21
       -1.99
 31
         .00
  0
LINE
  8
LAYER
 10
       16.85
 20
       -1.99
 30
         .00
 11
       16.85
 21
       -1.99
 31
         .00
  0
LINE
  8
LAYER
 10
       16.85
 20
       -1.99
 30
         .00
 11
       16.85
 21
       -2.00
 31
         .00
  0
LINE
  8
LAYER
 10
       16.85
 20
       -2.00
 30
         .00
 11
       16.85
 21
       -2.01
 31
         .00
  0
LINE
  8
LAYER
 10
       16.85
 20
       -2.01
 30
         .00
 11
       16.85
 21
       -2.01
 31
         .00
  0
LINE
  8
LAYER
 10
       16.85
 20
       -2.01
 30
         .00
 11
       16.86
 21
       -2.02
 31
         .00
  0
LINE
  8
LAYER
 10
       16.86
 20
       -2.02
 30
         .00
 11
       16.87
 21
       -2.03
 31
         .00
  0
LINE
  8
LAYER
 10
       16.87
 20
       -2.03
 30
         .00
 11
       16.87
 21
       -2.04
 31
         .00
  0
LINE
  8
LAYER
 10
       16.87
 20
       -2.04
 30
         .00
 11
       16.88
 21
       -2.04
 31
         .00
  0
LINE
  8
LAYER
 10
       16.88
 20
       -2.04
 30
         .00
 11
       16.89
 21
       -2.05
 31
         .00
  0
LINE
  8
LAYER
 10
       16.89
 20
       -2.05
 30
         .00
 11
       16.91
 21
       -2.06
 31
         .00
  0
LINE
  8
LAYER
 10
       16.91
 20
       -2.06
 30
         .00
 11
       16.92
 21
       -2.06
 31
         .00
  0
LINE
  8
LAYER
 10
       16.92
 20
       -2.06
 30
         .00
 11
       16.93
 21
       -2.07
 31
         .00
  0
LINE
  8
LAYER
 10
       16.93
 20
       -2.07
 30
         .00
 11
       16.95
 21
       -2.08
 31
         .00
  0
LINE
  8
LAYER
 10
       16.95
 20
       -2.08
 30
         .00
 11
       16.96
 21
       -2.08
 31
         .00
  0
LINE
  8
LAYER
 10
       16.96
 20
       -2.08
 30
         .00
 11
       16.98
 21
       -2.09
 31
         .00
  0
LINE
  8
LAYER
 10
       16.98
 20
       -2.09
 30
         .00
 11
       16.99
 21
       -2.09
 31
         .00
  0
LINE
  8
LAYER
 10
       16.99
 20
       -2.09
 30
         .00
 11
       17.01
 21
       -2.09
 31
         .00
  0
LINE
  8
LAYER
 10
       17.01
 20
       -2.09
 30
         .00
 11
       17.03
 21
       -2.10
 31
         .00
  0
LINE
  8
LAYER
 10
       17.03
 20
       -2.10
 30
         .00
 11
       17.05
 21
       -2.10
 31
         .00
  0
LINE
  8
LAYER
 10
       17.05
 20
       -2.10
 30
         .00
 11
       17.06
 21
       -2.10
 31
         .00
  0
LINE
  8
LAYER
 10
       17.06
 20
       -2.10
 30
         .00
 11
       17.08
 21
       -2.11
 31
         .00
  0
LINE
  8
LAYER
 10
       17.08
 20
       -2.11
 30
         .00
 11
       17.10
 21
       -2.11
 31
         .00
  0
LINE
  8
LAYER
 10
       17.10
 20
       -2.11
 30
         .00
 11
       17.11
 21
       -2.11
 31
         .00
  0
LINE
  8
LAYER
 10
       17.11
 20
       -2.11
 30
         .00
 11
       17.13
 21
       -2.11
 31
         .00
  0
LINE
  8
LAYER
 10
       17.13
 20
       -2.11
 30
         .00
 11
       17.14
 21
       -2.11
 31
         .00
  0
LINE
  8
LAYER
 10
       17.14
 20
       -2.11
 30
         .00
 11
       17.16
 21
       -2.11
 31
         .00
  0
LINE
  8
LAYER
 10
       17.16
 20
       -2.11
 30
         .00
 11
       17.17
 21
       -2.11
 31
         .00
  0
LINE
  8
LAYER
 10
       17.17
 20
       -2.11
 30
         .00
 11
       17.18
 21
       -2.10
 31
         .00
  0
LINE
  8
LAYER
 10
       17.18
 20
       -2.10
 30
         .00
 11
       17.19
 21
       -2.10
 31
         .00
  0
LINE
  8
LAYER
 10
       17.19
 20
       -2.10
 30
         .00
 11
       17.21
 21
       -2.10
 31
         .00
  0
LINE
  8
LAYER
 10
       17.21
 20
       -2.10
 30
         .00
 11
       17.21
 21
       -2.09
 31
         .00
  0
LINE
  8
LAYER
 10
       17.21
 20
       -2.09
 30
         .00
 11
       17.22
 21
       -2.09
 31
         .00
  0
LINE
  8
LAYER
 10
       17.22
 20
       -2.09
 30
         .00
 11
       17.23
 21
       -2.08
 31
         .00
  0
LINE
  8
LAYER
 10
       17.23
 20
       -2.08
 30
         .00
 11
       17.23
 21
       -2.08
 31
         .00
  0
LINE
  8
LAYER
 10
       17.23
 20
       -2.08
 30
         .00
 11
       17.24
 21
       -2.07
 31
         .00
  0
LINE
  8
LAYER
 10
       17.24
 20
       -2.07
 30
         .00
 11
       17.24
 21
       -2.07
 31
         .00
  0
LINE
  8
LAYER
 10
        -.12
 20
       42.34
 30
         .00
 11
        -.12
 21
       42.34
 31
         .00
  0
LINE
  8
LAYER
 10
        -.12
 20
       42.34
 30
         .00
 11
        -.12
 21
       42.35
 31
         .00
  0
LINE
  8
LAYER
 10
        -.12
 20
       42.35
 30
         .00
 11
        -.12
 21
       42.37
 31
         .00
  0
LINE
  8
LAYER
 10
        -.12
 20
       42.37
 30
         .00
 11
        -.13
 21
       42.39
 31
         .00
  0
LINE
  8
LAYER
 10
        -.13
 20
       42.39
 30
         .00
 11
        -.14
 21
       42.41
 31
         .00
  0
LINE
  8
LAYER
 10
        -.14
 20
       42.41
 30
         .00
 11
        -.15
 21
       42.43
 31
         .00
  0
LINE
  8
LAYER
 10
        -.15
 20
       42.43
 30
         .00
 11
        -.17
 21
       42.45
 31
         .00
  0
LINE
  8
LAYER
 10
        -.17
 20
       42.45
 30
         .00
 11
        -.19
 21
       42.47
 31
         .00
  0
LINE
  8
LAYER
 10
        -.19
 20
       42.47
 30
         .00
 11
        -.21
 21
       42.49
 31
         .00
  0
LINE
  8
LAYER
 10
        -.21
 20
       42.49
 30
         .00
 11
        -.24
 21
       42.51
 31
         .00
  0
LINE
  8
LAYER
 10
        -.24
 20
       42.51
 30
         .00
 11
        -.27
 21
       42.53
 31
         .00
  0
LINE
  8
LAYER
 10
        -.27
 20
       42.53
 30
         .00
 11
        -.30
 21
       42.55
 31
         .00
  0
LINE
  8
LAYER
 10
        -.30
 20
       42.55
 30
         .00
 11
        -.33
 21
       42.57
 31
         .00
  0
LINE
  8
LAYER
 10
        -.33
 20
       42.57
 30
         .00
 11
        -.37
 21
       42.58
 31
         .00
  0
LINE
  8
LAYER
 10
        -.37
 20
       42.58
 30
         .00
 11
        -.41
 21
       42.60
 31
         .00
  0
LINE
  8
LAYER
 10
        -.41
 20
       42.60
 30
         .00
 11
        -.45
 21
       42.61
 31
         .00
  0
LINE
  8
LAYER
 10
        -.45
 20
       42.61
 30
         .00
 11
        -.49
 21
       42.63
 31
         .00
  0
LINE
  8
LAYER
 10
        -.49
 20
       42.63
 30
         .00
 11
        -.53
 21
       42.64
 31
         .00
  0
LINE
  8
LAYER
 10
        -.53
 20
       42.64
 30
         .00
 11
        -.58
 21
       42.65
 31
         .00
  0
LINE
  8
LAYER
 10
        -.58
 20
       42.65
 30
         .00
 11
        -.62
 21
       42.66
 31
         .00
  0
LINE
  8
LAYER
 10
        -.62
 20
       42.66
 30
         .00
 11
        -.66
 21
       42.67
 31
         .00
  0
LINE
  8
LAYER
 10
        -.66
 20
       42.67
 30
         .00
 11
        -.71
 21
       42.67
 31
         .00
  0
LINE
  8
LAYER
 10
        -.71
 20
       42.67
 30
         .00
 11
        -.75
 21
       42.67
 31
         .00
  0
LINE
  8
LAYER
 10
        -.75
 20
       42.67
 30
         .00
 11
        -.79
 21
       42.68
 31
         .00
  0
LINE
  8
LAYER
 10
        -.79
 20
       42.68
 30
         .00
 11
        -.83
 21
       42.68
 31
         .00
  0
LINE
  8
LAYER
 10
        -.83
 20
       42.68
 30
         .00
 11
        -.87
 21
       42.67
 31
         .00
  0
LINE
  8
LAYER
 10
        -.87
 20
       42.67
 30
         .00
 11
        -.91
 21
       42.67
 31
         .00
  0
LINE
  8
LAYER
 10
        -.91
 20
       42.67
 30
         .00
 11
        -.94
 21
       42.66
 31
         .00
  0
LINE
  8
LAYER
 10
        -.94
 20
       42.66
 30
         .00
 11
        -.97
 21
       42.66
 31
         .00
  0
LINE
  8
LAYER
 10
        -.97
 20
       42.66
 30
         .00
 11
       -1.00
 21
       42.65
 31
         .00
  0
LINE
  8
LAYER
 10
       -1.00
 20
       42.65
 30
         .00
 11
       -1.03
 21
       42.64
 31
         .00
  0
LINE
  8
LAYER
 10
       -1.03
 20
       42.64
 30
         .00
 11
       -1.05
 21
       42.63
 31
         .00
  0
LINE
  8
LAYER
 10
       -1.05
 20
       42.63
 30
         .00
 11
       -1.07
 21
       42.61
 31
         .00
  0
LINE
  8
LAYER
 10
       -1.07
 20
       42.61
 30
         .00
 11
       -1.09
 21
       42.60
 31
         .00
  0
LINE
  8
LAYER
 10
       -1.09
 20
       42.60
 30
         .00
 11
       -1.10
 21
       42.58
 31
         .00
  0
LINE
  8
LAYER
 10
       -1.10
 20
       42.58
 30
         .00
 11
       -1.11
 21
       42.57
 31
         .00
  0
LINE
  8
LAYER
 10
       -1.11
 20
       42.57
 30
         .00
 11
       -1.12
 21
       42.55
 31
         .00
  0
LINE
  8
LAYER
 10
       -1.12
 20
       42.55
 30
         .00
 11
       -1.12
 21
       42.53
 31
         .00
  0
LINE
  8
LAYER
 10
       -1.12
 20
       42.53
 30
         .00
 11
       -1.12
 21
       42.51
 31
         .00
  0
LINE
  8
LAYER
 10
       -1.12
 20
       42.51
 30
         .00
 11
       -1.11
 21
       42.49
 31
         .00
  0
LINE
  8
LAYER
 10
       -1.11
 20
       42.49
 30
         .00
 11
       -1.10
 21
       42.47
 31
         .00
  0
LINE
  8
LAYER
 10
       -1.10
 20
       42.47
 30
         .00
 11
       -1.09
 21
       42.45
 31
         .00
  0
LINE
  8
LAYER
 10
       -1.09
 20
       42.45
 30
         .00
 11
       -1.07
 21
       42.43
 31
         .00
  0
LINE
  8
LAYER
 10
       -1.07
 20
       42.43
 30
         .00
 11
       -1.05
 21
       42.41
 31
         .00
  0
LINE
  8
LAYER
 10
       -1.05
 20
       42.41
 30
         .00
 11
       -1.03
 21
       42.39
 31
         .00
  0
LINE
  8
LAYER
 10
       -1.03
 20
       42.39
 30
         .00
 11
       -1.01
 21
       42.37
 31
         .00
  0
LINE
  8
LAYER
 10
       -1.01
 20
       42.37
 30
         .00
 11
        -.98
 21
       42.35
 31
         .00
  0
LINE
  8
LAYER
 10
        -.98
 20
       42.35
 30
         .00
 11
        -.94
 21
       42.33
 31
         .00
  0
LINE
  8
LAYER
 10
        -.94
 20
       42.33
 30
         .00
 11
        -.91
 21
       42.32
 31
         .00
  0
LINE
  8
LAYER
 10
        -.91
 20
       42.32
 30
         .00
 11
        -.87
 21
       42.30
 31
         .00
  0
LINE
  8
LAYER
 10
        -.87
 20
       42.30
 30
         .00
 11
        -.83
 21
       42.29
 31
         .00
  0
LINE
  8
LAYER
 10
        -.83
 20
       42.29
 30
         .00
 11
        -.79
 21
       42.27
 31
         .00
  0
LINE
  8
LAYER
 10
        -.79
 20
       42.27
 30
         .00
 11
        -.75
 21
       42.26
 31
         .00
  0
LINE
  8
LAYER
 10
        -.75
 20
       42.26
 30
         .00
 11
        -.71
 21
       42.25
 31
         .00
  0
LINE
  8
LAYER
 10
        -.71
 20
       42.25
 30
         .00
 11
        -.67
 21
       42.24
 31
         .00
  0
LINE
  8
LAYER
 10
        -.67
 20
       42.24
 30
         .00
 11
        -.62
 21
       42.23
 31
         .00
  0
LINE
  8
LAYER
 10
        -.62
 20
       42.23
 30
         .00
 11
        -.58
 21
       42.22
 31
         .00
  0
LINE
  8
LAYER
 10
        -.58
 20
       42.22
 30
         .00
 11
        -.54
 21
       42.22
 31
         .00
  0
LINE
  8
LAYER
 10
        -.54
 20
       42.22
 30
         .00
 11
        -.49
 21
       42.21
 31
         .00
  0
LINE
  8
LAYER
 10
        -.49
 20
       42.21
 30
         .00
 11
        -.45
 21
       42.21
 31
         .00
  0
LINE
  8
LAYER
 10
        -.45
 20
       42.21
 30
         .00
 11
        -.41
 21
       42.21
 31
         .00
  0
LINE
  8
LAYER
 10
        -.41
 20
       42.21
 30
         .00
 11
        -.37
 21
       42.21
 31
         .00
  0
LINE
  8
LAYER
 10
        -.37
 20
       42.21
 30
         .00
 11
        -.34
 21
       42.22
 31
         .00
  0
LINE
  8
LAYER
 10
        -.34
 20
       42.22
 30
         .00
 11
        -.30
 21
       42.22
 31
         .00
  0
LINE
  8
LAYER
 10
        -.30
 20
       42.22
 30
         .00
 11
        -.27
 21
       42.23
 31
         .00
  0
LINE
  8
LAYER
 10
        -.27
 20
       42.23
 30
         .00
 11
        -.24
 21
       42.24
 31
         .00
  0
LINE
  8
LAYER
 10
        -.24
 20
       42.24
 30
         .00
 11
        -.21
 21
       42.25
 31
         .00
  0
LINE
  8
LAYER
 10
        -.21
 20
       42.25
 30
         .00
 11
        -.19
 21
       42.26
 31
         .00
  0
LINE
  8
LAYER
 10
        -.19
 20
       42.26
 30
         .00
 11
        -.17
 21
       42.27
 31
         .00
  0
LINE
  8
LAYER
 10
        -.17
 20
       42.27
 30
         .00
 11
        -.15
 21
       42.29
 31
         .00
  0
LINE
  8
LAYER
 10
        -.15
 20
       42.29
 30
         .00
 11
        -.14
 21
       42.30
 31
         .00
  0
LINE
  8
LAYER
 10
        -.14
 20
       42.30
 30
         .00
 11
        -.13
 21
       42.32
 31
         .00
  0
LINE
  8
LAYER
 10
        -.13
 20
       42.32
 30
         .00
 11
        -.12
 21
       42.34
 31
         .00
  0
LINE
  8
LAYER
 10
        3.98
 20
       42.35
 30
         .00
 11
        3.98
 21
       42.35
 31
         .00
  0
LINE
  8
LAYER
 10
        3.98
 20
       42.35
 30
         .00
 11
        3.98
 21
       42.37
 31
         .00
  0
LINE
  8
LAYER
 10
        3.98
 20
       42.37
 30
         .00
 11
        3.98
 21
       42.39
 31
         .00
  0
LINE
  8
LAYER
 10
        3.98
 20
       42.39
 30
         .00
 11
        3.97
 21
       42.41
 31
         .00
  0
LINE
  8
LAYER
 10
        3.97
 20
       42.41
 30
         .00
 11
        3.96
 21
       42.42
 31
         .00
  0
LINE
  8
LAYER
 10
        3.96
 20
       42.42
 30
         .00
 11
        3.95
 21
       42.44
 31
         .00
  0
LINE
  8
LAYER
 10
        3.95
 20
       42.44
 30
         .00
 11
        3.93
 21
       42.46
 31
         .00
  0
LINE
  8
LAYER
 10
        3.93
 20
       42.46
 30
         .00
 11
        3.92
 21
       42.48
 31
         .00
  0
LINE
  8
LAYER
 10
        3.92
 20
       42.48
 30
         .00
 11
        3.90
 21
       42.49
 31
         .00
  0
LINE
  8
LAYER
 10
        3.90
 20
       42.49
 30
         .00
 11
        3.87
 21
       42.51
 31
         .00
  0
LINE
  8
LAYER
 10
        3.87
 20
       42.51
 30
         .00
 11
        3.85
 21
       42.53
 31
         .00
  0
LINE
  8
LAYER
 10
        3.85
 20
       42.53
 30
         .00
 11
        3.82
 21
       42.54
 31
         .00
  0
LINE
  8
LAYER
 10
        3.82
 20
       42.54
 30
         .00
 11
        3.79
 21
       42.55
 31
         .00
  0
LINE
  8
LAYER
 10
        3.79
 20
       42.55
 30
         .00
 11
        3.76
 21
       42.57
 31
         .00
  0
LINE
  8
LAYER
 10
        3.76
 20
       42.57
 30
         .00
 11
        3.72
 21
       42.58
 31
         .00
  0
LINE
  8
LAYER
 10
        3.72
 20
       42.58
 30
         .00
 11
        3.69
 21
       42.59
 31
         .00
  0
LINE
  8
LAYER
 10
        3.69
 20
       42.59
 30
         .00
 11
        3.65
 21
       42.59
 31
         .00
  0
LINE
  8
LAYER
 10
        3.65
 20
       42.59
 30
         .00
 11
        3.62
 21
       42.60
 31
         .00
  0
LINE
  8
LAYER
 10
        3.62
 20
       42.60
 30
         .00
 11
        3.58
 21
       42.60
 31
         .00
  0
LINE
  8
LAYER
 10
        3.58
 20
       42.60
 30
         .00
 11
        3.55
 21
       42.61
 31
         .00
  0
LINE
  8
LAYER
 10
        3.55
 20
       42.61
 30
         .00
 11
        3.51
 21
       42.61
 31
         .00
  0
LINE
  8
LAYER
 10
        3.51
 20
       42.61
 30
         .00
 11
        3.47
 21
       42.61
 31
         .00
  0
LINE
  8
LAYER
 10
        3.47
 20
       42.61
 30
         .00
 11
        3.44
 21
       42.61
 31
         .00
  0
LINE
  8
LAYER
 10
        3.44
 20
       42.61
 30
         .00
 11
        3.40
 21
       42.60
 31
         .00
  0
LINE
  8
LAYER
 10
        3.40
 20
       42.60
 30
         .00
 11
        3.37
 21
       42.60
 31
         .00
  0
LINE
  8
LAYER
 10
        3.37
 20
       42.60
 30
         .00
 11
        3.34
 21
       42.59
 31
         .00
  0
LINE
  8
LAYER
 10
        3.34
 20
       42.59
 30
         .00
 11
        3.31
 21
       42.58
 31
         .00
  0
LINE
  8
LAYER
 10
        3.31
 20
       42.58
 30
         .00
 11
        3.28
 21
       42.57
 31
         .00
  0
LINE
  8
LAYER
 10
        3.28
 20
       42.57
 30
         .00
 11
        3.25
 21
       42.56
 31
         .00
  0
LINE
  8
LAYER
 10
        3.25
 20
       42.56
 30
         .00
 11
        3.23
 21
       42.55
 31
         .00
  0
LINE
  8
LAYER
 10
        3.23
 20
       42.55
 30
         .00
 11
        3.21
 21
       42.54
 31
         .00
  0
LINE
  8
LAYER
 10
        3.21
 20
       42.54
 30
         .00
 11
        3.19
 21
       42.52
 31
         .00
  0
LINE
  8
LAYER
 10
        3.19
 20
       42.52
 30
         .00
 11
        3.17
 21
       42.51
 31
         .00
  0
LINE
  8
LAYER
 10
        3.17
 20
       42.51
 30
         .00
 11
        3.16
 21
       42.49
 31
         .00
  0
LINE
  8
LAYER
 10
        3.16
 20
       42.49
 30
         .00
 11
        3.15
 21
       42.48
 31
         .00
  0
LINE
  8
LAYER
 10
        3.15
 20
       42.48
 30
         .00
 11
        3.14
 21
       42.46
 31
         .00
  0
LINE
  8
LAYER
 10
        3.14
 20
       42.46
 30
         .00
 11
        3.14
 21
       42.44
 31
         .00
  0
LINE
  8
LAYER
 10
        3.14
 20
       42.44
 30
         .00
 11
        3.14
 21
       42.42
 31
         .00
  0
LINE
  8
LAYER
 10
        3.14
 20
       42.42
 30
         .00
 11
        3.14
 21
       42.40
 31
         .00
  0
LINE
  8
LAYER
 10
        3.14
 20
       42.40
 30
         .00
 11
        3.15
 21
       42.38
 31
         .00
  0
LINE
  8
LAYER
 10
        3.15
 20
       42.38
 30
         .00
 11
        3.16
 21
       42.37
 31
         .00
  0
LINE
  8
LAYER
 10
        3.16
 20
       42.37
 30
         .00
 11
        3.17
 21
       42.35
 31
         .00
  0
LINE
  8
LAYER
 10
        3.17
 20
       42.35
 30
         .00
 11
        3.19
 21
       42.33
 31
         .00
  0
LINE
  8
LAYER
 10
        3.19
 20
       42.33
 30
         .00
 11
        3.20
 21
       42.31
 31
         .00
  0
LINE
  8
LAYER
 10
        3.20
 20
       42.31
 30
         .00
 11
        3.22
 21
       42.29
 31
         .00
  0
LINE
  8
LAYER
 10
        3.22
 20
       42.29
 30
         .00
 11
        3.25
 21
       42.28
 31
         .00
  0
LINE
  8
LAYER
 10
        3.25
 20
       42.28
 30
         .00
 11
        3.27
 21
       42.26
 31
         .00
  0
LINE
  8
LAYER
 10
        3.27
 20
       42.26
 30
         .00
 11
        3.30
 21
       42.25
 31
         .00
  0
LINE
  8
LAYER
 10
        3.30
 20
       42.25
 30
         .00
 11
        3.33
 21
       42.24
 31
         .00
  0
LINE
  8
LAYER
 10
        3.33
 20
       42.24
 30
         .00
 11
        3.36
 21
       42.22
 31
         .00
  0
LINE
  8
LAYER
 10
        3.36
 20
       42.22
 30
         .00
 11
        3.40
 21
       42.21
 31
         .00
  0
LINE
  8
LAYER
 10
        3.40
 20
       42.21
 30
         .00
 11
        3.43
 21
       42.20
 31
         .00
  0
LINE
  8
LAYER
 10
        3.43
 20
       42.20
 30
         .00
 11
        3.46
 21
       42.20
 31
         .00
  0
LINE
  8
LAYER
 10
        3.46
 20
       42.20
 30
         .00
 11
        3.50
 21
       42.19
 31
         .00
  0
LINE
  8
LAYER
 10
        3.50
 20
       42.19
 30
         .00
 11
        3.54
 21
       42.19
 31
         .00
  0
LINE
  8
LAYER
 10
        3.54
 20
       42.19
 30
         .00
 11
        3.57
 21
       42.18
 31
         .00
  0
LINE
  8
LAYER
 10
        3.57
 20
       42.18
 30
         .00
 11
        3.61
 21
       42.18
 31
         .00
  0
LINE
  8
LAYER
 10
        3.61
 20
       42.18
 30
         .00
 11
        3.65
 21
       42.18
 31
         .00
  0
LINE
  8
LAYER
 10
        3.65
 20
       42.18
 30
         .00
 11
        3.68
 21
       42.18
 31
         .00
  0
LINE
  8
LAYER
 10
        3.68
 20
       42.18
 30
         .00
 11
        3.72
 21
       42.19
 31
         .00
  0
LINE
  8
LAYER
 10
        3.72
 20
       42.19
 30
         .00
 11
        3.75
 21
       42.19
 31
         .00
  0
LINE
  8
LAYER
 10
        3.75
 20
       42.19
 30
         .00
 11
        3.78
 21
       42.20
 31
         .00
  0
LINE
  8
LAYER
 10
        3.78
 20
       42.20
 30
         .00
 11
        3.81
 21
       42.21
 31
         .00
  0
LINE
  8
LAYER
 10
        3.81
 20
       42.21
 30
         .00
 11
        3.84
 21
       42.22
 31
         .00
  0
LINE
  8
LAYER
 10
        3.84
 20
       42.22
 30
         .00
 11
        3.87
 21
       42.23
 31
         .00
  0
LINE
  8
LAYER
 10
        3.87
 20
       42.23
 30
         .00
 11
        3.89
 21
       42.24
 31
         .00
  0
LINE
  8
LAYER
 10
        3.89
 20
       42.24
 30
         .00
 11
        3.91
 21
       42.25
 31
         .00
  0
LINE
  8
LAYER
 10
        3.91
 20
       42.25
 30
         .00
 11
        3.93
 21
       42.27
 31
         .00
  0
LINE
  8
LAYER
 10
        3.93
 20
       42.27
 30
         .00
 11
        3.95
 21
       42.28
 31
         .00
  0
LINE
  8
LAYER
 10
        3.95
 20
       42.28
 30
         .00
 11
        3.96
 21
       42.30
 31
         .00
  0
LINE
  8
LAYER
 10
        3.96
 20
       42.30
 30
         .00
 11
        3.97
 21
       42.31
 31
         .00
  0
LINE
  8
LAYER
 10
        3.97
 20
       42.31
 30
         .00
 11
        3.98
 21
       42.33
 31
         .00
  0
LINE
  8
LAYER
 10
        3.98
 20
       42.33
 30
         .00
 11
        3.98
 21
       42.35
 31
         .00
  0
LINE
  8
LAYER
 10
        7.71
 20
       42.37
 30
         .00
 11
        7.71
 21
       42.37
 31
         .00
  0
LINE
  8
LAYER
 10
        7.71
 20
       42.37
 30
         .00
 11
        7.71
 21
       42.36
 31
         .00
  0
LINE
  8
LAYER
 10
        7.71
 20
       42.36
 30
         .00
 11
        7.71
 21
       42.34
 31
         .00
  0
LINE
  8
LAYER
 10
        7.71
 20
       42.34
 30
         .00
 11
        7.72
 21
       42.32
 31
         .00
  0
LINE
  8
LAYER
 10
        7.72
 20
       42.32
 30
         .00
 11
        7.73
 21
       42.30
 31
         .00
  0
LINE
  8
LAYER
 10
        7.73
 20
       42.30
 30
         .00
 11
        7.75
 21
       42.29
 31
         .00
  0
LINE
  8
LAYER
 10
        7.75
 20
       42.29
 30
         .00
 11
        7.76
 21
       42.27
 31
         .00
  0
LINE
  8
LAYER
 10
        7.76
 20
       42.27
 30
         .00
 11
        7.78
 21
       42.26
 31
         .00
  0
LINE
  8
LAYER
 10
        7.78
 20
       42.26
 30
         .00
 11
        7.80
 21
       42.24
 31
         .00
  0
LINE
  8
LAYER
 10
        7.80
 20
       42.24
 30
         .00
 11
        7.82
 21
       42.23
 31
         .00
  0
LINE
  8
LAYER
 10
        7.82
 20
       42.23
 30
         .00
 11
        7.85
 21
       42.22
 31
         .00
  0
LINE
  8
LAYER
 10
        7.85
 20
       42.22
 30
         .00
 11
        7.88
 21
       42.20
 31
         .00
  0
LINE
  8
LAYER
 10
        7.88
 20
       42.20
 30
         .00
 11
        7.90
 21
       42.20
 31
         .00
  0
LINE
  8
LAYER
 10
        7.90
 20
       42.20
 30
         .00
 11
        7.93
 21
       42.19
 31
         .00
  0
LINE
  8
LAYER
 10
        7.93
 20
       42.19
 30
         .00
 11
        7.97
 21
       42.18
 31
         .00
  0
LINE
  8
LAYER
 10
        7.97
 20
       42.18
 30
         .00
 11
        8.00
 21
       42.18
 31
         .00
  0
LINE
  8
LAYER
 10
        8.00
 20
       42.18
 30
         .00
 11
        8.03
 21
       42.17
 31
         .00
  0
LINE
  8
LAYER
 10
        8.03
 20
       42.17
 30
         .00
 11
        8.07
 21
       42.17
 31
         .00
  0
LINE
  8
LAYER
 10
        8.07
 20
       42.17
 30
         .00
 11
        8.10
 21
       42.17
 31
         .00
  0
LINE
  8
LAYER
 10
        8.10
 20
       42.17
 30
         .00
 11
        8.13
 21
       42.17
 31
         .00
  0
LINE
  8
LAYER
 10
        8.13
 20
       42.17
 30
         .00
 11
        8.17
 21
       42.17
 31
         .00
  0
LINE
  8
LAYER
 10
        8.17
 20
       42.17
 30
         .00
 11
        8.20
 21
       42.18
 31
         .00
  0
LINE
  8
LAYER
 10
        8.20
 20
       42.18
 30
         .00
 11
        8.23
 21
       42.18
 31
         .00
  0
LINE
  8
LAYER
 10
        8.23
 20
       42.18
 30
         .00
 11
        8.26
 21
       42.19
 31
         .00
  0
LINE
  8
LAYER
 10
        8.26
 20
       42.19
 30
         .00
 11
        8.29
 21
       42.20
 31
         .00
  0
LINE
  8
LAYER
 10
        8.29
 20
       42.20
 30
         .00
 11
        8.32
 21
       42.21
 31
         .00
  0
LINE
  8
LAYER
 10
        8.32
 20
       42.21
 30
         .00
 11
        8.35
 21
       42.22
 31
         .00
  0
LINE
  8
LAYER
 10
        8.35
 20
       42.22
 30
         .00
 11
        8.37
 21
       42.23
 31
         .00
  0
LINE
  8
LAYER
 10
        8.37
 20
       42.23
 30
         .00
 11
        8.40
 21
       42.25
 31
         .00
  0
LINE
  8
LAYER
 10
        8.40
 20
       42.25
 30
         .00
 11
        8.42
 21
       42.26
 31
         .00
  0
LINE
  8
LAYER
 10
        8.42
 20
       42.26
 30
         .00
 11
        8.44
 21
       42.28
 31
         .00
  0
LINE
  8
LAYER
 10
        8.44
 20
       42.28
 30
         .00
 11
        8.45
 21
       42.29
 31
         .00
  0
LINE
  8
LAYER
 10
        8.45
 20
       42.29
 30
         .00
 11
        8.46
 21
       42.31
 31
         .00
  0
LINE
  8
LAYER
 10
        8.46
 20
       42.31
 30
         .00
 11
        8.47
 21
       42.33
 31
         .00
  0
LINE
  8
LAYER
 10
        8.47
 20
       42.33
 30
         .00
 11
        8.48
 21
       42.35
 31
         .00
  0
LINE
  8
LAYER
 10
        8.48
 20
       42.35
 30
         .00
 11
        8.49
 21
       42.36
 31
         .00
  0
LINE
  8
LAYER
 10
        8.49
 20
       42.36
 30
         .00
 11
        8.49
 21
       42.38
 31
         .00
  0
LINE
  8
LAYER
 10
        8.49
 20
       42.38
 30
         .00
 11
        8.48
 21
       42.40
 31
         .00
  0
LINE
  8
LAYER
 10
        8.48
 20
       42.40
 30
         .00
 11
        8.48
 21
       42.42
 31
         .00
  0
LINE
  8
LAYER
 10
        8.48
 20
       42.42
 30
         .00
 11
        8.47
 21
       42.44
 31
         .00
  0
LINE
  8
LAYER
 10
        8.47
 20
       42.44
 30
         .00
 11
        8.46
 21
       42.45
 31
         .00
  0
LINE
  8
LAYER
 10
        8.46
 20
       42.45
 30
         .00
 11
        8.45
 21
       42.47
 31
         .00
  0
LINE
  8
LAYER
 10
        8.45
 20
       42.47
 30
         .00
 11
        8.43
 21
       42.49
 31
         .00
  0
LINE
  8
LAYER
 10
        8.43
 20
       42.49
 30
         .00
 11
        8.41
 21
       42.50
 31
         .00
  0
LINE
  8
LAYER
 10
        8.41
 20
       42.50
 30
         .00
 11
        8.39
 21
       42.51
 31
         .00
  0
LINE
  8
LAYER
 10
        8.39
 20
       42.51
 30
         .00
 11
        8.37
 21
       42.53
 31
         .00
  0
LINE
  8
LAYER
 10
        8.37
 20
       42.53
 30
         .00
 11
        8.35
 21
       42.54
 31
         .00
  0
LINE
  8
LAYER
 10
        8.35
 20
       42.54
 30
         .00
 11
        8.32
 21
       42.55
 31
         .00
  0
LINE
  8
LAYER
 10
        8.32
 20
       42.55
 30
         .00
 11
        8.29
 21
       42.56
 31
         .00
  0
LINE
  8
LAYER
 10
        8.29
 20
       42.56
 30
         .00
 11
        8.26
 21
       42.57
 31
         .00
  0
LINE
  8
LAYER
 10
        8.26
 20
       42.57
 30
         .00
 11
        8.23
 21
       42.57
 31
         .00
  0
LINE
  8
LAYER
 10
        8.23
 20
       42.57
 30
         .00
 11
        8.20
 21
       42.58
 31
         .00
  0
LINE
  8
LAYER
 10
        8.20
 20
       42.58
 30
         .00
 11
        8.16
 21
       42.58
 31
         .00
  0
LINE
  8
LAYER
 10
        8.16
 20
       42.58
 30
         .00
 11
        8.13
 21
       42.59
 31
         .00
  0
LINE
  8
LAYER
 10
        8.13
 20
       42.59
 30
         .00
 11
        8.10
 21
       42.59
 31
         .00
  0
LINE
  8
LAYER
 10
        8.10
 20
       42.59
 30
         .00
 11
        8.06
 21
       42.58
 31
         .00
  0
LINE
  8
LAYER
 10
        8.06
 20
       42.58
 30
         .00
 11
        8.03
 21
       42.58
 31
         .00
  0
LINE
  8
LAYER
 10
        8.03
 20
       42.58
 30
         .00
 11
        7.99
 21
       42.58
 31
         .00
  0
LINE
  8
LAYER
 10
        7.99
 20
       42.58
 30
         .00
 11
        7.96
 21
       42.57
 31
         .00
  0
LINE
  8
LAYER
 10
        7.96
 20
       42.57
 30
         .00
 11
        7.93
 21
       42.56
 31
         .00
  0
LINE
  8
LAYER
 10
        7.93
 20
       42.56
 30
         .00
 11
        7.90
 21
       42.56
 31
         .00
  0
LINE
  8
LAYER
 10
        7.90
 20
       42.56
 30
         .00
 11
        7.87
 21
       42.55
 31
         .00
  0
LINE
  8
LAYER
 10
        7.87
 20
       42.55
 30
         .00
 11
        7.85
 21
       42.53
 31
         .00
  0
LINE
  8
LAYER
 10
        7.85
 20
       42.53
 30
         .00
 11
        7.82
 21
       42.52
 31
         .00
  0
LINE
  8
LAYER
 10
        7.82
 20
       42.52
 30
         .00
 11
        7.80
 21
       42.51
 31
         .00
  0
LINE
  8
LAYER
 10
        7.80
 20
       42.51
 30
         .00
 11
        7.78
 21
       42.49
 31
         .00
  0
LINE
  8
LAYER
 10
        7.78
 20
       42.49
 30
         .00
 11
        7.76
 21
       42.48
 31
         .00
  0
LINE
  8
LAYER
 10
        7.76
 20
       42.48
 30
         .00
 11
        7.74
 21
       42.46
 31
         .00
  0
LINE
  8
LAYER
 10
        7.74
 20
       42.46
 30
         .00
 11
        7.73
 21
       42.45
 31
         .00
  0
LINE
  8
LAYER
 10
        7.73
 20
       42.45
 30
         .00
 11
        7.72
 21
       42.43
 31
         .00
  0
LINE
  8
LAYER
 10
        7.72
 20
       42.43
 30
         .00
 11
        7.71
 21
       42.41
 31
         .00
  0
LINE
  8
LAYER
 10
        7.71
 20
       42.41
 30
         .00
 11
        7.71
 21
       42.39
 31
         .00
  0
LINE
  8
LAYER
 10
        7.71
 20
       42.39
 30
         .00
 11
        7.71
 21
       42.37
 31
         .00
  0
LINE
  8
LAYER
 10
       12.31
 20
       42.34
 30
         .00
 11
       12.31
 21
       42.34
 31
         .00
  0
LINE
  8
LAYER
 10
       12.31
 20
       42.34
 30
         .00
 11
       12.31
 21
       42.32
 31
         .00
  0
LINE
  8
LAYER
 10
       12.31
 20
       42.32
 30
         .00
 11
       12.32
 21
       42.31
 31
         .00
  0
LINE
  8
LAYER
 10
       12.32
 20
       42.31
 30
         .00
 11
       12.33
 21
       42.29
 31
         .00
  0
LINE
  8
LAYER
 10
       12.33
 20
       42.29
 30
         .00
 11
       12.34
 21
       42.27
 31
         .00
  0
LINE
  8
LAYER
 10
       12.34
 20
       42.27
 30
         .00
 11
       12.36
 21
       42.26
 31
         .00
  0
LINE
  8
LAYER
 10
       12.36
 20
       42.26
 30
         .00
 11
       12.37
 21
       42.25
 31
         .00
  0
LINE
  8
LAYER
 10
       12.37
 20
       42.25
 30
         .00
 11
       12.39
 21
       42.23
 31
         .00
  0
LINE
  8
LAYER
 10
       12.39
 20
       42.23
 30
         .00
 11
       12.42
 21
       42.22
 31
         .00
  0
LINE
  8
LAYER
 10
       12.42
 20
       42.22
 30
         .00
 11
       12.44
 21
       42.21
 31
         .00
  0
LINE
  8
LAYER
 10
       12.44
 20
       42.21
 30
         .00
 11
       12.47
 21
       42.20
 31
         .00
  0
LINE
  8
LAYER
 10
       12.47
 20
       42.20
 30
         .00
 11
       12.49
 21
       42.19
 31
         .00
  0
LINE
  8
LAYER
 10
       12.49
 20
       42.19
 30
         .00
 11
       12.52
 21
       42.19
 31
         .00
  0
LINE
  8
LAYER
 10
       12.52
 20
       42.19
 30
         .00
 11
       12.55
 21
       42.18
 31
         .00
  0
LINE
  8
LAYER
 10
       12.55
 20
       42.18
 30
         .00
 11
       12.58
 21
       42.18
 31
         .00
  0
LINE
  8
LAYER
 10
       12.58
 20
       42.18
 30
         .00
 11
       12.61
 21
       42.18
 31
         .00
  0
LINE
  8
LAYER
 10
       12.61
 20
       42.18
 30
         .00
 11
       12.65
 21
       42.18
 31
         .00
  0
LINE
  8
LAYER
 10
       12.65
 20
       42.18
 30
         .00
 11
       12.68
 21
       42.18
 31
         .00
  0
LINE
  8
LAYER
 10
       12.68
 20
       42.18
 30
         .00
 11
       12.71
 21
       42.19
 31
         .00
  0
LINE
  8
LAYER
 10
       12.71
 20
       42.19
 30
         .00
 11
       12.74
 21
       42.19
 31
         .00
  0
LINE
  8
LAYER
 10
       12.74
 20
       42.19
 30
         .00
 11
       12.78
 21
       42.20
 31
         .00
  0
LINE
  8
LAYER
 10
       12.78
 20
       42.20
 30
         .00
 11
       12.81
 21
       42.21
 31
         .00
  0
LINE
  8
LAYER
 10
       12.81
 20
       42.21
 30
         .00
 11
       12.84
 21
       42.22
 31
         .00
  0
LINE
  8
LAYER
 10
       12.84
 20
       42.22
 30
         .00
 11
       12.87
 21
       42.23
 31
         .00
  0
LINE
  8
LAYER
 10
       12.87
 20
       42.23
 30
         .00
 11
       12.90
 21
       42.24
 31
         .00
  0
LINE
  8
LAYER
 10
       12.90
 20
       42.24
 30
         .00
 11
       12.92
 21
       42.25
 31
         .00
  0
LINE
  8
LAYER
 10
       12.92
 20
       42.25
 30
         .00
 11
       12.95
 21
       42.27
 31
         .00
  0
LINE
  8
LAYER
 10
       12.95
 20
       42.27
 30
         .00
 11
       12.97
 21
       42.28
 31
         .00
  0
LINE
  8
LAYER
 10
       12.97
 20
       42.28
 30
         .00
 11
       12.99
 21
       42.30
 31
         .00
  0
LINE
  8
LAYER
 10
       12.99
 20
       42.30
 30
         .00
 11
       13.01
 21
       42.31
 31
         .00
  0
LINE
  8
LAYER
 10
       13.01
 20
       42.31
 30
         .00
 11
       13.02
 21
       42.33
 31
         .00
  0
LINE
  8
LAYER
 10
       13.02
 20
       42.33
 30
         .00
 11
       13.04
 21
       42.35
 31
         .00
  0
LINE
  8
LAYER
 10
       13.04
 20
       42.35
 30
         .00
 11
       13.05
 21
       42.37
 31
         .00
  0
LINE
  8
LAYER
 10
       13.05
 20
       42.37
 30
         .00
 11
       13.05
 21
       42.39
 31
         .00
  0
LINE
  8
LAYER
 10
       13.05
 20
       42.39
 30
         .00
 11
       13.06
 21
       42.40
 31
         .00
  0
LINE
  8
LAYER
 10
       13.06
 20
       42.40
 30
         .00
 11
       13.06
 21
       42.42
 31
         .00
  0
LINE
  8
LAYER
 10
       13.06
 20
       42.42
 30
         .00
 11
       13.06
 21
       42.44
 31
         .00
  0
LINE
  8
LAYER
 10
       13.06
 20
       42.44
 30
         .00
 11
       13.06
 21
       42.46
 31
         .00
  0
LINE
  8
LAYER
 10
       13.06
 20
       42.46
 30
         .00
 11
       13.05
 21
       42.48
 31
         .00
  0
LINE
  8
LAYER
 10
       13.05
 20
       42.48
 30
         .00
 11
       13.04
 21
       42.49
 31
         .00
  0
LINE
  8
LAYER
 10
       13.04
 20
       42.49
 30
         .00
 11
       13.03
 21
       42.51
 31
         .00
  0
LINE
  8
LAYER
 10
       13.03
 20
       42.51
 30
         .00
 11
       13.01
 21
       42.52
 31
         .00
  0
LINE
  8
LAYER
 10
       13.01
 20
       42.52
 30
         .00
 11
       13.00
 21
       42.54
 31
         .00
  0
LINE
  8
LAYER
 10
       13.00
 20
       42.54
 30
         .00
 11
       12.98
 21
       42.55
 31
         .00
  0
LINE
  8
LAYER
 10
       12.98
 20
       42.55
 30
         .00
 11
       12.95
 21
       42.56
 31
         .00
  0
LINE
  8
LAYER
 10
       12.95
 20
       42.56
 30
         .00
 11
       12.93
 21
       42.57
 31
         .00
  0
LINE
  8
LAYER
 10
       12.93
 20
       42.57
 30
         .00
 11
       12.90
 21
       42.58
 31
         .00
  0
LINE
  8
LAYER
 10
       12.90
 20
       42.58
 30
         .00
 11
       12.88
 21
       42.59
 31
         .00
  0
LINE
  8
LAYER
 10
       12.88
 20
       42.59
 30
         .00
 11
       12.85
 21
       42.59
 31
         .00
  0
LINE
  8
LAYER
 10
       12.85
 20
       42.59
 30
         .00
 11
       12.82
 21
       42.60
 31
         .00
  0
LINE
  8
LAYER
 10
       12.82
 20
       42.60
 30
         .00
 11
       12.79
 21
       42.60
 31
         .00
  0
LINE
  8
LAYER
 10
       12.79
 20
       42.60
 30
         .00
 11
       12.76
 21
       42.60
 31
         .00
  0
LINE
  8
LAYER
 10
       12.76
 20
       42.60
 30
         .00
 11
       12.72
 21
       42.60
 31
         .00
  0
LINE
  8
LAYER
 10
       12.72
 20
       42.60
 30
         .00
 11
       12.69
 21
       42.60
 31
         .00
  0
LINE
  8
LAYER
 10
       12.69
 20
       42.60
 30
         .00
 11
       12.66
 21
       42.60
 31
         .00
  0
LINE
  8
LAYER
 10
       12.66
 20
       42.60
 30
         .00
 11
       12.63
 21
       42.59
 31
         .00
  0
LINE
  8
LAYER
 10
       12.63
 20
       42.59
 30
         .00
 11
       12.59
 21
       42.58
 31
         .00
  0
LINE
  8
LAYER
 10
       12.59
 20
       42.58
 30
         .00
 11
       12.56
 21
       42.58
 31
         .00
  0
LINE
  8
LAYER
 10
       12.56
 20
       42.58
 30
         .00
 11
       12.53
 21
       42.57
 31
         .00
  0
LINE
  8
LAYER
 10
       12.53
 20
       42.57
 30
         .00
 11
       12.50
 21
       42.56
 31
         .00
  0
LINE
  8
LAYER
 10
       12.50
 20
       42.56
 30
         .00
 11
       12.47
 21
       42.54
 31
         .00
  0
LINE
  8
LAYER
 10
       12.47
 20
       42.54
 30
         .00
 11
       12.45
 21
       42.53
 31
         .00
  0
LINE
  8
LAYER
 10
       12.45
 20
       42.53
 30
         .00
 11
       12.42
 21
       42.52
 31
         .00
  0
LINE
  8
LAYER
 10
       12.42
 20
       42.52
 30
         .00
 11
       12.40
 21
       42.50
 31
         .00
  0
LINE
  8
LAYER
 10
       12.40
 20
       42.50
 30
         .00
 11
       12.38
 21
       42.48
 31
         .00
  0
LINE
  8
LAYER
 10
       12.38
 20
       42.48
 30
         .00
 11
       12.36
 21
       42.47
 31
         .00
  0
LINE
  8
LAYER
 10
       12.36
 20
       42.47
 30
         .00
 11
       12.35
 21
       42.45
 31
         .00
  0
LINE
  8
LAYER
 10
       12.35
 20
       42.45
 30
         .00
 11
       12.33
 21
       42.43
 31
         .00
  0
LINE
  8
LAYER
 10
       12.33
 20
       42.43
 30
         .00
 11
       12.32
 21
       42.41
 31
         .00
  0
LINE
  8
LAYER
 10
       12.32
 20
       42.41
 30
         .00
 11
       12.32
 21
       42.40
 31
         .00
  0
LINE
  8
LAYER
 10
       12.32
 20
       42.40
 30
         .00
 11
       12.31
 21
       42.38
 31
         .00
  0
LINE
  8
LAYER
 10
       12.31
 20
       42.38
 30
         .00
 11
       12.31
 21
       42.36
 31
         .00
  0
LINE
  8
LAYER
 10
       12.31
 20
       42.36
 30
         .00
 11
       12.31
 21
       42.34
 31
         .00
  0
LINE
  8
LAYER
 10
       16.95
 20
       42.34
 30
         .00
 11
       16.95
 21
       42.34
 31
         .00
  0
LINE
  8
LAYER
 10
       16.95
 20
       42.34
 30
         .00
 11
       16.96
 21
       42.33
 31
         .00
  0
LINE
  8
LAYER
 10
       16.96
 20
       42.33
 30
         .00
 11
       16.97
 21
       42.31
 31
         .00
  0
LINE
  8
LAYER
 10
       16.97
 20
       42.31
 30
         .00
 11
       16.98
 21
       42.30
 31
         .00
  0
LINE
  8
LAYER
 10
       16.98
 20
       42.30
 30
         .00
 11
       16.99
 21
       42.28
 31
         .00
  0
LINE
  8
LAYER
 10
       16.99
 20
       42.28
 30
         .00
 11
       17.01
 21
       42.27
 31
         .00
  0
LINE
  8
LAYER
 10
       17.01
 20
       42.27
 30
         .00
 11
       17.03
 21
       42.26
 31
         .00
  0
LINE
  8
LAYER
 10
       17.03
 20
       42.26
 30
         .00
 11
       17.05
 21
       42.25
 31
         .00
  0
LINE
  8
LAYER
 10
       17.05
 20
       42.25
 30
         .00
 11
       17.07
 21
       42.24
 31
         .00
  0
LINE
  8
LAYER
 10
       17.07
 20
       42.24
 30
         .00
 11
       17.10
 21
       42.23
 31
         .00
  0
LINE
  8
LAYER
 10
       17.10
 20
       42.23
 30
         .00
 11
       17.13
 21
       42.23
 31
         .00
  0
LINE
  8
LAYER
 10
       17.13
 20
       42.23
 30
         .00
 11
       17.16
 21
       42.22
 31
         .00
  0
LINE
  8
LAYER
 10
       17.16
 20
       42.22
 30
         .00
 11
       17.19
 21
       42.22
 31
         .00
  0
LINE
  8
LAYER
 10
       17.19
 20
       42.22
 30
         .00
 11
       17.22
 21
       42.22
 31
         .00
  0
LINE
  8
LAYER
 10
       17.22
 20
       42.22
 30
         .00
 11
       17.25
 21
       42.22
 31
         .00
  0
LINE
  8
LAYER
 10
       17.25
 20
       42.22
 30
         .00
 11
       17.28
 21
       42.23
 31
         .00
  0
LINE
  8
LAYER
 10
       17.28
 20
       42.23
 30
         .00
 11
       17.31
 21
       42.23
 31
         .00
  0
LINE
  8
LAYER
 10
       17.31
 20
       42.23
 30
         .00
 11
       17.35
 21
       42.24
 31
         .00
  0
LINE
  8
LAYER
 10
       17.35
 20
       42.24
 30
         .00
 11
       17.38
 21
       42.24
 31
         .00
  0
LINE
  8
LAYER
 10
       17.38
 20
       42.24
 30
         .00
 11
       17.41
 21
       42.25
 31
         .00
  0
LINE
  8
LAYER
 10
       17.41
 20
       42.25
 30
         .00
 11
       17.44
 21
       42.27
 31
         .00
  0
LINE
  8
LAYER
 10
       17.44
 20
       42.27
 30
         .00
 11
       17.47
 21
       42.28
 31
         .00
  0
LINE
  8
LAYER
 10
       17.47
 20
       42.28
 30
         .00
 11
       17.50
 21
       42.29
 31
         .00
  0
LINE
  8
LAYER
 10
       17.50
 20
       42.29
 30
         .00
 11
       17.53
 21
       42.31
 31
         .00
  0
LINE
  8
LAYER
 10
       17.53
 20
       42.31
 30
         .00
 11
       17.56
 21
       42.32
 31
         .00
  0
LINE
  8
LAYER
 10
       17.56
 20
       42.32
 30
         .00
 11
       17.58
 21
       42.34
 31
         .00
  0
LINE
  8
LAYER
 10
       17.58
 20
       42.34
 30
         .00
 11
       17.60
 21
       42.36
 31
         .00
  0
LINE
  8
LAYER
 10
       17.60
 20
       42.36
 30
         .00
 11
       17.62
 21
       42.37
 31
         .00
  0
LINE
  8
LAYER
 10
       17.62
 20
       42.37
 30
         .00
 11
       17.64
 21
       42.39
 31
         .00
  0
LINE
  8
LAYER
 10
       17.64
 20
       42.39
 30
         .00
 11
       17.66
 21
       42.41
 31
         .00
  0
LINE
  8
LAYER
 10
       17.66
 20
       42.41
 30
         .00
 11
       17.67
 21
       42.43
 31
         .00
  0
LINE
  8
LAYER
 10
       17.67
 20
       42.43
 30
         .00
 11
       17.68
 21
       42.45
 31
         .00
  0
LINE
  8
LAYER
 10
       17.68
 20
       42.45
 30
         .00
 11
       17.69
 21
       42.47
 31
         .00
  0
LINE
  8
LAYER
 10
       17.69
 20
       42.47
 30
         .00
 11
       17.70
 21
       42.49
 31
         .00
  0
LINE
  8
LAYER
 10
       17.70
 20
       42.49
 30
         .00
 11
       17.70
 21
       42.51
 31
         .00
  0
LINE
  8
LAYER
 10
       17.70
 20
       42.51
 30
         .00
 11
       17.70
 21
       42.53
 31
         .00
  0
LINE
  8
LAYER
 10
       17.70
 20
       42.53
 30
         .00
 11
       17.70
 21
       42.54
 31
         .00
  0
LINE
  8
LAYER
 10
       17.70
 20
       42.54
 30
         .00
 11
       17.69
 21
       42.56
 31
         .00
  0
LINE
  8
LAYER
 10
       17.69
 20
       42.56
 30
         .00
 11
       17.68
 21
       42.58
 31
         .00
  0
LINE
  8
LAYER
 10
       17.68
 20
       42.58
 30
         .00
 11
       17.67
 21
       42.59
 31
         .00
  0
LINE
  8
LAYER
 10
       17.67
 20
       42.59
 30
         .00
 11
       17.65
 21
       42.61
 31
         .00
  0
LINE
  8
LAYER
 10
       17.65
 20
       42.61
 30
         .00
 11
       17.64
 21
       42.62
 31
         .00
  0
LINE
  8
LAYER
 10
       17.64
 20
       42.62
 30
         .00
 11
       17.62
 21
       42.63
 31
         .00
  0
LINE
  8
LAYER
 10
       17.62
 20
       42.63
 30
         .00
 11
       17.60
 21
       42.64
 31
         .00
  0
LINE
  8
LAYER
 10
       17.60
 20
       42.64
 30
         .00
 11
       17.57
 21
       42.65
 31
         .00
  0
LINE
  8
LAYER
 10
       17.57
 20
       42.65
 30
         .00
 11
       17.55
 21
       42.66
 31
         .00
  0
LINE
  8
LAYER
 10
       17.55
 20
       42.66
 30
         .00
 11
       17.52
 21
       42.66
 31
         .00
  0
LINE
  8
LAYER
 10
       17.52
 20
       42.66
 30
         .00
 11
       17.49
 21
       42.67
 31
         .00
  0
LINE
  8
LAYER
 10
       17.49
 20
       42.67
 30
         .00
 11
       17.46
 21
       42.67
 31
         .00
  0
LINE
  8
LAYER
 10
       17.46
 20
       42.67
 30
         .00
 11
       17.43
 21
       42.67
 31
         .00
  0
LINE
  8
LAYER
 10
       17.43
 20
       42.67
 30
         .00
 11
       17.40
 21
       42.67
 31
         .00
  0
LINE
  8
LAYER
 10
       17.40
 20
       42.67
 30
         .00
 11
       17.37
 21
       42.66
 31
         .00
  0
LINE
  8
LAYER
 10
       17.37
 20
       42.66
 30
         .00
 11
       17.34
 21
       42.66
 31
         .00
  0
LINE
  8
LAYER
 10
       17.34
 20
       42.66
 30
         .00
 11
       17.30
 21
       42.65
 31
         .00
  0
LINE
  8
LAYER
 10
       17.30
 20
       42.65
 30
         .00
 11
       17.27
 21
       42.64
 31
         .00
  0
LINE
  8
LAYER
 10
       17.27
 20
       42.64
 30
         .00
 11
       17.24
 21
       42.63
 31
         .00
  0
LINE
  8
LAYER
 10
       17.24
 20
       42.63
 30
         .00
 11
       17.21
 21
       42.62
 31
         .00
  0
LINE
  8
LAYER
 10
       17.21
 20
       42.62
 30
         .00
 11
       17.18
 21
       42.61
 31
         .00
  0
LINE
  8
LAYER
 10
       17.18
 20
       42.61
 30
         .00
 11
       17.15
 21
       42.60
 31
         .00
  0
LINE
  8
LAYER
 10
       17.15
 20
       42.60
 30
         .00
 11
       17.12
 21
       42.58
 31
         .00
  0
LINE
  8
LAYER
 10
       17.12
 20
       42.58
 30
         .00
 11
       17.09
 21
       42.57
 31
         .00
  0
LINE
  8
LAYER
 10
       17.09
 20
       42.57
 30
         .00
 11
       17.07
 21
       42.55
 31
         .00
  0
LINE
  8
LAYER
 10
       17.07
 20
       42.55
 30
         .00
 11
       17.04
 21
       42.53
 31
         .00
  0
LINE
  8
LAYER
 10
       17.04
 20
       42.53
 30
         .00
 11
       17.02
 21
       42.51
 31
         .00
  0
LINE
  8
LAYER
 10
       17.02
 20
       42.51
 30
         .00
 11
       17.01
 21
       42.50
 31
         .00
  0
LINE
  8
LAYER
 10
       17.01
 20
       42.50
 30
         .00
 11
       16.99
 21
       42.48
 31
         .00
  0
LINE
  8
LAYER
 10
       16.99
 20
       42.48
 30
         .00
 11
       16.98
 21
       42.46
 31
         .00
  0
LINE
  8
LAYER
 10
       16.98
 20
       42.46
 30
         .00
 11
       16.97
 21
       42.44
 31
         .00
  0
LINE
  8
LAYER
 10
       16.97
 20
       42.44
 30
         .00
 11
       16.96
 21
       42.42
 31
         .00
  0
LINE
  8
LAYER
 10
       16.96
 20
       42.42
 30
         .00
 11
       16.95
 21
       42.40
 31
         .00
  0
LINE
  8
LAYER
 10
       16.95
 20
       42.40
 30
         .00
 11
       16.95
 21
       42.38
 31
         .00
  0
LINE
  8
LAYER
 10
       16.95
 20
       42.38
 30
         .00
 11
       16.95
 21
       42.36
 31
         .00
  0
LINE
  8
LAYER
 10
       16.95
 20
       42.36
 30
         .00
 11
       16.95
 21
       42.34
 31
         .00
  0
LINE
  8
LAYER
 10
         .18
 20
       42.21
 30
         .00
 11
         .18
 21
       42.21
 31
         .00
  0
LINE
  8
LAYER
 10
         .18
 20
       42.21
 30
         .00
 11
         .18
 21
       42.23
 31
         .00
  0
LINE
  8
LAYER
 10
         .18
 20
       42.23
 30
         .00
 11
         .17
 21
       42.25
 31
         .00
  0
LINE
  8
LAYER
 10
         .17
 20
       42.25
 30
         .00
 11
         .16
 21
       42.27
 31
         .00
  0
LINE
  8
LAYER
 10
         .16
 20
       42.27
 30
         .00
 11
         .13
 21
       42.29
 31
         .00
  0
LINE
  8
LAYER
 10
         .13
 20
       42.29
 30
         .00
 11
         .11
 21
       42.31
 31
         .00
  0
LINE
  8
LAYER
 10
         .11
 20
       42.31
 30
         .00
 11
         .07
 21
       42.32
 31
         .00
  0
LINE
  8
LAYER
 10
         .07
 20
       42.32
 30
         .00
 11
         .03
 21
       42.34
 31
         .00
  0
LINE
  8
LAYER
 10
         .03
 20
       42.34
 30
         .00
 11
        -.01
 21
       42.36
 31
         .00
  0
LINE
  8
LAYER
 10
        -.01
 20
       42.36
 30
         .00
 11
        -.06
 21
       42.37
 31
         .00
  0
LINE
  8
LAYER
 10
        -.06
 20
       42.37
 30
         .00
 11
        -.12
 21
       42.39
 31
         .00
  0
LINE
  8
LAYER
 10
        -.12
 20
       42.39
 30
         .00
 11
        -.18
 21
       42.40
 31
         .00
  0
LINE
  8
LAYER
 10
        -.18
 20
       42.40
 30
         .00
 11
        -.24
 21
       42.41
 31
         .00
  0
LINE
  8
LAYER
 10
        -.24
 20
       42.41
 30
         .00
 11
        -.31
 21
       42.42
 31
         .00
  0
LINE
  8
LAYER
 10
        -.31
 20
       42.42
 30
         .00
 11
        -.38
 21
       42.43
 31
         .00
  0
LINE
  8
LAYER
 10
        -.38
 20
       42.43
 30
         .00
 11
        -.45
 21
       42.43
 31
         .00
  0
LINE
  8
LAYER
 10
        -.45
 20
       42.43
 30
         .00
 11
        -.52
 21
       42.44
 31
         .00
  0
LINE
  8
LAYER
 10
        -.52
 20
       42.44
 30
         .00
 11
        -.59
 21
       42.44
 31
         .00
  0
LINE
  8
LAYER
 10
        -.59
 20
       42.44
 30
         .00
 11
        -.67
 21
       42.45
 31
         .00
  0
LINE
  8
LAYER
 10
        -.67
 20
       42.45
 30
         .00
 11
        -.74
 21
       42.45
 31
         .00
  0
LINE
  8
LAYER
 10
        -.74
 20
       42.45
 30
         .00
 11
        -.82
 21
       42.44
 31
         .00
  0
LINE
  8
LAYER
 10
        -.82
 20
       42.44
 30
         .00
 11
        -.89
 21
       42.44
 31
         .00
  0
LINE
  8
LAYER
 10
        -.89
 20
       42.44
 30
         .00
 11
        -.96
 21
       42.44
 31
         .00
  0
LINE
  8
LAYER
 10
        -.96
 20
       42.44
 30
         .00
 11
       -1.03
 21
       42.43
 31
         .00
  0
LINE
  8
LAYER
 10
       -1.03
 20
       42.43
 30
         .00
 11
       -1.10
 21
       42.42
 31
         .00
  0
LINE
  8
LAYER
 10
       -1.10
 20
       42.42
 30
         .00
 11
       -1.16
 21
       42.41
 31
         .00
  0
LINE
  8
LAYER
 10
       -1.16
 20
       42.41
 30
         .00
 11
       -1.22
 21
       42.40
 31
         .00
  0
LINE
  8
LAYER
 10
       -1.22
 20
       42.40
 30
         .00
 11
       -1.27
 21
       42.39
 31
         .00
  0
LINE
  8
LAYER
 10
       -1.27
 20
       42.39
 30
         .00
 11
       -1.32
 21
       42.37
 31
         .00
  0
LINE
  8
LAYER
 10
       -1.32
 20
       42.37
 30
         .00
 11
       -1.37
 21
       42.36
 31
         .00
  0
LINE
  8
LAYER
 10
       -1.37
 20
       42.36
 30
         .00
 11
       -1.41
 21
       42.34
 31
         .00
  0
LINE
  8
LAYER
 10
       -1.41
 20
       42.34
 30
         .00
 11
       -1.44
 21
       42.33
 31
         .00
  0
LINE
  8
LAYER
 10
       -1.44
 20
       42.33
 30
         .00
 11
       -1.47
 21
       42.31
 31
         .00
  0
LINE
  8
LAYER
 10
       -1.47
 20
       42.31
 30
         .00
 11
       -1.49
 21
       42.29
 31
         .00
  0
LINE
  8
LAYER
 10
       -1.49
 20
       42.29
 30
         .00
 11
       -1.51
 21
       42.27
 31
         .00
  0
LINE
  8
LAYER
 10
       -1.51
 20
       42.27
 30
         .00
 11
       -1.52
 21
       42.25
 31
         .00
  0
LINE
  8
LAYER
 10
       -1.52
 20
       42.25
 30
         .00
 11
       -1.52
 21
       42.23
 31
         .00
  0
LINE
  8
LAYER
 10
       -1.52
 20
       42.23
 30
         .00
 11
       -1.52
 21
       42.22
 31
         .00
  0
LINE
  8
LAYER
 10
       -1.52
 20
       42.22
 30
         .00
 11
       -1.51
 21
       42.20
 31
         .00
  0
LINE
  8
LAYER
 10
       -1.51
 20
       42.20
 30
         .00
 11
       -1.50
 21
       42.18
 31
         .00
  0
LINE
  8
LAYER
 10
       -1.50
 20
       42.18
 30
         .00
 11
       -1.47
 21
       42.16
 31
         .00
  0
LINE
  8
LAYER
 10
       -1.47
 20
       42.16
 30
         .00
 11
       -1.45
 21
       42.14
 31
         .00
  0
LINE
  8
LAYER
 10
       -1.45
 20
       42.14
 30
         .00
 11
       -1.41
 21
       42.12
 31
         .00
  0
LINE
  8
LAYER
 10
       -1.41
 20
       42.12
 30
         .00
 11
       -1.37
 21
       42.11
 31
         .00
  0
LINE
  8
LAYER
 10
       -1.37
 20
       42.11
 30
         .00
 11
       -1.33
 21
       42.09
 31
         .00
  0
LINE
  8
LAYER
 10
       -1.33
 20
       42.09
 30
         .00
 11
       -1.28
 21
       42.08
 31
         .00
  0
LINE
  8
LAYER
 10
       -1.28
 20
       42.08
 30
         .00
 11
       -1.22
 21
       42.06
 31
         .00
  0
LINE
  8
LAYER
 10
       -1.22
 20
       42.06
 30
         .00
 11
       -1.16
 21
       42.05
 31
         .00
  0
LINE
  8
LAYER
 10
       -1.16
 20
       42.05
 30
         .00
 11
       -1.10
 21
       42.04
 31
         .00
  0
LINE
  8
LAYER
 10
       -1.10
 20
       42.04
 30
         .00
 11
       -1.03
 21
       42.03
 31
         .00
  0
LINE
  8
LAYER
 10
       -1.03
 20
       42.03
 30
         .00
 11
        -.97
 21
       42.02
 31
         .00
  0
LINE
  8
LAYER
 10
        -.97
 20
       42.02
 30
         .00
 11
        -.89
 21
       42.01
 31
         .00
  0
LINE
  8
LAYER
 10
        -.89
 20
       42.01
 30
         .00
 11
        -.82
 21
       42.01
 31
         .00
  0
LINE
  8
LAYER
 10
        -.82
 20
       42.01
 30
         .00
 11
        -.75
 21
       42.00
 31
         .00
  0
LINE
  8
LAYER
 10
        -.75
 20
       42.00
 30
         .00
 11
        -.67
 21
       42.00
 31
         .00
  0
LINE
  8
LAYER
 10
        -.67
 20
       42.00
 30
         .00
 11
        -.60
 21
       42.00
 31
         .00
  0
LINE
  8
LAYER
 10
        -.60
 20
       42.00
 30
         .00
 11
        -.52
 21
       42.00
 31
         .00
  0
LINE
  8
LAYER
 10
        -.52
 20
       42.00
 30
         .00
 11
        -.45
 21
       42.01
 31
         .00
  0
LINE
  8
LAYER
 10
        -.45
 20
       42.01
 30
         .00
 11
        -.38
 21
       42.01
 31
         .00
  0
LINE
  8
LAYER
 10
        -.38
 20
       42.01
 30
         .00
 11
        -.31
 21
       42.02
 31
         .00
  0
LINE
  8
LAYER
 10
        -.31
 20
       42.02
 30
         .00
 11
        -.25
 21
       42.03
 31
         .00
  0
LINE
  8
LAYER
 10
        -.25
 20
       42.03
 30
         .00
 11
        -.18
 21
       42.04
 31
         .00
  0
LINE
  8
LAYER
 10
        -.18
 20
       42.04
 30
         .00
 11
        -.12
 21
       42.05
 31
         .00
  0
LINE
  8
LAYER
 10
        -.12
 20
       42.05
 30
         .00
 11
        -.07
 21
       42.06
 31
         .00
  0
LINE
  8
LAYER
 10
        -.07
 20
       42.06
 30
         .00
 11
        -.02
 21
       42.07
 31
         .00
  0
LINE
  8
LAYER
 10
        -.02
 20
       42.07
 30
         .00
 11
         .03
 21
       42.09
 31
         .00
  0
LINE
  8
LAYER
 10
         .03
 20
       42.09
 30
         .00
 11
         .07
 21
       42.10
 31
         .00
  0
LINE
  8
LAYER
 10
         .07
 20
       42.10
 30
         .00
 11
         .10
 21
       42.12
 31
         .00
  0
LINE
  8
LAYER
 10
         .10
 20
       42.12
 30
         .00
 11
         .13
 21
       42.14
 31
         .00
  0
LINE
  8
LAYER
 10
         .13
 20
       42.14
 30
         .00
 11
         .15
 21
       42.16
 31
         .00
  0
LINE
  8
LAYER
 10
         .15
 20
       42.16
 30
         .00
 11
         .17
 21
       42.17
 31
         .00
  0
LINE
  8
LAYER
 10
         .17
 20
       42.17
 30
         .00
 11
         .18
 21
       42.19
 31
         .00
  0
LINE
  8
LAYER
 10
         .18
 20
       42.19
 30
         .00
 11
         .18
 21
       42.21
 31
         .00
  0
LINE
  8
LAYER
 10
       16.92
 20
       42.31
 30
         .00
 11
       16.92
 21
       42.31
 31
         .00
  0
LINE
  8
LAYER
 10
       16.92
 20
       42.31
 30
         .00
 11
       16.93
 21
       42.29
 31
         .00
  0
LINE
  8
LAYER
 10
       16.93
 20
       42.29
 30
         .00
 11
       16.94
 21
       42.28
 31
         .00
  0
LINE
  8
LAYER
 10
       16.94
 20
       42.28
 30
         .00
 11
       16.96
 21
       42.26
 31
         .00
  0
LINE
  8
LAYER
 10
       16.96
 20
       42.26
 30
         .00
 11
       16.97
 21
       42.25
 31
         .00
  0
LINE
  8
LAYER
 10
       16.97
 20
       42.25
 30
         .00
 11
       16.99
 21
       42.24
 31
         .00
  0
LINE
  8
LAYER
 10
       16.99
 20
       42.24
 30
         .00
 11
       17.01
 21
       42.23
 31
         .00
  0
LINE
  8
LAYER
 10
       17.01
 20
       42.23
 30
         .00
 11
       17.03
 21
       42.22
 31
         .00
  0
LINE
  8
LAYER
 10
       17.03
 20
       42.22
 30
         .00
 11
       17.06
 21
       42.21
 31
         .00
  0
LINE
  8
LAYER
 10
       17.06
 20
       42.21
 30
         .00
 11
       17.09
 21
       42.21
 31
         .00
  0
LINE
  8
LAYER
 10
       17.09
 20
       42.21
 30
         .00
 11
       17.11
 21
       42.20
 31
         .00
  0
LINE
  8
LAYER
 10
       17.11
 20
       42.20
 30
         .00
 11
       17.14
 21
       42.20
 31
         .00
  0
LINE
  8
LAYER
 10
       17.14
 20
       42.20
 30
         .00
 11
       17.18
 21
       42.20
 31
         .00
  0
LINE
  8
LAYER
 10
       17.18
 20
       42.20
 30
         .00
 11
       17.21
 21
       42.20
 31
         .00
  0
LINE
  8
LAYER
 10
       17.21
 20
       42.20
 30
         .00
 11
       17.24
 21
       42.21
 31
         .00
  0
LINE
  8
LAYER
 10
       17.24
 20
       42.21
 30
         .00
 11
       17.27
 21
       42.22
 31
         .00
  0
LINE
  8
LAYER
 10
       17.27
 20
       42.22
 30
         .00
 11
       17.31
 21
       42.22
 31
         .00
  0
LINE
  8
LAYER
 10
       17.31
 20
       42.22
 30
         .00
 11
       17.34
 21
       42.23
 31
         .00
  0
LINE
  8
LAYER
 10
       17.34
 20
       42.23
 30
         .00
 11
       17.37
 21
       42.24
 31
         .00
  0
LINE
  8
LAYER
 10
       17.37
 20
       42.24
 30
         .00
 11
       17.40
 21
       42.26
 31
         .00
  0
LINE
  8
LAYER
 10
       17.40
 20
       42.26
 30
         .00
 11
       17.43
 21
       42.27
 31
         .00
  0
LINE
  8
LAYER
 10
       17.43
 20
       42.27
 30
         .00
 11
       17.46
 21
       42.29
 31
         .00
  0
LINE
  8
LAYER
 10
       17.46
 20
       42.29
 30
         .00
 11
       17.49
 21
       42.30
 31
         .00
  0
LINE
  8
LAYER
 10
       17.49
 20
       42.30
 30
         .00
 11
       17.52
 21
       42.32
 31
         .00
  0
LINE
  8
LAYER
 10
       17.52
 20
       42.32
 30
         .00
 11
       17.55
 21
       42.34
 31
         .00
  0
LINE
  8
LAYER
 10
       17.55
 20
       42.34
 30
         .00
 11
       17.57
 21
       42.36
 31
         .00
  0
LINE
  8
LAYER
 10
       17.57
 20
       42.36
 30
         .00
 11
       17.59
 21
       42.38
 31
         .00
  0
LINE
  8
LAYER
 10
       17.59
 20
       42.38
 30
         .00
 11
       17.61
 21
       42.40
 31
         .00
  0
LINE
  8
LAYER
 10
       17.61
 20
       42.40
 30
         .00
 11
       17.63
 21
       42.42
 31
         .00
  0
LINE
  8
LAYER
 10
       17.63
 20
       42.42
 30
         .00
 11
       17.64
 21
       42.45
 31
         .00
  0
LINE
  8
LAYER
 10
       17.64
 20
       42.45
 30
         .00
 11
       17.65
 21
       42.47
 31
         .00
  0
LINE
  8
LAYER
 10
       17.65
 20
       42.47
 30
         .00
 11
       17.66
 21
       42.49
 31
         .00
  0
LINE
  8
LAYER
 10
       17.66
 20
       42.49
 30
         .00
 11
       17.67
 21
       42.51
 31
         .00
  0
LINE
  8
LAYER
 10
       17.67
 20
       42.51
 30
         .00
 11
       17.67
 21
       42.53
 31
         .00
  0
LINE
  8
LAYER
 10
       17.67
 20
       42.53
 30
         .00
 11
       17.67
 21
       42.55
 31
         .00
  0
LINE
  8
LAYER
 10
       17.67
 20
       42.55
 30
         .00
 11
       17.67
 21
       42.57
 31
         .00
  0
LINE
  8
LAYER
 10
       17.67
 20
       42.57
 30
         .00
 11
       17.66
 21
       42.59
 31
         .00
  0
LINE
  8
LAYER
 10
       17.66
 20
       42.59
 30
         .00
 11
       17.66
 21
       42.61
 31
         .00
  0
LINE
  8
LAYER
 10
       17.66
 20
       42.61
 30
         .00
 11
       17.64
 21
       42.62
 31
         .00
  0
LINE
  8
LAYER
 10
       17.64
 20
       42.62
 30
         .00
 11
       17.63
 21
       42.64
 31
         .00
  0
LINE
  8
LAYER
 10
       17.63
 20
       42.64
 30
         .00
 11
       17.61
 21
       42.65
 31
         .00
  0
LINE
  8
LAYER
 10
       17.61
 20
       42.65
 30
         .00
 11
       17.60
 21
       42.66
 31
         .00
  0
LINE
  8
LAYER
 10
       17.60
 20
       42.66
 30
         .00
 11
       17.58
 21
       42.67
 31
         .00
  0
LINE
  8
LAYER
 10
       17.58
 20
       42.67
 30
         .00
 11
       17.55
 21
       42.68
 31
         .00
  0
LINE
  8
LAYER
 10
       17.55
 20
       42.68
 30
         .00
 11
       17.53
 21
       42.69
 31
         .00
  0
LINE
  8
LAYER
 10
       17.53
 20
       42.69
 30
         .00
 11
       17.50
 21
       42.69
 31
         .00
  0
LINE
  8
LAYER
 10
       17.50
 20
       42.69
 30
         .00
 11
       17.47
 21
       42.70
 31
         .00
  0
LINE
  8
LAYER
 10
       17.47
 20
       42.70
 30
         .00
 11
       17.44
 21
       42.70
 31
         .00
  0
LINE
  8
LAYER
 10
       17.44
 20
       42.70
 30
         .00
 11
       17.41
 21
       42.70
 31
         .00
  0
LINE
  8
LAYER
 10
       17.41
 20
       42.70
 30
         .00
 11
       17.38
 21
       42.69
 31
         .00
  0
LINE
  8
LAYER
 10
       17.38
 20
       42.69
 30
         .00
 11
       17.35
 21
       42.69
 31
         .00
  0
LINE
  8
LAYER
 10
       17.35
 20
       42.69
 30
         .00
 11
       17.31
 21
       42.68
 31
         .00
  0
LINE
  8
LAYER
 10
       17.31
 20
       42.68
 30
         .00
 11
       17.28
 21
       42.68
 31
         .00
  0
LINE
  8
LAYER
 10
       17.28
 20
       42.68
 30
         .00
 11
       17.25
 21
       42.67
 31
         .00
  0
LINE
  8
LAYER
 10
       17.25
 20
       42.67
 30
         .00
 11
       17.22
 21
       42.65
 31
         .00
  0
LINE
  8
LAYER
 10
       17.22
 20
       42.65
 30
         .00
 11
       17.18
 21
       42.64
 31
         .00
  0
LINE
  8
LAYER
 10
       17.18
 20
       42.64
 30
         .00
 11
       17.15
 21
       42.63
 31
         .00
  0
LINE
  8
LAYER
 10
       17.15
 20
       42.63
 30
         .00
 11
       17.12
 21
       42.61
 31
         .00
  0
LINE
  8
LAYER
 10
       17.12
 20
       42.61
 30
         .00
 11
       17.09
 21
       42.59
 31
         .00
  0
LINE
  8
LAYER
 10
       17.09
 20
       42.59
 30
         .00
 11
       17.07
 21
       42.58
 31
         .00
  0
LINE
  8
LAYER
 10
       17.07
 20
       42.58
 30
         .00
 11
       17.04
 21
       42.56
 31
         .00
  0
LINE
  8
LAYER
 10
       17.04
 20
       42.56
 30
         .00
 11
       17.02
 21
       42.54
 31
         .00
  0
LINE
  8
LAYER
 10
       17.02
 20
       42.54
 30
         .00
 11
       17.00
 21
       42.52
 31
         .00
  0
LINE
  8
LAYER
 10
       17.00
 20
       42.52
 30
         .00
 11
       16.98
 21
       42.50
 31
         .00
  0
LINE
  8
LAYER
 10
       16.98
 20
       42.50
 30
         .00
 11
       16.96
 21
       42.47
 31
         .00
  0
LINE
  8
LAYER
 10
       16.96
 20
       42.47
 30
         .00
 11
       16.95
 21
       42.45
 31
         .00
  0
LINE
  8
LAYER
 10
       16.95
 20
       42.45
 30
         .00
 11
       16.93
 21
       42.43
 31
         .00
  0
LINE
  8
LAYER
 10
       16.93
 20
       42.43
 30
         .00
 11
       16.93
 21
       42.41
 31
         .00
  0
LINE
  8
LAYER
 10
       16.93
 20
       42.41
 30
         .00
 11
       16.92
 21
       42.39
 31
         .00
  0
LINE
  8
LAYER
 10
       16.92
 20
       42.39
 30
         .00
 11
       16.92
 21
       42.37
 31
         .00
  0
LINE
  8
LAYER
 10
       16.92
 20
       42.37
 30
         .00
 11
       16.92
 21
       42.35
 31
         .00
  0
LINE
  8
LAYER
 10
       16.92
 20
       42.35
 30
         .00
 11
       16.92
 21
       42.33
 31
         .00
  0
LINE
  8
LAYER
 10
       16.92
 20
       42.33
 30
         .00
 11
       16.92
 21
       42.31
 31
         .00
  0
LINE
  8
LAYER
 10
        3.48
 20
       42.22
 30
         .00
 11
        3.48
 21
       42.22
 31
         .00
  0
LINE
  8
LAYER
 10
        3.48
 20
       42.22
 30
         .00
 11
        3.48
 21
       42.23
 31
         .00
  0
LINE
  8
LAYER
 10
        3.48
 20
       42.23
 30
         .00
 11
        3.48
 21
       42.25
 31
         .00
  0
LINE
  8
LAYER
 10
        3.48
 20
       42.25
 30
         .00
 11
        3.47
 21
       42.27
 31
         .00
  0
LINE
  8
LAYER
 10
        3.47
 20
       42.27
 30
         .00
 11
        3.46
 21
       42.29
 31
         .00
  0
LINE
  8
LAYER
 10
        3.46
 20
       42.29
 30
         .00
 11
        3.44
 21
       42.31
 31
         .00
  0
LINE
  8
LAYER
 10
        3.44
 20
       42.31
 30
         .00
 11
        3.42
 21
       42.32
 31
         .00
  0
LINE
  8
LAYER
 10
        3.42
 20
       42.32
 30
         .00
 11
        3.40
 21
       42.34
 31
         .00
  0
LINE
  8
LAYER
 10
        3.40
 20
       42.34
 30
         .00
 11
        3.38
 21
       42.36
 31
         .00
  0
LINE
  8
LAYER
 10
        3.38
 20
       42.36
 30
         .00
 11
        3.35
 21
       42.37
 31
         .00
  0
LINE
  8
LAYER
 10
        3.35
 20
       42.37
 30
         .00
 11
        3.33
 21
       42.38
 31
         .00
  0
LINE
  8
LAYER
 10
        3.33
 20
       42.38
 30
         .00
 11
        3.30
 21
       42.40
 31
         .00
  0
LINE
  8
LAYER
 10
        3.30
 20
       42.40
 30
         .00
 11
        3.26
 21
       42.41
 31
         .00
  0
LINE
  8
LAYER
 10
        3.26
 20
       42.41
 30
         .00
 11
        3.23
 21
       42.42
 31
         .00
  0
LINE
  8
LAYER
 10
        3.23
 20
       42.42
 30
         .00
 11
        3.19
 21
       42.43
 31
         .00
  0
LINE
  8
LAYER
 10
        3.19
 20
       42.43
 30
         .00
 11
        3.16
 21
       42.43
 31
         .00
  0
LINE
  8
LAYER
 10
        3.16
 20
       42.43
 30
         .00
 11
        3.12
 21
       42.44
 31
         .00
  0
LINE
  8
LAYER
 10
        3.12
 20
       42.44
 30
         .00
 11
        3.08
 21
       42.44
 31
         .00
  0
LINE
  8
LAYER
 10
        3.08
 20
       42.44
 30
         .00
 11
        3.04
 21
       42.44
 31
         .00
  0
LINE
  8
LAYER
 10
        3.04
 20
       42.44
 30
         .00
 11
        3.00
 21
       42.45
 31
         .00
  0
LINE
  8
LAYER
 10
        3.00
 20
       42.45
 30
         .00
 11
        2.96
 21
       42.44
 31
         .00
  0
LINE
  8
LAYER
 10
        2.96
 20
       42.44
 30
         .00
 11
        2.92
 21
       42.44
 31
         .00
  0
LINE
  8
LAYER
 10
        2.92
 20
       42.44
 30
         .00
 11
        2.89
 21
       42.44
 31
         .00
  0
LINE
  8
LAYER
 10
        2.89
 20
       42.44
 30
         .00
 11
        2.85
 21
       42.43
 31
         .00
  0
LINE
  8
LAYER
 10
        2.85
 20
       42.43
 30
         .00
 11
        2.82
 21
       42.42
 31
         .00
  0
LINE
  8
LAYER
 10
        2.82
 20
       42.42
 30
         .00
 11
        2.78
 21
       42.42
 31
         .00
  0
LINE
  8
LAYER
 10
        2.78
 20
       42.42
 30
         .00
 11
        2.75
 21
       42.41
 31
         .00
  0
LINE
  8
LAYER
 10
        2.75
 20
       42.41
 30
         .00
 11
        2.72
 21
       42.39
 31
         .00
  0
LINE
  8
LAYER
 10
        2.72
 20
       42.39
 30
         .00
 11
        2.69
 21
       42.38
 31
         .00
  0
LINE
  8
LAYER
 10
        2.69
 20
       42.38
 30
         .00
 11
        2.67
 21
       42.37
 31
         .00
  0
LINE
  8
LAYER
 10
        2.67
 20
       42.37
 30
         .00
 11
        2.65
 21
       42.35
 31
         .00
  0
LINE
  8
LAYER
 10
        2.65
 20
       42.35
 30
         .00
 11
        2.63
 21
       42.34
 31
         .00
  0
LINE
  8
LAYER
 10
        2.63
 20
       42.34
 30
         .00
 11
        2.61
 21
       42.32
 31
         .00
  0
LINE
  8
LAYER
 10
        2.61
 20
       42.32
 30
         .00
 11
        2.60
 21
       42.30
 31
         .00
  0
LINE
  8
LAYER
 10
        2.60
 20
       42.30
 30
         .00
 11
        2.59
 21
       42.28
 31
         .00
  0
LINE
  8
LAYER
 10
        2.59
 20
       42.28
 30
         .00
 11
        2.59
 21
       42.27
 31
         .00
  0
LINE
  8
LAYER
 10
        2.59
 20
       42.27
 30
         .00
 11
        2.58
 21
       42.25
 31
         .00
  0
LINE
  8
LAYER
 10
        2.58
 20
       42.25
 30
         .00
 11
        2.59
 21
       42.23
 31
         .00
  0
LINE
  8
LAYER
 10
        2.59
 20
       42.23
 30
         .00
 11
        2.59
 21
       42.21
 31
         .00
  0
LINE
  8
LAYER
 10
        2.59
 20
       42.21
 30
         .00
 11
        2.60
 21
       42.19
 31
         .00
  0
LINE
  8
LAYER
 10
        2.60
 20
       42.19
 30
         .00
 11
        2.61
 21
       42.17
 31
         .00
  0
LINE
  8
LAYER
 10
        2.61
 20
       42.17
 30
         .00
 11
        2.62
 21
       42.16
 31
         .00
  0
LINE
  8
LAYER
 10
        2.62
 20
       42.16
 30
         .00
 11
        2.64
 21
       42.14
 31
         .00
  0
LINE
  8
LAYER
 10
        2.64
 20
       42.14
 30
         .00
 11
        2.66
 21
       42.12
 31
         .00
  0
LINE
  8
LAYER
 10
        2.66
 20
       42.12
 30
         .00
 11
        2.68
 21
       42.11
 31
         .00
  0
LINE
  8
LAYER
 10
        2.68
 20
       42.11
 30
         .00
 11
        2.71
 21
       42.09
 31
         .00
  0
LINE
  8
LAYER
 10
        2.71
 20
       42.09
 30
         .00
 11
        2.74
 21
       42.08
 31
         .00
  0
LINE
  8
LAYER
 10
        2.74
 20
       42.08
 30
         .00
 11
        2.77
 21
       42.07
 31
         .00
  0
LINE
  8
LAYER
 10
        2.77
 20
       42.07
 30
         .00
 11
        2.80
 21
       42.05
 31
         .00
  0
LINE
  8
LAYER
 10
        2.80
 20
       42.05
 30
         .00
 11
        2.84
 21
       42.04
 31
         .00
  0
LINE
  8
LAYER
 10
        2.84
 20
       42.04
 30
         .00
 11
        2.87
 21
       42.04
 31
         .00
  0
LINE
  8
LAYER
 10
        2.87
 20
       42.04
 30
         .00
 11
        2.91
 21
       42.03
 31
         .00
  0
LINE
  8
LAYER
 10
        2.91
 20
       42.03
 30
         .00
 11
        2.95
 21
       42.02
 31
         .00
  0
LINE
  8
LAYER
 10
        2.95
 20
       42.02
 30
         .00
 11
        2.99
 21
       42.02
 31
         .00
  0
LINE
  8
LAYER
 10
        2.99
 20
       42.02
 30
         .00
 11
        3.02
 21
       42.02
 31
         .00
  0
LINE
  8
LAYER
 10
        3.02
 20
       42.02
 30
         .00
 11
        3.06
 21
       42.02
 31
         .00
  0
LINE
  8
LAYER
 10
        3.06
 20
       42.02
 30
         .00
 11
        3.10
 21
       42.02
 31
         .00
  0
LINE
  8
LAYER
 10
        3.10
 20
       42.02
 30
         .00
 11
        3.14
 21
       42.02
 31
         .00
  0
LINE
  8
LAYER
 10
        3.14
 20
       42.02
 30
         .00
 11
        3.18
 21
       42.02
 31
         .00
  0
LINE
  8
LAYER
 10
        3.18
 20
       42.02
 30
         .00
 11
        3.22
 21
       42.03
 31
         .00
  0
LINE
  8
LAYER
 10
        3.22
 20
       42.03
 30
         .00
 11
        3.25
 21
       42.04
 31
         .00
  0
LINE
  8
LAYER
 10
        3.25
 20
       42.04
 30
         .00
 11
        3.28
 21
       42.05
 31
         .00
  0
LINE
  8
LAYER
 10
        3.28
 20
       42.05
 30
         .00
 11
        3.31
 21
       42.06
 31
         .00
  0
LINE
  8
LAYER
 10
        3.31
 20
       42.06
 30
         .00
 11
        3.34
 21
       42.07
 31
         .00
  0
LINE
  8
LAYER
 10
        3.34
 20
       42.07
 30
         .00
 11
        3.37
 21
       42.08
 31
         .00
  0
LINE
  8
LAYER
 10
        3.37
 20
       42.08
 30
         .00
 11
        3.40
 21
       42.10
 31
         .00
  0
LINE
  8
LAYER
 10
        3.40
 20
       42.10
 30
         .00
 11
        3.42
 21
       42.11
 31
         .00
  0
LINE
  8
LAYER
 10
        3.42
 20
       42.11
 30
         .00
 11
        3.44
 21
       42.13
 31
         .00
  0
LINE
  8
LAYER
 10
        3.44
 20
       42.13
 30
         .00
 11
        3.45
 21
       42.14
 31
         .00
  0
LINE
  8
LAYER
 10
        3.45
 20
       42.14
 30
         .00
 11
        3.46
 21
       42.16
 31
         .00
  0
LINE
  8
LAYER
 10
        3.46
 20
       42.16
 30
         .00
 11
        3.47
 21
       42.18
 31
         .00
  0
LINE
  8
LAYER
 10
        3.47
 20
       42.18
 30
         .00
 11
        3.48
 21
       42.20
 31
         .00
  0
LINE
  8
LAYER
 10
        3.48
 20
       42.20
 30
         .00
 11
        3.48
 21
       42.22
 31
         .00
  0
LINE
  8
LAYER
 10
        7.45
 20
       42.18
 30
         .00
 11
        7.45
 21
       42.18
 31
         .00
  0
LINE
  8
LAYER
 10
        7.45
 20
       42.18
 30
         .00
 11
        7.45
 21
       42.16
 31
         .00
  0
LINE
  8
LAYER
 10
        7.45
 20
       42.16
 30
         .00
 11
        7.46
 21
       42.14
 31
         .00
  0
LINE
  8
LAYER
 10
        7.46
 20
       42.14
 30
         .00
 11
        7.47
 21
       42.13
 31
         .00
  0
LINE
  8
LAYER
 10
        7.47
 20
       42.13
 30
         .00
 11
        7.48
 21
       42.11
 31
         .00
  0
LINE
  8
LAYER
 10
        7.48
 20
       42.11
 30
         .00
 11
        7.50
 21
       42.09
 31
         .00
  0
LINE
  8
LAYER
 10
        7.50
 20
       42.09
 30
         .00
 11
        7.52
 21
       42.08
 31
         .00
  0
LINE
  8
LAYER
 10
        7.52
 20
       42.08
 30
         .00
 11
        7.54
 21
       42.06
 31
         .00
  0
LINE
  8
LAYER
 10
        7.54
 20
       42.06
 30
         .00
 11
        7.56
 21
       42.05
 31
         .00
  0
LINE
  8
LAYER
 10
        7.56
 20
       42.05
 30
         .00
 11
        7.58
 21
       42.04
 31
         .00
  0
LINE
  8
LAYER
 10
        7.58
 20
       42.04
 30
         .00
 11
        7.61
 21
       42.03
 31
         .00
  0
LINE
  8
LAYER
 10
        7.61
 20
       42.03
 30
         .00
 11
        7.64
 21
       42.02
 31
         .00
  0
LINE
  8
LAYER
 10
        7.64
 20
       42.02
 30
         .00
 11
        7.67
 21
       42.01
 31
         .00
  0
LINE
  8
LAYER
 10
        7.67
 20
       42.01
 30
         .00
 11
        7.70
 21
       42.01
 31
         .00
  0
LINE
  8
LAYER
 10
        7.70
 20
       42.01
 30
         .00
 11
        7.73
 21
       42.00
 31
         .00
  0
LINE
  8
LAYER
 10
        7.73
 20
       42.00
 30
         .00
 11
        7.77
 21
       42.00
 31
         .00
  0
LINE
  8
LAYER
 10
        7.77
 20
       42.00
 30
         .00
 11
        7.80
 21
       42.00
 31
         .00
  0
LINE
  8
LAYER
 10
        7.80
 20
       42.00
 30
         .00
 11
        7.84
 21
       42.00
 31
         .00
  0
LINE
  8
LAYER
 10
        7.84
 20
       42.00
 30
         .00
 11
        7.87
 21
       42.01
 31
         .00
  0
LINE
  8
LAYER
 10
        7.87
 20
       42.01
 30
         .00
 11
        7.91
 21
       42.01
 31
         .00
  0
LINE
  8
LAYER
 10
        7.91
 20
       42.01
 30
         .00
 11
        7.94
 21
       42.02
 31
         .00
  0
LINE
  8
LAYER
 10
        7.94
 20
       42.02
 30
         .00
 11
        7.98
 21
       42.02
 31
         .00
  0
LINE
  8
LAYER
 10
        7.98
 20
       42.02
 30
         .00
 11
        8.01
 21
       42.03
 31
         .00
  0
LINE
  8
LAYER
 10
        8.01
 20
       42.03
 30
         .00
 11
        8.04
 21
       42.04
 31
         .00
  0
LINE
  8
LAYER
 10
        8.04
 20
       42.04
 30
         .00
 11
        8.07
 21
       42.05
 31
         .00
  0
LINE
  8
LAYER
 10
        8.07
 20
       42.05
 30
         .00
 11
        8.10
 21
       42.07
 31
         .00
  0
LINE
  8
LAYER
 10
        8.10
 20
       42.07
 30
         .00
 11
        8.12
 21
       42.08
 31
         .00
  0
LINE
  8
LAYER
 10
        8.12
 20
       42.08
 30
         .00
 11
        8.15
 21
       42.10
 31
         .00
  0
LINE
  8
LAYER
 10
        8.15
 20
       42.10
 30
         .00
 11
        8.17
 21
       42.11
 31
         .00
  0
LINE
  8
LAYER
 10
        8.17
 20
       42.11
 30
         .00
 11
        8.19
 21
       42.13
 31
         .00
  0
LINE
  8
LAYER
 10
        8.19
 20
       42.13
 30
         .00
 11
        8.21
 21
       42.15
 31
         .00
  0
LINE
  8
LAYER
 10
        8.21
 20
       42.15
 30
         .00
 11
        8.22
 21
       42.17
 31
         .00
  0
LINE
  8
LAYER
 10
        8.22
 20
       42.17
 30
         .00
 11
        8.23
 21
       42.19
 31
         .00
  0
LINE
  8
LAYER
 10
        8.23
 20
       42.19
 30
         .00
 11
        8.24
 21
       42.20
 31
         .00
  0
LINE
  8
LAYER
 10
        8.24
 20
       42.20
 30
         .00
 11
        8.25
 21
       42.22
 31
         .00
  0
LINE
  8
LAYER
 10
        8.25
 20
       42.22
 30
         .00
 11
        8.25
 21
       42.24
 31
         .00
  0
LINE
  8
LAYER
 10
        8.25
 20
       42.24
 30
         .00
 11
        8.25
 21
       42.26
 31
         .00
  0
LINE
  8
LAYER
 10
        8.25
 20
       42.26
 30
         .00
 11
        8.25
 21
       42.28
 31
         .00
  0
LINE
  8
LAYER
 10
        8.25
 20
       42.28
 30
         .00
 11
        8.24
 21
       42.30
 31
         .00
  0
LINE
  8
LAYER
 10
        8.24
 20
       42.30
 30
         .00
 11
        8.23
 21
       42.32
 31
         .00
  0
LINE
  8
LAYER
 10
        8.23
 20
       42.32
 30
         .00
 11
        8.22
 21
       42.33
 31
         .00
  0
LINE
  8
LAYER
 10
        8.22
 20
       42.33
 30
         .00
 11
        8.20
 21
       42.35
 31
         .00
  0
LINE
  8
LAYER
 10
        8.20
 20
       42.35
 30
         .00
 11
        8.19
 21
       42.36
 31
         .00
  0
LINE
  8
LAYER
 10
        8.19
 20
       42.36
 30
         .00
 11
        8.17
 21
       42.38
 31
         .00
  0
LINE
  8
LAYER
 10
        8.17
 20
       42.38
 30
         .00
 11
        8.14
 21
       42.39
 31
         .00
  0
LINE
  8
LAYER
 10
        8.14
 20
       42.39
 30
         .00
 11
        8.12
 21
       42.40
 31
         .00
  0
LINE
  8
LAYER
 10
        8.12
 20
       42.40
 30
         .00
 11
        8.09
 21
       42.41
 31
         .00
  0
LINE
  8
LAYER
 10
        8.09
 20
       42.41
 30
         .00
 11
        8.06
 21
       42.42
 31
         .00
  0
LINE
  8
LAYER
 10
        8.06
 20
       42.42
 30
         .00
 11
        8.03
 21
       42.43
 31
         .00
  0
LINE
  8
LAYER
 10
        8.03
 20
       42.43
 30
         .00
 11
        8.00
 21
       42.43
 31
         .00
  0
LINE
  8
LAYER
 10
        8.00
 20
       42.43
 30
         .00
 11
        7.97
 21
       42.44
 31
         .00
  0
LINE
  8
LAYER
 10
        7.97
 20
       42.44
 30
         .00
 11
        7.93
 21
       42.44
 31
         .00
  0
LINE
  8
LAYER
 10
        7.93
 20
       42.44
 30
         .00
 11
        7.90
 21
       42.44
 31
         .00
  0
LINE
  8
LAYER
 10
        7.90
 20
       42.44
 30
         .00
 11
        7.86
 21
       42.44
 31
         .00
  0
LINE
  8
LAYER
 10
        7.86
 20
       42.44
 30
         .00
 11
        7.83
 21
       42.44
 31
         .00
  0
LINE
  8
LAYER
 10
        7.83
 20
       42.44
 30
         .00
 11
        7.79
 21
       42.43
 31
         .00
  0
LINE
  8
LAYER
 10
        7.79
 20
       42.43
 30
         .00
 11
        7.76
 21
       42.43
 31
         .00
  0
LINE
  8
LAYER
 10
        7.76
 20
       42.43
 30
         .00
 11
        7.73
 21
       42.42
 31
         .00
  0
LINE
  8
LAYER
 10
        7.73
 20
       42.42
 30
         .00
 11
        7.69
 21
       42.41
 31
         .00
  0
LINE
  8
LAYER
 10
        7.69
 20
       42.41
 30
         .00
 11
        7.66
 21
       42.40
 31
         .00
  0
LINE
  8
LAYER
 10
        7.66
 20
       42.40
 30
         .00
 11
        7.63
 21
       42.39
 31
         .00
  0
LINE
  8
LAYER
 10
        7.63
 20
       42.39
 30
         .00
 11
        7.60
 21
       42.38
 31
         .00
  0
LINE
  8
LAYER
 10
        7.60
 20
       42.38
 30
         .00
 11
        7.58
 21
       42.36
 31
         .00
  0
LINE
  8
LAYER
 10
        7.58
 20
       42.36
 30
         .00
 11
        7.55
 21
       42.35
 31
         .00
  0
LINE
  8
LAYER
 10
        7.55
 20
       42.35
 30
         .00
 11
        7.53
 21
       42.33
 31
         .00
  0
LINE
  8
LAYER
 10
        7.53
 20
       42.33
 30
         .00
 11
        7.51
 21
       42.31
 31
         .00
  0
LINE
  8
LAYER
 10
        7.51
 20
       42.31
 30
         .00
 11
        7.49
 21
       42.30
 31
         .00
  0
LINE
  8
LAYER
 10
        7.49
 20
       42.30
 30
         .00
 11
        7.48
 21
       42.28
 31
         .00
  0
LINE
  8
LAYER
 10
        7.48
 20
       42.28
 30
         .00
 11
        7.47
 21
       42.26
 31
         .00
  0
LINE
  8
LAYER
 10
        7.47
 20
       42.26
 30
         .00
 11
        7.46
 21
       42.24
 31
         .00
  0
LINE
  8
LAYER
 10
        7.46
 20
       42.24
 30
         .00
 11
        7.45
 21
       42.22
 31
         .00
  0
LINE
  8
LAYER
 10
        7.45
 20
       42.22
 30
         .00
 11
        7.45
 21
       42.20
 31
         .00
  0
LINE
  8
LAYER
 10
        7.45
 20
       42.20
 30
         .00
 11
        7.45
 21
       42.18
 31
         .00
  0
LINE
  8
LAYER
 10
       10.76
 20
       42.16
 30
         .00
 11
       10.76
 21
       42.16
 31
         .00
  0
LINE
  8
LAYER
 10
       10.76
 20
       42.16
 30
         .00
 11
       10.76
 21
       42.15
 31
         .00
  0
LINE
  8
LAYER
 10
       10.76
 20
       42.15
 30
         .00
 11
       10.77
 21
       42.13
 31
         .00
  0
LINE
  8
LAYER
 10
       10.77
 20
       42.13
 30
         .00
 11
       10.78
 21
       42.11
 31
         .00
  0
LINE
  8
LAYER
 10
       10.78
 20
       42.11
 30
         .00
 11
       10.79
 21
       42.10
 31
         .00
  0
LINE
  8
LAYER
 10
       10.79
 20
       42.10
 30
         .00
 11
       10.81
 21
       42.08
 31
         .00
  0
LINE
  8
LAYER
 10
       10.81
 20
       42.08
 30
         .00
 11
       10.83
 21
       42.07
 31
         .00
  0
LINE
  8
LAYER
 10
       10.83
 20
       42.07
 30
         .00
 11
       10.85
 21
       42.06
 31
         .00
  0
LINE
  8
LAYER
 10
       10.85
 20
       42.06
 30
         .00
 11
       10.87
 21
       42.04
 31
         .00
  0
LINE
  8
LAYER
 10
       10.87
 20
       42.04
 30
         .00
 11
       10.90
 21
       42.03
 31
         .00
  0
LINE
  8
LAYER
 10
       10.90
 20
       42.03
 30
         .00
 11
       10.92
 21
       42.03
 31
         .00
  0
LINE
  8
LAYER
 10
       10.92
 20
       42.03
 30
         .00
 11
       10.95
 21
       42.02
 31
         .00
  0
LINE
  8
LAYER
 10
       10.95
 20
       42.02
 30
         .00
 11
       10.98
 21
       42.02
 31
         .00
  0
LINE
  8
LAYER
 10
       10.98
 20
       42.02
 30
         .00
 11
       11.01
 21
       42.01
 31
         .00
  0
LINE
  8
LAYER
 10
       11.01
 20
       42.01
 30
         .00
 11
       11.05
 21
       42.01
 31
         .00
  0
LINE
  8
LAYER
 10
       11.05
 20
       42.01
 30
         .00
 11
       11.08
 21
       42.01
 31
         .00
  0
LINE
  8
LAYER
 10
       11.08
 20
       42.01
 30
         .00
 11
       11.11
 21
       42.01
 31
         .00
  0
LINE
  8
LAYER
 10
       11.11
 20
       42.01
 30
         .00
 11
       11.15
 21
       42.02
 31
         .00
  0
LINE
  8
LAYER
 10
       11.15
 20
       42.02
 30
         .00
 11
       11.18
 21
       42.02
 31
         .00
  0
LINE
  8
LAYER
 10
       11.18
 20
       42.02
 30
         .00
 11
       11.21
 21
       42.03
 31
         .00
  0
LINE
  8
LAYER
 10
       11.21
 20
       42.03
 30
         .00
 11
       11.24
 21
       42.04
 31
         .00
  0
LINE
  8
LAYER
 10
       11.24
 20
       42.04
 30
         .00
 11
       11.28
 21
       42.05
 31
         .00
  0
LINE
  8
LAYER
 10
       11.28
 20
       42.05
 30
         .00
 11
       11.31
 21
       42.06
 31
         .00
  0
LINE
  8
LAYER
 10
       11.31
 20
       42.06
 30
         .00
 11
       11.34
 21
       42.07
 31
         .00
  0
LINE
  8
LAYER
 10
       11.34
 20
       42.07
 30
         .00
 11
       11.36
 21
       42.09
 31
         .00
  0
LINE
  8
LAYER
 10
       11.36
 20
       42.09
 30
         .00
 11
       11.39
 21
       42.10
 31
         .00
  0
LINE
  8
LAYER
 10
       11.39
 20
       42.10
 30
         .00
 11
       11.42
 21
       42.12
 31
         .00
  0
LINE
  8
LAYER
 10
       11.42
 20
       42.12
 30
         .00
 11
       11.44
 21
       42.14
 31
         .00
  0
LINE
  8
LAYER
 10
       11.44
 20
       42.14
 30
         .00
 11
       11.46
 21
       42.16
 31
         .00
  0
LINE
  8
LAYER
 10
       11.46
 20
       42.16
 30
         .00
 11
       11.47
 21
       42.17
 31
         .00
  0
LINE
  8
LAYER
 10
       11.47
 20
       42.17
 30
         .00
 11
       11.49
 21
       42.19
 31
         .00
  0
LINE
  8
LAYER
 10
       11.49
 20
       42.19
 30
         .00
 11
       11.50
 21
       42.21
 31
         .00
  0
LINE
  8
LAYER
 10
       11.50
 20
       42.21
 30
         .00
 11
       11.51
 21
       42.23
 31
         .00
  0
LINE
  8
LAYER
 10
       11.51
 20
       42.23
 30
         .00
 11
       11.52
 21
       42.25
 31
         .00
  0
LINE
  8
LAYER
 10
       11.52
 20
       42.25
 30
         .00
 11
       11.52
 21
       42.27
 31
         .00
  0
LINE
  8
LAYER
 10
       11.52
 20
       42.27
 30
         .00
 11
       11.52
 21
       42.29
 31
         .00
  0
LINE
  8
LAYER
 10
       11.52
 20
       42.29
 30
         .00
 11
       11.52
 21
       42.31
 31
         .00
  0
LINE
  8
LAYER
 10
       11.52
 20
       42.31
 30
         .00
 11
       11.52
 21
       42.33
 31
         .00
  0
LINE
  8
LAYER
 10
       11.52
 20
       42.33
 30
         .00
 11
       11.51
 21
       42.35
 31
         .00
  0
LINE
  8
LAYER
 10
       11.51
 20
       42.35
 30
         .00
 11
       11.50
 21
       42.36
 31
         .00
  0
LINE
  8
LAYER
 10
       11.50
 20
       42.36
 30
         .00
 11
       11.48
 21
       42.38
 31
         .00
  0
LINE
  8
LAYER
 10
       11.48
 20
       42.38
 30
         .00
 11
       11.47
 21
       42.39
 31
         .00
  0
LINE
  8
LAYER
 10
       11.47
 20
       42.39
 30
         .00
 11
       11.45
 21
       42.41
 31
         .00
  0
LINE
  8
LAYER
 10
       11.45
 20
       42.41
 30
         .00
 11
       11.43
 21
       42.42
 31
         .00
  0
LINE
  8
LAYER
 10
       11.43
 20
       42.42
 30
         .00
 11
       11.40
 21
       42.43
 31
         .00
  0
LINE
  8
LAYER
 10
       11.40
 20
       42.43
 30
         .00
 11
       11.38
 21
       42.44
 31
         .00
  0
LINE
  8
LAYER
 10
       11.38
 20
       42.44
 30
         .00
 11
       11.35
 21
       42.45
 31
         .00
  0
LINE
  8
LAYER
 10
       11.35
 20
       42.45
 30
         .00
 11
       11.32
 21
       42.45
 31
         .00
  0
LINE
  8
LAYER
 10
       11.32
 20
       42.45
 30
         .00
 11
       11.29
 21
       42.46
 31
         .00
  0
LINE
  8
LAYER
 10
       11.29
 20
       42.46
 30
         .00
 11
       11.26
 21
       42.46
 31
         .00
  0
LINE
  8
LAYER
 10
       11.26
 20
       42.46
 30
         .00
 11
       11.23
 21
       42.46
 31
         .00
  0
LINE
  8
LAYER
 10
       11.23
 20
       42.46
 30
         .00
 11
       11.20
 21
       42.46
 31
         .00
  0
LINE
  8
LAYER
 10
       11.20
 20
       42.46
 30
         .00
 11
       11.16
 21
       42.46
 31
         .00
  0
LINE
  8
LAYER
 10
       11.16
 20
       42.46
 30
         .00
 11
       11.13
 21
       42.46
 31
         .00
  0
LINE
  8
LAYER
 10
       11.13
 20
       42.46
 30
         .00
 11
       11.10
 21
       42.45
 31
         .00
  0
LINE
  8
LAYER
 10
       11.10
 20
       42.45
 30
         .00
 11
       11.06
 21
       42.44
 31
         .00
  0
LINE
  8
LAYER
 10
       11.06
 20
       42.44
 30
         .00
 11
       11.03
 21
       42.44
 31
         .00
  0
LINE
  8
LAYER
 10
       11.03
 20
       42.44
 30
         .00
 11
       11.00
 21
       42.43
 31
         .00
  0
LINE
  8
LAYER
 10
       11.00
 20
       42.43
 30
         .00
 11
       10.97
 21
       42.41
 31
         .00
  0
LINE
  8
LAYER
 10
       10.97
 20
       42.41
 30
         .00
 11
       10.94
 21
       42.40
 31
         .00
  0
LINE
  8
LAYER
 10
       10.94
 20
       42.40
 30
         .00
 11
       10.91
 21
       42.39
 31
         .00
  0
LINE
  8
LAYER
 10
       10.91
 20
       42.39
 30
         .00
 11
       10.89
 21
       42.37
 31
         .00
  0
LINE
  8
LAYER
 10
       10.89
 20
       42.37
 30
         .00
 11
       10.86
 21
       42.35
 31
         .00
  0
LINE
  8
LAYER
 10
       10.86
 20
       42.35
 30
         .00
 11
       10.84
 21
       42.34
 31
         .00
  0
LINE
  8
LAYER
 10
       10.84
 20
       42.34
 30
         .00
 11
       10.82
 21
       42.32
 31
         .00
  0
LINE
  8
LAYER
 10
       10.82
 20
       42.32
 30
         .00
 11
       10.80
 21
       42.30
 31
         .00
  0
LINE
  8
LAYER
 10
       10.80
 20
       42.30
 30
         .00
 11
       10.79
 21
       42.28
 31
         .00
  0
LINE
  8
LAYER
 10
       10.79
 20
       42.28
 30
         .00
 11
       10.78
 21
       42.26
 31
         .00
  0
LINE
  8
LAYER
 10
       10.78
 20
       42.26
 30
         .00
 11
       10.77
 21
       42.24
 31
         .00
  0
LINE
  8
LAYER
 10
       10.77
 20
       42.24
 30
         .00
 11
       10.76
 21
       42.22
 31
         .00
  0
LINE
  8
LAYER
 10
       10.76
 20
       42.22
 30
         .00
 11
       10.76
 21
       42.20
 31
         .00
  0
LINE
  8
LAYER
 10
       10.76
 20
       42.20
 30
         .00
 11
       10.75
 21
       42.18
 31
         .00
  0
LINE
  8
LAYER
 10
       10.75
 20
       42.18
 30
         .00
 11
       10.76
 21
       42.16
 31
         .00
  0
LINE
  8
LAYER
 10
        -.49
 20
       23.68
 30
         .00
 11
        -.49
 21
       23.68
 31
         .00
  0
LINE
  8
LAYER
 10
        -.49
 20
       23.68
 30
         .00
 11
        -.48
 21
       23.67
 31
         .00
  0
LINE
  8
LAYER
 10
        -.48
 20
       23.67
 30
         .00
 11
        -.47
 21
       23.66
 31
         .00
  0
LINE
  8
LAYER
 10
        -.47
 20
       23.66
 30
         .00
 11
        -.46
 21
       23.66
 31
         .00
  0
LINE
  8
LAYER
 10
        -.46
 20
       23.66
 30
         .00
 11
        -.45
 21
       23.66
 31
         .00
  0
LINE
  8
LAYER
 10
        -.45
 20
       23.66
 30
         .00
 11
        -.44
 21
       23.66
 31
         .00
  0
LINE
  8
LAYER
 10
        -.44
 20
       23.66
 30
         .00
 11
        -.43
 21
       23.66
 31
         .00
  0
LINE
  8
LAYER
 10
        -.43
 20
       23.66
 30
         .00
 11
        -.41
 21
       23.66
 31
         .00
  0
LINE
  8
LAYER
 10
        -.41
 20
       23.66
 30
         .00
 11
        -.40
 21
       23.66
 31
         .00
  0
LINE
  8
LAYER
 10
        -.40
 20
       23.66
 30
         .00
 11
        -.39
 21
       23.66
 31
         .00
  0
LINE
  8
LAYER
 10
        -.39
 20
       23.66
 30
         .00
 11
        -.37
 21
       23.67
 31
         .00
  0
LINE
  8
LAYER
 10
        -.37
 20
       23.67
 30
         .00
 11
        -.36
 21
       23.67
 31
         .00
  0
LINE
  8
LAYER
 10
        -.36
 20
       23.67
 30
         .00
 11
        -.34
 21
       23.68
 31
         .00
  0
LINE
  8
LAYER
 10
        -.34
 20
       23.68
 30
         .00
 11
        -.32
 21
       23.69
 31
         .00
  0
LINE
  8
LAYER
 10
        -.32
 20
       23.69
 30
         .00
 11
        -.31
 21
       23.70
 31
         .00
  0
LINE
  8
LAYER
 10
        -.31
 20
       23.70
 30
         .00
 11
        -.29
 21
       23.71
 31
         .00
  0
LINE
  8
LAYER
 10
        -.29
 20
       23.71
 30
         .00
 11
        -.28
 21
       23.72
 31
         .00
  0
LINE
  8
LAYER
 10
        -.28
 20
       23.72
 30
         .00
 11
        -.26
 21
       23.73
 31
         .00
  0
LINE
  8
LAYER
 10
        -.26
 20
       23.73
 30
         .00
 11
        -.25
 21
       23.75
 31
         .00
  0
LINE
  8
LAYER
 10
        -.25
 20
       23.75
 30
         .00
 11
        -.23
 21
       23.76
 31
         .00
  0
LINE
  8
LAYER
 10
        -.23
 20
       23.76
 30
         .00
 11
        -.22
 21
       23.77
 31
         .00
  0
LINE
  8
LAYER
 10
        -.22
 20
       23.77
 30
         .00
 11
        -.21
 21
       23.79
 31
         .00
  0
LINE
  8
LAYER
 10
        -.21
 20
       23.79
 30
         .00
 11
        -.19
 21
       23.80
 31
         .00
  0
LINE
  8
LAYER
 10
        -.19
 20
       23.80
 30
         .00
 11
        -.18
 21
       23.82
 31
         .00
  0
LINE
  8
LAYER
 10
        -.18
 20
       23.82
 30
         .00
 11
        -.17
 21
       23.83
 31
         .00
  0
LINE
  8
LAYER
 10
        -.17
 20
       23.83
 30
         .00
 11
        -.16
 21
       23.85
 31
         .00
  0
LINE
  8
LAYER
 10
        -.16
 20
       23.85
 30
         .00
 11
        -.16
 21
       23.86
 31
         .00
  0
LINE
  8
LAYER
 10
        -.16
 20
       23.86
 30
         .00
 11
        -.15
 21
       23.88
 31
         .00
  0
LINE
  8
LAYER
 10
        -.15
 20
       23.88
 30
         .00
 11
        -.15
 21
       23.89
 31
         .00
  0
LINE
  8
LAYER
 10
        -.15
 20
       23.89
 30
         .00
 11
        -.14
 21
       23.90
 31
         .00
  0
LINE
  8
LAYER
 10
        -.14
 20
       23.90
 30
         .00
 11
        -.14
 21
       23.92
 31
         .00
  0
LINE
  8
LAYER
 10
        -.14
 20
       23.92
 30
         .00
 11
        -.14
 21
       23.93
 31
         .00
  0
LINE
  8
LAYER
 10
        -.14
 20
       23.93
 30
         .00
 11
        -.14
 21
       23.94
 31
         .00
  0
LINE
  8
LAYER
 10
        -.14
 20
       23.94
 30
         .00
 11
        -.14
 21
       23.95
 31
         .00
  0
LINE
  8
LAYER
 10
        -.14
 20
       23.95
 30
         .00
 11
        -.14
 21
       23.96
 31
         .00
  0
LINE
  8
LAYER
 10
        -.14
 20
       23.96
 30
         .00
 11
        -.15
 21
       23.97
 31
         .00
  0
LINE
  8
LAYER
 10
        -.15
 20
       23.97
 30
         .00
 11
        -.15
 21
       23.98
 31
         .00
  0
LINE
  8
LAYER
 10
        -.15
 20
       23.98
 30
         .00
 11
        -.16
 21
       23.98
 31
         .00
  0
LINE
  8
LAYER
 10
        -.16
 20
       23.98
 30
         .00
 11
        -.17
 21
       23.99
 31
         .00
  0
LINE
  8
LAYER
 10
        -.17
 20
       23.99
 30
         .00
 11
        -.18
 21
       23.99
 31
         .00
  0
LINE
  8
LAYER
 10
        -.18
 20
       23.99
 30
         .00
 11
        -.19
 21
       23.99
 31
         .00
  0
LINE
  8
LAYER
 10
        -.19
 20
       23.99
 30
         .00
 11
        -.20
 21
       24.00
 31
         .00
  0
LINE
  8
LAYER
 10
        -.20
 20
       24.00
 30
         .00
 11
        -.21
 21
       24.00
 31
         .00
  0
LINE
  8
LAYER
 10
        -.21
 20
       24.00
 30
         .00
 11
        -.22
 21
       24.00
 31
         .00
  0
LINE
  8
LAYER
 10
        -.22
 20
       24.00
 30
         .00
 11
        -.24
 21
       23.99
 31
         .00
  0
LINE
  8
LAYER
 10
        -.24
 20
       23.99
 30
         .00
 11
        -.25
 21
       23.99
 31
         .00
  0
LINE
  8
LAYER
 10
        -.25
 20
       23.99
 30
         .00
 11
        -.27
 21
       23.98
 31
         .00
  0
LINE
  8
LAYER
 10
        -.27
 20
       23.98
 30
         .00
 11
        -.28
 21
       23.98
 31
         .00
  0
LINE
  8
LAYER
 10
        -.28
 20
       23.98
 30
         .00
 11
        -.30
 21
       23.97
 31
         .00
  0
LINE
  8
LAYER
 10
        -.30
 20
       23.97
 30
         .00
 11
        -.31
 21
       23.96
 31
         .00
  0
LINE
  8
LAYER
 10
        -.31
 20
       23.96
 30
         .00
 11
        -.33
 21
       23.95
 31
         .00
  0
LINE
  8
LAYER
 10
        -.33
 20
       23.95
 30
         .00
 11
        -.35
 21
       23.94
 31
         .00
  0
LINE
  8
LAYER
 10
        -.35
 20
       23.94
 30
         .00
 11
        -.36
 21
       23.93
 31
         .00
  0
LINE
  8
LAYER
 10
        -.36
 20
       23.93
 30
         .00
 11
        -.38
 21
       23.92
 31
         .00
  0
LINE
  8
LAYER
 10
        -.38
 20
       23.92
 30
         .00
 11
        -.39
 21
       23.91
 31
         .00
  0
LINE
  8
LAYER
 10
        -.39
 20
       23.91
 30
         .00
 11
        -.41
 21
       23.89
 31
         .00
  0
LINE
  8
LAYER
 10
        -.41
 20
       23.89
 30
         .00
 11
        -.42
 21
       23.88
 31
         .00
  0
LINE
  8
LAYER
 10
        -.42
 20
       23.88
 30
         .00
 11
        -.43
 21
       23.86
 31
         .00
  0
LINE
  8
LAYER
 10
        -.43
 20
       23.86
 30
         .00
 11
        -.44
 21
       23.85
 31
         .00
  0
LINE
  8
LAYER
 10
        -.44
 20
       23.85
 30
         .00
 11
        -.46
 21
       23.83
 31
         .00
  0
LINE
  8
LAYER
 10
        -.46
 20
       23.83
 30
         .00
 11
        -.47
 21
       23.82
 31
         .00
  0
LINE
  8
LAYER
 10
        -.47
 20
       23.82
 30
         .00
 11
        -.47
 21
       23.81
 31
         .00
  0
LINE
  8
LAYER
 10
        -.47
 20
       23.81
 30
         .00
 11
        -.48
 21
       23.79
 31
         .00
  0
LINE
  8
LAYER
 10
        -.48
 20
       23.79
 30
         .00
 11
        -.49
 21
       23.78
 31
         .00
  0
LINE
  8
LAYER
 10
        -.49
 20
       23.78
 30
         .00
 11
        -.49
 21
       23.76
 31
         .00
  0
LINE
  8
LAYER
 10
        -.49
 20
       23.76
 30
         .00
 11
        -.50
 21
       23.75
 31
         .00
  0
LINE
  8
LAYER
 10
        -.50
 20
       23.75
 30
         .00
 11
        -.50
 21
       23.74
 31
         .00
  0
LINE
  8
LAYER
 10
        -.50
 20
       23.74
 30
         .00
 11
        -.50
 21
       23.72
 31
         .00
  0
LINE
  8
LAYER
 10
        -.50
 20
       23.72
 30
         .00
 11
        -.50
 21
       23.71
 31
         .00
  0
LINE
  8
LAYER
 10
        -.50
 20
       23.71
 30
         .00
 11
        -.50
 21
       23.70
 31
         .00
  0
LINE
  8
LAYER
 10
        -.50
 20
       23.70
 30
         .00
 11
        -.50
 21
       23.69
 31
         .00
  0
LINE
  8
LAYER
 10
        -.50
 20
       23.69
 30
         .00
 11
        -.49
 21
       23.68
 31
         .00
  0
LINE
  8
LAYER
 10
        -.49
 20
       23.68
 30
         .00
 11
        -.49
 21
       23.68
 31
         .00
  0
LINE
  8
LAYER
 10
        -.67
 20
       -2.03
 30
         .00
 11
         .33
 21
       -2.03
 31
         .00
  0
LINE
  8
LAYER
 10
        -.67
 20
       -1.93
 30
         .00
 11
        -.67
 21
       -2.13
 31
         .00
  0
LINE
  8
LAYER
 10
         .33
 20
       -1.93
 30
         .00
 11
         .33
 21
       -2.13
 31
         .00
  0
TEXT
  8
LAYER
  1
 0 cm
 40
600
 10
        -.67
 20
       -1.83
 30
         .00
  0
ENDSEC
  0
EOF
