  0
SECTION
  2
ENTITIES
  0
LINE
  8
LAYER
 10
         .00
 20
         .00
 30
         .00
 11
        -.32
 21
       23.82
 31
         .00
  0
LINE
  8
LAYER
 10
         .00
 20
         .00
 30
         .00
 11
       16.28
 21
       11.20
 31
         .00
  0
LINE
  8
LAYER
 10
         .00
 20
         .00
 30
         .00
 11
       17.05
 21
       -2.03
 31
         .00
  0
LINE
  8
LAYER
 10
       17.05
 20
       -2.03
 30
         .00
 11
         .00
 21
         .00
 31
         .00
  0
LINE
  8
LAYER
 10
       17.05
 20
       -2.03
 30
         .00
 11
        -.32
 21
       23.82
 31
         .00
  0
LINE
  8
LAYER
 10
       17.05
 20
       -2.03
 30
         .00
 11
       16.28
 21
       11.20
 31
         .00
  0
LINE
  8
LAYER
 10
       16.28
 20
       11.20
 30
         .00
 11
         .00
 21
         .00
 31
         .00
  0
LINE
  8
LAYER
 10
       16.28
 20
       11.20
 30
         .00
 11
        -.32
 21
       23.82
 31
         .00
  0
LINE
  8
LAYER
 10
       16.28
 20
       11.20
 30
         .00
 11
        -.62
 21
       42.44
 31
         .00
  0
LINE
  8
LAYER
 10
       16.28
 20
       11.20
 30
         .00
 11
        3.56
 21
       42.39
 31
         .00
  0
LINE
  8
LAYER
 10
       16.28
 20
       11.20
 30
         .00
 11
        8.10
 21
       42.38
 31
         .00
  0
LINE
  8
LAYER
 10
       16.28
 20
       11.20
 30
         .00
 11
       12.69
 21
       42.39
 31
         .00
  0
LINE
  8
LAYER
 10
       16.28
 20
       11.20
 30
         .00
 11
       17.33
 21
       42.44
 31
         .00
  0
LINE
  8
LAYER
 10
       16.28
 20
       11.20
 30
         .00
 11
       17.05
 21
       -2.03
 31
         .00
  0
LINE
  8
LAYER
 10
       16.28
 20
       11.20
 30
         .00
 11
         .00
 21
         .00
 31
         .00
  0
LINE
  8
LAYER
 10
       16.28
 20
       11.20
 30
         .00
 11
        -.32
 21
       23.82
 31
         .00
  0
LINE
  8
LAYER
 10
       16.28
 20
       11.20
 30
         .00
 11
        -.67
 21
       42.22
 31
         .00
  0
LINE
  8
LAYER
 10
       16.28
 20
       11.20
 30
         .00
 11
        3.04
 21
       42.23
 31
         .00
  0
LINE
  8
LAYER
 10
       16.28
 20
       11.20
 30
         .00
 11
        7.85
 21
       42.22
 31
         .00
  0
LINE
  8
LAYER
 10
       16.28
 20
       11.20
 30
         .00
 11
       11.14
 21
       42.24
 31
         .00
  0
LINE
  8
LAYER
 10
       16.28
 20
       11.20
 30
         .00
 11
       17.30
 21
       42.45
 31
         .00
  0
LINE
  8
LAYER
 10
       16.28
 20
       11.20
 30
         .00
 11
       17.05
 21
       -2.03
 31
         .00
  0
LINE
  8
LAYER
 10
        -.32
 20
       23.82
 30
         .00
 11
         .00
 21
         .00
 31
         .00
  0
LINE
  8
LAYER
 10
        -.32
 20
       23.82
 30
         .00
 11
        -.62
 21
       42.44
 31
         .00
  0
LINE
  8
LAYER
 10
        -.32
 20
       23.82
 30
         .00
 11
        3.56
 21
       42.39
 31
         .00
  0
LINE
  8
LAYER
 10
        -.32
 20
       23.82
 30
         .00
 11
        8.10
 21
       42.38
 31
         .00
  0
LINE
  8
LAYER
 10
        -.32
 20
       23.82
 30
         .00
 11
       12.69
 21
       42.39
 31
         .00
  0
LINE
  8
LAYER
 10
        -.32
 20
       23.82
 30
         .00
 11
       17.33
 21
       42.44
 31
         .00
  0
LINE
  8
LAYER
 10
        -.32
 20
       23.82
 30
         .00
 11
       16.28
 21
       11.20
 31
         .00
  0
LINE
  8
LAYER
 10
        -.32
 20
       23.82
 30
         .00
 11
       17.05
 21
       -2.03
 31
         .00
  0
LINE
  8
LAYER
 10
        -.32
 20
       23.82
 30
         .00
 11
         .00
 21
         .00
 31
         .00
  0
LINE
  8
LAYER
 10
        -.32
 20
       23.82
 30
         .00
 11
        -.67
 21
       42.22
 31
         .00
  0
LINE
  8
LAYER
 10
        -.32
 20
       23.82
 30
         .00
 11
        3.04
 21
       42.23
 31
         .00
  0
LINE
  8
LAYER
 10
        -.32
 20
       23.82
 30
         .00
 11
        7.85
 21
       42.22
 31
         .00
  0
LINE
  8
LAYER
 10
        -.32
 20
       23.82
 30
         .00
 11
       11.14
 21
       42.24
 31
         .00
  0
LINE
  8
LAYER
 10
        -.32
 20
       23.82
 30
         .00
 11
       17.30
 21
       42.45
 31
         .00
  0
LINE
  8
LAYER
 10
        -.32
 20
       23.82
 30
         .00
 11
       16.28
 21
       11.20
 31
         .00
  0
ENDSEC
  0
EOF
