  0
SECTION
  2
ENTITIES
  0
LINE
  8
LAYER
 10
    11742.41
 20
  -283760.63
 30
         .00
 11
     9571.96
 21
  -278594.10
 31
         .00
  0
LINE
  8
LAYER
 10
    11742.41
 20
  -283760.63
 30
         .00
 11
    13422.40
 21
  -280906.39
 31
         .00
  0
LINE
  8
LAYER
 10
    11742.41
 20
  -283760.63
 30
         .00
 11
    17796.21
 21
  -284937.47
 31
         .00
  0
LINE
  8
LAYER
 10
    11742.41
 20
  -283760.63
 30
         .00
 11
    12391.30
 21
  -287702.72
 31
         .00
  0
LINE
  8
LAYER
 10
    11742.41
 20
  -283760.63
 30
         .00
 11
     8022.73
 21
  -289247.82
 31
         .00
  0
LINE
  8
LAYER
 10
    11742.41
 20
  -283760.63
 30
         .00
 11
     6404.28
 21
  -283568.74
 31
         .00
  0
LINE
  8
LAYER
 10
    12391.30
 20
  -287702.72
 30
         .00
 11
    11742.41
 21
  -283760.63
 31
         .00
  0
LINE
  8
LAYER
 10
    12391.30
 20
  -287702.72
 30
         .00
 11
    17796.21
 21
  -284937.47
 31
         .00
  0
LINE
  8
LAYER
 10
    12391.30
 20
  -287702.72
 30
         .00
 11
    15324.56
 21
  -292748.70
 31
         .00
  0
LINE
  8
LAYER
 10
    12391.30
 20
  -287702.72
 30
         .00
 11
    11711.09
 21
  -291768.33
 31
         .00
  0
LINE
  8
LAYER
 10
    12391.30
 20
  -287702.72
 30
         .00
 11
     8022.73
 21
  -289247.82
 31
         .00
  0
LINE
  8
LAYER
 10
    11711.09
 20
  -291768.33
 30
         .00
 11
    12391.30
 21
  -287702.72
 31
         .00
  0
LINE
  8
LAYER
 10
    11711.09
 20
  -291768.33
 30
         .00
 11
    15324.56
 21
  -292748.70
 31
         .00
  0
LINE
  8
LAYER
 10
    11711.09
 20
  -291768.33
 30
         .00
 11
     8022.73
 21
  -289247.82
 31
         .00
  0
LINE
  8
LAYER
 10
     8022.73
 20
  -289247.82
 30
         .00
 11
     6404.28
 21
  -283568.74
 31
         .00
  0
LINE
  8
LAYER
 10
     8022.73
 20
  -289247.82
 30
         .00
 11
    11742.41
 21
  -283760.63
 31
         .00
  0
LINE
  8
LAYER
 10
     8022.73
 20
  -289247.82
 30
         .00
 11
    12391.30
 21
  -287702.72
 31
         .00
  0
LINE
  8
LAYER
 10
     8022.73
 20
  -289247.82
 30
         .00
 11
    11711.09
 21
  -291768.33
 31
         .00
  0
LINE
  8
LAYER
 10
     8022.73
 20
  -289247.82
 30
         .00
 11
     6529.08
 21
  -289854.20
 31
         .00
  0
LINE
  8
LAYER
 10
     6529.08
 20
  -289854.20
 30
         .00
 11
     6404.28
 21
  -283568.74
 31
         .00
  0
LINE
  8
LAYER
 10
     6529.08
 20
  -289854.20
 30
         .00
 11
     8022.73
 21
  -289247.82
 31
         .00
  0
LINE
  8
LAYER
 10
     6529.08
 20
  -289854.20
 30
         .00
 11
     2602.70
 21
  -285739.04
 31
         .00
  0
LINE
  8
LAYER
 10
    15324.56
 20
  -292748.70
 30
         .00
 11
    17796.21
 21
  -284937.47
 31
         .00
  0
LINE
  8
LAYER
 10
    15324.56
 20
  -292748.70
 30
         .00
 11
    20696.17
 21
  -289504.95
 31
         .00
  0
LINE
  8
LAYER
 10
    15324.56
 20
  -292748.70
 30
         .00
 11
    22394.71
 21
  -291854.76
 31
         .00
  0
LINE
  8
LAYER
 10
    15324.56
 20
  -292748.70
 30
         .00
 11
    11711.09
 21
  -291768.33
 31
         .00
  0
LINE
  8
LAYER
 10
    15324.56
 20
  -292748.70
 30
         .00
 11
    12391.30
 21
  -287702.72
 31
         .00
  0
LINE
  8
LAYER
 10
    -2867.24
 20
  -282401.46
 30
         .00
 11
    -3270.85
 21
  -277325.95
 31
         .00
  0
LINE
  8
LAYER
 10
    -2867.24
 20
  -282401.46
 30
         .00
 11
     -473.35
 21
  -278906.96
 31
         .00
  0
LINE
  8
LAYER
 10
    -2867.24
 20
  -282401.46
 30
         .00
 11
     6410.85
 21
  -278553.99
 31
         .00
  0
LINE
  8
LAYER
 10
    -2867.24
 20
  -282401.46
 30
         .00
 11
     2602.70
 21
  -285739.04
 31
         .00
  0
LINE
  8
LAYER
 10
    -2867.24
 20
  -282401.46
 30
         .00
 11
    -2549.99
 21
  -286734.95
 31
         .00
  0
LINE
  8
LAYER
 10
    -2867.24
 20
  -282401.46
 30
         .00
 11
    -4469.59
 21
  -285149.59
 31
         .00
  0
LINE
  8
LAYER
 10
    -2867.24
 20
  -282401.46
 30
         .00
 11
    -5978.30
 21
  -281302.55
 31
         .00
  0
LINE
  8
LAYER
 10
    20696.17
 20
  -289504.95
 30
         .00
 11
    17796.21
 21
  -284937.47
 31
         .00
  0
LINE
  8
LAYER
 10
    20696.17
 20
  -289504.95
 30
         .00
 11
    21874.56
 21
  -283693.06
 31
         .00
  0
LINE
  8
LAYER
 10
    20696.17
 20
  -289504.95
 30
         .00
 11
    22394.71
 21
  -291854.76
 31
         .00
  0
LINE
  8
LAYER
 10
    20696.17
 20
  -289504.95
 30
         .00
 11
    15324.56
 21
  -292748.70
 31
         .00
  0
LINE
  8
LAYER
 10
    21874.56
 20
  -283693.06
 30
         .00
 11
    19688.53
 21
  -278362.35
 31
         .00
  0
LINE
  8
LAYER
 10
    21874.56
 20
  -283693.06
 30
         .00
 11
    17796.21
 21
  -284937.47
 31
         .00
  0
LINE
  8
LAYER
 10
    21874.56
 20
  -283693.06
 30
         .00
 11
    20696.17
 21
  -289504.95
 31
         .00
  0
LINE
  8
LAYER
 10
    17796.21
 20
  -284937.47
 30
         .00
 11
    14053.96
 21
  -278736.98
 31
         .00
  0
LINE
  8
LAYER
 10
    17796.21
 20
  -284937.47
 30
         .00
 11
    19688.53
 21
  -278362.35
 31
         .00
  0
LINE
  8
LAYER
 10
    17796.21
 20
  -284937.47
 30
         .00
 11
    21874.56
 21
  -283693.06
 31
         .00
  0
LINE
  8
LAYER
 10
    17796.21
 20
  -284937.47
 30
         .00
 11
    20696.17
 21
  -289504.95
 31
         .00
  0
LINE
  8
LAYER
 10
    17796.21
 20
  -284937.47
 30
         .00
 11
    15324.56
 21
  -292748.70
 31
         .00
  0
LINE
  8
LAYER
 10
    17796.21
 20
  -284937.47
 30
         .00
 11
    12391.30
 21
  -287702.72
 31
         .00
  0
LINE
  8
LAYER
 10
    17796.21
 20
  -284937.47
 30
         .00
 11
    11742.41
 21
  -283760.63
 31
         .00
  0
LINE
  8
LAYER
 10
    17796.21
 20
  -284937.47
 30
         .00
 11
    13422.40
 21
  -280906.39
 31
         .00
  0
LINE
  8
LAYER
 10
    19688.53
 20
  -278362.35
 30
         .00
 11
    14053.96
 21
  -278736.98
 31
         .00
  0
LINE
  8
LAYER
 10
    19688.53
 20
  -278362.35
 30
         .00
 11
    17796.21
 21
  -284937.47
 31
         .00
  0
LINE
  8
LAYER
 10
    19688.53
 20
  -278362.35
 30
         .00
 11
    21874.56
 21
  -283693.06
 31
         .00
  0
LINE
  8
LAYER
 10
    13422.40
 20
  -280906.39
 30
         .00
 11
     9571.96
 21
  -278594.10
 31
         .00
  0
LINE
  8
LAYER
 10
    13422.40
 20
  -280906.39
 30
         .00
 11
    14053.96
 21
  -278736.98
 31
         .00
  0
LINE
  8
LAYER
 10
    13422.40
 20
  -280906.39
 30
         .00
 11
    17796.21
 21
  -284937.47
 31
         .00
  0
LINE
  8
LAYER
 10
    13422.40
 20
  -280906.39
 30
         .00
 11
    11742.41
 21
  -283760.63
 31
         .00
  0
LINE
  8
LAYER
 10
     6410.85
 20
  -278553.99
 30
         .00
 11
     1946.14
 21
  -278644.07
 31
         .00
  0
LINE
  8
LAYER
 10
     6410.85
 20
  -278553.99
 30
         .00
 11
     -473.35
 21
  -278906.96
 31
         .00
  0
LINE
  8
LAYER
 10
     6410.85
 20
  -278553.99
 30
         .00
 11
    -2867.24
 21
  -282401.46
 31
         .00
  0
LINE
  8
LAYER
 10
     6410.85
 20
  -278553.99
 30
         .00
 11
     2602.70
 21
  -285739.04
 31
         .00
  0
LINE
  8
LAYER
 10
     6410.85
 20
  -278553.99
 30
         .00
 11
     6404.28
 21
  -283568.74
 31
         .00
  0
LINE
  8
LAYER
 10
     6410.85
 20
  -278553.99
 30
         .00
 11
     9571.96
 21
  -278594.10
 31
         .00
  0
LINE
  8
LAYER
 10
     9571.96
 20
  -278594.10
 30
         .00
 11
     6410.85
 21
  -278553.99
 31
         .00
  0
LINE
  8
LAYER
 10
     9571.96
 20
  -278594.10
 30
         .00
 11
     6404.28
 21
  -283568.74
 31
         .00
  0
LINE
  8
LAYER
 10
     9571.96
 20
  -278594.10
 30
         .00
 11
    11742.41
 21
  -283760.63
 31
         .00
  0
LINE
  8
LAYER
 10
     9571.96
 20
  -278594.10
 30
         .00
 11
    13422.40
 21
  -280906.39
 31
         .00
  0
LINE
  8
LAYER
 10
     9571.96
 20
  -278594.10
 30
         .00
 11
    14053.96
 21
  -278736.98
 31
         .00
  0
LINE
  8
LAYER
 10
    -5978.30
 20
  -281302.55
 30
         .00
 11
    -3270.85
 21
  -277325.95
 31
         .00
  0
LINE
  8
LAYER
 10
    -5978.30
 20
  -281302.55
 30
         .00
 11
    -2867.24
 21
  -282401.46
 31
         .00
  0
LINE
  8
LAYER
 10
    -5978.30
 20
  -281302.55
 30
         .00
 11
    -4469.59
 21
  -285149.59
 31
         .00
  0
LINE
  8
LAYER
 10
    -5978.30
 20
  -281302.55
 30
         .00
 11
    -8564.78
 21
  -283226.27
 31
         .00
  0
LINE
  8
LAYER
 10
    -5978.30
 20
  -281302.55
 30
         .00
 11
    -8373.54
 21
  -278925.11
 31
         .00
  0
LINE
  8
LAYER
 10
    -8564.78
 20
  -283226.27
 30
         .00
 11
   -10128.02
 21
  -276349.74
 31
         .00
  0
LINE
  8
LAYER
 10
    -8564.78
 20
  -283226.27
 30
         .00
 11
    -8373.54
 21
  -278925.11
 31
         .00
  0
LINE
  8
LAYER
 10
    -8564.78
 20
  -283226.27
 30
         .00
 11
    -5978.30
 21
  -281302.55
 31
         .00
  0
LINE
  8
LAYER
 10
    -8564.78
 20
  -283226.27
 30
         .00
 11
    -4469.59
 21
  -285149.59
 31
         .00
  0
LINE
  8
LAYER
 10
    -8564.78
 20
  -283226.27
 30
         .00
 11
   -12208.54
 21
  -286012.25
 31
         .00
  0
LINE
  8
LAYER
 10
    -8373.54
 20
  -278925.11
 30
         .00
 11
   -10128.02
 21
  -276349.74
 31
         .00
  0
LINE
  8
LAYER
 10
    -8373.54
 20
  -278925.11
 30
         .00
 11
    -3270.85
 21
  -277325.95
 31
         .00
  0
LINE
  8
LAYER
 10
    -8373.54
 20
  -278925.11
 30
         .00
 11
    -5978.30
 21
  -281302.55
 31
         .00
  0
LINE
  8
LAYER
 10
    -8373.54
 20
  -278925.11
 30
         .00
 11
    -8564.78
 21
  -283226.27
 31
         .00
  0
LINE
  8
LAYER
 10
   -12208.54
 20
  -286012.25
 30
         .00
 11
   -10128.02
 21
  -276349.74
 31
         .00
  0
LINE
  8
LAYER
 10
   -12208.54
 20
  -286012.25
 30
         .00
 11
    -8564.78
 21
  -283226.27
 31
         .00
  0
LINE
  8
LAYER
 10
   -12208.54
 20
  -286012.25
 30
         .00
 11
    -4469.59
 21
  -285149.59
 31
         .00
  0
LINE
  8
LAYER
 10
   -10128.02
 20
  -276349.74
 30
         .00
 11
   -12208.54
 21
  -286012.25
 31
         .00
  0
LINE
  8
LAYER
 10
   -10128.02
 20
  -276349.74
 30
         .00
 11
    -8564.78
 21
  -283226.27
 31
         .00
  0
LINE
  8
LAYER
 10
   -10128.02
 20
  -276349.74
 30
         .00
 11
    -8373.54
 21
  -278925.11
 31
         .00
  0
LINE
  8
LAYER
 10
   -10128.02
 20
  -276349.74
 30
         .00
 11
    -3270.85
 21
  -277325.95
 31
         .00
  0
LINE
  8
LAYER
 10
     2602.70
 20
  -285739.04
 30
         .00
 11
    -2549.99
 21
  -286734.95
 31
         .00
  0
LINE
  8
LAYER
 10
     2602.70
 20
  -285739.04
 30
         .00
 11
    -2867.24
 21
  -282401.46
 31
         .00
  0
LINE
  8
LAYER
 10
     2602.70
 20
  -285739.04
 30
         .00
 11
     6410.85
 21
  -278553.99
 31
         .00
  0
LINE
  8
LAYER
 10
     2602.70
 20
  -285739.04
 30
         .00
 11
     6404.28
 21
  -283568.74
 31
         .00
  0
LINE
  8
LAYER
 10
     2602.70
 20
  -285739.04
 30
         .00
 11
     6529.08
 21
  -289854.20
 31
         .00
  0
LINE
  8
LAYER
 10
    -4469.59
 20
  -285149.59
 30
         .00
 11
   -12208.54
 21
  -286012.25
 31
         .00
  0
LINE
  8
LAYER
 10
    -4469.59
 20
  -285149.59
 30
         .00
 11
    -8564.78
 21
  -283226.27
 31
         .00
  0
LINE
  8
LAYER
 10
    -4469.59
 20
  -285149.59
 30
         .00
 11
    -5978.30
 21
  -281302.55
 31
         .00
  0
LINE
  8
LAYER
 10
    -4469.59
 20
  -285149.59
 30
         .00
 11
    -2867.24
 21
  -282401.46
 31
         .00
  0
LINE
  8
LAYER
 10
    -4469.59
 20
  -285149.59
 30
         .00
 11
    -2549.99
 21
  -286734.95
 31
         .00
  0
LINE
  8
LAYER
 10
    -2549.99
 20
  -286734.95
 30
         .00
 11
    -4469.59
 21
  -285149.59
 31
         .00
  0
LINE
  8
LAYER
 10
    -2549.99
 20
  -286734.95
 30
         .00
 11
    -2867.24
 21
  -282401.46
 31
         .00
  0
LINE
  8
LAYER
 10
    -2549.99
 20
  -286734.95
 30
         .00
 11
     2602.70
 21
  -285739.04
 31
         .00
  0
LINE
  8
LAYER
 10
     6404.28
 20
  -283568.74
 30
         .00
 11
     6410.85
 21
  -278553.99
 31
         .00
  0
LINE
  8
LAYER
 10
     6404.28
 20
  -283568.74
 30
         .00
 11
     9571.96
 21
  -278594.10
 31
         .00
  0
LINE
  8
LAYER
 10
     6404.28
 20
  -283568.74
 30
         .00
 11
    11742.41
 21
  -283760.63
 31
         .00
  0
LINE
  8
LAYER
 10
     6404.28
 20
  -283568.74
 30
         .00
 11
     8022.73
 21
  -289247.82
 31
         .00
  0
LINE
  8
LAYER
 10
     6404.28
 20
  -283568.74
 30
         .00
 11
     6529.08
 21
  -289854.20
 31
         .00
  0
LINE
  8
LAYER
 10
     6404.28
 20
  -283568.74
 30
         .00
 11
     2602.70
 21
  -285739.04
 31
         .00
  0
LINE
  8
LAYER
 10
     -473.35
 20
  -278906.96
 30
         .00
 11
    -3270.85
 21
  -277325.95
 31
         .00
  0
LINE
  8
LAYER
 10
     -473.35
 20
  -278906.96
 30
         .00
 11
    -2867.24
 21
  -282401.46
 31
         .00
  0
LINE
  8
LAYER
 10
     -473.35
 20
  -278906.96
 30
         .00
 11
     6410.85
 21
  -278553.99
 31
         .00
  0
LINE
  8
LAYER
 10
     -473.35
 20
  -278906.96
 30
         .00
 11
     1946.14
 21
  -278644.07
 31
         .00
  0
LINE
  8
LAYER
 10
    -3270.85
 20
  -277325.95
 30
         .00
 11
   -10128.02
 21
  -276349.74
 31
         .00
  0
LINE
  8
LAYER
 10
    -3270.85
 20
  -277325.95
 30
         .00
 11
    -8373.54
 21
  -278925.11
 31
         .00
  0
LINE
  8
LAYER
 10
    -3270.85
 20
  -277325.95
 30
         .00
 11
    -5978.30
 21
  -281302.55
 31
         .00
  0
LINE
  8
LAYER
 10
    -3270.85
 20
  -277325.95
 30
         .00
 11
    -2867.24
 21
  -282401.46
 31
         .00
  0
LINE
  8
LAYER
 10
    -3270.85
 20
  -277325.95
 30
         .00
 11
     -473.35
 21
  -278906.96
 31
         .00
  0
LINE
  8
LAYER
 10
    14053.96
 20
  -278736.98
 30
         .00
 11
     9571.96
 21
  -278594.10
 31
         .00
  0
LINE
  8
LAYER
 10
    14053.96
 20
  -278736.98
 30
         .00
 11
    13422.40
 21
  -280906.39
 31
         .00
  0
LINE
  8
LAYER
 10
    14053.96
 20
  -278736.98
 30
         .00
 11
    17796.21
 21
  -284937.47
 31
         .00
  0
LINE
  8
LAYER
 10
    14053.96
 20
  -278736.98
 30
         .00
 11
    19688.53
 21
  -278362.35
 31
         .00
  0
LINE
  8
LAYER
 10
    15229.22
 20
  -292718.54
 30
         .00
 11
    17700.86
 21
  -284907.30
 31
         .00
  0
LINE
  8
LAYER
 10
    15419.90
 20
  -292778.87
 30
         .00
 11
    17891.55
 21
  -284967.64
 31
         .00
  0
LINE
  8
LAYER
 10
    -8664.68
 20
  -283221.83
 30
         .00
 11
    -8473.44
 21
  -278920.67
 31
         .00
  0
LINE
  8
LAYER
 10
    -8464.88
 20
  -283230.71
 30
         .00
 11
    -8273.64
 21
  -278929.56
 31
         .00
  0
LINE
  8
LAYER
 10
    21648.08
 20
  -284857.27
 30
         .00
 11
    21241.48
 21
  -283943.66
 31
         .00
  0
LINE
  8
LAYER
 10
    21648.08
 20
  -284857.27
 30
         .00
 11
    22367.53
 21
  -284162.72
 31
         .00
  0
LINE
  8
LAYER
 10
    21241.48
 20
  -283943.66
 30
         .00
 11
    22367.53
 21
  -284162.72
 31
         .00
  0
LINE
  8
LAYER
 10
   -11797.53
 20
  -284078.66
 30
         .00
 11
   -11406.80
 21
  -284999.17
 31
         .00
  0
LINE
  8
LAYER
 10
   -11797.53
 20
  -284078.66
 30
         .00
 11
   -12528.88
 21
  -284760.66
 31
         .00
  0
LINE
  8
LAYER
 10
   -11406.80
 20
  -284999.17
 30
         .00
 11
   -12528.88
 21
  -284760.66
 31
         .00
  0
ENDSEC
  0
EOF
