  0
SECTION
  2
ENTITIES
  0
LINE
  8
LAYE
 10
  -8.66826
 20
  42.16362
 30
    .00000
 11
  -8.99626
 21
  41.88362
 31
    .00000
  0
LINE
  8
LAYE
 10
  -8.99626
 20
  41.88362
 30
    .00000
 11
  -8.97956
 21
  41.93075
 31
    .00000
  0
LINE
  8
LAYE
 10
  -8.99626
 20
  41.88362
 30
    .00000
 11
  -8.94710
 21
  41.89272
 31
    .00000
  0
LINE
  8
LAYE
 10
  -8.38160
 20
  42.15301
 30
    .00000
 11
  -8.69560
 21
  41.97001
 31
    .00000
  0
LINE
  8
LAYE
 10
  -8.69560
 20
  41.97001
 30
    .00000
 11
  -8.67078
 21
  42.01341
 31
    .00000
  0
LINE
  8
LAYE
 10
  -8.69560
 20
  41.97001
 30
    .00000
 11
  -8.64560
 21
  41.97021
 31
    .00000
  0
LINE
  8
LAYE
 10
  -8.69453
 20
  41.94867
 30
    .00000
 11
  -8.89653
 21
  41.67767
 31
    .00000
  0
LINE
  8
LAYE
 10
  -8.89653
 20
  41.67767
 30
    .00000
 11
  -8.89070
 21
  41.72733
 31
    .00000
  0
LINE
  8
LAYE
 10
  -8.89653
 20
  41.67767
 30
    .00000
 11
  -8.85061
 21
  41.69745
 31
    .00000
  0
LINE
  8
LAYE
 10
  -8.85112
 20
  41.92002
 30
    .00000
 11
  -9.05412
 21
  41.60002
 31
    .00000
  0
LINE
  8
LAYE
 10
  -9.05412
 20
  41.60002
 30
    .00000
 11
  -9.05203
 21
  41.64998
 31
    .00000
  0
LINE
  8
LAYE
 10
  -9.05412
 20
  41.60002
 30
    .00000
 11
  -9.00981
 21
  41.62319
 31
    .00000
  0
LINE
  8
LAYE
 10
  -8.28282
 20
  41.99108
 30
    .00000
 11
  -8.53082
 21
  41.77108
 31
    .00000
  0
LINE
  8
LAYE
 10
  -8.53082
 20
  41.77108
 30
    .00000
 11
  -8.51502
 21
  41.81852
 31
    .00000
  0
LINE
  8
LAYE
 10
  -8.53082
 20
  41.77108
 30
    .00000
 11
  -8.48184
 21
  41.78111
 31
    .00000
  0
LINE
  8
LAYE
 10
  -7.68352
 20
  41.89128
 30
    .00000
 11
  -8.05152
 21
  41.78228
 31
    .00000
  0
LINE
  8
LAYE
 10
  -8.05152
 20
  41.78228
 30
    .00000
 11
  -8.01710
 21
  41.81855
 31
    .00000
  0
LINE
  8
LAYE
 10
  -8.05152
 20
  41.78228
 30
    .00000
 11
  -8.00290
 21
  41.77061
 31
    .00000
  0
LINE
  8
LAYE
 10
  -6.96830
 20
  41.90063
 30
    .00000
 11
  -7.32130
 21
  42.04263
 31
    .00000
  0
LINE
  8
LAYE
 10
  -7.32130
 20
  42.04263
 30
    .00000
 11
  -7.27180
 21
  42.04966
 31
    .00000
  0
LINE
  8
LAYE
 10
  -7.32130
 20
  42.04263
 30
    .00000
 11
  -7.29046
 21
  42.00328
 31
    .00000
  0
LINE
  8
LAYE
 10
  -7.29372
 20
  41.84530
 30
    .00000
 11
  -7.68872
 21
  41.87830
 31
    .00000
  0
LINE
  8
LAYE
 10
  -7.68872
 20
  41.87830
 30
    .00000
 11
  -7.64349
 21
  41.89961
 31
    .00000
  0
LINE
  8
LAYE
 10
  -7.68872
 20
  41.87830
 30
    .00000
 11
  -7.64765
 21
  41.84978
 31
    .00000
  0
LINE
  8
LAYE
 10
  -6.55589
 20
  41.82944
 30
    .00000
 11
  -6.90789
 21
  42.02944
 31
    .00000
  0
LINE
  8
LAYE
 10
  -6.90789
 20
  42.02944
 30
    .00000
 11
  -6.85789
 21
  42.02979
 31
    .00000
  0
LINE
  8
LAYE
 10
  -6.90789
 20
  42.02944
 30
    .00000
 11
  -6.88259
 21
  41.98631
 31
    .00000
  0
LINE
  8
LAYE
 10
  -8.79330
 20
  41.79885
 30
    .00000
 11
  -8.93830
 21
  41.43985
 31
    .00000
  0
LINE
  8
LAYE
 10
  -8.93830
 20
  41.43985
 30
    .00000
 11
  -8.94526
 21
  41.48936
 31
    .00000
  0
LINE
  8
LAYE
 10
  -8.93830
 20
  41.43985
 30
    .00000
 11
  -8.89890
 21
  41.47064
 31
    .00000
  0
LINE
  8
LAYE
 10
  -8.43937
 20
  41.75031
 30
    .00000
 11
  -8.63937
 21
  41.53431
 31
    .00000
  0
LINE
  8
LAYE
 10
  -8.63937
 20
  41.53431
 30
    .00000
 11
  -8.62829
 21
  41.58307
 31
    .00000
  0
LINE
  8
LAYE
 10
  -8.63937
 20
  41.53431
 30
    .00000
 11
  -8.59161
 21
  41.54910
 31
    .00000
  0
LINE
  8
LAYE
 10
  -8.02339
 20
  41.64937
 30
    .00000
 11
  -8.22239
 21
  41.54537
 31
    .00000
  0
LINE
  8
LAYE
 10
  -8.22239
 20
  41.54537
 30
    .00000
 11
  -8.19559
 21
  41.58758
 31
    .00000
  0
LINE
  8
LAYE
 10
  -8.22239
 20
  41.54537
 30
    .00000
 11
  -8.17243
 21
  41.54327
 31
    .00000
  0
LINE
  8
LAYE
 10
  -7.49259
 20
  41.56151
 30
    .00000
 11
  -7.73759
 21
  41.56851
 31
    .00000
  0
LINE
  8
LAYE
 10
  -7.73759
 20
  41.56851
 30
    .00000
 11
  -7.69359
 21
  41.59226
 31
    .00000
  0
LINE
  8
LAYE
 10
  -7.73759
 20
  41.56851
 30
    .00000
 11
  -7.69502
 21
  41.54228
 31
    .00000
  0
LINE
  8
LAYE
 10
  -6.82651
 20
  41.69978
 30
    .00000
 11
  -7.11651
 21
  41.87478
 31
    .00000
  0
LINE
  8
LAYE
 10
  -7.11651
 20
  41.87478
 30
    .00000
 11
  -7.06652
 21
  41.87381
 31
    .00000
  0
LINE
  8
LAYE
 10
  -7.11651
 20
  41.87478
 30
    .00000
 11
  -7.09235
 21
  41.83100
 31
    .00000
  0
LINE
  8
LAYE
 10
  -6.27812
 20
  41.64088
 30
    .00000
 11
  -6.56712
 21
  41.86188
 31
    .00000
  0
LINE
  8
LAYE
 10
  -6.56712
 20
  41.86188
 30
    .00000
 11
  -6.51754
 21
  41.85544
 31
    .00000
  0
LINE
  8
LAYE
 10
  -6.56712
 20
  41.86188
 30
    .00000
 11
  -6.54791
 21
  41.81572
 31
    .00000
  0
LINE
  8
LAYE
 10
  -6.53690
 20
  41.50676
 30
    .00000
 11
  -6.80190
 21
  41.75076
 31
    .00000
  0
LINE
  8
LAYE
 10
  -6.80190
 20
  41.75076
 30
    .00000
 11
  -6.75311
 21
  41.73982
 31
    .00000
  0
LINE
  8
LAYE
 10
  -6.80190
 20
  41.75076
 30
    .00000
 11
  -6.78698
 21
  41.70304
 31
    .00000
  0
LINE
  8
LAYE
 10
  -8.70960
 20
  41.45347
 30
    .00000
 11
  -8.76660
 21
  41.26847
 31
    .00000
  0
LINE
  8
LAYE
 10
  -8.76660
 20
  41.26847
 30
    .00000
 11
  -8.77774
 21
  41.31721
 31
    .00000
  0
LINE
  8
LAYE
 10
  -8.76660
 20
  41.26847
 30
    .00000
 11
  -8.72996
 21
  41.30249
 31
    .00000
  0
LINE
  8
LAYE
 10
  -8.37500
 20
  41.33426
 30
    .00000
 11
  -8.48500
 21
  41.23026
 31
    .00000
  0
LINE
  8
LAYE
 10
  -8.48500
 20
  41.23026
 30
    .00000
 11
  -8.47071
 21
  41.27817
 31
    .00000
  0
LINE
  8
LAYE
 10
  -8.48500
 20
  41.23026
 30
    .00000
 11
  -8.43636
 21
  41.24184
 31
    .00000
  0
LINE
  8
LAYE
 10
  -8.25630
 20
  41.17560
 30
    .00000
 11
  -8.32730
 21
  41.09460
 31
    .00000
  0
LINE
  8
LAYE
 10
  -8.32730
 20
  41.09460
 30
    .00000
 11
  -8.31756
 21
  41.14364
 31
    .00000
  0
LINE
  8
LAYE
 10
  -8.32730
 20
  41.09460
 30
    .00000
 11
  -8.27996
 21
  41.11068
 31
    .00000
  0
LINE
  8
LAYE
 10
  -7.87991
 20
  41.25137
 30
    .00000
 11
  -7.94991
 21
  41.22237
 31
    .00000
  0
LINE
  8
LAYE
 10
  -7.94991
 20
  41.22237
 30
    .00000
 11
  -7.91947
 21
  41.26204
 31
    .00000
  0
LINE
  8
LAYE
 10
  -7.94991
 20
  41.22237
 30
    .00000
 11
  -7.90034
 21
  41.21585
 31
    .00000
  0
LINE
  8
LAYE
 10
  -6.98608
 20
  41.42015
 30
    .00000
 11
  -7.19508
 21
  41.55915
 31
    .00000
  0
LINE
  8
LAYE
 10
  -7.19508
 20
  41.55915
 30
    .00000
 11
  -7.14518
 21
  41.55599
 31
    .00000
  0
LINE
  8
LAYE
 10
  -7.19508
 20
  41.55915
 30
    .00000
 11
  -7.17287
 21
  41.51435
 31
    .00000
  0
LINE
  8
LAYE
 10
  -7.24133
 20
  41.23002
 30
    .00000
 11
  -7.42633
 21
  41.27802
 31
    .00000
  0
LINE
  8
LAYE
 10
  -7.42633
 20
  41.27802
 30
    .00000
 11
  -7.37814
 21
  41.29134
 31
    .00000
  0
LINE
  8
LAYE
 10
  -7.42633
 20
  41.27802
 30
    .00000
 11
  -7.39070
 21
  41.24295
 31
    .00000
  0
LINE
  8
LAYE
 10
  -6.73534
 20
  41.19088
 30
    .00000
 11
  -6.96734
 21
  41.38888
 31
    .00000
  0
LINE
  8
LAYE
 10
  -6.96734
 20
  41.38888
 30
    .00000
 11
  -6.91817
 21
  41.37979
 31
    .00000
  0
LINE
  8
LAYE
 10
  -6.96734
 20
  41.38888
 30
    .00000
 11
  -6.95063
 21
  41.34175
 31
    .00000
  0
LINE
  8
LAYE
 10
  -6.30180
 20
  41.33112
 30
    .00000
 11
  -6.49880
 21
  41.59712
 31
    .00000
  0
LINE
  8
LAYE
 10
  -6.49880
 20
  41.59712
 30
    .00000
 11
  -6.45294
 21
  41.57720
 31
    .00000
  0
LINE
  8
LAYE
 10
  -6.49880
 20
  41.59712
 30
    .00000
 11
  -6.49312
 21
  41.54744
 31
    .00000
  0
LINE
  8
LAYE
 10
  -8.58591
 20
  41.11862
 30
    .00000
 11
  -8.59891
 21
  41.01162
 31
    .00000
  0
LINE
  8
LAYE
 10
  -8.59891
 20
  41.01162
 30
    .00000
 11
  -8.61851
 21
  41.05762
 31
    .00000
  0
LINE
  8
LAYE
 10
  -8.59891
 20
  41.01162
 30
    .00000
 11
  -8.56887
 21
  41.05159
 31
    .00000
  0
LINE
  8
LAYE
 10
  -8.27825
 20
  40.87847
 30
    .00000
 11
  -8.30325
 21
  40.84547
 31
    .00000
  0
LINE
  8
LAYE
 10
  -8.30325
 20
  40.84547
 30
    .00000
 11
  -8.29703
 21
  40.89508
 31
    .00000
  0
LINE
  8
LAYE
 10
  -8.30325
 20
  40.84547
 30
    .00000
 11
  -8.25717
 21
  40.86489
 31
    .00000
  0
LINE
  8
LAYE
 10
  -7.98722
 20
  40.97425
 30
    .00000
 11
  -7.99322
 21
  40.97225
 31
    .00000
  0
LINE
  8
LAYE
 10
  -7.99322
 20
  40.97225
 30
    .00000
 11
  -7.96005
 21
  41.00966
 31
    .00000
  0
LINE
  8
LAYE
 10
  -7.99322
 20
  40.97225
 30
    .00000
 11
  -7.94424
 21
  40.96223
 31
    .00000
  0
LINE
  8
LAYE
 10
  -7.65447
 20
  40.95094
 30
    .00000
 11
  -7.67147
 21
  40.99794
 31
    .00000
  0
LINE
  8
LAYE
 10
  -7.67147
 20
  40.99794
 30
    .00000
 11
  -7.63323
 21
  40.96572
 31
    .00000
  0
LINE
  8
LAYE
 10
  -7.67147
 20
  40.99794
 30
    .00000
 11
  -7.68025
 21
  40.94872
 31
    .00000
  0
LINE
  8
LAYE
 10
  -7.42674
 20
  40.76324
 30
    .00000
 11
  -7.40074
 21
  40.83324
 31
    .00000
  0
LINE
  8
LAYE
 10
  -7.40074
 20
  40.83324
 30
    .00000
 11
  -7.39238
 21
  40.78394
 31
    .00000
  0
LINE
  8
LAYE
 10
  -7.40074
 20
  40.83324
 30
    .00000
 11
  -7.43925
 21
  40.80135
 31
    .00000
  0
LINE
  8
LAYE
 10
  -6.98303
 20
  40.84872
 30
    .00000
 11
  -7.07003
 21
  41.00272
 31
    .00000
  0
LINE
  8
LAYE
 10
  -7.07003
 20
  41.00272
 30
    .00000
 11
  -7.02696
 21
  40.97732
 31
    .00000
  0
LINE
  8
LAYE
 10
  -7.07003
 20
  41.00272
 30
    .00000
 11
  -7.07050
 21
  40.95272
 31
    .00000
  0
LINE
  8
LAYE
 10
  -8.75424
 20
  40.65073
 30
    .00000
 11
  -8.69024
 21
  40.57173
 31
    .00000
  0
LINE
  8
LAYE
 10
  -8.69024
 20
  40.57173
 30
    .00000
 11
  -8.73692
 21
  40.58964
 31
    .00000
  0
LINE
  8
LAYE
 10
  -8.69024
 20
  40.57173
 30
    .00000
 11
  -8.69807
 21
  40.62111
 31
    .00000
  0
LINE
  8
LAYE
 10
  -8.81377
 20
  40.46029
 30
    .00000
 11
  -8.69477
 21
  40.45429
 31
    .00000
  0
LINE
  8
LAYE
 10
  -8.69477
 20
  40.45429
 30
    .00000
 11
  -8.73928
 21
  40.43150
 31
    .00000
  0
LINE
  8
LAYE
 10
  -8.69477
 20
  40.45429
 30
    .00000
 11
  -8.73676
 21
  40.48144
 31
    .00000
  0
LINE
  8
LAYE
 10
  -8.20925
 20
  40.54887
 30
    .00000
 11
  -8.13725
 21
  40.53287
 31
    .00000
  0
LINE
  8
LAYE
 10
  -8.13725
 20
  40.53287
 30
    .00000
 11
  -8.18494
 21
  40.51786
 31
    .00000
  0
LINE
  8
LAYE
 10
  -8.13725
 20
  40.53287
 30
    .00000
 11
  -8.17410
 21
  40.56667
 31
    .00000
  0
LINE
  8
LAYE
 10
  -7.76257
 20
  40.59983
 30
    .00000
 11
  -7.57257
 21
  40.72583
 31
    .00000
  0
LINE
  8
LAYE
 10
  -7.57257
 20
  40.72583
 30
    .00000
 11
  -7.59484
 21
  40.68106
 31
    .00000
  0
LINE
  8
LAYE
 10
  -7.57257
 20
  40.72583
 30
    .00000
 11
  -7.62247
 21
  40.72273
 31
    .00000
  0
LINE
  8
LAYE
 10
  -7.42822
 20
  40.52038
 30
    .00000
 11
  -7.39822
 21
  40.65438
 31
    .00000
  0
LINE
  8
LAYE
 10
  -7.39822
 20
  40.65438
 30
    .00000
 11
  -7.38328
 21
  40.60666
 31
    .00000
  0
LINE
  8
LAYE
 10
  -7.39822
 20
  40.65438
 30
    .00000
 11
  -7.43208
 21
  40.61759
 31
    .00000
  0
LINE
  8
LAYE
 10
  -7.13309
 20
  40.57533
 30
    .00000
 11
  -7.13009
 21
  40.73433
 31
    .00000
  0
LINE
  8
LAYE
 10
  -7.13009
 20
  40.73433
 30
    .00000
 11
  -7.10591
 21
  40.69056
 31
    .00000
  0
LINE
  8
LAYE
 10
  -7.13009
 20
  40.73433
 30
    .00000
 11
  -7.15590
 21
  40.69151
 31
    .00000
  0
LINE
  8
LAYE
 10
  -6.85768
 20
  40.58364
 30
    .00000
 11
  -6.83968
 21
  40.79164
 31
    .00000
  0
LINE
  8
LAYE
 10
  -6.83968
 20
  40.79164
 30
    .00000
 11
  -6.81851
 21
  40.74634
 31
    .00000
  0
LINE
  8
LAYE
 10
  -6.83968
 20
  40.79164
 30
    .00000
 11
  -6.86832
 21
  40.75066
 31
    .00000
  0
LINE
  8
LAYE
 10
  -6.88376
 20
  40.43494
 30
    .00000
 11
  -6.82876
 21
  40.63394
 31
    .00000
  0
LINE
  8
LAYE
 10
  -6.82876
 20
  40.63394
 30
    .00000
 11
  -6.81620
 21
  40.58554
 31
    .00000
  0
LINE
  8
LAYE
 10
  -6.82876
 20
  40.63394
 30
    .00000
 11
  -6.86439
 21
  40.59886
 31
    .00000
  0
LINE
  8
LAYE
 10
  -8.36728
 20
  40.36076
 30
    .00000
 11
  -8.24128
 21
  40.37176
 31
    .00000
  0
LINE
  8
LAYE
 10
  -8.24128
 20
  40.37176
 30
    .00000
 11
  -8.28224
 21
  40.34309
 31
    .00000
  0
LINE
  8
LAYE
 10
  -8.24128
 20
  40.37176
 30
    .00000
 11
  -8.28659
 21
  40.39290
 31
    .00000
  0
LINE
  8
LAYE
 10
  -8.87110
 20
  40.19637
 30
    .00000
 11
  -8.70010
 21
  40.18837
 31
    .00000
  0
LINE
  8
LAYE
 10
  -8.70010
 20
  40.18837
 30
    .00000
 11
  -8.74452
 21
  40.16542
 31
    .00000
  0
LINE
  8
LAYE
 10
  -8.70010
 20
  40.18837
 30
    .00000
 11
  -8.74219
 21
  40.21537
 31
    .00000
  0
LINE
  8
LAYE
 10
  -8.18863
 20
  40.08364
 30
    .00000
 11
  -8.09363
 21
  40.14364
 31
    .00000
  0
LINE
  8
LAYE
 10
  -8.09363
 20
  40.14364
 30
    .00000
 11
  -8.11689
 21
  40.09938
 31
    .00000
  0
LINE
  8
LAYE
 10
  -8.09363
 20
  40.14364
 30
    .00000
 11
  -8.14359
 21
  40.14165
 31
    .00000
  0
LINE
  8
LAYE
 10
  -7.94978
 20
  40.38104
 30
    .00000
 11
  -7.84278
 21
  40.42904
 31
    .00000
  0
LINE
  8
LAYE
 10
  -7.84278
 20
  40.42904
 30
    .00000
 11
  -7.87206
 21
  40.38851
 31
    .00000
  0
LINE
  8
LAYE
 10
  -7.84278
 20
  40.42904
 30
    .00000
 11
  -7.89252
 21
  40.43413
 31
    .00000
  0
LINE
  8
LAYE
 10
  -7.82803
 20
  40.20338
 30
    .00000
 11
  -7.72803
 21
  40.32538
 31
    .00000
  0
LINE
  8
LAYE
 10
  -7.72803
 20
  40.32538
 30
    .00000
 11
  -7.73615
 21
  40.27604
 31
    .00000
  0
LINE
  8
LAYE
 10
  -7.72803
 20
  40.32538
 30
    .00000
 11
  -7.77481
 21
  40.30774
 31
    .00000
  0
LINE
  8
LAYE
 10
  -7.62132
 20
  40.31020
 30
    .00000
 11
  -7.53732
 21
  40.42720
 31
    .00000
  0
LINE
  8
LAYE
 10
  -7.53732
 20
  40.42720
 30
    .00000
 11
  -7.54227
 21
  40.37745
 31
    .00000
  0
LINE
  8
LAYE
 10
  -7.53732
 20
  40.42720
 30
    .00000
 11
  -7.58288
 21
  40.40661
 31
    .00000
  0
LINE
  8
LAYE
 10
  -7.53810
 20
  40.07127
 30
    .00000
 11
  -7.40710
 21
  40.16427
 31
    .00000
  0
LINE
  8
LAYE
 10
  -7.40710
 20
  40.16427
 30
    .00000
 11
  -7.42794
 21
  40.11882
 31
    .00000
  0
LINE
  8
LAYE
 10
  -7.40710
 20
  40.16427
 30
    .00000
 11
  -7.45688
 21
  40.15959
 31
    .00000
  0
LINE
  8
LAYE
 10
  -7.19002
 20
  40.33900
 30
    .00000
 11
  -7.09802
 21
  40.46300
 31
    .00000
  0
LINE
  8
LAYE
 10
  -7.09802
 20
  40.46300
 30
    .00000
 11
  -7.10374
 21
  40.41333
 31
    .00000
  0
LINE
  8
LAYE
 10
  -7.09802
 20
  40.46300
 30
    .00000
 11
  -7.14390
 21
  40.44312
 31
    .00000
  0
LINE
  8
LAYE
 10
  -6.87323
 20
  40.25489
 30
    .00000
 11
  -6.74323
 21
  40.42789
 31
    .00000
  0
LINE
  8
LAYE
 10
  -6.74323
 20
  40.42789
 30
    .00000
 11
  -6.74926
 21
  40.37825
 31
    .00000
  0
LINE
  8
LAYE
 10
  -6.74323
 20
  40.42789
 30
    .00000
 11
  -6.78923
 21
  40.40829
 31
    .00000
  0
LINE
  8
LAYE
 10
  -7.12991
 20
  40.01727
 30
    .00000
 11
  -6.97491
 21
  40.20227
 31
    .00000
  0
LINE
  8
LAYE
 10
  -6.97491
 20
  40.20227
 30
    .00000
 11
  -6.98356
 21
  40.15302
 31
    .00000
  0
LINE
  8
LAYE
 10
  -6.97491
 20
  40.20227
 30
    .00000
 11
  -7.02188
 21
  40.18513
 31
    .00000
  0
LINE
  8
LAYE
 10
  -9.02184
 20
  39.67127
 30
    .00000
 11
  -8.82884
 21
  39.83027
 31
    .00000
  0
LINE
  8
LAYE
 10
  -8.82884
 20
  39.83027
 30
    .00000
 11
  -8.84636
 21
  39.78344
 31
    .00000
  0
LINE
  8
LAYE
 10
  -8.82884
 20
  39.83027
 30
    .00000
 11
  -8.87816
 21
  39.82203
 31
    .00000
  0
LINE
  8
LAYE
 10
  -8.85552
 20
  39.88547
 30
    .00000
 11
  -8.72952
 21
  39.95147
 31
    .00000
  0
LINE
  8
LAYE
 10
  -8.72952
 20
  39.95147
 30
    .00000
 11
  -8.75628
 21
  39.90923
 31
    .00000
  0
LINE
  8
LAYE
 10
  -8.72952
 20
  39.95147
 30
    .00000
 11
  -8.77948
 21
  39.95352
 31
    .00000
  0
LINE
  8
LAYE
 10
  -8.54544
 20
  39.91129
 30
    .00000
 11
  -8.49044
 21
  40.00229
 31
    .00000
  0
LINE
  8
LAYE
 10
  -8.49044
 20
  40.00229
 30
    .00000
 11
  -8.49144
 21
  39.95230
 31
    .00000
  0
LINE
  8
LAYE
 10
  -8.49044
 20
  40.00229
 30
    .00000
 11
  -8.53423
 21
  39.97816
 31
    .00000
  0
LINE
  8
LAYE
 10
  -7.93791
 20
  39.83729
 30
    .00000
 11
  -7.81491
 21
  39.95029
 31
    .00000
  0
LINE
  8
LAYE
 10
  -7.81491
 20
  39.95029
 30
    .00000
 11
  -7.82988
 21
  39.90258
 31
    .00000
  0
LINE
  8
LAYE
 10
  -7.81491
 20
  39.95029
 30
    .00000
 11
  -7.86371
 21
  39.93941
 31
    .00000
  0
LINE
  8
LAYE
 10
  -8.14995
 20
  39.68154
 30
    .00000
 11
  -7.95195
 21
  39.80754
 31
    .00000
  0
LINE
  8
LAYE
 10
  -7.95195
 20
  39.80754
 30
    .00000
 11
  -7.97506
 21
  39.76320
 31
    .00000
  0
LINE
  8
LAYE
 10
  -7.95195
 20
  39.80754
 30
    .00000
 11
  -8.00190
 21
  39.80538
 31
    .00000
  0
LINE
  8
LAYE
 10
  -7.48112
 20
  39.79297
 30
    .00000
 11
  -7.30612
 21
  39.89297
 31
    .00000
  0
LINE
  8
LAYE
 10
  -7.30612
 20
  39.89297
 30
    .00000
 11
  -7.33131
 21
  39.84978
 31
    .00000
  0
LINE
  8
LAYE
 10
  -7.30612
 20
  39.89297
 30
    .00000
 11
  -7.35612
 21
  39.89319
 31
    .00000
  0
LINE
  8
LAYE
 10
  -7.06278
 20
  39.71609
 30
    .00000
 11
  -6.83478
 21
  39.90009
 31
    .00000
  0
LINE
  8
LAYE
 10
  -6.83478
 20
  39.90009
 30
    .00000
 11
  -6.85278
 21
  39.85344
 31
    .00000
  0
LINE
  8
LAYE
 10
  -6.83478
 20
  39.90009
 30
    .00000
 11
  -6.88418
 21
  39.89235
 31
    .00000
  0
LINE
  8
LAYE
 10
  -9.43519
 20
  39.34350
 30
    .00000
 11
  -9.16119
 21
  39.51450
 31
    .00000
  0
LINE
  8
LAYE
 10
  -9.16119
 20
  39.51450
 30
    .00000
 11
  -9.18469
 21
  39.47037
 31
    .00000
  0
LINE
  8
LAYE
 10
  -9.16119
 20
  39.51450
 30
    .00000
 11
  -9.21116
 21
  39.51278
 31
    .00000
  0
LINE
  8
LAYE
 10
  -9.23245
 20
  39.43996
 30
    .00000
 11
  -8.91945
 21
  39.57896
 31
    .00000
  0
LINE
  8
LAYE
 10
  -8.91945
 20
  39.57896
 30
    .00000
 11
  -8.94888
 21
  39.53854
 31
    .00000
  0
LINE
  8
LAYE
 10
  -8.91945
 20
  39.57896
 30
    .00000
 11
  -8.96917
 21
  39.58423
 31
    .00000
  0
LINE
  8
LAYE
 10
  -8.93989
 20
  39.42622
 30
    .00000
 11
  -8.72689
 21
  39.53822
 31
    .00000
  0
LINE
  8
LAYE
 10
  -8.72689
 20
  39.53822
 30
    .00000
 11
  -8.75358
 21
  39.49594
 31
    .00000
  0
LINE
  8
LAYE
 10
  -8.72689
 20
  39.53822
 30
    .00000
 11
  -8.77685
 21
  39.54019
 31
    .00000
  0
LINE
  8
LAYE
 10
  -8.64910
 20
  39.52390
 30
    .00000
 11
  -8.52410
 21
  39.64290
 31
    .00000
  0
LINE
  8
LAYE
 10
  -8.52410
 20
  39.64290
 30
    .00000
 11
  -8.53822
 21
  39.59494
 31
    .00000
  0
LINE
  8
LAYE
 10
  -8.52410
 20
  39.64290
 30
    .00000
 11
  -8.57270
 21
  39.63115
 31
    .00000
  0
LINE
  8
LAYE
 10
  -8.30828
 20
  39.50993
 30
    .00000
 11
  -8.15528
 21
  39.61993
 31
    .00000
  0
LINE
  8
LAYE
 10
  -8.15528
 20
  39.61993
 30
    .00000
 11
  -8.17584
 21
  39.57435
 31
    .00000
  0
LINE
  8
LAYE
 10
  -8.15528
 20
  39.61993
 30
    .00000
 11
  -8.20503
 21
  39.61495
 31
    .00000
  0
LINE
  8
LAYE
 10
  -8.76493
 20
  39.32251
 30
    .00000
 11
  -8.61993
 21
  39.44451
 31
    .00000
  0
LINE
  8
LAYE
 10
  -8.61993
 20
  39.44451
 30
    .00000
 11
  -8.63697
 21
  39.39750
 31
    .00000
  0
LINE
  8
LAYE
 10
  -8.61993
 20
  39.44451
 30
    .00000
 11
  -8.66916
 21
  39.43576
 31
    .00000
  0
LINE
  8
LAYE
 10
  -8.43343
 20
  39.32416
 30
    .00000
 11
  -8.27243
 21
  39.44416
 31
    .00000
  0
LINE
  8
LAYE
 10
  -8.27243
 20
  39.44416
 30
    .00000
 11
  -8.29221
 21
  39.39824
 31
    .00000
  0
LINE
  8
LAYE
 10
  -8.27243
 20
  39.44416
 30
    .00000
 11
  -8.32209
 21
  39.43833
 31
    .00000
  0
LINE
  8
LAYE
 10
  -7.65265
 20
  39.55981
 30
    .00000
 11
  -7.42665
 21
  39.71481
 31
    .00000
  0
LINE
  8
LAYE
 10
  -7.42665
 20
  39.71481
 30
    .00000
 11
  -7.44822
 21
  39.66970
 31
    .00000
  0
LINE
  8
LAYE
 10
  -7.42665
 20
  39.71481
 30
    .00000
 11
  -7.47650
 21
  39.71094
 31
    .00000
  0
LINE
  8
LAYE
 10
  -8.03041
 20
  39.35605
 30
    .00000
 11
  -7.84041
 21
  39.46605
 31
    .00000
  0
LINE
  8
LAYE
 10
  -7.84041
 20
  39.46605
 30
    .00000
 11
  -7.86536
 21
  39.42272
 31
    .00000
  0
LINE
  8
LAYE
 10
  -7.84041
 20
  39.46605
 30
    .00000
 11
  -7.89041
 21
  39.46599
 31
    .00000
  0
LINE
  8
LAYE
 10
  -7.24741
 20
  39.59271
 30
    .00000
 11
  -6.93641
 21
  39.70571
 31
    .00000
  0
LINE
  8
LAYE
 10
  -6.93641
 20
  39.70571
 30
    .00000
 11
  -6.96857
 21
  39.66743
 31
    .00000
  0
LINE
  8
LAYE
 10
  -6.93641
 20
  39.70571
 30
    .00000
 11
  -6.98565
 21
  39.71442
 31
    .00000
  0
LINE
  8
LAYE
 10
  -7.38867
 20
  39.30070
 30
    .00000
 11
  -7.10767
 21
  39.42870
 31
    .00000
  0
LINE
  8
LAYE
 10
  -7.10767
 20
  39.42870
 30
    .00000
 11
  -7.13671
 21
  39.38800
 31
    .00000
  0
LINE
  8
LAYE
 10
  -7.10767
 20
  39.42870
 30
    .00000
 11
  -7.15744
 21
  39.43350
 31
    .00000
  0
LINE
  8
LAYE
 10
  -9.07124
 20
  39.15898
 30
    .00000
 11
  -8.84424
 21
  39.30298
 31
    .00000
  0
LINE
  8
LAYE
 10
  -8.84424
 20
  39.30298
 30
    .00000
 11
  -8.86741
 21
  39.25867
 31
    .00000
  0
LINE
  8
LAYE
 10
  -8.84424
 20
  39.30298
 30
    .00000
 11
  -8.89420
 21
  39.30090
 31
    .00000
  0
LINE
  8
LAYE
 10
  -9.33248
 20
  38.99474
 30
    .00000
 11
  -9.17348
 21
  39.17074
 31
    .00000
  0
LINE
  8
LAYE
 10
  -9.17348
 20
  39.17074
 30
    .00000
 11
  -9.18396
 21
  39.12185
 31
    .00000
  0
LINE
  8
LAYE
 10
  -9.17348
 20
  39.17074
 30
    .00000
 11
  -9.22106
 21
  39.15537
 31
    .00000
  0
LINE
  8
LAYE
 10
  -8.60365
 20
  39.13014
 30
    .00000
 11
  -8.43365
 21
  39.25114
 31
    .00000
  0
LINE
  8
LAYE
 10
  -8.43365
 20
  39.25114
 30
    .00000
 11
  -8.45443
 21
  39.20566
 31
    .00000
  0
LINE
  8
LAYE
 10
  -8.43365
 20
  39.25114
 30
    .00000
 11
  -8.48342
 21
  39.24640
 31
    .00000
  0
LINE
  8
LAYE
 10
  -8.20593
 20
  39.06741
 30
    .00000
 11
  -8.01993
 21
  39.16641
 31
    .00000
  0
LINE
  8
LAYE
 10
  -8.01993
 20
  39.16641
 30
    .00000
 11
  -8.04641
 21
  39.12400
 31
    .00000
  0
LINE
  8
LAYE
 10
  -8.01993
 20
  39.16641
 30
    .00000
 11
  -8.06990
 21
  39.16813
 31
    .00000
  0
LINE
  8
LAYE
 10
  -7.64743
 20
  39.18063
 30
    .00000
 11
  -7.40043
 21
  39.26563
 31
    .00000
  0
LINE
  8
LAYE
 10
  -7.40043
 20
  39.26563
 30
    .00000
 11
  -7.43324
 21
  39.22790
 31
    .00000
  0
LINE
  8
LAYE
 10
  -7.40043
 20
  39.26563
 30
    .00000
 11
  -7.44951
 21
  39.27518
 31
    .00000
  0
LINE
  8
LAYE
 10
  -7.13986
 20
  39.02541
 30
    .00000
 11
  -6.81286
 21
  39.08241
 31
    .00000
  0
LINE
  8
LAYE
 10
  -6.81286
 20
  39.08241
 30
    .00000
 11
  -6.85122
 21
  39.05035
 31
    .00000
  0
LINE
  8
LAYE
 10
  -6.81286
 20
  39.08241
 30
    .00000
 11
  -6.85981
 21
  39.09960
 31
    .00000
  0
LINE
  8
LAYE
 10
  -9.45189
 20
  38.75742
 30
    .00000
 11
  -9.34789
 21
  38.92642
 31
    .00000
  0
LINE
  8
LAYE
 10
  -9.34789
 20
  38.92642
 30
    .00000
 11
  -9.34929
 21
  38.87644
 31
    .00000
  0
LINE
  8
LAYE
 10
  -9.34789
 20
  38.92642
 30
    .00000
 11
  -9.39188
 21
  38.90264
 31
    .00000
  0
LINE
  8
LAYE
 10
  -9.10552
 20
  38.87764
 30
    .00000
 11
  -8.96052
 21
  39.04364
 31
    .00000
  0
LINE
  8
LAYE
 10
  -8.96052
 20
  39.04364
 30
    .00000
 11
  -8.97018
 21
  38.99458
 31
    .00000
  0
LINE
  8
LAYE
 10
  -8.96052
 20
  39.04364
 30
    .00000
 11
  -9.00783
 21
  39.02747
 31
    .00000
  0
LINE
  8
LAYE
 10
  -9.14296
 20
  38.69930
 30
    .00000
 11
  -9.04496
 21
  38.84330
 31
    .00000
  0
LINE
  8
LAYE
 10
  -9.04496
 20
  38.84330
 30
    .00000
 11
  -9.04865
 21
  38.79344
 31
    .00000
  0
LINE
  8
LAYE
 10
  -9.04496
 20
  38.84330
 30
    .00000
 11
  -9.08999
 21
  38.82157
 31
    .00000
  0
LINE
  8
LAYE
 10
  -8.53625
 20
  38.82897
 30
    .00000
 11
  -8.36425
 21
  38.94497
 31
    .00000
  0
LINE
  8
LAYE
 10
  -8.36425
 20
  38.94497
 30
    .00000
 11
  -8.38617
 21
  38.90003
 31
    .00000
  0
LINE
  8
LAYE
 10
  -8.36425
 20
  38.94497
 30
    .00000
 11
  -8.41413
 21
  38.94149
 31
    .00000
  0
LINE
  8
LAYE
 10
  -8.55162
 20
  38.67515
 30
    .00000
 11
  -8.43662
 21
  38.81115
 31
    .00000
  0
LINE
  8
LAYE
 10
  -8.43662
 20
  38.81115
 30
    .00000
 11
  -8.44549
 21
  38.76194
 31
    .00000
  0
LINE
  8
LAYE
 10
  -8.43662
 20
  38.81115
 30
    .00000
 11
  -8.48367
 21
  38.79423
 31
    .00000
  0
LINE
  8
LAYE
 10
  -7.67748
 20
  38.90804
 30
    .00000
 11
  -7.44348
 21
  38.99104
 31
    .00000
  0
LINE
  8
LAYE
 10
  -7.44348
 20
  38.99104
 30
    .00000
 11
  -7.47593
 21
  38.95300
 31
    .00000
  0
LINE
  8
LAYE
 10
  -7.44348
 20
  38.99104
 30
    .00000
 11
  -7.49265
 21
  39.00013
 31
    .00000
  0
LINE
  8
LAYE
 10
  -8.00633
 20
  38.71660
 30
    .00000
 11
  -7.82433
 21
  38.80760
 31
    .00000
  0
LINE
  8
LAYE
 10
  -7.82433
 20
  38.80760
 30
    .00000
 11
  -7.85188
 21
  38.76587
 31
    .00000
  0
LINE
  8
LAYE
 10
  -7.82433
 20
  38.80760
 30
    .00000
 11
  -7.87424
 21
  38.81060
 31
    .00000
  0
LINE
  8
LAYE
 10
  -7.60784
 20
  38.73501
 30
    .00000
 11
  -7.36984
 21
  38.78001
 31
    .00000
  0
LINE
  8
LAYE
 10
  -7.36984
 20
  38.78001
 30
    .00000
 11
  -7.40774
 21
  38.74740
 31
    .00000
  0
LINE
  8
LAYE
 10
  -7.36984
 20
  38.78001
 30
    .00000
 11
  -7.41703
 21
  38.79653
 31
    .00000
  0
LINE
  8
LAYE
 10
  -7.28545
 20
  38.83459
 30
    .00000
 11
  -7.01845
 21
  38.88759
 31
    .00000
  0
LINE
  8
LAYE
 10
  -7.01845
 20
  38.88759
 30
    .00000
 11
  -7.05606
 21
  38.85464
 31
    .00000
  0
LINE
  8
LAYE
 10
  -7.01845
 20
  38.88759
 30
    .00000
 11
  -7.06579
 21
  38.90368
 31
    .00000
  0
LINE
  8
LAYE
 10
  -8.91027
 20
  38.55056
 30
    .00000
 11
  -8.81027
 21
  38.70656
 31
    .00000
  0
LINE
  8
LAYE
 10
  -8.81027
 20
  38.70656
 30
    .00000
 11
  -8.81259
 21
  38.65661
 31
    .00000
  0
LINE
  8
LAYE
 10
  -8.81027
 20
  38.70656
 30
    .00000
 11
  -8.85469
 21
  38.68360
 31
    .00000
  0
LINE
  8
LAYE
 10
  -9.11168
 20
  38.43660
 30
    .00000
 11
  -9.06268
 21
  38.59860
 31
    .00000
  0
LINE
  8
LAYE
 10
  -9.06268
 20
  38.59860
 30
    .00000
 11
  -9.05129
 21
  38.54992
 31
    .00000
  0
LINE
  8
LAYE
 10
  -9.06268
 20
  38.59860
 30
    .00000
 11
  -9.09915
 21
  38.56439
 31
    .00000
  0
LINE
  8
LAYE
 10
  -8.53020
 20
  38.48350
 30
    .00000
 11
  -8.45920
 21
  38.56750
 31
    .00000
  0
LINE
  8
LAYE
 10
  -8.45920
 20
  38.56750
 30
    .00000
 11
  -8.46806
 21
  38.51829
 31
    .00000
  0
LINE
  8
LAYE
 10
  -8.45920
 20
  38.56750
 30
    .00000
 11
  -8.50625
 21
  38.55057
 31
    .00000
  0
LINE
  8
LAYE
 10
  -8.20165
 20
  38.56255
 30
    .00000
 11
  -8.08465
 21
  38.62855
 31
    .00000
  0
LINE
  8
LAYE
 10
  -8.08465
 20
  38.62855
 30
    .00000
 11
  -8.11008
 21
  38.58550
 31
    .00000
  0
LINE
  8
LAYE
 10
  -8.08465
 20
  38.62855
 30
    .00000
 11
  -8.13465
 21
  38.62905
 31
    .00000
  0
LINE
  8
LAYE
 10
  -8.24189
 20
  38.24022
 30
    .00000
 11
  -8.17089
 21
  38.29622
 31
    .00000
  0
LINE
  8
LAYE
 10
  -8.17089
 20
  38.29622
 30
    .00000
 11
  -8.18941
 21
  38.24977
 31
    .00000
  0
LINE
  8
LAYE
 10
  -8.17089
 20
  38.29622
 30
    .00000
 11
  -8.22037
 21
  38.28903
 31
    .00000
  0
LINE
  8
LAYE
 10
  -7.81697
 20
  38.44588
 30
    .00000
 11
  -7.65597
 21
  38.46988
 31
    .00000
  0
LINE
  8
LAYE
 10
  -7.65597
 20
  38.46988
 30
    .00000
 11
  -7.69511
 21
  38.43877
 31
    .00000
  0
LINE
  8
LAYE
 10
  -7.65597
 20
  38.46988
 30
    .00000
 11
  -7.70248
 21
  38.48822
 31
    .00000
  0
LINE
  8
LAYE
 10
  -7.79711
 20
  38.24568
 30
    .00000
 11
  -7.66511
 21
  38.25068
 31
    .00000
  0
LINE
  8
LAYE
 10
  -7.66511
 20
  38.25068
 30
    .00000
 11
  -7.70743
 21
  38.22406
 31
    .00000
  0
LINE
  8
LAYE
 10
  -7.66511
 20
  38.25068
 30
    .00000
 11
  -7.70933
 21
  38.27402
 31
    .00000
  0
LINE
  8
LAYE
 10
  -8.01625
 20
  38.31864
 30
    .00000
 11
  -7.90525
 21
  38.35364
 31
    .00000
  0
LINE
  8
LAYE
 10
  -7.90525
 20
  38.35364
 30
    .00000
 11
  -7.93903
 21
  38.31678
 31
    .00000
  0
LINE
  8
LAYE
 10
  -7.90525
 20
  38.35364
 30
    .00000
 11
  -7.95406
 21
  38.36446
 31
    .00000
  0
LINE
  8
LAYE
 10
  -7.40339
 20
  38.44397
 30
    .00000
 11
  -7.18539
 21
  38.42797
 31
    .00000
  0
LINE
  8
LAYE
 10
  -7.18539
 20
  38.42797
 30
    .00000
 11
  -7.23041
 21
  38.40621
 31
    .00000
  0
LINE
  8
LAYE
 10
  -7.18539
 20
  38.42797
 30
    .00000
 11
  -7.22675
 21
  38.45607
 31
    .00000
  0
LINE
  8
LAYE
 10
  -7.17634
 20
  38.23477
 30
    .00000
 11
  -6.95134
 21
  38.17177
 31
    .00000
  0
LINE
  8
LAYE
 10
  -6.95134
 20
  38.17177
 30
    .00000
 11
  -6.99978
 21
  38.15937
 31
    .00000
  0
LINE
  8
LAYE
 10
  -6.95134
 20
  38.17177
 30
    .00000
 11
  -6.98630
 21
  38.20752
 31
    .00000
  0
LINE
  8
LAYE
 10
  -8.64767
 20
  38.15986
 30
    .00000
 11
  -8.62667
 21
  38.25386
 31
    .00000
  0
LINE
  8
LAYE
 10
  -8.62667
 20
  38.25386
 30
    .00000
 11
  -8.61171
 21
  38.20615
 31
    .00000
  0
LINE
  8
LAYE
 10
  -8.62667
 20
  38.25386
 30
    .00000
 11
  -8.66051
 21
  38.21705
 31
    .00000
  0
LINE
  8
LAYE
 10
  -8.43440
 20
  38.04546
 30
    .00000
 11
  -8.44640
 21
  38.10446
 31
    .00000
  0
LINE
  8
LAYE
 10
  -8.44640
 20
  38.10446
 30
    .00000
 11
  -8.41327
 21
  38.06701
 31
    .00000
  0
LINE
  8
LAYE
 10
  -8.44640
 20
  38.10446
 30
    .00000
 11
  -8.46227
 21
  38.05704
 31
    .00000
  0
LINE
  8
LAYE
 10
  -8.16544
 20
  37.88348
 30
    .00000
 11
  -8.18644
 21
  37.86448
 31
    .00000
  0
LINE
  8
LAYE
 10
  -8.18644
 20
  37.86448
 30
    .00000
 11
  -8.17110
 21
  37.91207
 31
    .00000
  0
LINE
  8
LAYE
 10
  -8.18644
 20
  37.86448
 30
    .00000
 11
  -8.13756
 21
  37.87499
 31
    .00000
  0
LINE
  8
LAYE
 10
  -7.46511
 20
  38.10047
 30
    .00000
 11
  -7.27511
 21
  38.03747
 31
    .00000
  0
LINE
  8
LAYE
 10
  -7.27511
 20
  38.03747
 30
    .00000
 11
  -7.32408
 21
  38.02737
 31
    .00000
  0
LINE
  8
LAYE
 10
  -7.27511
 20
  38.03747
 30
    .00000
 11
  -7.30834
 21
  38.07483
 31
    .00000
  0
LINE
  8
LAYE
 10
  -7.87365
 20
  38.02052
 30
    .00000
 11
  -7.79265
 21
  37.98852
 31
    .00000
  0
LINE
  8
LAYE
 10
  -7.79265
 20
  37.98852
 30
    .00000
 11
  -7.84211
 21
  37.98118
 31
    .00000
  0
LINE
  8
LAYE
 10
  -7.79265
 20
  37.98852
 30
    .00000
 11
  -7.82374
 21
  38.02768
 31
    .00000
  0
LINE
  8
LAYE
 10
  -7.61029
 20
  37.93740
 30
    .00000
 11
  -7.44229
 21
  37.86040
 31
    .00000
  0
LINE
  8
LAYE
 10
  -7.44229
 20
  37.86040
 30
    .00000
 11
  -7.49207
 21
  37.85572
 31
    .00000
  0
LINE
  8
LAYE
 10
  -7.44229
 20
  37.86040
 30
    .00000
 11
  -7.47124
 21
  37.90117
 31
    .00000
  0
LINE
  8
LAYE
 10
  -7.30555
 20
  37.97457
 30
    .00000
 11
  -7.09355
 21
  37.87257
 31
    .00000
  0
LINE
  8
LAYE
 10
  -7.09355
 20
  37.87257
 30
    .00000
 11
  -7.14341
 21
  37.86882
 31
    .00000
  0
LINE
  8
LAYE
 10
  -7.09355
 20
  37.87257
 30
    .00000
 11
  -7.12173
 21
  37.91387
 31
    .00000
  0
LINE
  8
LAYE
 10
  -8.70495
 20
  37.78969
 30
    .00000
 11
  -8.84295
 21
  37.83669
 31
    .00000
  0
LINE
  8
LAYE
 10
  -8.84295
 20
  37.83669
 30
    .00000
 11
  -8.79390
 21
  37.84640
 31
    .00000
  0
LINE
  8
LAYE
 10
  -8.84295
 20
  37.83669
 30
    .00000
 11
  -8.81002
 21
  37.79906
 31
    .00000
  0
LINE
  8
LAYE
 10
  -8.41997
 20
  37.86651
 30
    .00000
 11
  -8.46897
 21
  37.86151
 31
    .00000
  0
LINE
  8
LAYE
 10
  -8.46897
 20
  37.86151
 30
    .00000
 11
  -8.42843
 21
  37.89078
 31
    .00000
  0
LINE
  8
LAYE
 10
  -8.46897
 20
  37.86151
 30
    .00000
 11
  -8.42335
 21
  37.84103
 31
    .00000
  0
LINE
  8
LAYE
 10
  -8.69163
 20
  37.50879
 30
    .00000
 11
  -8.94263
 21
  37.49379
 31
    .00000
  0
LINE
  8
LAYE
 10
  -8.94263
 20
  37.49379
 30
    .00000
 11
  -8.90090
 21
  37.52133
 31
    .00000
  0
LINE
  8
LAYE
 10
  -8.94263
 20
  37.49379
 30
    .00000
 11
  -8.89791
 21
  37.47142
 31
    .00000
  0
LINE
  8
LAYE
 10
  -8.37760
 20
  37.61874
 30
    .00000
 11
  -8.46560
 21
  37.58174
 31
    .00000
  0
LINE
  8
LAYE
 10
  -8.46560
 20
  37.58174
 30
    .00000
 11
  -8.43537
 21
  37.62157
 31
    .00000
  0
LINE
  8
LAYE
 10
  -8.46560
 20
  37.58174
 30
    .00000
 11
  -8.41599
 21
  37.57548
 31
    .00000
  0
LINE
  8
LAYE
 10
  -7.46772
 20
  37.80744
 30
    .00000
 11
  -7.29572
 21
  37.68044
 31
    .00000
  0
LINE
  8
LAYE
 10
  -7.29572
 20
  37.68044
 30
    .00000
 11
  -7.34540
 21
  37.68605
 31
    .00000
  0
LINE
  8
LAYE
 10
  -7.29572
 20
  37.68044
 30
    .00000
 11
  -7.31570
 21
  37.72627
 31
    .00000
  0
LINE
  8
LAYE
 10
  -7.76923
 20
  37.71408
 30
    .00000
 11
  -7.69323
 21
  37.57708
 31
    .00000
  0
LINE
  8
LAYE
 10
  -7.69323
 20
  37.57708
 30
    .00000
 11
  -7.73610
 21
  37.60282
 31
    .00000
  0
LINE
  8
LAYE
 10
  -7.69323
 20
  37.57708
 30
    .00000
 11
  -7.69237
 21
  37.62707
 31
    .00000
  0
LINE
  8
LAYE
 10
  -8.07518
 20
  37.62990
 30
    .00000
 11
  -8.05018
 21
  37.51490
 31
    .00000
  0
LINE
  8
LAYE
 10
  -8.05018
 20
  37.51490
 30
    .00000
 11
  -8.08381
 21
  37.55190
 31
    .00000
  0
LINE
  8
LAYE
 10
  -8.05018
 20
  37.51490
 30
    .00000
 11
  -8.03495
 21
  37.56252
 31
    .00000
  0
LINE
  8
LAYE
 10
  -7.46149
 20
  37.56113
 30
    .00000
 11
  -7.35549
 21
  37.33713
 31
    .00000
  0
LINE
  8
LAYE
 10
  -7.35549
 20
  37.33713
 30
    .00000
 11
  -7.39661
 21
  37.36558
 31
    .00000
  0
LINE
  8
LAYE
 10
  -7.35549
 20
  37.33713
 30
    .00000
 11
  -7.35141
 21
  37.38696
 31
    .00000
  0
LINE
  8
LAYE
 10
  -8.82566
 20
  37.28394
 30
    .00000
 11
  -9.17066
 21
  37.27994
 31
    .00000
  0
LINE
  8
LAYE
 10
  -9.17066
 20
  37.27994
 30
    .00000
 11
  -9.12765
 21
  37.30544
 31
    .00000
  0
LINE
  8
LAYE
 10
  -9.17066
 20
  37.27994
 30
    .00000
 11
  -9.12707
 21
  37.25544
 31
    .00000
  0
LINE
  8
LAYE
 10
  -8.57179
 20
  37.32146
 30
    .00000
 11
  -8.81779
 21
  37.26246
 31
    .00000
  0
LINE
  8
LAYE
 10
  -8.81779
 20
  37.26246
 30
    .00000
 11
  -8.78151
 21
  37.29687
 31
    .00000
  0
LINE
  8
LAYE
 10
  -8.81779
 20
  37.26246
 30
    .00000
 11
  -8.76985
 21
  37.24825
 31
    .00000
  0
LINE
  8
LAYE
 10
  -8.74434
 20
  37.22296
 30
    .00000
 11
  -9.10334
 21
  37.18596
 31
    .00000
  0
LINE
  8
LAYE
 10
  -9.10334
 20
  37.18596
 30
    .00000
 11
  -9.06283
 21
  37.21527
 31
    .00000
  0
LINE
  8
LAYE
 10
  -9.10334
 20
  37.18596
 30
    .00000
 11
  -9.05770
 21
  37.16553
 31
    .00000
  0
LINE
  8
LAYE
 10
  -8.07706
 20
  37.38444
 30
    .00000
 11
  -8.11006
 21
  37.24744
 31
    .00000
  0
LINE
  8
LAYE
 10
  -8.11006
 20
  37.24744
 30
    .00000
 11
  -8.12422
 21
  37.29539
 31
    .00000
  0
LINE
  8
LAYE
 10
  -8.11006
 20
  37.24744
 30
    .00000
 11
  -8.07561
 21
  37.28368
 31
    .00000
  0
LINE
  8
LAYE
 10
  -7.85261
 20
  37.49946
 30
    .00000
 11
  -7.83961
 21
  37.33446
 31
    .00000
  0
LINE
  8
LAYE
 10
  -7.83961
 20
  37.33446
 30
    .00000
 11
  -7.86793
 21
  37.37566
 31
    .00000
  0
LINE
  8
LAYE
 10
  -7.83961
 20
  37.33446
 30
    .00000
 11
  -7.81809
 21
  37.37959
 31
    .00000
  0
LINE
  8
LAYE
 10
  -7.41541
 20
  37.36373
 30
    .00000
 11
  -7.34341
 21
  37.04373
 31
    .00000
  0
LINE
  8
LAYE
 10
  -7.34341
 20
  37.04373
 30
    .00000
 11
  -7.37731
 21
  37.08049
 31
    .00000
  0
LINE
  8
LAYE
 10
  -7.34341
 20
  37.04373
 30
    .00000
 11
  -7.32852
 21
  37.09146
 31
    .00000
  0
LINE
  8
LAYE
 10
  -7.73565
 20
  37.26706
 30
    .00000
 11
  -7.76965
 21
  37.03106
 31
    .00000
  0
LINE
  8
LAYE
 10
  -7.76965
 20
  37.03106
 30
    .00000
 11
  -7.78822
 21
  37.07748
 31
    .00000
  0
LINE
  8
LAYE
 10
  -7.76965
 20
  37.03106
 30
    .00000
 11
  -7.73873
 21
  37.07035
 31
    .00000
  0
LINE
  8
LAYE
 10
  -7.48266
 20
  37.21756
 30
    .00000
 11
  -7.52966
 21
  36.90756
 31
    .00000
  0
LINE
  8
LAYE
 10
  -7.52966
 20
  36.90756
 30
    .00000
 11
  -7.54789
 21
  36.95412
 31
    .00000
  0
LINE
  8
LAYE
 10
  -7.52966
 20
  36.90756
 30
    .00000
 11
  -7.49845
 21
  36.94662
 31
    .00000
  0
LINE
  8
LAYE
 10
  -8.90426
 20
  37.09191
 30
    .00000
 11
  -9.37926
 21
  37.02791
 31
    .00000
  0
LINE
  8
LAYE
 10
  -9.37926
 20
  37.02791
 30
    .00000
 11
  -9.33968
 21
  37.05847
 31
    .00000
  0
LINE
  8
LAYE
 10
  -9.37926
 20
  37.02791
 30
    .00000
 11
  -9.33301
 21
  37.00892
 31
    .00000
  0
LINE
  8
LAYE
 10
  -8.68554
 20
  37.09875
 30
    .00000
 11
  -9.01554
 21
  36.99275
 31
    .00000
  0
LINE
  8
LAYE
 10
  -9.01554
 20
  36.99275
 30
    .00000
 11
  -8.98196
 21
  37.02979
 31
    .00000
  0
LINE
  8
LAYE
 10
  -9.01554
 20
  36.99275
 30
    .00000
 11
  -8.96667
 21
  36.98219
 31
    .00000
  0
LINE
  8
LAYE
 10
  -8.37357
 20
  37.15306
 30
    .00000
 11
  -8.58357
 21
  37.00606
 31
    .00000
  0
LINE
  8
LAYE
 10
  -8.58357
 20
  37.00606
 30
    .00000
 11
  -8.56243
 21
  37.05137
 31
    .00000
  0
LINE
  8
LAYE
 10
  -8.58357
 20
  37.00606
 30
    .00000
 11
  -8.53376
 21
  37.01041
 31
    .00000
  0
LINE
  8
LAYE
 10
  -7.92224
 20
  37.12468
 30
    .00000
 11
  -8.03024
 21
  36.88968
 31
    .00000
  0
LINE
  8
LAYE
 10
  -8.03024
 20
  36.88968
 30
    .00000
 11
  -8.03487
 21
  36.93946
 31
    .00000
  0
LINE
  8
LAYE
 10
  -8.03024
 20
  36.88968
 30
    .00000
 11
  -7.98944
 21
  36.91859
 31
    .00000
  0
LINE
  8
LAYE
 10
  -7.85538
 20
  36.99730
 30
    .00000
 11
  -7.95338
 21
  36.77030
 31
    .00000
  0
LINE
  8
LAYE
 10
  -7.95338
 20
  36.77030
 30
    .00000
 11
  -7.95917
 21
  36.81996
 31
    .00000
  0
LINE
  8
LAYE
 10
  -7.95338
 20
  36.77030
 30
    .00000
 11
  -7.91326
 21
  36.80015
 31
    .00000
  0
ENDSEC
  0
EOF
