  0
SECTION
  2
ENTITIES
  0
LINE
  8
LAYE
 10
  -8.70106
 20
  42.13562
 30
    .00000
 11
  -8.70106
 21
  41.27562
 31
    .00000
  0
LINE
  8
LAYE
 10
  -8.70106
 20
  41.27562
 30
    .00000
 11
  -8.72606
 21
  41.31892
 31
    .00000
  0
LINE
  8
LAYE
 10
  -8.70106
 20
  41.27562
 30
    .00000
 11
  -8.67606
 21
  41.31892
 31
    .00000
  0
LINE
  8
LAYE
 10
  -8.41300
 20
  42.13471
 30
    .00000
 11
  -8.41300
 21
  41.82471
 31
    .00000
  0
LINE
  8
LAYE
 10
  -8.41300
 20
  41.82471
 30
    .00000
 11
  -8.43800
 21
  41.86801
 31
    .00000
  0
LINE
  8
LAYE
 10
  -8.41300
 20
  41.82471
 30
    .00000
 11
  -8.38800
 21
  41.86801
 31
    .00000
  0
LINE
  8
LAYE
 10
  -8.71473
 20
  41.92157
 30
    .00000
 11
  -8.71473
 21
  42.35157
 31
    .00000
  0
LINE
  8
LAYE
 10
  -8.71473
 20
  42.35157
 30
    .00000
 11
  -8.68973
 21
  42.30827
 31
    .00000
  0
LINE
  8
LAYE
 10
  -8.71473
 20
  42.35157
 30
    .00000
 11
  -8.73973
 21
  42.30827
 31
    .00000
  0
LINE
  8
LAYE
 10
  -8.87142
 20
  41.88802
 30
    .00000
 11
  -8.87142
 21
  42.23802
 31
    .00000
  0
LINE
  8
LAYE
 10
  -8.87142
 20
  42.23802
 30
    .00000
 11
  -8.84642
 21
  42.19472
 31
    .00000
  0
LINE
  8
LAYE
 10
  -8.87142
 20
  42.23802
 30
    .00000
 11
  -8.89642
 21
  42.19472
 31
    .00000
  0
LINE
  8
LAYE
 10
  -8.30762
 20
  41.96908
 30
    .00000
 11
  -8.30762
 21
  42.60908
 31
    .00000
  0
LINE
  8
LAYE
 10
  -8.30762
 20
  42.60908
 30
    .00000
 11
  -8.28262
 21
  42.56578
 31
    .00000
  0
LINE
  8
LAYE
 10
  -8.30762
 20
  42.60908
 30
    .00000
 11
  -8.33262
 21
  42.56578
 31
    .00000
  0
LINE
  8
LAYE
 10
  -7.72032
 20
  41.88038
 30
    .00000
 11
  -7.72032
 21
  42.23038
 31
    .00000
  0
LINE
  8
LAYE
 10
  -7.72032
 20
  42.23038
 30
    .00000
 11
  -7.69532
 21
  42.18708
 31
    .00000
  0
LINE
  8
LAYE
 10
  -7.72032
 20
  42.23038
 30
    .00000
 11
  -7.74532
 21
  42.18708
 31
    .00000
  0
LINE
  8
LAYE
 10
  -7.00360
 20
  41.91483
 30
    .00000
 11
  -7.00360
 21
  42.09483
 31
    .00000
  0
LINE
  8
LAYE
 10
  -7.00360
 20
  42.09483
 30
    .00000
 11
  -6.97860
 21
  42.05153
 31
    .00000
  0
LINE
  8
LAYE
 10
  -7.00360
 20
  42.09483
 30
    .00000
 11
  -7.02860
 21
  42.05153
 31
    .00000
  0
LINE
  8
LAYE
 10
  -7.33322
 20
  41.84860
 30
    .00000
 11
  -7.33322
 21
  41.82860
 31
    .00000
  0
LINE
  8
LAYE
 10
  -7.33322
 20
  41.82860
 30
    .00000
 11
  -7.35822
 21
  41.87190
 31
    .00000
  0
LINE
  8
LAYE
 10
  -7.33322
 20
  41.82860
 30
    .00000
 11
  -7.30822
 21
  41.87190
 31
    .00000
  0
LINE
  8
LAYE
 10
  -6.59109
 20
  41.84944
 30
    .00000
 11
  -6.59109
 21
  42.03944
 31
    .00000
  0
LINE
  8
LAYE
 10
  -6.59109
 20
  42.03944
 30
    .00000
 11
  -6.56609
 21
  41.99614
 31
    .00000
  0
LINE
  8
LAYE
 10
  -6.59109
 20
  42.03944
 30
    .00000
 11
  -6.61609
 21
  41.99614
 31
    .00000
  0
LINE
  8
LAYE
 10
  -8.80780
 20
  41.76295
 30
    .00000
 11
  -8.80780
 21
  42.04295
 31
    .00000
  0
LINE
  8
LAYE
 10
  -8.80780
 20
  42.04295
 30
    .00000
 11
  -8.78280
 21
  41.99965
 31
    .00000
  0
LINE
  8
LAYE
 10
  -8.80780
 20
  42.04295
 30
    .00000
 11
  -8.83280
 21
  41.99965
 31
    .00000
  0
LINE
  8
LAYE
 10
  -8.45937
 20
  41.72871
 30
    .00000
 11
  -8.45937
 21
  41.68871
 31
    .00000
  0
LINE
  8
LAYE
 10
  -8.45937
 20
  41.68871
 30
    .00000
 11
  -8.48437
 21
  41.73201
 31
    .00000
  0
LINE
  8
LAYE
 10
  -8.45937
 20
  41.68871
 30
    .00000
 11
  -8.43437
 21
  41.73201
 31
    .00000
  0
LINE
  8
LAYE
 10
  -8.04329
 20
  41.63897
 30
    .00000
 11
  -8.04329
 21
  41.87897
 31
    .00000
  0
LINE
  8
LAYE
 10
  -8.04329
 20
  41.87897
 30
    .00000
 11
  -8.01829
 21
  41.83567
 31
    .00000
  0
LINE
  8
LAYE
 10
  -8.04329
 20
  41.87897
 30
    .00000
 11
  -8.06829
 21
  41.83567
 31
    .00000
  0
LINE
  8
LAYE
 10
  -7.51709
 20
  41.56221
 30
    .00000
 11
  -7.51709
 21
  41.84221
 31
    .00000
  0
LINE
  8
LAYE
 10
  -7.51709
 20
  41.84221
 30
    .00000
 11
  -7.49209
 21
  41.79891
 31
    .00000
  0
LINE
  8
LAYE
 10
  -7.51709
 20
  41.84221
 30
    .00000
 11
  -7.54209
 21
  41.79891
 31
    .00000
  0
LINE
  8
LAYE
 10
  -6.85551
 20
  41.71728
 30
    .00000
 11
  -6.85551
 21
  41.80728
 31
    .00000
  0
LINE
  8
LAYE
 10
  -6.85551
 20
  41.80728
 30
    .00000
 11
  -6.83051
 21
  41.76398
 31
    .00000
  0
LINE
  8
LAYE
 10
  -6.85551
 20
  41.80728
 30
    .00000
 11
  -6.88051
 21
  41.76398
 31
    .00000
  0
LINE
  8
LAYE
 10
  -6.30702
 20
  41.66298
 30
    .00000
 11
  -6.30702
 21
  41.80298
 31
    .00000
  0
LINE
  8
LAYE
 10
  -6.30702
 20
  41.80298
 30
    .00000
 11
  -6.28202
 21
  41.75968
 31
    .00000
  0
LINE
  8
LAYE
 10
  -6.30702
 20
  41.80298
 30
    .00000
 11
  -6.33202
 21
  41.75968
 31
    .00000
  0
LINE
  8
LAYE
 10
  -6.56340
 20
  41.53116
 30
    .00000
 11
  -6.56340
 21
  41.50116
 31
    .00000
  0
LINE
  8
LAYE
 10
  -6.56340
 20
  41.50116
 30
    .00000
 11
  -6.58840
 21
  41.54446
 31
    .00000
  0
LINE
  8
LAYE
 10
  -6.56340
 20
  41.50116
 30
    .00000
 11
  -6.53840
 21
  41.54446
 31
    .00000
  0
LINE
  8
LAYE
 10
  -8.71530
 20
  41.43497
 30
    .00000
 11
  -8.71530
 21
  41.63497
 31
    .00000
  0
LINE
  8
LAYE
 10
  -8.71530
 20
  41.63497
 30
    .00000
 11
  -8.69030
 21
  41.59167
 31
    .00000
  0
LINE
  8
LAYE
 10
  -8.71530
 20
  41.63497
 30
    .00000
 11
  -8.74030
 21
  41.59167
 31
    .00000
  0
LINE
  8
LAYE
 10
  -8.38600
 20
  41.32386
 30
    .00000
 11
  -8.38600
 21
  40.94386
 31
    .00000
  0
LINE
  8
LAYE
 10
  -8.38600
 20
  40.94386
 30
    .00000
 11
  -8.41100
 21
  40.98716
 31
    .00000
  0
LINE
  8
LAYE
 10
  -8.38600
 20
  40.94386
 30
    .00000
 11
  -8.36100
 21
  40.98716
 31
    .00000
  0
LINE
  8
LAYE
 10
  -8.26340
 20
  41.16750
 30
    .00000
 11
  -8.26340
 21
  40.68750
 31
    .00000
  0
LINE
  8
LAYE
 10
  -8.26340
 20
  40.68750
 30
    .00000
 11
  -8.28840
 21
  40.73080
 31
    .00000
  0
LINE
  8
LAYE
 10
  -8.26340
 20
  40.68750
 30
    .00000
 11
  -8.23840
 21
  40.73080
 31
    .00000
  0
LINE
  8
LAYE
 10
  -7.88691
 20
  41.24847
 30
    .00000
 11
  -7.88691
 21
  41.13847
 31
    .00000
  0
LINE
  8
LAYE
 10
  -7.88691
 20
  41.13847
 30
    .00000
 11
  -7.91191
 21
  41.18177
 31
    .00000
  0
LINE
  8
LAYE
 10
  -7.88691
 20
  41.13847
 30
    .00000
 11
  -7.86191
 21
  41.18177
 31
    .00000
  0
LINE
  8
LAYE
 10
  -7.00698
 20
  41.43405
 30
    .00000
 11
  -7.00698
 21
  41.44405
 31
    .00000
  0
LINE
  8
LAYE
 10
  -7.00698
 20
  41.44405
 30
    .00000
 11
  -6.98198
 21
  41.40075
 31
    .00000
  0
LINE
  8
LAYE
 10
  -7.00698
 20
  41.44405
 30
    .00000
 11
  -7.03198
 21
  41.40075
 31
    .00000
  0
LINE
  8
LAYE
 10
  -7.25983
 20
  41.23482
 30
    .00000
 11
  -7.25983
 21
  41.33482
 31
    .00000
  0
LINE
  8
LAYE
 10
  -7.25983
 20
  41.33482
 30
    .00000
 11
  -7.23483
 21
  41.29152
 31
    .00000
  0
LINE
  8
LAYE
 10
  -7.25983
 20
  41.33482
 30
    .00000
 11
  -7.28483
 21
  41.29152
 31
    .00000
  0
LINE
  8
LAYE
 10
  -6.75854
 20
  41.21068
 30
    .00000
 11
  -6.75854
 21
  41.08068
 31
    .00000
  0
LINE
  8
LAYE
 10
  -6.75854
 20
  41.08068
 30
    .00000
 11
  -6.78354
 21
  41.12398
 31
    .00000
  0
LINE
  8
LAYE
 10
  -6.75854
 20
  41.08068
 30
    .00000
 11
  -6.73354
 21
  41.12398
 31
    .00000
  0
LINE
  8
LAYE
 10
  -6.32150
 20
  41.35772
 30
    .00000
 11
  -6.32150
 21
  40.05772
 31
    .00000
  0
LINE
  8
LAYE
 10
  -6.32150
 20
  40.05772
 30
    .00000
 11
  -6.34650
 21
  40.10102
 31
    .00000
  0
LINE
  8
LAYE
 10
  -6.32150
 20
  40.05772
 30
    .00000
 11
  -6.29650
 21
  40.10102
 31
    .00000
  0
LINE
  8
LAYE
 10
  -8.58721
 20
  41.10792
 30
    .00000
 11
  -8.58721
 21
  40.84792
 31
    .00000
  0
LINE
  8
LAYE
 10
  -8.58721
 20
  40.84792
 30
    .00000
 11
  -8.61221
 21
  40.89122
 31
    .00000
  0
LINE
  8
LAYE
 10
  -8.58721
 20
  40.84792
 30
    .00000
 11
  -8.56221
 21
  40.89122
 31
    .00000
  0
LINE
  8
LAYE
 10
  -8.28075
 20
  40.87517
 30
    .00000
 11
  -8.28075
 21
  40.86517
 31
    .00000
  0
LINE
  8
LAYE
 10
  -8.28075
 20
  40.86517
 30
    .00000
 11
  -8.30575
 21
  40.90847
 31
    .00000
  0
LINE
  8
LAYE
 10
  -8.28075
 20
  40.86517
 30
    .00000
 11
  -8.25575
 21
  40.90847
 31
    .00000
  0
LINE
  8
LAYE
 10
  -7.98782
 20
  40.97405
 30
    .00000
 11
  -7.98782
 21
  41.31405
 31
    .00000
  0
LINE
  8
LAYE
 10
  -7.98782
 20
  41.31405
 30
    .00000
 11
  -7.96282
 21
  41.27075
 31
    .00000
  0
LINE
  8
LAYE
 10
  -7.98782
 20
  41.31405
 30
    .00000
 11
  -8.01282
 21
  41.27075
 31
    .00000
  0
LINE
  8
LAYE
 10
  -7.65617
 20
  40.95564
 30
    .00000
 11
  -7.65617
 21
  41.27564
 31
    .00000
  0
LINE
  8
LAYE
 10
  -7.65617
 20
  41.27564
 30
    .00000
 11
  -7.63117
 21
  41.23234
 31
    .00000
  0
LINE
  8
LAYE
 10
  -7.65617
 20
  41.27564
 30
    .00000
 11
  -7.68117
 21
  41.23234
 31
    .00000
  0
LINE
  8
LAYE
 10
  -7.42414
 20
  40.77024
 30
    .00000
 11
  -7.42414
 21
  41.16024
 31
    .00000
  0
LINE
  8
LAYE
 10
  -7.42414
 20
  41.16024
 30
    .00000
 11
  -7.39914
 21
  41.11694
 31
    .00000
  0
LINE
  8
LAYE
 10
  -7.42414
 20
  41.16024
 30
    .00000
 11
  -7.44914
 21
  41.11694
 31
    .00000
  0
LINE
  8
LAYE
 10
  -6.99173
 20
  40.86412
 30
    .00000
 11
  -6.99173
 21
  40.96412
 31
    .00000
  0
LINE
  8
LAYE
 10
  -6.99173
 20
  40.96412
 30
    .00000
 11
  -6.96673
 21
  40.92082
 31
    .00000
  0
LINE
  8
LAYE
 10
  -6.99173
 20
  40.96412
 30
    .00000
 11
  -7.01673
 21
  40.92082
 31
    .00000
  0
LINE
  8
LAYE
 10
  -8.74784
 20
  40.64283
 30
    .00000
 11
  -8.74784
 21
  40.27283
 31
    .00000
  0
LINE
  8
LAYE
 10
  -8.74784
 20
  40.27283
 30
    .00000
 11
  -8.77284
 21
  40.31613
 31
    .00000
  0
LINE
  8
LAYE
 10
  -8.74784
 20
  40.27283
 30
    .00000
 11
  -8.72284
 21
  40.31613
 31
    .00000
  0
LINE
  8
LAYE
 10
  -8.80187
 20
  40.45969
 30
    .00000
 11
  -8.80187
 21
  40.24969
 31
    .00000
  0
LINE
  8
LAYE
 10
  -8.80187
 20
  40.24969
 30
    .00000
 11
  -8.82687
 21
  40.29299
 31
    .00000
  0
LINE
  8
LAYE
 10
  -8.80187
 20
  40.24969
 30
    .00000
 11
  -8.77687
 21
  40.29299
 31
    .00000
  0
LINE
  8
LAYE
 10
  -8.20205
 20
  40.54727
 30
    .00000
 11
  -8.20205
 21
  40.61727
 31
    .00000
  0
LINE
  8
LAYE
 10
  -8.20205
 20
  40.61727
 30
    .00000
 11
  -8.17705
 21
  40.57397
 31
    .00000
  0
LINE
  8
LAYE
 10
  -8.20205
 20
  40.61727
 30
    .00000
 11
  -8.22705
 21
  40.57397
 31
    .00000
  0
LINE
  8
LAYE
 10
  -7.74357
 20
  40.61243
 30
    .00000
 11
  -7.74357
 21
  40.37243
 31
    .00000
  0
LINE
  8
LAYE
 10
  -7.74357
 20
  40.37243
 30
    .00000
 11
  -7.76857
 21
  40.41573
 31
    .00000
  0
LINE
  8
LAYE
 10
  -7.74357
 20
  40.37243
 30
    .00000
 11
  -7.71857
 21
  40.41573
 31
    .00000
  0
LINE
  8
LAYE
 10
  -7.42522
 20
  40.53378
 30
    .00000
 11
  -7.42522
 21
  40.91378
 31
    .00000
  0
LINE
  8
LAYE
 10
  -7.42522
 20
  40.91378
 30
    .00000
 11
  -7.40022
 21
  40.87048
 31
    .00000
  0
LINE
  8
LAYE
 10
  -7.42522
 20
  40.91378
 30
    .00000
 11
  -7.45022
 21
  40.87048
 31
    .00000
  0
LINE
  8
LAYE
 10
  -7.13279
 20
  40.59123
 30
    .00000
 11
  -7.13279
 21
  40.85123
 31
    .00000
  0
LINE
  8
LAYE
 10
  -7.13279
 20
  40.85123
 30
    .00000
 11
  -7.10779
 21
  40.80793
 31
    .00000
  0
LINE
  8
LAYE
 10
  -7.13279
 20
  40.85123
 30
    .00000
 11
  -7.15779
 21
  40.80793
 31
    .00000
  0
LINE
  8
LAYE
 10
  -6.85588
 20
  40.60444
 30
    .00000
 11
  -6.85588
 21
  40.67444
 31
    .00000
  0
LINE
  8
LAYE
 10
  -6.85588
 20
  40.67444
 30
    .00000
 11
  -6.83088
 21
  40.63114
 31
    .00000
  0
LINE
  8
LAYE
 10
  -6.85588
 20
  40.67444
 30
    .00000
 11
  -6.88088
 21
  40.63114
 31
    .00000
  0
LINE
  8
LAYE
 10
  -6.87826
 20
  40.45484
 30
    .00000
 11
  -6.87826
 21
  40.54484
 31
    .00000
  0
LINE
  8
LAYE
 10
  -6.87826
 20
  40.54484
 30
    .00000
 11
  -6.85326
 21
  40.50154
 31
    .00000
  0
LINE
  8
LAYE
 10
  -6.87826
 20
  40.54484
 30
    .00000
 11
  -6.90326
 21
  40.50154
 31
    .00000
  0
LINE
  8
LAYE
 10
  -8.35468
 20
  40.36186
 30
    .00000
 11
  -8.35468
 21
  40.56186
 31
    .00000
  0
LINE
  8
LAYE
 10
  -8.35468
 20
  40.56186
 30
    .00000
 11
  -8.32968
 21
  40.51856
 31
    .00000
  0
LINE
  8
LAYE
 10
  -8.35468
 20
  40.56186
 30
    .00000
 11
  -8.37968
 21
  40.51856
 31
    .00000
  0
LINE
  8
LAYE
 10
  -8.85400
 20
  40.19557
 30
    .00000
 11
  -8.85400
 21
  39.78557
 31
    .00000
  0
LINE
  8
LAYE
 10
  -8.85400
 20
  39.78557
 30
    .00000
 11
  -8.87900
 21
  39.82887
 31
    .00000
  0
LINE
  8
LAYE
 10
  -8.85400
 20
  39.78557
 30
    .00000
 11
  -8.82900
 21
  39.82887
 31
    .00000
  0
LINE
  8
LAYE
 10
  -8.17913
 20
  40.08964
 30
    .00000
 11
  -8.17913
 21
  40.20964
 31
    .00000
  0
LINE
  8
LAYE
 10
  -8.17913
 20
  40.20964
 30
    .00000
 11
  -8.15413
 21
  40.16634
 31
    .00000
  0
LINE
  8
LAYE
 10
  -8.17913
 20
  40.20964
 30
    .00000
 11
  -8.20413
 21
  40.16634
 31
    .00000
  0
LINE
  8
LAYE
 10
  -7.93908
 20
  40.38584
 30
    .00000
 11
  -7.93908
 21
  40.30584
 31
    .00000
  0
LINE
  8
LAYE
 10
  -7.93908
 20
  40.30584
 30
    .00000
 11
  -7.96408
 21
  40.34914
 31
    .00000
  0
LINE
  8
LAYE
 10
  -7.93908
 20
  40.30584
 30
    .00000
 11
  -7.91408
 21
  40.34914
 31
    .00000
  0
LINE
  8
LAYE
 10
  -7.81803
 20
  40.21558
 30
    .00000
 11
  -7.81803
 21
  40.66558
 31
    .00000
  0
LINE
  8
LAYE
 10
  -7.81803
 20
  40.66558
 30
    .00000
 11
  -7.79303
 21
  40.62228
 31
    .00000
  0
LINE
  8
LAYE
 10
  -7.81803
 20
  40.66558
 30
    .00000
 11
  -7.84303
 21
  40.62228
 31
    .00000
  0
LINE
  8
LAYE
 10
  -7.61292
 20
  40.32190
 30
    .00000
 11
  -7.61292
 21
  41.35190
 31
    .00000
  0
LINE
  8
LAYE
 10
  -7.61292
 20
  41.35190
 30
    .00000
 11
  -7.58792
 21
  41.30860
 31
    .00000
  0
LINE
  8
LAYE
 10
  -7.61292
 20
  41.35190
 30
    .00000
 11
  -7.63792
 21
  41.30860
 31
    .00000
  0
LINE
  8
LAYE
 10
  -7.52500
 20
  40.08057
 30
    .00000
 11
  -7.52500
 21
  40.46057
 31
    .00000
  0
LINE
  8
LAYE
 10
  -7.52500
 20
  40.46057
 30
    .00000
 11
  -7.50000
 21
  40.41727
 31
    .00000
  0
LINE
  8
LAYE
 10
  -7.52500
 20
  40.46057
 30
    .00000
 11
  -7.55000
 21
  40.41727
 31
    .00000
  0
LINE
  8
LAYE
 10
  -7.18082
 20
  40.35140
 30
    .00000
 11
  -7.18082
 21
  40.55140
 31
    .00000
  0
LINE
  8
LAYE
 10
  -7.18082
 20
  40.55140
 30
    .00000
 11
  -7.15582
 21
  40.50810
 31
    .00000
  0
LINE
  8
LAYE
 10
  -7.18082
 20
  40.55140
 30
    .00000
 11
  -7.20582
 21
  40.50810
 31
    .00000
  0
LINE
  8
LAYE
 10
  -6.86023
 20
  40.27219
 30
    .00000
 11
  -6.86023
 21
  40.18219
 31
    .00000
  0
LINE
  8
LAYE
 10
  -6.86023
 20
  40.18219
 30
    .00000
 11
  -6.88523
 21
  40.22549
 31
    .00000
  0
LINE
  8
LAYE
 10
  -6.86023
 20
  40.18219
 30
    .00000
 11
  -6.83523
 21
  40.22549
 31
    .00000
  0
LINE
  8
LAYE
 10
  -7.11441
 20
  40.03577
 30
    .00000
 11
  -7.11441
 21
  39.93577
 31
    .00000
  0
LINE
  8
LAYE
 10
  -7.11441
 20
  39.93577
 30
    .00000
 11
  -7.13941
 21
  39.97907
 31
    .00000
  0
LINE
  8
LAYE
 10
  -7.11441
 20
  39.93577
 30
    .00000
 11
  -7.08941
 21
  39.97907
 31
    .00000
  0
LINE
  8
LAYE
 10
  -9.00254
 20
  39.68717
 30
    .00000
 11
  -9.00254
 21
  39.44717
 31
    .00000
  0
LINE
  8
LAYE
 10
  -9.00254
 20
  39.44717
 30
    .00000
 11
  -9.02754
 21
  39.49047
 31
    .00000
  0
LINE
  8
LAYE
 10
  -9.00254
 20
  39.44717
 30
    .00000
 11
  -8.97754
 21
  39.49047
 31
    .00000
  0
LINE
  8
LAYE
 10
  -8.84292
 20
  39.89207
 30
    .00000
 11
  -8.84292
 21
  39.61207
 31
    .00000
  0
LINE
  8
LAYE
 10
  -8.84292
 20
  39.61207
 30
    .00000
 11
  -8.86792
 21
  39.65537
 31
    .00000
  0
LINE
  8
LAYE
 10
  -8.84292
 20
  39.61207
 30
    .00000
 11
  -8.81792
 21
  39.65537
 31
    .00000
  0
LINE
  8
LAYE
 10
  -8.53994
 20
  39.92039
 30
    .00000
 11
  -8.53994
 21
  39.49039
 31
    .00000
  0
LINE
  8
LAYE
 10
  -8.53994
 20
  39.49039
 30
    .00000
 11
  -8.56494
 21
  39.53369
 31
    .00000
  0
LINE
  8
LAYE
 10
  -8.53994
 20
  39.49039
 30
    .00000
 11
  -8.51494
 21
  39.53369
 31
    .00000
  0
LINE
  8
LAYE
 10
  -7.92561
 20
  39.84859
 30
    .00000
 11
  -7.92561
 21
  40.07859
 31
    .00000
  0
LINE
  8
LAYE
 10
  -7.92561
 20
  40.07859
 30
    .00000
 11
  -7.90061
 21
  40.03529
 31
    .00000
  0
LINE
  8
LAYE
 10
  -7.92561
 20
  40.07859
 30
    .00000
 11
  -7.95061
 21
  40.03529
 31
    .00000
  0
LINE
  8
LAYE
 10
  -8.13015
 20
  39.69414
 30
    .00000
 11
  -8.13015
 21
  39.68414
 31
    .00000
  0
LINE
  8
LAYE
 10
  -8.13015
 20
  39.68414
 30
    .00000
 11
  -8.15515
 21
  39.72744
 31
    .00000
  0
LINE
  8
LAYE
 10
  -8.13015
 20
  39.68414
 30
    .00000
 11
  -8.10515
 21
  39.72744
 31
    .00000
  0
LINE
  8
LAYE
 10
  -7.46362
 20
  39.80297
 30
    .00000
 11
  -7.46362
 21
  39.85297
 31
    .00000
  0
LINE
  8
LAYE
 10
  -7.46362
 20
  39.85297
 30
    .00000
 11
  -7.43862
 21
  39.80967
 31
    .00000
  0
LINE
  8
LAYE
 10
  -7.46362
 20
  39.85297
 30
    .00000
 11
  -7.48862
 21
  39.80967
 31
    .00000
  0
LINE
  8
LAYE
 10
  -7.03998
 20
  39.73449
 30
    .00000
 11
  -7.03998
 21
  39.57449
 31
    .00000
  0
LINE
  8
LAYE
 10
  -7.03998
 20
  39.57449
 30
    .00000
 11
  -7.06498
 21
  39.61779
 31
    .00000
  0
LINE
  8
LAYE
 10
  -7.03998
 20
  39.57449
 30
    .00000
 11
  -7.01498
 21
  39.61779
 31
    .00000
  0
LINE
  8
LAYE
 10
  -9.40779
 20
  39.36060
 30
    .00000
 11
  -9.40779
 21
  39.14060
 31
    .00000
  0
LINE
  8
LAYE
 10
  -9.40779
 20
  39.14060
 30
    .00000
 11
  -9.43279
 21
  39.18390
 31
    .00000
  0
LINE
  8
LAYE
 10
  -9.40779
 20
  39.14060
 30
    .00000
 11
  -9.38279
 21
  39.18390
 31
    .00000
  0
LINE
  8
LAYE
 10
  -9.20115
 20
  39.45386
 30
    .00000
 11
  -9.20115
 21
  39.03386
 31
    .00000
  0
LINE
  8
LAYE
 10
  -9.20115
 20
  39.03386
 30
    .00000
 11
  -9.22615
 21
  39.07716
 31
    .00000
  0
LINE
  8
LAYE
 10
  -9.20115
 20
  39.03386
 30
    .00000
 11
  -9.17615
 21
  39.07716
 31
    .00000
  0
LINE
  8
LAYE
 10
  -8.91859
 20
  39.43742
 30
    .00000
 11
  -8.91859
 21
  39.30742
 31
    .00000
  0
LINE
  8
LAYE
 10
  -8.91859
 20
  39.30742
 30
    .00000
 11
  -8.94359
 21
  39.35072
 31
    .00000
  0
LINE
  8
LAYE
 10
  -8.91859
 20
  39.30742
 30
    .00000
 11
  -8.89359
 21
  39.35072
 31
    .00000
  0
LINE
  8
LAYE
 10
  -8.63660
 20
  39.53580
 30
    .00000
 11
  -8.63660
 21
  39.67580
 31
    .00000
  0
LINE
  8
LAYE
 10
  -8.63660
 20
  39.67580
 30
    .00000
 11
  -8.61160
 21
  39.63250
 31
    .00000
  0
LINE
  8
LAYE
 10
  -8.63660
 20
  39.67580
 30
    .00000
 11
  -8.66160
 21
  39.63250
 31
    .00000
  0
LINE
  8
LAYE
 10
  -8.29298
 20
  39.52093
 30
    .00000
 11
  -8.29298
 21
  39.42093
 31
    .00000
  0
LINE
  8
LAYE
 10
  -8.29298
 20
  39.42093
 30
    .00000
 11
  -8.31798
 21
  39.46423
 31
    .00000
  0
LINE
  8
LAYE
 10
  -8.29298
 20
  39.42093
 30
    .00000
 11
  -8.26798
 21
  39.46423
 31
    .00000
  0
LINE
  8
LAYE
 10
  -8.75043
 20
  39.33471
 30
    .00000
 11
  -8.75043
 21
  39.04471
 31
    .00000
  0
LINE
  8
LAYE
 10
  -8.75043
 20
  39.04471
 30
    .00000
 11
  -8.77543
 21
  39.08801
 31
    .00000
  0
LINE
  8
LAYE
 10
  -8.75043
 20
  39.04471
 30
    .00000
 11
  -8.72543
 21
  39.08801
 31
    .00000
  0
LINE
  8
LAYE
 10
  -8.41733
 20
  39.33616
 30
    .00000
 11
  -8.41733
 21
  39.09616
 31
    .00000
  0
LINE
  8
LAYE
 10
  -8.41733
 20
  39.09616
 30
    .00000
 11
  -8.44233
 21
  39.13946
 31
    .00000
  0
LINE
  8
LAYE
 10
  -8.41733
 20
  39.09616
 30
    .00000
 11
  -8.39233
 21
  39.13946
 31
    .00000
  0
LINE
  8
LAYE
 10
  -7.63005
 20
  39.57531
 30
    .00000
 11
  -7.63005
 21
  39.71531
 31
    .00000
  0
LINE
  8
LAYE
 10
  -7.63005
 20
  39.71531
 30
    .00000
 11
  -7.60505
 21
  39.67201
 31
    .00000
  0
LINE
  8
LAYE
 10
  -7.63005
 20
  39.71531
 30
    .00000
 11
  -7.65505
 21
  39.67201
 31
    .00000
  0
LINE
  8
LAYE
 10
  -8.01141
 20
  39.36705
 30
    .00000
 11
  -8.01141
 21
  39.26705
 31
    .00000
  0
LINE
  8
LAYE
 10
  -8.01141
 20
  39.26705
 30
    .00000
 11
  -8.03641
 21
  39.31035
 31
    .00000
  0
LINE
  8
LAYE
 10
  -8.01141
 20
  39.26705
 30
    .00000
 11
  -7.98641
 21
  39.31035
 31
    .00000
  0
LINE
  8
LAYE
 10
  -7.21631
 20
  39.60401
 30
    .00000
 11
  -7.21631
 21
  40.98401
 31
    .00000
  0
LINE
  8
LAYE
 10
  -7.21631
 20
  40.98401
 30
    .00000
 11
  -7.19131
 21
  40.94071
 31
    .00000
  0
LINE
  8
LAYE
 10
  -7.21631
 20
  40.98401
 30
    .00000
 11
  -7.24131
 21
  40.94071
 31
    .00000
  0
LINE
  8
LAYE
 10
  -7.36057
 20
  39.31350
 30
    .00000
 11
  -7.36057
 21
  39.76350
 31
    .00000
  0
LINE
  8
LAYE
 10
  -7.36057
 20
  39.76350
 30
    .00000
 11
  -7.33557
 21
  39.72020
 31
    .00000
  0
LINE
  8
LAYE
 10
  -7.36057
 20
  39.76350
 30
    .00000
 11
  -7.38557
 21
  39.72020
 31
    .00000
  0
LINE
  8
LAYE
 10
  -9.04854
 20
  39.17338
 30
    .00000
 11
  -9.04854
 21
  39.10338
 31
    .00000
  0
LINE
  8
LAYE
 10
  -9.04854
 20
  39.10338
 30
    .00000
 11
  -9.07354
 21
  39.14668
 31
    .00000
  0
LINE
  8
LAYE
 10
  -9.04854
 20
  39.10338
 30
    .00000
 11
  -9.02354
 21
  39.14668
 31
    .00000
  0
LINE
  8
LAYE
 10
  -9.31658
 20
  39.01234
 30
    .00000
 11
  -9.31658
 21
  38.81234
 31
    .00000
  0
LINE
  8
LAYE
 10
  -9.31658
 20
  38.81234
 30
    .00000
 11
  -9.34158
 21
  38.85564
 31
    .00000
  0
LINE
  8
LAYE
 10
  -9.31658
 20
  38.81234
 30
    .00000
 11
  -9.29158
 21
  38.85564
 31
    .00000
  0
LINE
  8
LAYE
 10
  -8.58665
 20
  39.14224
 30
    .00000
 11
  -8.58665
 21
  38.92224
 31
    .00000
  0
LINE
  8
LAYE
 10
  -8.58665
 20
  38.92224
 30
    .00000
 11
  -8.61165
 21
  38.96554
 31
    .00000
  0
LINE
  8
LAYE
 10
  -8.58665
 20
  38.92224
 30
    .00000
 11
  -8.56165
 21
  38.96554
 31
    .00000
  0
LINE
  8
LAYE
 10
  -8.18733
 20
  39.07731
 30
    .00000
 11
  -8.18733
 21
  39.06731
 31
    .00000
  0
LINE
  8
LAYE
 10
  -8.18733
 20
  39.06731
 30
    .00000
 11
  -8.21233
 21
  39.11061
 31
    .00000
  0
LINE
  8
LAYE
 10
  -8.18733
 20
  39.06731
 30
    .00000
 11
  -8.16233
 21
  39.11061
 31
    .00000
  0
LINE
  8
LAYE
 10
  -7.62273
 20
  39.18913
 30
    .00000
 11
  -7.62273
 21
  39.14913
 31
    .00000
  0
LINE
  8
LAYE
 10
  -7.62273
 20
  39.14913
 30
    .00000
 11
  -7.64773
 21
  39.19243
 31
    .00000
  0
LINE
  8
LAYE
 10
  -7.62273
 20
  39.14913
 30
    .00000
 11
  -7.59773
 21
  39.19243
 31
    .00000
  0
LINE
  8
LAYE
 10
  -7.10716
 20
  39.03111
 30
    .00000
 11
  -7.10716
 21
  38.49111
 31
    .00000
  0
LINE
  8
LAYE
 10
  -7.10716
 20
  38.49111
 30
    .00000
 11
  -7.13216
 21
  38.53441
 31
    .00000
  0
LINE
  8
LAYE
 10
  -7.10716
 20
  38.49111
 30
    .00000
 11
  -7.08216
 21
  38.53441
 31
    .00000
  0
LINE
  8
LAYE
 10
  -9.44149
 20
  38.77432
 30
    .00000
 11
  -9.44149
 21
  38.74432
 31
    .00000
  0
LINE
  8
LAYE
 10
  -9.44149
 20
  38.74432
 30
    .00000
 11
  -9.46649
 21
  38.78762
 31
    .00000
  0
LINE
  8
LAYE
 10
  -9.44149
 20
  38.74432
 30
    .00000
 11
  -9.41649
 21
  38.78762
 31
    .00000
  0
LINE
  8
LAYE
 10
  -9.09102
 20
  38.89424
 30
    .00000
 11
  -9.09102
 21
  38.74424
 31
    .00000
  0
LINE
  8
LAYE
 10
  -9.09102
 20
  38.74424
 30
    .00000
 11
  -9.11602
 21
  38.78754
 31
    .00000
  0
LINE
  8
LAYE
 10
  -9.09102
 20
  38.74424
 30
    .00000
 11
  -9.06602
 21
  38.78754
 31
    .00000
  0
LINE
  8
LAYE
 10
  -9.13316
 20
  38.71370
 30
    .00000
 11
  -9.13316
 21
  38.30370
 31
    .00000
  0
LINE
  8
LAYE
 10
  -9.13316
 20
  38.30370
 30
    .00000
 11
  -9.15816
 21
  38.34700
 31
    .00000
  0
LINE
  8
LAYE
 10
  -9.13316
 20
  38.30370
 30
    .00000
 11
  -9.10816
 21
  38.34700
 31
    .00000
  0
LINE
  8
LAYE
 10
  -8.51905
 20
  38.84057
 30
    .00000
 11
  -8.51905
 21
  38.52057
 31
    .00000
  0
LINE
  8
LAYE
 10
  -8.51905
 20
  38.52057
 30
    .00000
 11
  -8.54405
 21
  38.56387
 31
    .00000
  0
LINE
  8
LAYE
 10
  -8.51905
 20
  38.52057
 30
    .00000
 11
  -8.49405
 21
  38.56387
 31
    .00000
  0
LINE
  8
LAYE
 10
  -8.54012
 20
  38.68875
 30
    .00000
 11
  -8.54012
 21
  38.44875
 31
    .00000
  0
LINE
  8
LAYE
 10
  -8.54012
 20
  38.44875
 30
    .00000
 11
  -8.56512
 21
  38.49205
 31
    .00000
  0
LINE
  8
LAYE
 10
  -8.54012
 20
  38.44875
 30
    .00000
 11
  -8.51512
 21
  38.49205
 31
    .00000
  0
LINE
  8
LAYE
 10
  -7.65408
 20
  38.91634
 30
    .00000
 11
  -7.65408
 21
  38.49634
 31
    .00000
  0
LINE
  8
LAYE
 10
  -7.65408
 20
  38.49634
 30
    .00000
 11
  -7.67908
 21
  38.53964
 31
    .00000
  0
LINE
  8
LAYE
 10
  -7.65408
 20
  38.49634
 30
    .00000
 11
  -7.62908
 21
  38.53964
 31
    .00000
  0
LINE
  8
LAYE
 10
  -7.98813
 20
  38.72570
 30
    .00000
 11
  -7.98813
 21
  38.75570
 31
    .00000
  0
LINE
  8
LAYE
 10
  -7.98813
 20
  38.75570
 30
    .00000
 11
  -7.96313
 21
  38.71240
 31
    .00000
  0
LINE
  8
LAYE
 10
  -7.98813
 20
  38.75570
 30
    .00000
 11
  -8.01313
 21
  38.71240
 31
    .00000
  0
LINE
  8
LAYE
 10
  -7.58404
 20
  38.73951
 30
    .00000
 11
  -7.58404
 21
  38.73951
 31
    .00000
  0
LINE
  8
LAYE
 10
  -7.58404
 20
  38.73951
 30
    .00000
 11
  -7.55904
 21
  38.69621
 31
    .00000
  0
LINE
  8
LAYE
 10
  -7.58404
 20
  38.73951
 30
    .00000
 11
  -7.60904
 21
  38.69621
 31
    .00000
  0
LINE
  8
LAYE
 10
  -7.25875
 20
  38.83989
 30
    .00000
 11
  -7.25875
 21
  38.67989
 31
    .00000
  0
LINE
  8
LAYE
 10
  -7.25875
 20
  38.67989
 30
    .00000
 11
  -7.28375
 21
  38.72319
 31
    .00000
  0
LINE
  8
LAYE
 10
  -7.25875
 20
  38.67989
 30
    .00000
 11
  -7.23375
 21
  38.72319
 31
    .00000
  0
LINE
  8
LAYE
 10
  -8.90027
 20
  38.56616
 30
    .00000
 11
  -8.90027
 21
  38.29616
 31
    .00000
  0
LINE
  8
LAYE
 10
  -8.90027
 20
  38.29616
 30
    .00000
 11
  -8.92527
 21
  38.33946
 31
    .00000
  0
LINE
  8
LAYE
 10
  -8.90027
 20
  38.29616
 30
    .00000
 11
  -8.87527
 21
  38.33946
 31
    .00000
  0
LINE
  8
LAYE
 10
  -9.10678
 20
  38.45280
 30
    .00000
 11
  -9.10678
 21
  38.12280
 31
    .00000
  0
LINE
  8
LAYE
 10
  -9.10678
 20
  38.12280
 30
    .00000
 11
  -9.13178
 21
  38.16610
 31
    .00000
  0
LINE
  8
LAYE
 10
  -9.10678
 20
  38.12280
 30
    .00000
 11
  -9.08178
 21
  38.16610
 31
    .00000
  0
LINE
  8
LAYE
 10
  -8.52310
 20
  38.49190
 30
    .00000
 11
  -8.52310
 21
  38.27190
 31
    .00000
  0
LINE
  8
LAYE
 10
  -8.52310
 20
  38.27190
 30
    .00000
 11
  -8.54810
 21
  38.31520
 31
    .00000
  0
LINE
  8
LAYE
 10
  -8.52310
 20
  38.27190
 30
    .00000
 11
  -8.49810
 21
  38.31520
 31
    .00000
  0
LINE
  8
LAYE
 10
  -8.18995
 20
  38.56915
 30
    .00000
 11
  -8.18995
 21
  38.74915
 31
    .00000
  0
LINE
  8
LAYE
 10
  -8.18995
 20
  38.74915
 30
    .00000
 11
  -8.16495
 21
  38.70585
 31
    .00000
  0
LINE
  8
LAYE
 10
  -8.18995
 20
  38.74915
 30
    .00000
 11
  -8.21495
 21
  38.70585
 31
    .00000
  0
LINE
  8
LAYE
 10
  -8.23479
 20
  38.24582
 30
    .00000
 11
  -8.23479
 21
  38.20582
 31
    .00000
  0
LINE
  8
LAYE
 10
  -8.23479
 20
  38.20582
 30
    .00000
 11
  -8.25979
 21
  38.24912
 31
    .00000
  0
LINE
  8
LAYE
 10
  -8.23479
 20
  38.20582
 30
    .00000
 11
  -8.20979
 21
  38.24912
 31
    .00000
  0
LINE
  8
LAYE
 10
  -7.80087
 20
  38.44828
 30
    .00000
 11
  -7.80087
 21
  38.15828
 31
    .00000
  0
LINE
  8
LAYE
 10
  -7.80087
 20
  38.15828
 30
    .00000
 11
  -7.82587
 21
  38.20158
 31
    .00000
  0
LINE
  8
LAYE
 10
  -7.80087
 20
  38.15828
 30
    .00000
 11
  -7.77587
 21
  38.20158
 31
    .00000
  0
LINE
  8
LAYE
 10
  -7.78391
 20
  38.24618
 30
    .00000
 11
  -7.78391
 21
  38.20618
 31
    .00000
  0
LINE
  8
LAYE
 10
  -7.78391
 20
  38.20618
 30
    .00000
 11
  -7.80891
 21
  38.24948
 31
    .00000
  0
LINE
  8
LAYE
 10
  -7.78391
 20
  38.20618
 30
    .00000
 11
  -7.75891
 21
  38.24948
 31
    .00000
  0
LINE
  8
LAYE
 10
  -8.00515
 20
  38.32214
 30
    .00000
 11
  -8.00515
 21
  38.38214
 31
    .00000
  0
LINE
  8
LAYE
 10
  -8.00515
 20
  38.38214
 30
    .00000
 11
  -7.98015
 21
  38.33884
 31
    .00000
  0
LINE
  8
LAYE
 10
  -8.00515
 20
  38.38214
 30
    .00000
 11
  -8.03015
 21
  38.33884
 31
    .00000
  0
LINE
  8
LAYE
 10
  -7.38159
 20
  38.44237
 30
    .00000
 11
  -7.38159
 21
  38.07237
 31
    .00000
  0
LINE
  8
LAYE
 10
  -7.38159
 20
  38.07237
 30
    .00000
 11
  -7.40659
 21
  38.11567
 31
    .00000
  0
LINE
  8
LAYE
 10
  -7.38159
 20
  38.07237
 30
    .00000
 11
  -7.35659
 21
  38.11567
 31
    .00000
  0
LINE
  8
LAYE
 10
  -7.15384
 20
  38.22847
 30
    .00000
 11
  -7.15384
 21
  37.93847
 31
    .00000
  0
LINE
  8
LAYE
 10
  -7.15384
 20
  37.93847
 30
    .00000
 11
  -7.17884
 21
  37.98177
 31
    .00000
  0
LINE
  8
LAYE
 10
  -7.15384
 20
  37.93847
 30
    .00000
 11
  -7.12884
 21
  37.98177
 31
    .00000
  0
LINE
  8
LAYE
 10
  -8.64557
 20
  38.16926
 30
    .00000
 11
  -8.64557
 21
  38.19926
 31
    .00000
  0
LINE
  8
LAYE
 10
  -8.64557
 20
  38.19926
 30
    .00000
 11
  -8.62057
 21
  38.15596
 31
    .00000
  0
LINE
  8
LAYE
 10
  -8.64557
 20
  38.19926
 30
    .00000
 11
  -8.67057
 21
  38.15596
 31
    .00000
  0
LINE
  8
LAYE
 10
  -8.43560
 20
  38.05136
 30
    .00000
 11
  -8.43560
 21
  37.94136
 31
    .00000
  0
LINE
  8
LAYE
 10
  -8.43560
 20
  37.94136
 30
    .00000
 11
  -8.46060
 21
  37.98466
 31
    .00000
  0
LINE
  8
LAYE
 10
  -8.43560
 20
  37.94136
 30
    .00000
 11
  -8.41060
 21
  37.98466
 31
    .00000
  0
LINE
  8
LAYE
 10
  -8.16754
 20
  37.88158
 30
    .00000
 11
  -8.16754
 21
  37.73158
 31
    .00000
  0
LINE
  8
LAYE
 10
  -8.16754
 20
  37.73158
 30
    .00000
 11
  -8.19254
 21
  37.77488
 31
    .00000
  0
LINE
  8
LAYE
 10
  -8.16754
 20
  37.73158
 30
    .00000
 11
  -8.14254
 21
  37.77488
 31
    .00000
  0
LINE
  8
LAYE
 10
  -7.44611
 20
  38.09417
 30
    .00000
 11
  -7.44611
 21
  37.95417
 31
    .00000
  0
LINE
  8
LAYE
 10
  -7.44611
 20
  37.95417
 30
    .00000
 11
  -7.47111
 21
  37.99747
 31
    .00000
  0
LINE
  8
LAYE
 10
  -7.44611
 20
  37.95417
 30
    .00000
 11
  -7.42111
 21
  37.99747
 31
    .00000
  0
LINE
  8
LAYE
 10
  -7.86555
 20
  38.01732
 30
    .00000
 11
  -7.86555
 21
  37.94732
 31
    .00000
  0
LINE
  8
LAYE
 10
  -7.86555
 20
  37.94732
 30
    .00000
 11
  -7.89055
 21
  37.99062
 31
    .00000
  0
LINE
  8
LAYE
 10
  -7.86555
 20
  37.94732
 30
    .00000
 11
  -7.84055
 21
  37.99062
 31
    .00000
  0
LINE
  8
LAYE
 10
  -7.59349
 20
  37.92970
 30
    .00000
 11
  -7.59349
 21
  37.82970
 31
    .00000
  0
LINE
  8
LAYE
 10
  -7.59349
 20
  37.82970
 30
    .00000
 11
  -7.61849
 21
  37.87300
 31
    .00000
  0
LINE
  8
LAYE
 10
  -7.59349
 20
  37.82970
 30
    .00000
 11
  -7.56849
 21
  37.87300
 31
    .00000
  0
LINE
  8
LAYE
 10
  -7.28435
 20
  37.96437
 30
    .00000
 11
  -7.28435
 21
  38.63437
 31
    .00000
  0
LINE
  8
LAYE
 10
  -7.28435
 20
  38.63437
 30
    .00000
 11
  -7.25935
 21
  38.59107
 31
    .00000
  0
LINE
  8
LAYE
 10
  -7.28435
 20
  38.63437
 30
    .00000
 11
  -7.30935
 21
  38.59107
 31
    .00000
  0
LINE
  8
LAYE
 10
  -8.71875
 20
  37.79439
 30
    .00000
 11
  -8.71875
 21
  37.68439
 31
    .00000
  0
LINE
  8
LAYE
 10
  -8.71875
 20
  37.68439
 30
    .00000
 11
  -8.74375
 21
  37.72769
 31
    .00000
  0
LINE
  8
LAYE
 10
  -8.71875
 20
  37.68439
 30
    .00000
 11
  -8.69375
 21
  37.72769
 31
    .00000
  0
LINE
  8
LAYE
 10
  -8.42487
 20
  37.86601
 30
    .00000
 11
  -8.42487
 21
  37.76601
 31
    .00000
  0
LINE
  8
LAYE
 10
  -8.42487
 20
  37.76601
 30
    .00000
 11
  -8.44987
 21
  37.80931
 31
    .00000
  0
LINE
  8
LAYE
 10
  -8.42487
 20
  37.76601
 30
    .00000
 11
  -8.39987
 21
  37.80931
 31
    .00000
  0
LINE
  8
LAYE
 10
  -8.71673
 20
  37.50729
 30
    .00000
 11
  -8.71673
 21
  37.52729
 31
    .00000
  0
LINE
  8
LAYE
 10
  -8.71673
 20
  37.52729
 30
    .00000
 11
  -8.69173
 21
  37.48399
 31
    .00000
  0
LINE
  8
LAYE
 10
  -8.71673
 20
  37.52729
 30
    .00000
 11
  -8.74173
 21
  37.48399
 31
    .00000
  0
LINE
  8
LAYE
 10
  -8.38640
 20
  37.61504
 30
    .00000
 11
  -8.38640
 21
  37.56504
 31
    .00000
  0
LINE
  8
LAYE
 10
  -8.38640
 20
  37.56504
 30
    .00000
 11
  -8.41140
 21
  37.60834
 31
    .00000
  0
LINE
  8
LAYE
 10
  -8.38640
 20
  37.56504
 30
    .00000
 11
  -8.36140
 21
  37.60834
 31
    .00000
  0
LINE
  8
LAYE
 10
  -7.45052
 20
  37.79474
 30
    .00000
 11
  -7.45052
 21
  37.62474
 31
    .00000
  0
LINE
  8
LAYE
 10
  -7.45052
 20
  37.62474
 30
    .00000
 11
  -7.47552
 21
  37.66804
 31
    .00000
  0
LINE
  8
LAYE
 10
  -7.45052
 20
  37.62474
 30
    .00000
 11
  -7.42552
 21
  37.66804
 31
    .00000
  0
LINE
  8
LAYE
 10
  -7.76163
 20
  37.70038
 30
    .00000
 11
  -7.76163
 21
  37.64038
 31
    .00000
  0
LINE
  8
LAYE
 10
  -7.76163
 20
  37.64038
 30
    .00000
 11
  -7.78663
 21
  37.68368
 31
    .00000
  0
LINE
  8
LAYE
 10
  -7.76163
 20
  37.64038
 30
    .00000
 11
  -7.73663
 21
  37.68368
 31
    .00000
  0
LINE
  8
LAYE
 10
  -8.07268
 20
  37.61840
 30
    .00000
 11
  -8.07268
 21
  37.44840
 31
    .00000
  0
LINE
  8
LAYE
 10
  -8.07268
 20
  37.44840
 30
    .00000
 11
  -8.09768
 21
  37.49170
 31
    .00000
  0
LINE
  8
LAYE
 10
  -8.07268
 20
  37.44840
 30
    .00000
 11
  -8.04768
 21
  37.49170
 31
    .00000
  0
LINE
  8
LAYE
 10
  -7.45089
 20
  37.53873
 30
    .00000
 11
  -7.45089
 21
  36.62873
 31
    .00000
  0
LINE
  8
LAYE
 10
  -7.45089
 20
  36.62873
 30
    .00000
 11
  -7.47589
 21
  36.67203
 31
    .00000
  0
LINE
  8
LAYE
 10
  -7.45089
 20
  36.62873
 30
    .00000
 11
  -7.42589
 21
  36.67203
 31
    .00000
  0
LINE
  8
LAYE
 10
  -8.86016
 20
  37.28354
 30
    .00000
 11
  -8.86016
 21
  37.45354
 31
    .00000
  0
LINE
  8
LAYE
 10
  -8.86016
 20
  37.45354
 30
    .00000
 11
  -8.83516
 21
  37.41024
 31
    .00000
  0
LINE
  8
LAYE
 10
  -8.86016
 20
  37.45354
 30
    .00000
 11
  -8.88516
 21
  37.41024
 31
    .00000
  0
LINE
  8
LAYE
 10
  -8.59639
 20
  37.31556
 30
    .00000
 11
  -8.59639
 21
  37.92556
 31
    .00000
  0
LINE
  8
LAYE
 10
  -8.59639
 20
  37.92556
 30
    .00000
 11
  -8.57139
 21
  37.88226
 31
    .00000
  0
LINE
  8
LAYE
 10
  -8.59639
 20
  37.92556
 30
    .00000
 11
  -8.62139
 21
  37.88226
 31
    .00000
  0
LINE
  8
LAYE
 10
  -8.78024
 20
  37.21926
 30
    .00000
 11
  -8.78024
 21
  37.27926
 31
    .00000
  0
LINE
  8
LAYE
 10
  -8.78024
 20
  37.27926
 30
    .00000
 11
  -8.75524
 21
  37.23596
 31
    .00000
  0
LINE
  8
LAYE
 10
  -8.78024
 20
  37.27926
 30
    .00000
 11
  -8.80524
 21
  37.23596
 31
    .00000
  0
LINE
  8
LAYE
 10
  -8.08036
 20
  37.37074
 30
    .00000
 11
  -8.08036
 21
  37.72074
 31
    .00000
  0
LINE
  8
LAYE
 10
  -8.08036
 20
  37.72074
 30
    .00000
 11
  -8.05536
 21
  37.67744
 31
    .00000
  0
LINE
  8
LAYE
 10
  -8.08036
 20
  37.72074
 30
    .00000
 11
  -8.10536
 21
  37.67744
 31
    .00000
  0
LINE
  8
LAYE
 10
  -7.85131
 20
  37.48296
 30
    .00000
 11
  -7.85131
 21
  37.57296
 31
    .00000
  0
LINE
  8
LAYE
 10
  -7.85131
 20
  37.57296
 30
    .00000
 11
  -7.82631
 21
  37.52966
 31
    .00000
  0
LINE
  8
LAYE
 10
  -7.85131
 20
  37.57296
 30
    .00000
 11
  -7.87631
 21
  37.52966
 31
    .00000
  0
LINE
  8
LAYE
 10
  -7.40821
 20
  37.33173
 30
    .00000
 11
  -7.40821
 21
  36.34173
 31
    .00000
  0
LINE
  8
LAYE
 10
  -7.40821
 20
  36.34173
 30
    .00000
 11
  -7.43321
 21
  36.38503
 31
    .00000
  0
LINE
  8
LAYE
 10
  -7.40821
 20
  36.34173
 30
    .00000
 11
  -7.38321
 21
  36.38503
 31
    .00000
  0
LINE
  8
LAYE
 10
  -7.73905
 20
  37.24346
 30
    .00000
 11
  -7.73905
 21
  37.00346
 31
    .00000
  0
LINE
  8
LAYE
 10
  -7.73905
 20
  37.00346
 30
    .00000
 11
  -7.76405
 21
  37.04676
 31
    .00000
  0
LINE
  8
LAYE
 10
  -7.73905
 20
  37.00346
 30
    .00000
 11
  -7.71405
 21
  37.04676
 31
    .00000
  0
LINE
  8
LAYE
 10
  -7.48736
 20
  37.18656
 30
    .00000
 11
  -7.48736
 21
  36.22656
 31
    .00000
  0
LINE
  8
LAYE
 10
  -7.48736
 20
  36.22656
 30
    .00000
 11
  -7.51236
 21
  36.26986
 31
    .00000
  0
LINE
  8
LAYE
 10
  -7.48736
 20
  36.22656
 30
    .00000
 11
  -7.46236
 21
  36.26986
 31
    .00000
  0
LINE
  8
LAYE
 10
  -8.95176
 20
  37.08551
 30
    .00000
 11
  -8.95176
 21
  37.16551
 31
    .00000
  0
LINE
  8
LAYE
 10
  -8.95176
 20
  37.16551
 30
    .00000
 11
  -8.92676
 21
  37.12221
 31
    .00000
  0
LINE
  8
LAYE
 10
  -8.95176
 20
  37.16551
 30
    .00000
 11
  -8.97676
 21
  37.12221
 31
    .00000
  0
LINE
  8
LAYE
 10
  -8.71854
 20
  37.08815
 30
    .00000
 11
  -8.71854
 21
  36.99815
 31
    .00000
  0
LINE
  8
LAYE
 10
  -8.71854
 20
  36.99815
 30
    .00000
 11
  -8.74354
 21
  37.04145
 31
    .00000
  0
LINE
  8
LAYE
 10
  -8.71854
 20
  36.99815
 30
    .00000
 11
  -8.69354
 21
  37.04145
 31
    .00000
  0
LINE
  8
LAYE
 10
  -8.39457
 20
  37.13836
 30
    .00000
 11
  -8.39457
 21
  36.79836
 31
    .00000
  0
LINE
  8
LAYE
 10
  -8.39457
 20
  36.79836
 30
    .00000
 11
  -8.41957
 21
  36.84166
 31
    .00000
  0
LINE
  8
LAYE
 10
  -8.39457
 20
  36.79836
 30
    .00000
 11
  -8.36957
 21
  36.84166
 31
    .00000
  0
LINE
  8
LAYE
 10
  -7.93304
 20
  37.10118
 30
    .00000
 11
  -7.93304
 21
  36.69118
 31
    .00000
  0
LINE
  8
LAYE
 10
  -7.93304
 20
  36.69118
 30
    .00000
 11
  -7.95804
 21
  36.73448
 31
    .00000
  0
LINE
  8
LAYE
 10
  -7.93304
 20
  36.69118
 30
    .00000
 11
  -7.90804
 21
  36.73448
 31
    .00000
  0
LINE
  8
LAYE
 10
  -7.86518
 20
  36.97460
 30
    .00000
 11
  -7.86518
 21
  36.45460
 31
    .00000
  0
LINE
  8
LAYE
 10
  -7.86518
 20
  36.45460
 30
    .00000
 11
  -7.89018
 21
  36.49790
 31
    .00000
  0
LINE
  8
LAYE
 10
  -7.86518
 20
  36.45460
 30
    .00000
 11
  -7.84018
 21
  36.49790
 31
    .00000
  0
ENDSEC
  0
EOF
