  0
SECTION
  2
ENTITIES
  0
LINE
  8
LAYE
 10
  -8.60056
 20
  42.26602
 30
    .00000
 11
  -9.60556
 21
  40.96202
 31
    .00000
  0
LINE
  8
LAYE
 10
  -9.60556
 20
  40.96202
 30
    .00000
 11
  -9.59893
 21
  41.01158
 31
    .00000
  0
LINE
  8
LAYE
 10
  -9.60556
 20
  40.96202
 30
    .00000
 11
  -9.55933
 21
  40.98106
 31
    .00000
  0
LINE
  8
LAYE
 10
  -8.30680
 20
  42.25211
 30
    .00000
 11
  -9.36880
 21
  41.07811
 31
    .00000
  0
LINE
  8
LAYE
 10
  -9.36880
 20
  41.07811
 30
    .00000
 11
  -9.35829
 21
  41.12699
 31
    .00000
  0
LINE
  8
LAYE
 10
  -9.36880
 20
  41.07811
 30
    .00000
 11
  -9.32121
 21
  41.09345
 31
    .00000
  0
LINE
  8
LAYE
 10
  -8.63153
 20
  42.04617
 30
    .00000
 11
  -9.46353
 21
  40.80017
 31
    .00000
  0
LINE
  8
LAYE
 10
  -9.46353
 20
  40.80017
 30
    .00000
 11
  -9.46028
 21
  40.85006
 31
    .00000
  0
LINE
  8
LAYE
 10
  -9.46353
 20
  40.80017
 30
    .00000
 11
  -9.41869
 21
  40.82230
 31
    .00000
  0
LINE
  8
LAYE
 10
  -8.79262
 20
  42.01852
 30
    .00000
 11
  -9.58062
 21
  40.71352
 31
    .00000
  0
LINE
  8
LAYE
 10
  -9.58062
 20
  40.71352
 30
    .00000
 11
  -9.57964
 21
  40.76351
 31
    .00000
  0
LINE
  8
LAYE
 10
  -9.58062
 20
  40.71352
 30
    .00000
 11
  -9.53684
 21
  40.73767
 31
    .00000
  0
LINE
  8
LAYE
 10
  -8.20872
 20
  42.08518
 30
    .00000
 11
  -9.19772
 21
  40.92418
 31
    .00000
  0
LINE
  8
LAYE
 10
  -9.19772
 20
  40.92418
 30
    .00000
 11
  -9.18867
 21
  40.97335
 31
    .00000
  0
LINE
  8
LAYE
 10
  -9.19772
 20
  40.92418
 30
    .00000
 11
  -9.15061
 21
  40.94093
 31
    .00000
  0
LINE
  8
LAYE
 10
  -7.59672
 20
  41.97668
 30
    .00000
 11
  -8.83272
 21
  41.01368
 31
    .00000
  0
LINE
  8
LAYE
 10
  -8.83272
 20
  41.01368
 30
    .00000
 11
  -8.81393
 21
  41.06001
 31
    .00000
  0
LINE
  8
LAYE
 10
  -8.83272
 20
  41.01368
 30
    .00000
 11
  -8.78320
 21
  41.02057
 31
    .00000
  0
LINE
  8
LAYE
 10
  -6.86320
 20
  41.97883
 30
    .00000
 11
  -8.26720
 21
  41.33883
 31
    .00000
  0
LINE
  8
LAYE
 10
  -8.26720
 20
  41.33883
 30
    .00000
 11
  -8.23817
 21
  41.37954
 31
    .00000
  0
LINE
  8
LAYE
 10
  -8.26720
 20
  41.33883
 30
    .00000
 11
  -8.21743
 21
  41.33404
 31
    .00000
  0
LINE
  8
LAYE
 10
  -7.19812
 20
  41.92570
 30
    .00000
 11
  -8.54912
 21
  41.15470
 31
    .00000
  0
LINE
  8
LAYE
 10
  -8.54912
 20
  41.15470
 30
    .00000
 11
  -8.52390
 21
  41.19788
 31
    .00000
  0
LINE
  8
LAYE
 10
  -8.54912
 20
  41.15470
 30
    .00000
 11
  -8.49912
 21
  41.15445
 31
    .00000
  0
LINE
  8
LAYE
 10
  -6.44209
 20
  41.90134
 30
    .00000
 11
  -7.93209
 21
  41.38234
 31
    .00000
  0
LINE
  8
LAYE
 10
  -7.93209
 20
  41.38234
 30
    .00000
 11
  -7.89942
 21
  41.42019
 31
    .00000
  0
LINE
  8
LAYE
 10
  -7.93209
 20
  41.38234
 30
    .00000
 11
  -7.88297
 21
  41.37297
 31
    .00000
  0
LINE
  8
LAYE
 10
  -8.73570
 20
  41.89375
 30
    .00000
 11
  -9.45670
 21
  40.58575
 31
    .00000
  0
LINE
  8
LAYE
 10
  -9.45670
 20
  40.58575
 30
    .00000
 11
  -9.45769
 21
  40.63574
 31
    .00000
  0
LINE
  8
LAYE
 10
  -9.45670
 20
  40.58575
 30
    .00000
 11
  -9.41390
 21
  40.61160
 31
    .00000
  0
LINE
  8
LAYE
 10
  -8.37387
 20
  41.84051
 30
    .00000
 11
  -9.22887
 21
  40.72251
 31
    .00000
  0
LINE
  8
LAYE
 10
  -9.22887
 20
  40.72251
 30
    .00000
 11
  -9.22242
 21
  40.77209
 31
    .00000
  0
LINE
  8
LAYE
 10
  -9.22887
 20
  40.72251
 30
    .00000
 11
  -9.18271
 21
  40.74172
 31
    .00000
  0
LINE
  8
LAYE
 10
  -7.94939
 20
  41.73277
 30
    .00000
 11
  -8.88839
 21
  40.79477
 31
    .00000
  0
LINE
  8
LAYE
 10
  -8.88839
 20
  40.79477
 30
    .00000
 11
  -8.87542
 21
  40.84306
 31
    .00000
  0
LINE
  8
LAYE
 10
  -8.88839
 20
  40.79477
 30
    .00000
 11
  -8.84009
 21
  40.80769
 31
    .00000
  0
LINE
  8
LAYE
 10
  -7.40719
 20
  41.63731
 30
    .00000
 11
  -8.50619
 21
  40.88631
 31
    .00000
  0
LINE
  8
LAYE
 10
  -8.50619
 20
  40.88631
 30
    .00000
 11
  -8.48454
 21
  40.93138
 31
    .00000
  0
LINE
  8
LAYE
 10
  -8.50619
 20
  40.88631
 30
    .00000
 11
  -8.45633
 21
  40.89010
 31
    .00000
  0
LINE
  8
LAYE
 10
  -6.72191
 20
  41.77158
 30
    .00000
 11
  -8.05791
 21
  41.22858
 31
    .00000
  0
LINE
  8
LAYE
 10
  -8.05791
 20
  41.22858
 30
    .00000
 11
  -8.02721
 21
  41.26804
 31
    .00000
  0
LINE
  8
LAYE
 10
  -8.05791
 20
  41.22858
 30
    .00000
 11
  -8.00838
 21
  41.22172
 31
    .00000
  0
LINE
  8
LAYE
 10
  -6.16132
 20
  41.70508
 30
    .00000
 11
  -7.61832
 21
  41.28408
 31
    .00000
  0
LINE
  8
LAYE
 10
  -7.61832
 20
  41.28408
 30
    .00000
 11
  -7.58366
 21
  41.32012
 31
    .00000
  0
LINE
  8
LAYE
 10
  -7.61832
 20
  41.28408
 30
    .00000
 11
  -7.56978
 21
  41.27208
 31
    .00000
  0
LINE
  8
LAYE
 10
  -6.42890
 20
  41.57096
 30
    .00000
 11
  -7.77390
 21
  41.17296
 31
    .00000
  0
LINE
  8
LAYE
 10
  -7.77390
 20
  41.17296
 30
    .00000
 11
  -7.73947
 21
  41.20922
 31
    .00000
  0
LINE
  8
LAYE
 10
  -7.77390
 20
  41.17296
 30
    .00000
 11
  -7.72528
 21
  41.16127
 31
    .00000
  0
LINE
  8
LAYE
 10
  -8.65610
 20
  41.53977
 30
    .00000
 11
  -9.24810
 21
  40.49177
 31
    .00000
  0
LINE
  8
LAYE
 10
  -9.24810
 20
  40.49177
 30
    .00000
 11
  -9.24857
 21
  40.54177
 31
    .00000
  0
LINE
  8
LAYE
 10
  -9.24810
 20
  40.49177
 30
    .00000
 11
  -9.20504
 21
  40.51718
 31
    .00000
  0
LINE
  8
LAYE
 10
  -8.31560
 20
  41.41426
 30
    .00000
 11
  -9.01960
 21
  40.51026
 31
    .00000
  0
LINE
  8
LAYE
 10
  -9.01960
 20
  40.51026
 30
    .00000
 11
  -9.01272
 21
  40.55978
 31
    .00000
  0
LINE
  8
LAYE
 10
  -9.01960
 20
  40.51026
 30
    .00000
 11
  -8.97327
 21
  40.52906
 31
    .00000
  0
LINE
  8
LAYE
 10
  -8.19690
 20
  41.25060
 30
    .00000
 11
  -8.86190
 21
  40.41960
 31
    .00000
  0
LINE
  8
LAYE
 10
  -8.86190
 20
  40.41960
 30
    .00000
 11
  -8.85436
 21
  40.46903
 31
    .00000
  0
LINE
  8
LAYE
 10
  -8.86190
 20
  40.41960
 30
    .00000
 11
  -8.81533
 21
  40.43779
 31
    .00000
  0
LINE
  8
LAYE
 10
  -7.80981
 20
  41.32397
 30
    .00000
 11
  -8.58081
 21
  40.56897
 31
    .00000
  0
LINE
  8
LAYE
 10
  -8.58081
 20
  40.56897
 30
    .00000
 11
  -8.56736
 21
  40.61713
 31
    .00000
  0
LINE
  8
LAYE
 10
  -8.58081
 20
  40.56897
 30
    .00000
 11
  -8.53238
 21
  40.58140
 31
    .00000
  0
LINE
  8
LAYE
 10
  -6.89078
 20
  41.48715
 30
    .00000
 11
  -8.05278
 21
  40.95615
 31
    .00000
  0
LINE
  8
LAYE
 10
  -8.05278
 20
  40.95615
 30
    .00000
 11
  -8.02379
 21
  40.99689
 31
    .00000
  0
LINE
  8
LAYE
 10
  -8.05278
 20
  40.95615
 30
    .00000
 11
  -8.00301
 21
  40.95141
 31
    .00000
  0
LINE
  8
LAYE
 10
  -7.15613
 20
  41.29532
 30
    .00000
 11
  -8.19313
 21
  40.69032
 31
    .00000
  0
LINE
  8
LAYE
 10
  -8.19313
 20
  40.69032
 30
    .00000
 11
  -8.16833
 21
  40.73373
 31
    .00000
  0
LINE
  8
LAYE
 10
  -8.19313
 20
  40.69032
 30
    .00000
 11
  -8.14313
 21
  40.69055
 31
    .00000
  0
LINE
  8
LAYE
 10
  -6.63854
 20
  41.24988
 30
    .00000
 11
  -7.83854
 21
  40.85788
 31
    .00000
  0
LINE
  8
LAYE
 10
  -7.83854
 20
  40.85788
 30
    .00000
 11
  -7.80514
 21
  40.89509
 31
    .00000
  0
LINE
  8
LAYE
 10
  -7.83854
 20
  40.85788
 30
    .00000
 11
  -7.78962
 21
  40.84756
 31
    .00000
  0
LINE
  8
LAYE
 10
  -6.19150
 20
  41.38852
 30
    .00000
 11
  -7.49150
 21
  41.08052
 31
    .00000
  0
LINE
  8
LAYE
 10
  -7.49150
 20
  41.08052
 30
    .00000
 11
  -7.45513
 21
  41.11483
 31
    .00000
  0
LINE
  8
LAYE
 10
  -7.49150
 20
  41.08052
 30
    .00000
 11
  -7.44360
 21
  41.06618
 31
    .00000
  0
LINE
  8
LAYE
 10
  -8.53561
 20
  41.19582
 30
    .00000
 11
  -9.05161
 21
  40.31682
 31
    .00000
  0
LINE
  8
LAYE
 10
  -9.05161
 20
  40.31682
 30
    .00000
 11
  -9.05125
 21
  40.36682
 31
    .00000
  0
LINE
  8
LAYE
 10
  -9.05161
 20
  40.31682
 30
    .00000
 11
  -9.00813
 21
  40.34151
 31
    .00000
  0
LINE
  8
LAYE
 10
  -8.22495
 20
  40.94677
 30
    .00000
 11
  -8.78295
 21
  40.23077
 31
    .00000
  0
LINE
  8
LAYE
 10
  -8.78295
 20
  40.23077
 30
    .00000
 11
  -8.77605
 21
  40.28029
 31
    .00000
  0
LINE
  8
LAYE
 10
  -8.78295
 20
  40.23077
 30
    .00000
 11
  -8.73661
 21
  40.24956
 31
    .00000
  0
LINE
  8
LAYE
 10
  -7.92492
 20
  41.04155
 30
    .00000
 11
  -8.55392
 21
  40.36655
 31
    .00000
  0
LINE
  8
LAYE
 10
  -8.55392
 20
  40.36655
 30
    .00000
 11
  -8.54269
 21
  40.41527
 31
    .00000
  0
LINE
  8
LAYE
 10
  -8.55392
 20
  40.36655
 30
    .00000
 11
  -8.50611
 21
  40.38119
 31
    .00000
  0
LINE
  8
LAYE
 10
  -7.58447
 20
  41.01414
 30
    .00000
 11
  -8.30147
 21
  40.42914
 31
    .00000
  0
LINE
  8
LAYE
 10
  -8.30147
 20
  40.42914
 30
    .00000
 11
  -8.28372
 21
  40.47588
 31
    .00000
  0
LINE
  8
LAYE
 10
  -8.30147
 20
  40.42914
 30
    .00000
 11
  -8.25211
 21
  40.43714
 31
    .00000
  0
LINE
  8
LAYE
 10
  -7.35474
 20
  40.81954
 30
    .00000
 11
  -8.04874
 21
  40.32654
 31
    .00000
  0
LINE
  8
LAYE
 10
  -8.04874
 20
  40.32654
 30
    .00000
 11
  -8.02792
 21
  40.37200
 31
    .00000
  0
LINE
  8
LAYE
 10
  -8.04874
 20
  40.32654
 30
    .00000
 11
  -7.99896
 21
  40.33124
 31
    .00000
  0
LINE
  8
LAYE
 10
  -6.89883
 20
  40.90232
 30
    .00000
 11
  -7.82783
 21
  40.52032
 31
    .00000
  0
LINE
  8
LAYE
 10
  -7.82783
 20
  40.52032
 30
    .00000
 11
  -7.79729
 21
  40.55991
 31
    .00000
  0
LINE
  8
LAYE
 10
  -7.82783
 20
  40.52032
 30
    .00000
 11
  -7.77827
 21
  40.51367
 31
    .00000
  0
LINE
  8
LAYE
 10
  -8.71674
 20
  40.71883
 30
    .00000
 11
  -9.02774
 21
  39.95883
 31
    .00000
  0
LINE
  8
LAYE
 10
  -9.02774
 20
  39.95883
 30
    .00000
 11
  -9.03448
 21
  40.00837
 31
    .00000
  0
LINE
  8
LAYE
 10
  -9.02774
 20
  39.95883
 30
    .00000
 11
  -8.98820
 21
  39.98944
 31
    .00000
  0
LINE
  8
LAYE
 10
  -8.78107
 20
  40.52459
 30
    .00000
 11
  -8.98907
 21
  39.87559
 31
    .00000
  0
LINE
  8
LAYE
 10
  -8.98907
 20
  39.87559
 30
    .00000
 11
  -8.99966
 21
  39.92446
 31
    .00000
  0
LINE
  8
LAYE
 10
  -8.98907
 20
  39.87559
 30
    .00000
 11
  -8.95205
 21
  39.90920
 31
    .00000
  0
LINE
  8
LAYE
 10
  -8.16035
 20
  40.60867
 30
    .00000
 11
  -8.57735
 21
  39.99467
 31
    .00000
  0
LINE
  8
LAYE
 10
  -8.57735
 20
  39.99467
 30
    .00000
 11
  -8.57370
 21
  40.04454
 31
    .00000
  0
LINE
  8
LAYE
 10
  -8.57735
 20
  39.99467
 30
    .00000
 11
  -8.53234
 21
  40.01645
 31
    .00000
  0
LINE
  8
LAYE
 10
  -7.70137
 20
  40.65603
 30
    .00000
 11
  -8.12337
 21
  40.22003
 31
    .00000
  0
LINE
  8
LAYE
 10
  -8.12337
 20
  40.22003
 30
    .00000
 11
  -8.11122
 21
  40.26853
 31
    .00000
  0
LINE
  8
LAYE
 10
  -8.12337
 20
  40.22003
 30
    .00000
 11
  -8.07529
 21
  40.23376
 31
    .00000
  0
LINE
  8
LAYE
 10
  -7.36082
 20
  40.57118
 30
    .00000
 11
  -8.00482
 21
  40.19718
 31
    .00000
  0
LINE
  8
LAYE
 10
  -8.00482
 20
  40.19718
 30
    .00000
 11
  -7.97993
 21
  40.24054
 31
    .00000
  0
LINE
  8
LAYE
 10
  -8.00482
 20
  40.19718
 30
    .00000
 11
  -7.95482
 21
  40.19731
 31
    .00000
  0
LINE
  8
LAYE
 10
  -7.05749
 20
  40.62413
 30
    .00000
 11
  -7.81049
 21
  40.29513
 31
    .00000
  0
LINE
  8
LAYE
 10
  -7.81049
 20
  40.29513
 30
    .00000
 11
  -7.78082
 21
  40.33538
 31
    .00000
  0
LINE
  8
LAYE
 10
  -7.81049
 20
  40.29513
 30
    .00000
 11
  -7.76080
 21
  40.28956
 31
    .00000
  0
LINE
  8
LAYE
 10
  -6.77528
 20
  40.62964
 30
    .00000
 11
  -7.58128
 21
  40.37764
 31
    .00000
  0
LINE
  8
LAYE
 10
  -7.58128
 20
  40.37764
 30
    .00000
 11
  -7.54741
 21
  40.41442
 31
    .00000
  0
LINE
  8
LAYE
 10
  -7.58128
 20
  40.37764
 30
    .00000
 11
  -7.53249
 21
  40.36670
 31
    .00000
  0
LINE
  8
LAYE
 10
  -6.80476
 20
  40.47774
 30
    .00000
 11
  -7.53976
 21
  40.24874
 31
    .00000
  0
LINE
  8
LAYE
 10
  -7.53976
 20
  40.24874
 30
    .00000
 11
  -7.50586
 21
  40.28549
 31
    .00000
  0
LINE
  8
LAYE
 10
  -7.53976
 20
  40.24874
 30
    .00000
 11
  -7.49098
 21
  40.23775
 31
    .00000
  0
LINE
  8
LAYE
 10
  -8.32568
 20
  40.41796
 30
    .00000
 11
  -8.61568
 21
  39.85696
 31
    .00000
  0
LINE
  8
LAYE
 10
  -8.61568
 20
  39.85696
 30
    .00000
 11
  -8.61800
 21
  39.90691
 31
    .00000
  0
LINE
  8
LAYE
 10
  -8.61568
 20
  39.85696
 30
    .00000
 11
  -8.57359
 21
  39.88395
 31
    .00000
  0
LINE
  8
LAYE
 10
  -8.84470
 20
  40.25517
 30
    .00000
 11
  -8.93770
 21
  39.65917
 31
    .00000
  0
LINE
  8
LAYE
 10
  -8.93770
 20
  39.65917
 30
    .00000
 11
  -8.95573
 21
  39.70581
 31
    .00000
  0
LINE
  8
LAYE
 10
  -8.93770
 20
  39.65917
 30
    .00000
 11
  -8.90632
 21
  39.69810
 31
    .00000
  0
LINE
  8
LAYE
 10
  -8.14783
 20
  40.13254
 30
    .00000
 11
  -8.46083
 21
  39.70354
 31
    .00000
  0
LINE
  8
LAYE
 10
  -8.46083
 20
  39.70354
 30
    .00000
 11
  -8.45550
 21
  39.75326
 31
    .00000
  0
LINE
  8
LAYE
 10
  -8.46083
 20
  39.70354
 30
    .00000
 11
  -8.41511
 21
  39.72379
 31
    .00000
  0
LINE
  8
LAYE
 10
  -7.89758
 20
  40.43414
 30
    .00000
 11
  -8.31258
 21
  39.95114
 31
    .00000
  0
LINE
  8
LAYE
 10
  -8.31258
 20
  39.95114
 30
    .00000
 11
  -8.30332
 21
  40.00028
 31
    .00000
  0
LINE
  8
LAYE
 10
  -8.31258
 20
  39.95114
 30
    .00000
 11
  -8.26540
 21
  39.96769
 31
    .00000
  0
LINE
  8
LAYE
 10
  -7.77623
 20
  40.25118
 30
    .00000
 11
  -8.19423
 21
  39.89518
 31
    .00000
  0
LINE
  8
LAYE
 10
  -8.19423
 20
  39.89518
 30
    .00000
 11
  -8.17747
 21
  39.94229
 31
    .00000
  0
LINE
  8
LAYE
 10
  -8.19423
 20
  39.89518
 30
    .00000
 11
  -8.14505
 21
  39.90422
 31
    .00000
  0
LINE
  8
LAYE
 10
  -7.56262
 20
  40.35810
 30
    .00000
 11
  -8.06562
 21
  39.99610
 31
    .00000
  0
LINE
  8
LAYE
 10
  -8.06562
 20
  39.99610
 30
    .00000
 11
  -8.04508
 21
  40.04169
 31
    .00000
  0
LINE
  8
LAYE
 10
  -8.06562
 20
  39.99610
 30
    .00000
 11
  -8.01587
 21
  40.00110
 31
    .00000
  0
LINE
  8
LAYE
 10
  -7.48180
 20
  40.11257
 30
    .00000
 11
  -7.91380
 21
  39.79257
 31
    .00000
  0
LINE
  8
LAYE
 10
  -7.91380
 20
  39.79257
 30
    .00000
 11
  -7.89389
 21
  39.83843
 31
    .00000
  0
LINE
  8
LAYE
 10
  -7.91380
 20
  39.79257
 30
    .00000
 11
  -7.86412
 21
  39.79826
 31
    .00000
  0
LINE
  8
LAYE
 10
  -7.12032
 20
  40.38270
 30
    .00000
 11
  -7.72532
 21
  40.06970
 31
    .00000
  0
LINE
  8
LAYE
 10
  -7.72532
 20
  40.06970
 30
    .00000
 11
  -7.69835
 21
  40.11180
 31
    .00000
  0
LINE
  8
LAYE
 10
  -7.72532
 20
  40.06970
 30
    .00000
 11
  -7.67537
 21
  40.06739
 31
    .00000
  0
LINE
  8
LAYE
 10
  -6.79743
 20
  40.29319
 30
    .00000
 11
  -7.42543
 21
  40.08319
 31
    .00000
  0
LINE
  8
LAYE
 10
  -7.42543
 20
  40.08319
 30
    .00000
 11
  -7.39229
 21
  40.12063
 31
    .00000
  0
LINE
  8
LAYE
 10
  -7.42543
 20
  40.08319
 30
    .00000
 11
  -7.37644
 21
  40.07321
 31
    .00000
  0
LINE
  8
LAYE
 10
  -7.06461
 20
  40.05287
 30
    .00000
 11
  -7.56261
 21
  39.88187
 31
    .00000
  0
LINE
  8
LAYE
 10
  -7.56261
 20
  39.88187
 30
    .00000
 11
  -7.52977
 21
  39.91958
 31
    .00000
  0
LINE
  8
LAYE
 10
  -7.56261
 20
  39.88187
 30
    .00000
 11
  -7.51354
 21
  39.87229
 31
    .00000
  0
LINE
  8
LAYE
 10
  -9.00834
 20
  39.71977
 30
    .00000
 11
  -8.95034
 21
  39.39377
 31
    .00000
  0
LINE
  8
LAYE
 10
  -8.95034
 20
  39.39377
 30
    .00000
 11
  -8.98254
 21
  39.43202
 31
    .00000
  0
LINE
  8
LAYE
 10
  -8.95034
 20
  39.39377
 30
    .00000
 11
  -8.93331
 21
  39.44078
 31
    .00000
  0
LINE
  8
LAYE
 10
  -8.83442
 20
  39.93707
 30
    .00000
 11
  -8.91942
 21
  39.48707
 31
    .00000
  0
LINE
  8
LAYE
 10
  -8.91942
 20
  39.48707
 30
    .00000
 11
  -8.93595
 21
  39.53426
 31
    .00000
  0
LINE
  8
LAYE
 10
  -8.91942
 20
  39.48707
 30
    .00000
 11
  -8.88682
 21
  39.52498
 31
    .00000
  0
LINE
  8
LAYE
 10
  -8.51654
 20
  39.96019
 30
    .00000
 11
  -8.75054
 21
  39.56219
 31
    .00000
  0
LINE
  8
LAYE
 10
  -8.75054
 20
  39.56219
 30
    .00000
 11
  -8.75014
 21
  39.61219
 31
    .00000
  0
LINE
  8
LAYE
 10
  -8.75054
 20
  39.56219
 30
    .00000
 11
  -8.70704
 21
  39.58685
 31
    .00000
  0
LINE
  8
LAYE
 10
  -7.89561
 20
  39.87769
 30
    .00000
 11
  -8.19561
 21
  39.58669
 31
    .00000
  0
LINE
  8
LAYE
 10
  -8.19561
 20
  39.58669
 30
    .00000
 11
  -8.18194
 21
  39.63478
 31
    .00000
  0
LINE
  8
LAYE
 10
  -8.19561
 20
  39.58669
 30
    .00000
 11
  -8.14712
 21
  39.59889
 31
    .00000
  0
LINE
  8
LAYE
 10
  -8.11545
 20
  39.72064
 30
    .00000
 11
  -8.26245
 21
  39.45564
 31
    .00000
  0
LINE
  8
LAYE
 10
  -8.26245
 20
  39.45564
 30
    .00000
 11
  -8.26331
 21
  39.50563
 31
    .00000
  0
LINE
  8
LAYE
 10
  -8.26245
 20
  39.45564
 30
    .00000
 11
  -8.21958
 21
  39.48138
 31
    .00000
  0
LINE
  8
LAYE
 10
  -7.42862
 20
  39.82707
 30
    .00000
 11
  -7.77862
 21
  39.58607
 31
    .00000
  0
LINE
  8
LAYE
 10
  -7.77862
 20
  39.58607
 30
    .00000
 11
  -7.75713
 21
  39.63122
 31
    .00000
  0
LINE
  8
LAYE
 10
  -7.77862
 20
  39.58607
 30
    .00000
 11
  -7.72878
 21
  39.59004
 31
    .00000
  0
LINE
  8
LAYE
 10
  -7.00148
 20
  39.74389
 30
    .00000
 11
  -7.38648
 21
  39.64989
 31
    .00000
  0
LINE
  8
LAYE
 10
  -7.38648
 20
  39.64989
 30
    .00000
 11
  -7.35034
 21
  39.68445
 31
    .00000
  0
LINE
  8
LAYE
 10
  -7.38648
 20
  39.64989
 30
    .00000
 11
  -7.33848
 21
  39.63587
 31
    .00000
  0
LINE
  8
LAYE
 10
  -9.43749
 20
  39.38880
 30
    .00000
 11
  -9.14049
 21
  39.10680
 31
    .00000
  0
LINE
  8
LAYE
 10
  -9.14049
 20
  39.10680
 30
    .00000
 11
  -9.18911
 21
  39.11849
 31
    .00000
  0
LINE
  8
LAYE
 10
  -9.14049
 20
  39.10680
 30
    .00000
 11
  -9.15468
 21
  39.15474
 31
    .00000
  0
LINE
  8
LAYE
 10
  -9.22815
 20
  39.48516
 30
    .00000
 11
  -8.95815
 21
  39.17216
 31
    .00000
  0
LINE
  8
LAYE
 10
  -8.95815
 20
  39.17216
 30
    .00000
 11
  -9.00536
 21
  39.18862
 31
    .00000
  0
LINE
  8
LAYE
 10
  -8.95815
 20
  39.17216
 30
    .00000
 11
  -8.96750
 21
  39.22128
 31
    .00000
  0
LINE
  8
LAYE
 10
  -8.92899
 20
  39.46792
 30
    .00000
 11
  -8.82499
 21
  39.16292
 31
    .00000
  0
LINE
  8
LAYE
 10
  -8.82499
 20
  39.16292
 30
    .00000
 11
  -8.86263
 21
  39.19584
 31
    .00000
  0
LINE
  8
LAYE
 10
  -8.82499
 20
  39.16292
 30
    .00000
 11
  -8.81530
 21
  39.21197
 31
    .00000
  0
LINE
  8
LAYE
 10
  -8.62970
 20
  39.56480
 30
    .00000
 11
  -8.69870
 21
  39.27480
 31
    .00000
  0
LINE
  8
LAYE
 10
  -8.69870
 20
  39.27480
 30
    .00000
 11
  -8.71300
 21
  39.32271
 31
    .00000
  0
LINE
  8
LAYE
 10
  -8.69870
 20
  39.27480
 30
    .00000
 11
  -8.66436
 21
  39.31114
 31
    .00000
  0
LINE
  8
LAYE
 10
  -8.28078
 20
  39.54673
 30
    .00000
 11
  -8.40278
 21
  39.28873
 31
    .00000
  0
LINE
  8
LAYE
 10
  -8.40278
 20
  39.28873
 30
    .00000
 11
  -8.40687
 21
  39.33856
 31
    .00000
  0
LINE
  8
LAYE
 10
  -8.40278
 20
  39.28873
 30
    .00000
 11
  -8.36167
 21
  39.31719
 31
    .00000
  0
LINE
  8
LAYE
 10
  -8.75193
 20
  39.35991
 30
    .00000
 11
  -8.73693
 21
  39.10791
 31
    .00000
  0
LINE
  8
LAYE
 10
  -8.73693
 20
  39.10791
 30
    .00000
 11
  -8.76446
 21
  39.14965
 31
    .00000
  0
LINE
  8
LAYE
 10
  -8.73693
 20
  39.10791
 30
    .00000
 11
  -8.71455
 21
  39.15262
 31
    .00000
  0
LINE
  8
LAYE
 10
  -8.41233
 20
  39.35796
 30
    .00000
 11
  -8.46233
 21
  39.13996
 31
    .00000
  0
LINE
  8
LAYE
 10
  -8.46233
 20
  39.13996
 30
    .00000
 11
  -8.47702
 21
  39.18775
 31
    .00000
  0
LINE
  8
LAYE
 10
  -8.46233
 20
  39.13996
 30
    .00000
 11
  -8.42828
 21
  39.17658
 31
    .00000
  0
LINE
  8
LAYE
 10
  -7.60835
 20
  39.59051
 30
    .00000
 11
  -7.82535
 21
  39.43851
 31
    .00000
  0
LINE
  8
LAYE
 10
  -7.82535
 20
  39.43851
 30
    .00000
 11
  -7.80423
 21
  39.48383
 31
    .00000
  0
LINE
  8
LAYE
 10
  -7.82535
 20
  39.43851
 30
    .00000
 11
  -7.77554
 21
  39.44288
 31
    .00000
  0
LINE
  8
LAYE
 10
  -7.99911
 20
  39.38615
 30
    .00000
 11
  -8.12211
 21
  39.19515
 31
    .00000
  0
LINE
  8
LAYE
 10
  -8.12211
 20
  39.19515
 30
    .00000
 11
  -8.11968
 21
  39.24509
 31
    .00000
  0
LINE
  8
LAYE
 10
  -8.12211
 20
  39.19515
 30
    .00000
 11
  -8.07765
 21
  39.21802
 31
    .00000
  0
LINE
  8
LAYE
 10
  -7.19281
 20
  39.61951
 30
    .00000
 11
  -7.42781
 21
  39.46451
 31
    .00000
  0
LINE
  8
LAYE
 10
  -7.42781
 20
  39.46451
 30
    .00000
 11
  -7.40543
 21
  39.50922
 31
    .00000
  0
LINE
  8
LAYE
 10
  -7.42781
 20
  39.46451
 30
    .00000
 11
  -7.37790
 21
  39.46748
 31
    .00000
  0
LINE
  8
LAYE
 10
  -7.34287
 20
  39.32230
 30
    .00000
 11
  -7.51987
 21
  39.23430
 31
    .00000
  0
LINE
  8
LAYE
 10
  -7.51987
 20
  39.23430
 30
    .00000
 11
  -7.49223
 21
  39.27596
 31
    .00000
  0
LINE
  8
LAYE
 10
  -7.51987
 20
  39.23430
 30
    .00000
 11
  -7.46997
 21
  39.23119
 31
    .00000
  0
LINE
  8
LAYE
 10
  -9.06824
 20
  39.19588
 30
    .00000
 11
  -8.87124
 21
  38.97088
 31
    .00000
  0
LINE
  8
LAYE
 10
  -8.87124
 20
  38.97088
 30
    .00000
 11
  -8.91857
 21
  38.98699
 31
    .00000
  0
LINE
  8
LAYE
 10
  -8.87124
 20
  38.97088
 30
    .00000
 11
  -8.88096
 21
  39.01993
 31
    .00000
  0
LINE
  8
LAYE
 10
  -9.33878
 20
  39.03074
 30
    .00000
 11
  -9.11678
 21
  38.84674
 31
    .00000
  0
LINE
  8
LAYE
 10
  -9.11678
 20
  38.84674
 30
    .00000
 11
  -9.16607
 21
  38.85512
 31
    .00000
  0
LINE
  8
LAYE
 10
  -9.11678
 20
  38.84674
 30
    .00000
 11
  -9.13417
 21
  38.89362
 31
    .00000
  0
LINE
  8
LAYE
 10
  -8.59015
 20
  39.16134
 30
    .00000
 11
  -8.55515
 21
  38.97034
 31
    .00000
  0
LINE
  8
LAYE
 10
  -8.55515
 20
  38.97034
 30
    .00000
 11
  -8.58755
 21
  39.00843
 31
    .00000
  0
LINE
  8
LAYE
 10
  -8.55515
 20
  38.97034
 30
    .00000
 11
  -8.53836
 21
  39.01744
 31
    .00000
  0
LINE
  8
LAYE
 10
  -8.18413
 20
  39.09261
 30
    .00000
 11
  -8.21613
 21
  38.93961
 31
    .00000
  0
LINE
  8
LAYE
 10
  -8.21613
 20
  38.93961
 30
    .00000
 11
  -8.23174
 21
  38.98711
 31
    .00000
  0
LINE
  8
LAYE
 10
  -8.21613
 20
  38.93961
 30
    .00000
 11
  -8.18279
 21
  38.97688
 31
    .00000
  0
LINE
  8
LAYE
 10
  -7.61013
 20
  39.20223
 30
    .00000
 11
  -7.73613
 21
  39.07123
 31
    .00000
  0
LINE
  8
LAYE
 10
  -7.73613
 20
  39.07123
 30
    .00000
 11
  -7.72413
 21
  39.11977
 31
    .00000
  0
LINE
  8
LAYE
 10
  -7.73613
 20
  39.07123
 30
    .00000
 11
  -7.68809
 21
  39.08511
 31
    .00000
  0
LINE
  8
LAYE
 10
  -7.09326
 20
  39.03751
 30
    .00000
 11
  -7.23226
 21
  38.97351
 31
    .00000
  0
LINE
  8
LAYE
 10
  -7.23226
 20
  38.97351
 30
    .00000
 11
  -7.20338
 21
  39.01433
 31
    .00000
  0
LINE
  8
LAYE
 10
  -7.23226
 20
  38.97351
 30
    .00000
 11
  -7.18247
 21
  38.96891
 31
    .00000
  0
LINE
  8
LAYE
 10
  -9.46539
 20
  38.78922
 30
    .00000
 11
  -9.22639
 21
  38.64022
 31
    .00000
  0
LINE
  8
LAYE
 10
  -9.22639
 20
  38.64022
 30
    .00000
 11
  -9.27636
 21
  38.64191
 31
    .00000
  0
LINE
  8
LAYE
 10
  -9.22639
 20
  38.64022
 30
    .00000
 11
  -9.24991
 21
  38.68434
 31
    .00000
  0
LINE
  8
LAYE
 10
  -9.10852
 20
  38.90844
 30
    .00000
 11
  -8.93352
 21
  38.76644
 31
    .00000
  0
LINE
  8
LAYE
 10
  -8.93352
 20
  38.76644
 30
    .00000
 11
  -8.98290
 21
  38.77431
 31
    .00000
  0
LINE
  8
LAYE
 10
  -8.93352
 20
  38.76644
 30
    .00000
 11
  -8.95139
 21
  38.81314
 31
    .00000
  0
LINE
  8
LAYE
 10
  -9.15026
 20
  38.72640
 30
    .00000
 11
  -8.97926
 21
  38.59940
 31
    .00000
  0
LINE
  8
LAYE
 10
  -8.97926
 20
  38.59940
 30
    .00000
 11
  -9.02893
 21
  38.60515
 31
    .00000
  0
LINE
  8
LAYE
 10
  -8.97926
 20
  38.59940
 30
    .00000
 11
  -8.99912
 21
  38.64529
 31
    .00000
  0
LINE
  8
LAYE
 10
  -8.52655
 20
  38.85227
 30
    .00000
 11
  -8.45155
 21
  38.73527
 31
    .00000
  0
LINE
  8
LAYE
 10
  -8.45155
 20
  38.73527
 30
    .00000
 11
  -8.49597
 21
  38.75823
 31
    .00000
  0
LINE
  8
LAYE
 10
  -8.45155
 20
  38.73527
 30
    .00000
 11
  -8.45387
 21
  38.78522
 31
    .00000
  0
LINE
  8
LAYE
 10
  -8.54512
 20
  38.69515
 30
    .00000
 11
  -8.49512
 21
  38.63115
 31
    .00000
  0
LINE
  8
LAYE
 10
  -8.49512
 20
  38.63115
 30
    .00000
 11
  -8.54148
 21
  38.64988
 31
    .00000
  0
LINE
  8
LAYE
 10
  -8.49512
 20
  38.63115
 30
    .00000
 11
  -8.50208
 21
  38.68066
 31
    .00000
  0
LINE
  8
LAYE
 10
  -7.64598
 20
  38.92364
 30
    .00000
 11
  -7.72698
 21
  38.85064
 31
    .00000
  0
LINE
  8
LAYE
 10
  -7.72698
 20
  38.85064
 30
    .00000
 11
  -7.71155
 21
  38.89820
 31
    .00000
  0
LINE
  8
LAYE
 10
  -7.72698
 20
  38.85064
 30
    .00000
 11
  -7.67808
 21
  38.86106
 31
    .00000
  0
LINE
  8
LAYE
 10
  -7.98613
 20
  38.73130
 30
    .00000
 11
  -8.00613
 21
  38.67530
 31
    .00000
  0
LINE
  8
LAYE
 10
  -8.00613
 20
  38.67530
 30
    .00000
 11
  -8.01511
 21
  38.72449
 31
    .00000
  0
LINE
  8
LAYE
 10
  -8.00613
 20
  38.67530
 30
    .00000
 11
  -7.96802
 21
  38.70767
 31
    .00000
  0
LINE
  8
LAYE
 10
  -7.57784
 20
  38.74561
 30
    .00000
 11
  -7.63984
 21
  38.68461
 31
    .00000
  0
LINE
  8
LAYE
 10
  -7.63984
 20
  38.68461
 30
    .00000
 11
  -7.62651
 21
  38.73280
 31
    .00000
  0
LINE
  8
LAYE
 10
  -7.63984
 20
  38.68461
 30
    .00000
 11
  -7.59144
 21
  38.69716
 31
    .00000
  0
LINE
  8
LAYE
 10
  -7.24595
 20
  38.84389
 30
    .00000
 11
  -7.37395
 21
  38.80389
 31
    .00000
  0
LINE
  8
LAYE
 10
  -7.37395
 20
  38.80389
 30
    .00000
 11
  -7.34008
 21
  38.84067
 31
    .00000
  0
LINE
  8
LAYE
 10
  -7.37395
 20
  38.80389
 30
    .00000
 11
  -7.32516
 21
  38.79294
 31
    .00000
  0
LINE
  8
LAYE
 10
  -8.91457
 20
  38.57156
 30
    .00000
 11
  -8.77157
 21
  38.51756
 31
    .00000
  0
LINE
  8
LAYE
 10
  -8.77157
 20
  38.51756
 30
    .00000
 11
  -8.82091
 21
  38.50947
 31
    .00000
  0
LINE
  8
LAYE
 10
  -8.77157
 20
  38.51756
 30
    .00000
 11
  -8.80325
 21
  38.55625
 31
    .00000
  0
LINE
  8
LAYE
 10
  -9.12288
 20
  38.45730
 30
    .00000
 11
  -8.96188
 21
  38.41230
 31
    .00000
  0
LINE
  8
LAYE
 10
  -8.96188
 20
  38.41230
 30
    .00000
 11
  -9.01031
 21
  38.39988
 31
    .00000
  0
LINE
  8
LAYE
 10
  -8.96188
 20
  38.41230
 30
    .00000
 11
  -8.99685
 21
  38.44803
 31
    .00000
  0
LINE
  8
LAYE
 10
  -8.52680
 20
  38.49870
 30
    .00000
 11
  -8.48980
 21
  38.43070
 31
    .00000
  0
LINE
  8
LAYE
 10
  -8.48980
 20
  38.43070
 30
    .00000
 11
  -8.53246
 21
  38.45679
 31
    .00000
  0
LINE
  8
LAYE
 10
  -8.48980
 20
  38.43070
 30
    .00000
 11
  -8.48854
 21
  38.48068
 31
    .00000
  0
LINE
  8
LAYE
 10
  -8.18895
 20
  38.57585
 30
    .00000
 11
  -8.19895
 21
  38.50885
 31
    .00000
  0
LINE
  8
LAYE
 10
  -8.19895
 20
  38.50885
 30
    .00000
 11
  -8.21728
 21
  38.55537
 31
    .00000
  0
LINE
  8
LAYE
 10
  -8.19895
 20
  38.50885
 30
    .00000
 11
  -8.16783
 21
  38.54799
 31
    .00000
  0
LINE
  8
LAYE
 10
  -8.23609
 20
  38.24652
 30
    .00000
 11
  -8.22309
 21
  38.23952
 31
    .00000
  0
LINE
  8
LAYE
 10
  -8.22309
 20
  38.23952
 30
    .00000
 11
  -8.27307
 21
  38.23804
 31
    .00000
  0
LINE
  8
LAYE
 10
  -8.22309
 20
  38.23952
 30
    .00000
 11
  -8.24936
 21
  38.28206
 31
    .00000
  0
LINE
  8
LAYE
 10
  -7.79737
 20
  38.45208
 30
    .00000
 11
  -7.83237
 21
  38.41408
 31
    .00000
  0
LINE
  8
LAYE
 10
  -7.83237
 20
  38.41408
 30
    .00000
 11
  -7.82142
 21
  38.46287
 31
    .00000
  0
LINE
  8
LAYE
 10
  -7.83237
 20
  38.41408
 30
    .00000
 11
  -7.78465
 21
  38.42899
 31
    .00000
  0
LINE
  8
LAYE
 10
  -7.78071
 20
  38.24698
 30
    .00000
 11
  -7.81271
 21
  38.23898
 31
    .00000
  0
LINE
  8
LAYE
 10
  -7.81271
 20
  38.23898
 30
    .00000
 11
  -7.77676
 21
  38.27374
 31
    .00000
  0
LINE
  8
LAYE
 10
  -7.81271
 20
  38.23898
 30
    .00000
 11
  -7.76464
 21
  38.22523
 31
    .00000
  0
LINE
  8
LAYE
 10
  -8.00375
 20
  38.32414
 30
    .00000
 11
  -8.01775
 21
  38.30414
 31
    .00000
  0
LINE
  8
LAYE
 10
  -8.01775
 20
  38.30414
 30
    .00000
 11
  -8.01340
 21
  38.35395
 31
    .00000
  0
LINE
  8
LAYE
 10
  -8.01775
 20
  38.30414
 30
    .00000
 11
  -7.97244
 21
  38.32528
 31
    .00000
  0
LINE
  8
LAYE
 10
  -7.37399
 20
  38.44537
 30
    .00000
 11
  -7.44999
 21
  38.41537
 31
    .00000
  0
LINE
  8
LAYE
 10
  -7.44999
 20
  38.41537
 30
    .00000
 11
  -7.41889
 21
  38.45452
 31
    .00000
  0
LINE
  8
LAYE
 10
  -7.44999
 20
  38.41537
 30
    .00000
 11
  -7.40053
 21
  38.40801
 31
    .00000
  0
LINE
  8
LAYE
 10
  -7.14544
 20
  38.22867
 30
    .00000
 11
  -7.22944
 21
  38.22667
 31
    .00000
  0
LINE
  8
LAYE
 10
  -7.22944
 20
  38.22667
 30
    .00000
 11
  -7.18675
 21
  38.25269
 31
    .00000
  0
LINE
  8
LAYE
 10
  -7.22944
 20
  38.22667
 30
    .00000
 11
  -7.18556
 21
  38.20271
 31
    .00000
  0
LINE
  8
LAYE
 10
  -8.65287
 20
  38.16876
 30
    .00000
 11
  -8.57987
 21
  38.17376
 31
    .00000
  0
LINE
  8
LAYE
 10
  -8.57987
 20
  38.17376
 30
    .00000
 11
  -8.62136
 21
  38.14586
 31
    .00000
  0
LINE
  8
LAYE
 10
  -8.57987
 20
  38.17376
 30
    .00000
 11
  -8.62478
 21
  38.19574
 31
    .00000
  0
LINE
  8
LAYE
 10
  -8.43680
 20
  38.04936
 30
    .00000
 11
  -8.42480
 21
  38.06936
 31
    .00000
  0
LINE
  8
LAYE
 10
  -8.42480
 20
  38.06936
 30
    .00000
 11
  -8.42564
 21
  38.01937
 31
    .00000
  0
LINE
  8
LAYE
 10
  -8.42480
 20
  38.06936
 30
    .00000
 11
  -8.46852
 21
  38.04509
 31
    .00000
  0
LINE
  8
LAYE
 10
  -8.16454
 20
  37.88038
 30
    .00000
 11
  -8.19454
 21
  37.89238
 31
    .00000
  0
LINE
  8
LAYE
 10
  -8.19454
 20
  37.89238
 30
    .00000
 11
  -8.14505
 21
  37.89951
 31
    .00000
  0
LINE
  8
LAYE
 10
  -8.19454
 20
  37.89238
 30
    .00000
 11
  -8.16362
 21
  37.85309
 31
    .00000
  0
LINE
  8
LAYE
 10
  -7.44341
 20
  38.09437
 30
    .00000
 11
  -7.47041
 21
  38.09237
 31
    .00000
  0
LINE
  8
LAYE
 10
  -7.47041
 20
  38.09237
 30
    .00000
 11
  -7.42907
 21
  38.12050
 31
    .00000
  0
LINE
  8
LAYE
 10
  -7.47041
 20
  38.09237
 30
    .00000
 11
  -7.42538
 21
  38.07064
 31
    .00000
  0
LINE
  8
LAYE
 10
  -7.86315
 20
  38.01732
 30
    .00000
 11
  -7.88715
 21
  38.01732
 31
    .00000
  0
LINE
  8
LAYE
 10
  -7.88715
 20
  38.01732
 30
    .00000
 11
  -7.84385
 21
  38.04232
 31
    .00000
  0
LINE
  8
LAYE
 10
  -7.88715
 20
  38.01732
 30
    .00000
 11
  -7.84385
 21
  37.99232
 31
    .00000
  0
LINE
  8
LAYE
 10
  -7.59499
 20
  37.92910
 30
    .00000
 11
  -7.57999
 21
  37.93510
 31
    .00000
  0
LINE
  8
LAYE
 10
  -7.57999
 20
  37.93510
 30
    .00000
 11
  -7.61091
 21
  37.89581
 31
    .00000
  0
LINE
  8
LAYE
 10
  -7.57999
 20
  37.93510
 30
    .00000
 11
  -7.62948
 21
  37.94223
 31
    .00000
  0
LINE
  8
LAYE
 10
  -7.28245
 20
  37.96367
 30
    .00000
 11
  -7.30145
 21
  37.97067
 31
    .00000
  0
LINE
  8
LAYE
 10
  -7.30145
 20
  37.97067
 30
    .00000
 11
  -7.25218
 21
  37.97916
 31
    .00000
  0
LINE
  8
LAYE
 10
  -7.30145
 20
  37.97067
 30
    .00000
 11
  -7.26946
 21
  37.93224
 31
    .00000
  0
LINE
  8
LAYE
 10
  -8.71835
 20
  37.79059
 30
    .00000
 11
  -8.72235
 21
  37.82859
 31
    .00000
  0
LINE
  8
LAYE
 10
  -8.72235
 20
  37.82859
 30
    .00000
 11
  -8.69295
 21
  37.78814
 31
    .00000
  0
LINE
  8
LAYE
 10
  -8.72235
 20
  37.82859
 30
    .00000
 11
  -8.74268
 21
  37.78291
 31
    .00000
  0
LINE
  8
LAYE
 10
  -8.42537
 20
  37.86591
 30
    .00000
 11
  -8.42037
 21
  37.86691
 31
    .00000
  0
LINE
  8
LAYE
 10
  -8.42037
 20
  37.86691
 30
    .00000
 11
  -8.45793
 21
  37.83390
 31
    .00000
  0
LINE
  8
LAYE
 10
  -8.42037
 20
  37.86691
 30
    .00000
 11
  -8.46773
 21
  37.88293
 31
    .00000
  0
LINE
  8
LAYE
 10
  -8.71003
 20
  37.50299
 30
    .00000
 11
  -8.77703
 21
  37.54599
 31
    .00000
  0
LINE
  8
LAYE
 10
  -8.77703
 20
  37.54599
 30
    .00000
 11
  -8.72709
 21
  37.54364
 31
    .00000
  0
LINE
  8
LAYE
 10
  -8.77703
 20
  37.54599
 30
    .00000
 11
  -8.75409
 21
  37.50156
 31
    .00000
  0
LINE
  8
LAYE
 10
  -8.38640
 20
  37.61184
 30
    .00000
 11
  -8.38640
 21
  37.64384
 31
    .00000
  0
LINE
  8
LAYE
 10
  -8.38640
 20
  37.64384
 30
    .00000
 11
  -8.36140
 21
  37.60054
 31
    .00000
  0
LINE
  8
LAYE
 10
  -8.38640
 20
  37.64384
 30
    .00000
 11
  -8.41140
 21
  37.60054
 31
    .00000
  0
LINE
  8
LAYE
 10
  -7.45152
 20
  37.79444
 30
    .00000
 11
  -7.44152
 21
  37.79744
 31
    .00000
  0
LINE
  8
LAYE
 10
  -7.44152
 20
  37.79744
 30
    .00000
 11
  -7.47581
 21
  37.76105
 31
    .00000
  0
LINE
  8
LAYE
 10
  -7.44152
 20
  37.79744
 30
    .00000
 11
  -7.49018
 21
  37.80894
 31
    .00000
  0
LINE
  8
LAYE
 10
  -7.76193
 20
  37.70228
 30
    .00000
 11
  -7.75893
 21
  37.68328
 31
    .00000
  0
LINE
  8
LAYE
 10
  -7.75893
 20
  37.68328
 30
    .00000
 11
  -7.79038
 21
  37.72215
 31
    .00000
  0
LINE
  8
LAYE
 10
  -7.75893
 20
  37.68328
 30
    .00000
 11
  -7.74099
 21
  37.72995
 31
    .00000
  0
LINE
  8
LAYE
 10
  -8.07658
 20
  37.61960
 30
    .00000
 11
  -8.03758
 21
  37.60760
 31
    .00000
  0
LINE
  8
LAYE
 10
  -8.03758
 20
  37.60760
 30
    .00000
 11
  -8.08632
 21
  37.59644
 31
    .00000
  0
LINE
  8
LAYE
 10
  -8.03758
 20
  37.60760
 30
    .00000
 11
  -8.07161
 21
  37.64423
 31
    .00000
  0
LINE
  8
LAYE
 10
  -7.44979
 20
  37.54213
 30
    .00000
 11
  -7.46079
 21
  37.50813
 31
    .00000
  0
LINE
  8
LAYE
 10
  -7.46079
 20
  37.50813
 30
    .00000
 11
  -7.47125
 21
  37.55702
 31
    .00000
  0
LINE
  8
LAYE
 10
  -7.46079
 20
  37.50813
 30
    .00000
 11
  -7.42367
 21
  37.54163
 31
    .00000
  0
LINE
  8
LAYE
 10
  -8.85116
 20
  37.27444
 30
    .00000
 11
  -8.94116
 21
  37.36544
 31
    .00000
  0
LINE
  8
LAYE
 10
  -8.94116
 20
  37.36544
 30
    .00000
 11
  -8.89294
 21
  37.35223
 31
    .00000
  0
LINE
  8
LAYE
 10
  -8.94116
 20
  37.36544
 30
    .00000
 11
  -8.92849
 21
  37.31707
 31
    .00000
  0
LINE
  8
LAYE
 10
  -8.59069
 20
  37.30976
 30
    .00000
 11
  -8.64769
 21
  37.36776
 31
    .00000
  0
LINE
  8
LAYE
 10
  -8.64769
 20
  37.36776
 30
    .00000
 11
  -8.59951
 21
  37.35440
 31
    .00000
  0
LINE
  8
LAYE
 10
  -8.64769
 20
  37.36776
 30
    .00000
 11
  -8.63517
 21
  37.31935
 31
    .00000
  0
LINE
  8
LAYE
 10
  -8.76904
 20
  37.21106
 30
    .00000
 11
  -8.88104
 21
  37.29306
 31
    .00000
  0
LINE
  8
LAYE
 10
  -8.88104
 20
  37.29306
 30
    .00000
 11
  -8.83133
 21
  37.28765
 31
    .00000
  0
LINE
  8
LAYE
 10
  -8.88104
 20
  37.29306
 30
    .00000
 11
  -8.86087
 21
  37.24731
 31
    .00000
  0
LINE
  8
LAYE
 10
  -8.08286
 20
  37.36844
 30
    .00000
 11
  -8.05786
 21
  37.39144
 31
    .00000
  0
LINE
  8
LAYE
 10
  -8.05786
 20
  37.39144
 30
    .00000
 11
  -8.07280
 21
  37.34372
 31
    .00000
  0
LINE
  8
LAYE
 10
  -8.05786
 20
  37.39144
 30
    .00000
 11
  -8.10665
 21
  37.38052
 31
    .00000
  0
LINE
  8
LAYE
 10
  -7.85121
 20
  37.48356
 30
    .00000
 11
  -7.85221
 21
  37.47756
 31
    .00000
  0
LINE
  8
LAYE
 10
  -7.85221
 20
  37.47756
 30
    .00000
 11
  -7.86975
 21
  37.52438
 31
    .00000
  0
LINE
  8
LAYE
 10
  -7.85221
 20
  37.47756
 30
    .00000
 11
  -7.82043
 21
  37.51616
 31
    .00000
  0
LINE
  8
LAYE
 10
  -7.40631
 20
  37.33943
 30
    .00000
 11
  -7.42531
 21
  37.26243
 31
    .00000
  0
LINE
  8
LAYE
 10
  -7.42531
 20
  37.26243
 30
    .00000
 11
  -7.43921
 21
  37.31046
 31
    .00000
  0
LINE
  8
LAYE
 10
  -7.42531
 20
  37.26243
 30
    .00000
 11
  -7.39066
 21
  37.29848
 31
    .00000
  0
LINE
  8
LAYE
 10
  -7.73575
 20
  37.24436
 30
    .00000
 11
  -7.76875
 21
  37.23536
 31
    .00000
  0
LINE
  8
LAYE
 10
  -7.76875
 20
  37.23536
 30
    .00000
 11
  -7.73355
 21
  37.27087
 31
    .00000
  0
LINE
  8
LAYE
 10
  -7.76875
 20
  37.23536
 30
    .00000
 11
  -7.72040
 21
  37.22263
 31
    .00000
  0
LINE
  8
LAYE
 10
  -7.47786
 20
  37.19066
 30
    .00000
 11
  -7.57286
 21
  37.14966
 31
    .00000
  0
LINE
  8
LAYE
 10
  -7.57286
 20
  37.14966
 30
    .00000
 11
  -7.54301
 21
  37.18977
 31
    .00000
  0
LINE
  8
LAYE
 10
  -7.57286
 20
  37.14966
 30
    .00000
 11
  -7.52320
 21
  37.14386
 31
    .00000
  0
LINE
  8
LAYE
 10
  -8.93526
 20
  37.07871
 30
    .00000
 11
  -9.10026
 21
  37.14671
 31
    .00000
  0
LINE
  8
LAYE
 10
  -9.10026
 20
  37.14671
 30
    .00000
 11
  -9.05070
 21
  37.15332
 31
    .00000
  0
LINE
  8
LAYE
 10
  -9.10026
 20
  37.14671
 30
    .00000
 11
  -9.06975
 21
  37.10710
 31
    .00000
  0
LINE
  8
LAYE
 10
  -8.71114
 20
  37.08305
 30
    .00000
 11
  -8.78514
 21
  37.13405
 31
    .00000
  0
LINE
  8
LAYE
 10
  -8.78514
 20
  37.13405
 30
    .00000
 11
  -8.73530
 21
  37.13006
 31
    .00000
  0
LINE
  8
LAYE
 10
  -8.78514
 20
  37.13405
 30
    .00000
 11
  -8.76367
 21
  37.08889
 31
    .00000
  0
LINE
  8
LAYE
 10
  -8.39067
 20
  37.13506
 30
    .00000
 11
  -8.42967
 21
  37.16806
 31
    .00000
  0
LINE
  8
LAYE
 10
  -8.42967
 20
  37.16806
 30
    .00000
 11
  -8.38047
 21
  37.15917
 31
    .00000
  0
LINE
  8
LAYE
 10
  -8.42967
 20
  37.16806
 30
    .00000
 11
  -8.41276
 21
  37.12101
 31
    .00000
  0
LINE
  8
LAYE
 10
  -7.92924
 20
  37.10068
 30
    .00000
 11
  -7.96724
 21
  37.10568
 31
    .00000
  0
LINE
  8
LAYE
 10
  -7.96724
 20
  37.10568
 30
    .00000
 11
  -7.92105
 21
  37.12482
 31
    .00000
  0
LINE
  8
LAYE
 10
  -7.96724
 20
  37.10568
 30
    .00000
 11
  -7.92757
 21
  37.07524
 31
    .00000
  0
LINE
  8
LAYE
 10
  -7.86298
 20
  36.96960
 30
    .00000
 11
  -7.88498
 21
  37.01960
 31
    .00000
  0
LINE
  8
LAYE
 10
  -7.88498
 20
  37.01960
 30
    .00000
 11
  -7.84466
 21
  36.99003
 31
    .00000
  0
LINE
  8
LAYE
 10
  -7.88498
 20
  37.01960
 30
    .00000
 11
  -7.89042
 21
  36.96990
 31
    .00000
  0
ENDSEC
  0
EOF
