  0
SECTION
  2
ENTITIES
  0
LINE
  8
LAYE
 10
  -8.70106
 20
  42.13562
 30
    .00000
 11
  -8.70106
 21
  40.61562
 31
    .00000
  0
LINE
  8
LAYE
 10
  -8.70106
 20
  40.61562
 30
    .00000
 11
  -8.72606
 21
  40.65892
 31
    .00000
  0
LINE
  8
LAYE
 10
  -8.70106
 20
  40.61562
 30
    .00000
 11
  -8.67606
 21
  40.65892
 31
    .00000
  0
LINE
  8
LAYE
 10
  -8.41300
 20
  42.13471
 30
    .00000
 11
  -8.41300
 21
  41.23471
 31
    .00000
  0
LINE
  8
LAYE
 10
  -8.41300
 20
  41.23471
 30
    .00000
 11
  -8.43800
 21
  41.27801
 31
    .00000
  0
LINE
  8
LAYE
 10
  -8.41300
 20
  41.23471
 30
    .00000
 11
  -8.38800
 21
  41.27801
 31
    .00000
  0
LINE
  8
LAYE
 10
  -8.71473
 20
  41.92157
 30
    .00000
 11
  -8.71473
 21
  41.73157
 31
    .00000
  0
LINE
  8
LAYE
 10
  -8.71473
 20
  41.73157
 30
    .00000
 11
  -8.73973
 21
  41.77487
 31
    .00000
  0
LINE
  8
LAYE
 10
  -8.71473
 20
  41.73157
 30
    .00000
 11
  -8.68973
 21
  41.77487
 31
    .00000
  0
LINE
  8
LAYE
 10
  -8.87142
 20
  41.88802
 30
    .00000
 11
  -8.87142
 21
  41.59802
 31
    .00000
  0
LINE
  8
LAYE
 10
  -8.87142
 20
  41.59802
 30
    .00000
 11
  -8.89642
 21
  41.64132
 31
    .00000
  0
LINE
  8
LAYE
 10
  -8.87142
 20
  41.59802
 30
    .00000
 11
  -8.84642
 21
  41.64132
 31
    .00000
  0
LINE
  8
LAYE
 10
  -8.30762
 20
  41.96908
 30
    .00000
 11
  -8.30762
 21
  42.06908
 31
    .00000
  0
LINE
  8
LAYE
 10
  -8.30762
 20
  42.06908
 30
    .00000
 11
  -8.28262
 21
  42.02578
 31
    .00000
  0
LINE
  8
LAYE
 10
  -8.30762
 20
  42.06908
 30
    .00000
 11
  -8.33262
 21
  42.02578
 31
    .00000
  0
LINE
  8
LAYE
 10
  -7.72032
 20
  41.88038
 30
    .00000
 11
  -7.72032
 21
  41.84038
 31
    .00000
  0
LINE
  8
LAYE
 10
  -7.72032
 20
  41.84038
 30
    .00000
 11
  -7.74532
 21
  41.88368
 31
    .00000
  0
LINE
  8
LAYE
 10
  -7.72032
 20
  41.84038
 30
    .00000
 11
  -7.69532
 21
  41.88368
 31
    .00000
  0
LINE
  8
LAYE
 10
  -7.00360
 20
  41.91483
 30
    .00000
 11
  -7.00360
 21
  41.85483
 31
    .00000
  0
LINE
  8
LAYE
 10
  -7.00360
 20
  41.85483
 30
    .00000
 11
  -7.02860
 21
  41.89813
 31
    .00000
  0
LINE
  8
LAYE
 10
  -7.00360
 20
  41.85483
 30
    .00000
 11
  -6.97860
 21
  41.89813
 31
    .00000
  0
LINE
  8
LAYE
 10
  -7.33322
 20
  41.84860
 30
    .00000
 11
  -7.33322
 21
  41.53860
 31
    .00000
  0
LINE
  8
LAYE
 10
  -7.33322
 20
  41.53860
 30
    .00000
 11
  -7.35822
 21
  41.58190
 31
    .00000
  0
LINE
  8
LAYE
 10
  -7.33322
 20
  41.53860
 30
    .00000
 11
  -7.30822
 21
  41.58190
 31
    .00000
  0
LINE
  8
LAYE
 10
  -6.59109
 20
  41.84944
 30
    .00000
 11
  -6.59109
 21
  41.90944
 31
    .00000
  0
LINE
  8
LAYE
 10
  -6.59109
 20
  41.90944
 30
    .00000
 11
  -6.56609
 21
  41.86614
 31
    .00000
  0
LINE
  8
LAYE
 10
  -6.59109
 20
  41.90944
 30
    .00000
 11
  -6.61609
 21
  41.86614
 31
    .00000
  0
LINE
  8
LAYE
 10
  -8.80780
 20
  41.76295
 30
    .00000
 11
  -8.80780
 21
  41.43295
 31
    .00000
  0
LINE
  8
LAYE
 10
  -8.80780
 20
  41.43295
 30
    .00000
 11
  -8.83280
 21
  41.47625
 31
    .00000
  0
LINE
  8
LAYE
 10
  -8.80780
 20
  41.43295
 30
    .00000
 11
  -8.78280
 21
  41.47625
 31
    .00000
  0
LINE
  8
LAYE
 10
  -8.45937
 20
  41.72871
 30
    .00000
 11
  -8.45937
 21
  41.16871
 31
    .00000
  0
LINE
  8
LAYE
 10
  -8.45937
 20
  41.16871
 30
    .00000
 11
  -8.48437
 21
  41.21201
 31
    .00000
  0
LINE
  8
LAYE
 10
  -8.45937
 20
  41.16871
 30
    .00000
 11
  -8.43437
 21
  41.21201
 31
    .00000
  0
LINE
  8
LAYE
 10
  -8.04329
 20
  41.63897
 30
    .00000
 11
  -8.04329
 21
  41.46897
 31
    .00000
  0
LINE
  8
LAYE
 10
  -8.04329
 20
  41.46897
 30
    .00000
 11
  -8.06829
 21
  41.51227
 31
    .00000
  0
LINE
  8
LAYE
 10
  -8.04329
 20
  41.46897
 30
    .00000
 11
  -8.01829
 21
  41.51227
 31
    .00000
  0
LINE
  8
LAYE
 10
  -7.51709
 20
  41.56221
 30
    .00000
 11
  -7.51709
 21
  41.56221
 31
    .00000
  0
LINE
  8
LAYE
 10
  -7.51709
 20
  41.56221
 30
    .00000
 11
  -7.49209
 21
  41.51891
 31
    .00000
  0
LINE
  8
LAYE
 10
  -7.51709
 20
  41.56221
 30
    .00000
 11
  -7.54209
 21
  41.51891
 31
    .00000
  0
LINE
  8
LAYE
 10
  -6.85551
 20
  41.71728
 30
    .00000
 11
  -6.85551
 21
  41.64728
 31
    .00000
  0
LINE
  8
LAYE
 10
  -6.85551
 20
  41.64728
 30
    .00000
 11
  -6.88051
 21
  41.69058
 31
    .00000
  0
LINE
  8
LAYE
 10
  -6.85551
 20
  41.64728
 30
    .00000
 11
  -6.83051
 21
  41.69058
 31
    .00000
  0
LINE
  8
LAYE
 10
  -6.30702
 20
  41.66298
 30
    .00000
 11
  -6.30702
 21
  41.77298
 31
    .00000
  0
LINE
  8
LAYE
 10
  -6.30702
 20
  41.77298
 30
    .00000
 11
  -6.28202
 21
  41.72968
 31
    .00000
  0
LINE
  8
LAYE
 10
  -6.30702
 20
  41.77298
 30
    .00000
 11
  -6.33202
 21
  41.72968
 31
    .00000
  0
LINE
  8
LAYE
 10
  -6.56340
 20
  41.53116
 30
    .00000
 11
  -6.56340
 21
  41.44116
 31
    .00000
  0
LINE
  8
LAYE
 10
  -6.56340
 20
  41.44116
 30
    .00000
 11
  -6.58840
 21
  41.48446
 31
    .00000
  0
LINE
  8
LAYE
 10
  -6.56340
 20
  41.44116
 30
    .00000
 11
  -6.53840
 21
  41.48446
 31
    .00000
  0
LINE
  8
LAYE
 10
  -8.71530
 20
  41.43497
 30
    .00000
 11
  -8.71530
 21
  41.11497
 31
    .00000
  0
LINE
  8
LAYE
 10
  -8.71530
 20
  41.11497
 30
    .00000
 11
  -8.74030
 21
  41.15827
 31
    .00000
  0
LINE
  8
LAYE
 10
  -8.71530
 20
  41.11497
 30
    .00000
 11
  -8.69030
 21
  41.15827
 31
    .00000
  0
LINE
  8
LAYE
 10
  -8.38600
 20
  41.32386
 30
    .00000
 11
  -8.38600
 21
  40.52386
 31
    .00000
  0
LINE
  8
LAYE
 10
  -8.38600
 20
  40.52386
 30
    .00000
 11
  -8.41100
 21
  40.56716
 31
    .00000
  0
LINE
  8
LAYE
 10
  -8.38600
 20
  40.52386
 30
    .00000
 11
  -8.36100
 21
  40.56716
 31
    .00000
  0
LINE
  8
LAYE
 10
  -8.26340
 20
  41.16750
 30
    .00000
 11
  -8.26340
 21
  40.31750
 31
    .00000
  0
LINE
  8
LAYE
 10
  -8.26340
 20
  40.31750
 30
    .00000
 11
  -8.28840
 21
  40.36080
 31
    .00000
  0
LINE
  8
LAYE
 10
  -8.26340
 20
  40.31750
 30
    .00000
 11
  -8.23840
 21
  40.36080
 31
    .00000
  0
LINE
  8
LAYE
 10
  -7.88691
 20
  41.24847
 30
    .00000
 11
  -7.88691
 21
  40.84847
 31
    .00000
  0
LINE
  8
LAYE
 10
  -7.88691
 20
  40.84847
 30
    .00000
 11
  -7.91191
 21
  40.89177
 31
    .00000
  0
LINE
  8
LAYE
 10
  -7.88691
 20
  40.84847
 30
    .00000
 11
  -7.86191
 21
  40.89177
 31
    .00000
  0
LINE
  8
LAYE
 10
  -7.00698
 20
  41.43405
 30
    .00000
 11
  -7.00698
 21
  41.30405
 31
    .00000
  0
LINE
  8
LAYE
 10
  -7.00698
 20
  41.30405
 30
    .00000
 11
  -7.03198
 21
  41.34735
 31
    .00000
  0
LINE
  8
LAYE
 10
  -7.00698
 20
  41.30405
 30
    .00000
 11
  -6.98198
 21
  41.34735
 31
    .00000
  0
LINE
  8
LAYE
 10
  -7.25983
 20
  41.23482
 30
    .00000
 11
  -7.25983
 21
  41.18482
 31
    .00000
  0
LINE
  8
LAYE
 10
  -7.25983
 20
  41.18482
 30
    .00000
 11
  -7.28483
 21
  41.22812
 31
    .00000
  0
LINE
  8
LAYE
 10
  -7.25983
 20
  41.18482
 30
    .00000
 11
  -7.23483
 21
  41.22812
 31
    .00000
  0
LINE
  8
LAYE
 10
  -6.75854
 20
  41.21068
 30
    .00000
 11
  -6.75854
 21
  41.05068
 31
    .00000
  0
LINE
  8
LAYE
 10
  -6.75854
 20
  41.05068
 30
    .00000
 11
  -6.78354
 21
  41.09398
 31
    .00000
  0
LINE
  8
LAYE
 10
  -6.75854
 20
  41.05068
 30
    .00000
 11
  -6.73354
 21
  41.09398
 31
    .00000
  0
LINE
  8
LAYE
 10
  -6.32150
 20
  41.35772
 30
    .00000
 11
  -6.32150
 21
  40.09772
 31
    .00000
  0
LINE
  8
LAYE
 10
  -6.32150
 20
  40.09772
 30
    .00000
 11
  -6.34650
 21
  40.14102
 31
    .00000
  0
LINE
  8
LAYE
 10
  -6.32150
 20
  40.09772
 30
    .00000
 11
  -6.29650
 21
  40.14102
 31
    .00000
  0
LINE
  8
LAYE
 10
  -8.58721
 20
  41.10792
 30
    .00000
 11
  -8.58721
 21
  40.42792
 31
    .00000
  0
LINE
  8
LAYE
 10
  -8.58721
 20
  40.42792
 30
    .00000
 11
  -8.61221
 21
  40.47122
 31
    .00000
  0
LINE
  8
LAYE
 10
  -8.58721
 20
  40.42792
 30
    .00000
 11
  -8.56221
 21
  40.47122
 31
    .00000
  0
LINE
  8
LAYE
 10
  -8.28075
 20
  40.87517
 30
    .00000
 11
  -8.28075
 21
  40.55517
 31
    .00000
  0
LINE
  8
LAYE
 10
  -8.28075
 20
  40.55517
 30
    .00000
 11
  -8.30575
 21
  40.59847
 31
    .00000
  0
LINE
  8
LAYE
 10
  -8.28075
 20
  40.55517
 30
    .00000
 11
  -8.25575
 21
  40.59847
 31
    .00000
  0
LINE
  8
LAYE
 10
  -7.98782
 20
  40.97405
 30
    .00000
 11
  -7.98782
 21
  41.05405
 31
    .00000
  0
LINE
  8
LAYE
 10
  -7.98782
 20
  41.05405
 30
    .00000
 11
  -7.96282
 21
  41.01075
 31
    .00000
  0
LINE
  8
LAYE
 10
  -7.98782
 20
  41.05405
 30
    .00000
 11
  -8.01282
 21
  41.01075
 31
    .00000
  0
LINE
  8
LAYE
 10
  -7.65617
 20
  40.95564
 30
    .00000
 11
  -7.65617
 21
  41.09564
 31
    .00000
  0
LINE
  8
LAYE
 10
  -7.65617
 20
  41.09564
 30
    .00000
 11
  -7.63117
 21
  41.05234
 31
    .00000
  0
LINE
  8
LAYE
 10
  -7.65617
 20
  41.09564
 30
    .00000
 11
  -7.68117
 21
  41.05234
 31
    .00000
  0
LINE
  8
LAYE
 10
  -7.42414
 20
  40.77024
 30
    .00000
 11
  -7.42414
 21
  41.07024
 31
    .00000
  0
LINE
  8
LAYE
 10
  -7.42414
 20
  41.07024
 30
    .00000
 11
  -7.39914
 21
  41.02694
 31
    .00000
  0
LINE
  8
LAYE
 10
  -7.42414
 20
  41.07024
 30
    .00000
 11
  -7.44914
 21
  41.02694
 31
    .00000
  0
LINE
  8
LAYE
 10
  -6.99173
 20
  40.86412
 30
    .00000
 11
  -6.99173
 21
  40.94412
 31
    .00000
  0
LINE
  8
LAYE
 10
  -6.99173
 20
  40.94412
 30
    .00000
 11
  -6.96673
 21
  40.90082
 31
    .00000
  0
LINE
  8
LAYE
 10
  -6.99173
 20
  40.94412
 30
    .00000
 11
  -7.01673
 21
  40.90082
 31
    .00000
  0
LINE
  8
LAYE
 10
  -8.74784
 20
  40.64283
 30
    .00000
 11
  -8.74784
 21
  39.89283
 31
    .00000
  0
LINE
  8
LAYE
 10
  -8.74784
 20
  39.89283
 30
    .00000
 11
  -8.77284
 21
  39.93613
 31
    .00000
  0
LINE
  8
LAYE
 10
  -8.74784
 20
  39.89283
 30
    .00000
 11
  -8.72284
 21
  39.93613
 31
    .00000
  0
LINE
  8
LAYE
 10
  -8.80187
 20
  40.45969
 30
    .00000
 11
  -8.80187
 21
  39.89969
 31
    .00000
  0
LINE
  8
LAYE
 10
  -8.80187
 20
  39.89969
 30
    .00000
 11
  -8.82687
 21
  39.94299
 31
    .00000
  0
LINE
  8
LAYE
 10
  -8.80187
 20
  39.89969
 30
    .00000
 11
  -8.77687
 21
  39.94299
 31
    .00000
  0
LINE
  8
LAYE
 10
  -8.20205
 20
  40.54727
 30
    .00000
 11
  -8.20205
 21
  40.39727
 31
    .00000
  0
LINE
  8
LAYE
 10
  -8.20205
 20
  40.39727
 30
    .00000
 11
  -8.22705
 21
  40.44057
 31
    .00000
  0
LINE
  8
LAYE
 10
  -8.20205
 20
  40.39727
 30
    .00000
 11
  -8.17705
 21
  40.44057
 31
    .00000
  0
LINE
  8
LAYE
 10
  -7.74357
 20
  40.61243
 30
    .00000
 11
  -7.74357
 21
  40.23243
 31
    .00000
  0
LINE
  8
LAYE
 10
  -7.74357
 20
  40.23243
 30
    .00000
 11
  -7.76857
 21
  40.27573
 31
    .00000
  0
LINE
  8
LAYE
 10
  -7.74357
 20
  40.23243
 30
    .00000
 11
  -7.71857
 21
  40.27573
 31
    .00000
  0
LINE
  8
LAYE
 10
  -7.42522
 20
  40.53378
 30
    .00000
 11
  -7.42522
 21
  40.86378
 31
    .00000
  0
LINE
  8
LAYE
 10
  -7.42522
 20
  40.86378
 30
    .00000
 11
  -7.40022
 21
  40.82048
 31
    .00000
  0
LINE
  8
LAYE
 10
  -7.42522
 20
  40.86378
 30
    .00000
 11
  -7.45022
 21
  40.82048
 31
    .00000
  0
LINE
  8
LAYE
 10
  -7.13279
 20
  40.59123
 30
    .00000
 11
  -7.13279
 21
  40.86123
 31
    .00000
  0
LINE
  8
LAYE
 10
  -7.13279
 20
  40.86123
 30
    .00000
 11
  -7.10779
 21
  40.81793
 31
    .00000
  0
LINE
  8
LAYE
 10
  -7.13279
 20
  40.86123
 30
    .00000
 11
  -7.15779
 21
  40.81793
 31
    .00000
  0
LINE
  8
LAYE
 10
  -6.85588
 20
  40.60444
 30
    .00000
 11
  -6.85588
 21
  40.74444
 31
    .00000
  0
LINE
  8
LAYE
 10
  -6.85588
 20
  40.74444
 30
    .00000
 11
  -6.83088
 21
  40.70114
 31
    .00000
  0
LINE
  8
LAYE
 10
  -6.85588
 20
  40.74444
 30
    .00000
 11
  -6.88088
 21
  40.70114
 31
    .00000
  0
LINE
  8
LAYE
 10
  -6.87826
 20
  40.45484
 30
    .00000
 11
  -6.87826
 21
  40.63484
 31
    .00000
  0
LINE
  8
LAYE
 10
  -6.87826
 20
  40.63484
 30
    .00000
 11
  -6.85326
 21
  40.59154
 31
    .00000
  0
LINE
  8
LAYE
 10
  -6.87826
 20
  40.63484
 30
    .00000
 11
  -6.90326
 21
  40.59154
 31
    .00000
  0
LINE
  8
LAYE
 10
  -8.35468
 20
  40.36186
 30
    .00000
 11
  -8.35468
 21
  40.34186
 31
    .00000
  0
LINE
  8
LAYE
 10
  -8.35468
 20
  40.34186
 30
    .00000
 11
  -8.37968
 21
  40.38516
 31
    .00000
  0
LINE
  8
LAYE
 10
  -8.35468
 20
  40.34186
 30
    .00000
 11
  -8.32968
 21
  40.38516
 31
    .00000
  0
LINE
  8
LAYE
 10
  -8.85400
 20
  40.19557
 30
    .00000
 11
  -8.85400
 21
  39.48557
 31
    .00000
  0
LINE
  8
LAYE
 10
  -8.85400
 20
  39.48557
 30
    .00000
 11
  -8.87900
 21
  39.52887
 31
    .00000
  0
LINE
  8
LAYE
 10
  -8.85400
 20
  39.48557
 30
    .00000
 11
  -8.82900
 21
  39.52887
 31
    .00000
  0
LINE
  8
LAYE
 10
  -8.17913
 20
  40.08964
 30
    .00000
 11
  -8.17913
 21
  40.07964
 31
    .00000
  0
LINE
  8
LAYE
 10
  -8.17913
 20
  40.07964
 30
    .00000
 11
  -8.20413
 21
  40.12294
 31
    .00000
  0
LINE
  8
LAYE
 10
  -8.17913
 20
  40.07964
 30
    .00000
 11
  -8.15413
 21
  40.12294
 31
    .00000
  0
LINE
  8
LAYE
 10
  -7.93908
 20
  40.38584
 30
    .00000
 11
  -7.93908
 21
  40.16584
 31
    .00000
  0
LINE
  8
LAYE
 10
  -7.93908
 20
  40.16584
 30
    .00000
 11
  -7.96408
 21
  40.20914
 31
    .00000
  0
LINE
  8
LAYE
 10
  -7.93908
 20
  40.16584
 30
    .00000
 11
  -7.91408
 21
  40.20914
 31
    .00000
  0
LINE
  8
LAYE
 10
  -7.81803
 20
  40.21558
 30
    .00000
 11
  -7.81803
 21
  40.59558
 31
    .00000
  0
LINE
  8
LAYE
 10
  -7.81803
 20
  40.59558
 30
    .00000
 11
  -7.79303
 21
  40.55228
 31
    .00000
  0
LINE
  8
LAYE
 10
  -7.81803
 20
  40.59558
 30
    .00000
 11
  -7.84303
 21
  40.55228
 31
    .00000
  0
LINE
  8
LAYE
 10
  -7.61292
 20
  40.32190
 30
    .00000
 11
  -7.61292
 21
  41.30190
 31
    .00000
  0
LINE
  8
LAYE
 10
  -7.61292
 20
  41.30190
 30
    .00000
 11
  -7.58792
 21
  41.25860
 31
    .00000
  0
LINE
  8
LAYE
 10
  -7.61292
 20
  41.30190
 30
    .00000
 11
  -7.63792
 21
  41.25860
 31
    .00000
  0
LINE
  8
LAYE
 10
  -7.52500
 20
  40.08057
 30
    .00000
 11
  -7.52500
 21
  40.48057
 31
    .00000
  0
LINE
  8
LAYE
 10
  -7.52500
 20
  40.48057
 30
    .00000
 11
  -7.50000
 21
  40.43727
 31
    .00000
  0
LINE
  8
LAYE
 10
  -7.52500
 20
  40.48057
 30
    .00000
 11
  -7.55000
 21
  40.43727
 31
    .00000
  0
LINE
  8
LAYE
 10
  -7.18082
 20
  40.35140
 30
    .00000
 11
  -7.18082
 21
  40.59140
 31
    .00000
  0
LINE
  8
LAYE
 10
  -7.18082
 20
  40.59140
 30
    .00000
 11
  -7.15582
 21
  40.54810
 31
    .00000
  0
LINE
  8
LAYE
 10
  -7.18082
 20
  40.59140
 30
    .00000
 11
  -7.20582
 21
  40.54810
 31
    .00000
  0
LINE
  8
LAYE
 10
  -6.86023
 20
  40.27219
 30
    .00000
 11
  -6.86023
 21
  40.32219
 31
    .00000
  0
LINE
  8
LAYE
 10
  -6.86023
 20
  40.32219
 30
    .00000
 11
  -6.83523
 21
  40.27889
 31
    .00000
  0
LINE
  8
LAYE
 10
  -6.86023
 20
  40.32219
 30
    .00000
 11
  -6.88523
 21
  40.27889
 31
    .00000
  0
LINE
  8
LAYE
 10
  -7.11441
 20
  40.03577
 30
    .00000
 11
  -7.11441
 21
  40.06577
 31
    .00000
  0
LINE
  8
LAYE
 10
  -7.11441
 20
  40.06577
 30
    .00000
 11
  -7.08941
 21
  40.02247
 31
    .00000
  0
LINE
  8
LAYE
 10
  -7.11441
 20
  40.06577
 30
    .00000
 11
  -7.13941
 21
  40.02247
 31
    .00000
  0
LINE
  8
LAYE
 10
  -9.00254
 20
  39.68717
 30
    .00000
 11
  -9.00254
 21
  39.20717
 31
    .00000
  0
LINE
  8
LAYE
 10
  -9.00254
 20
  39.20717
 30
    .00000
 11
  -9.02754
 21
  39.25047
 31
    .00000
  0
LINE
  8
LAYE
 10
  -9.00254
 20
  39.20717
 30
    .00000
 11
  -8.97754
 21
  39.25047
 31
    .00000
  0
LINE
  8
LAYE
 10
  -8.84292
 20
  39.89207
 30
    .00000
 11
  -8.84292
 21
  39.37207
 31
    .00000
  0
LINE
  8
LAYE
 10
  -8.84292
 20
  39.37207
 30
    .00000
 11
  -8.86792
 21
  39.41537
 31
    .00000
  0
LINE
  8
LAYE
 10
  -8.84292
 20
  39.37207
 30
    .00000
 11
  -8.81792
 21
  39.41537
 31
    .00000
  0
LINE
  8
LAYE
 10
  -8.53994
 20
  39.92039
 30
    .00000
 11
  -8.53994
 21
  39.31039
 31
    .00000
  0
LINE
  8
LAYE
 10
  -8.53994
 20
  39.31039
 30
    .00000
 11
  -8.56494
 21
  39.35369
 31
    .00000
  0
LINE
  8
LAYE
 10
  -8.53994
 20
  39.31039
 30
    .00000
 11
  -8.51494
 21
  39.35369
 31
    .00000
  0
LINE
  8
LAYE
 10
  -7.92561
 20
  39.84859
 30
    .00000
 11
  -7.92561
 21
  40.04859
 31
    .00000
  0
LINE
  8
LAYE
 10
  -7.92561
 20
  40.04859
 30
    .00000
 11
  -7.90061
 21
  40.00529
 31
    .00000
  0
LINE
  8
LAYE
 10
  -7.92561
 20
  40.04859
 30
    .00000
 11
  -7.95061
 21
  40.00529
 31
    .00000
  0
LINE
  8
LAYE
 10
  -8.13015
 20
  39.69414
 30
    .00000
 11
  -8.13015
 21
  39.64414
 31
    .00000
  0
LINE
  8
LAYE
 10
  -8.13015
 20
  39.64414
 30
    .00000
 11
  -8.15515
 21
  39.68744
 31
    .00000
  0
LINE
  8
LAYE
 10
  -8.13015
 20
  39.64414
 30
    .00000
 11
  -8.10515
 21
  39.68744
 31
    .00000
  0
LINE
  8
LAYE
 10
  -7.46362
 20
  39.80297
 30
    .00000
 11
  -7.46362
 21
  39.95297
 31
    .00000
  0
LINE
  8
LAYE
 10
  -7.46362
 20
  39.95297
 30
    .00000
 11
  -7.43862
 21
  39.90967
 31
    .00000
  0
LINE
  8
LAYE
 10
  -7.46362
 20
  39.95297
 30
    .00000
 11
  -7.48862
 21
  39.90967
 31
    .00000
  0
LINE
  8
LAYE
 10
  -7.03998
 20
  39.73449
 30
    .00000
 11
  -7.03998
 21
  39.77449
 31
    .00000
  0
LINE
  8
LAYE
 10
  -7.03998
 20
  39.77449
 30
    .00000
 11
  -7.01498
 21
  39.73119
 31
    .00000
  0
LINE
  8
LAYE
 10
  -7.03998
 20
  39.77449
 30
    .00000
 11
  -7.06498
 21
  39.73119
 31
    .00000
  0
LINE
  8
LAYE
 10
  -9.40779
 20
  39.36060
 30
    .00000
 11
  -9.40779
 21
  38.87060
 31
    .00000
  0
LINE
  8
LAYE
 10
  -9.40779
 20
  38.87060
 30
    .00000
 11
  -9.43279
 21
  38.91390
 31
    .00000
  0
LINE
  8
LAYE
 10
  -9.40779
 20
  38.87060
 30
    .00000
 11
  -9.38279
 21
  38.91390
 31
    .00000
  0
LINE
  8
LAYE
 10
  -9.20115
 20
  39.45386
 30
    .00000
 11
  -9.20115
 21
  38.78386
 31
    .00000
  0
LINE
  8
LAYE
 10
  -9.20115
 20
  38.78386
 30
    .00000
 11
  -9.22615
 21
  38.82716
 31
    .00000
  0
LINE
  8
LAYE
 10
  -9.20115
 20
  38.78386
 30
    .00000
 11
  -9.17615
 21
  38.82716
 31
    .00000
  0
LINE
  8
LAYE
 10
  -8.91859
 20
  39.43742
 30
    .00000
 11
  -8.91859
 21
  39.13742
 31
    .00000
  0
LINE
  8
LAYE
 10
  -8.91859
 20
  39.13742
 30
    .00000
 11
  -8.94359
 21
  39.18072
 31
    .00000
  0
LINE
  8
LAYE
 10
  -8.91859
 20
  39.13742
 30
    .00000
 11
  -8.89359
 21
  39.18072
 31
    .00000
  0
LINE
  8
LAYE
 10
  -8.63660
 20
  39.53580
 30
    .00000
 11
  -8.63660
 21
  39.54580
 31
    .00000
  0
LINE
  8
LAYE
 10
  -8.63660
 20
  39.54580
 30
    .00000
 11
  -8.61160
 21
  39.50250
 31
    .00000
  0
LINE
  8
LAYE
 10
  -8.63660
 20
  39.54580
 30
    .00000
 11
  -8.66160
 21
  39.50250
 31
    .00000
  0
LINE
  8
LAYE
 10
  -8.29298
 20
  39.52093
 30
    .00000
 11
  -8.29298
 21
  39.37093
 31
    .00000
  0
LINE
  8
LAYE
 10
  -8.29298
 20
  39.37093
 30
    .00000
 11
  -8.31798
 21
  39.41423
 31
    .00000
  0
LINE
  8
LAYE
 10
  -8.29298
 20
  39.37093
 30
    .00000
 11
  -8.26798
 21
  39.41423
 31
    .00000
  0
LINE
  8
LAYE
 10
  -8.75043
 20
  39.33471
 30
    .00000
 11
  -8.75043
 21
  38.92471
 31
    .00000
  0
LINE
  8
LAYE
 10
  -8.75043
 20
  38.92471
 30
    .00000
 11
  -8.77543
 21
  38.96801
 31
    .00000
  0
LINE
  8
LAYE
 10
  -8.75043
 20
  38.92471
 30
    .00000
 11
  -8.72543
 21
  38.96801
 31
    .00000
  0
LINE
  8
LAYE
 10
  -8.41733
 20
  39.33616
 30
    .00000
 11
  -8.41733
 21
  39.06616
 31
    .00000
  0
LINE
  8
LAYE
 10
  -8.41733
 20
  39.06616
 30
    .00000
 11
  -8.44233
 21
  39.10946
 31
    .00000
  0
LINE
  8
LAYE
 10
  -8.41733
 20
  39.06616
 30
    .00000
 11
  -8.39233
 21
  39.10946
 31
    .00000
  0
LINE
  8
LAYE
 10
  -7.63005
 20
  39.57531
 30
    .00000
 11
  -7.63005
 21
  39.81531
 31
    .00000
  0
LINE
  8
LAYE
 10
  -7.63005
 20
  39.81531
 30
    .00000
 11
  -7.60505
 21
  39.77201
 31
    .00000
  0
LINE
  8
LAYE
 10
  -7.63005
 20
  39.81531
 30
    .00000
 11
  -7.65505
 21
  39.77201
 31
    .00000
  0
LINE
  8
LAYE
 10
  -8.01141
 20
  39.36705
 30
    .00000
 11
  -8.01141
 21
  39.31705
 31
    .00000
  0
LINE
  8
LAYE
 10
  -8.01141
 20
  39.31705
 30
    .00000
 11
  -8.03641
 21
  39.36035
 31
    .00000
  0
LINE
  8
LAYE
 10
  -8.01141
 20
  39.31705
 30
    .00000
 11
  -7.98641
 21
  39.36035
 31
    .00000
  0
LINE
  8
LAYE
 10
  -7.21631
 20
  39.60401
 30
    .00000
 11
  -7.21631
 21
  41.17401
 31
    .00000
  0
LINE
  8
LAYE
 10
  -7.21631
 20
  41.17401
 30
    .00000
 11
  -7.19131
 21
  41.13071
 31
    .00000
  0
LINE
  8
LAYE
 10
  -7.21631
 20
  41.17401
 30
    .00000
 11
  -7.24131
 21
  41.13071
 31
    .00000
  0
LINE
  8
LAYE
 10
  -7.36057
 20
  39.31350
 30
    .00000
 11
  -7.36057
 21
  39.98350
 31
    .00000
  0
LINE
  8
LAYE
 10
  -7.36057
 20
  39.98350
 30
    .00000
 11
  -7.33557
 21
  39.94020
 31
    .00000
  0
LINE
  8
LAYE
 10
  -7.36057
 20
  39.98350
 30
    .00000
 11
  -7.38557
 21
  39.94020
 31
    .00000
  0
LINE
  8
LAYE
 10
  -9.04854
 20
  39.17338
 30
    .00000
 11
  -9.04854
 21
  38.95338
 31
    .00000
  0
LINE
  8
LAYE
 10
  -9.04854
 20
  38.95338
 30
    .00000
 11
  -9.07354
 21
  38.99668
 31
    .00000
  0
LINE
  8
LAYE
 10
  -9.04854
 20
  38.95338
 30
    .00000
 11
  -9.02354
 21
  38.99668
 31
    .00000
  0
LINE
  8
LAYE
 10
  -9.31658
 20
  39.01234
 30
    .00000
 11
  -9.31658
 21
  38.63234
 31
    .00000
  0
LINE
  8
LAYE
 10
  -9.31658
 20
  38.63234
 30
    .00000
 11
  -9.34158
 21
  38.67564
 31
    .00000
  0
LINE
  8
LAYE
 10
  -9.31658
 20
  38.63234
 30
    .00000
 11
  -9.29158
 21
  38.67564
 31
    .00000
  0
LINE
  8
LAYE
 10
  -8.58665
 20
  39.14224
 30
    .00000
 11
  -8.58665
 21
  38.88224
 31
    .00000
  0
LINE
  8
LAYE
 10
  -8.58665
 20
  38.88224
 30
    .00000
 11
  -8.61165
 21
  38.92554
 31
    .00000
  0
LINE
  8
LAYE
 10
  -8.58665
 20
  38.88224
 30
    .00000
 11
  -8.56165
 21
  38.92554
 31
    .00000
  0
LINE
  8
LAYE
 10
  -8.18733
 20
  39.07731
 30
    .00000
 11
  -8.18733
 21
  39.13731
 31
    .00000
  0
LINE
  8
LAYE
 10
  -8.18733
 20
  39.13731
 30
    .00000
 11
  -8.16233
 21
  39.09401
 31
    .00000
  0
LINE
  8
LAYE
 10
  -8.18733
 20
  39.13731
 30
    .00000
 11
  -8.21233
 21
  39.09401
 31
    .00000
  0
LINE
  8
LAYE
 10
  -7.62273
 20
  39.18913
 30
    .00000
 11
  -7.62273
 21
  39.32913
 31
    .00000
  0
LINE
  8
LAYE
 10
  -7.62273
 20
  39.32913
 30
    .00000
 11
  -7.59773
 21
  39.28583
 31
    .00000
  0
LINE
  8
LAYE
 10
  -7.62273
 20
  39.32913
 30
    .00000
 11
  -7.64773
 21
  39.28583
 31
    .00000
  0
LINE
  8
LAYE
 10
  -7.10716
 20
  39.03111
 30
    .00000
 11
  -7.10716
 21
  38.82111
 31
    .00000
  0
LINE
  8
LAYE
 10
  -7.10716
 20
  38.82111
 30
    .00000
 11
  -7.13216
 21
  38.86441
 31
    .00000
  0
LINE
  8
LAYE
 10
  -7.10716
 20
  38.82111
 30
    .00000
 11
  -7.08216
 21
  38.86441
 31
    .00000
  0
LINE
  8
LAYE
 10
  -9.44149
 20
  38.77432
 30
    .00000
 11
  -9.44149
 21
  38.57432
 31
    .00000
  0
LINE
  8
LAYE
 10
  -9.44149
 20
  38.57432
 30
    .00000
 11
  -9.46649
 21
  38.61762
 31
    .00000
  0
LINE
  8
LAYE
 10
  -9.44149
 20
  38.57432
 30
    .00000
 11
  -9.41649
 21
  38.61762
 31
    .00000
  0
LINE
  8
LAYE
 10
  -9.09102
 20
  38.89424
 30
    .00000
 11
  -9.09102
 21
  38.63424
 31
    .00000
  0
LINE
  8
LAYE
 10
  -9.09102
 20
  38.63424
 30
    .00000
 11
  -9.11602
 21
  38.67754
 31
    .00000
  0
LINE
  8
LAYE
 10
  -9.09102
 20
  38.63424
 30
    .00000
 11
  -9.06602
 21
  38.67754
 31
    .00000
  0
LINE
  8
LAYE
 10
  -9.13316
 20
  38.71370
 30
    .00000
 11
  -9.13316
 21
  38.22370
 31
    .00000
  0
LINE
  8
LAYE
 10
  -9.13316
 20
  38.22370
 30
    .00000
 11
  -9.15816
 21
  38.26700
 31
    .00000
  0
LINE
  8
LAYE
 10
  -9.13316
 20
  38.22370
 30
    .00000
 11
  -9.10816
 21
  38.26700
 31
    .00000
  0
LINE
  8
LAYE
 10
  -8.51905
 20
  38.84057
 30
    .00000
 11
  -8.51905
 21
  38.56057
 31
    .00000
  0
LINE
  8
LAYE
 10
  -8.51905
 20
  38.56057
 30
    .00000
 11
  -8.54405
 21
  38.60387
 31
    .00000
  0
LINE
  8
LAYE
 10
  -8.51905
 20
  38.56057
 30
    .00000
 11
  -8.49405
 21
  38.60387
 31
    .00000
  0
LINE
  8
LAYE
 10
  -8.54012
 20
  38.68875
 30
    .00000
 11
  -8.54012
 21
  38.51875
 31
    .00000
  0
LINE
  8
LAYE
 10
  -8.54012
 20
  38.51875
 30
    .00000
 11
  -8.56512
 21
  38.56205
 31
    .00000
  0
LINE
  8
LAYE
 10
  -8.54012
 20
  38.51875
 30
    .00000
 11
  -8.51512
 21
  38.56205
 31
    .00000
  0
LINE
  8
LAYE
 10
  -7.65408
 20
  38.91634
 30
    .00000
 11
  -7.65408
 21
  38.72634
 31
    .00000
  0
LINE
  8
LAYE
 10
  -7.65408
 20
  38.72634
 30
    .00000
 11
  -7.67908
 21
  38.76964
 31
    .00000
  0
LINE
  8
LAYE
 10
  -7.65408
 20
  38.72634
 30
    .00000
 11
  -7.62908
 21
  38.76964
 31
    .00000
  0
LINE
  8
LAYE
 10
  -7.98813
 20
  38.72570
 30
    .00000
 11
  -7.98813
 21
  38.93570
 31
    .00000
  0
LINE
  8
LAYE
 10
  -7.98813
 20
  38.93570
 30
    .00000
 11
  -7.96313
 21
  38.89240
 31
    .00000
  0
LINE
  8
LAYE
 10
  -7.98813
 20
  38.93570
 30
    .00000
 11
  -8.01313
 21
  38.89240
 31
    .00000
  0
LINE
  8
LAYE
 10
  -7.58404
 20
  38.73951
 30
    .00000
 11
  -7.58404
 21
  39.00951
 31
    .00000
  0
LINE
  8
LAYE
 10
  -7.58404
 20
  39.00951
 30
    .00000
 11
  -7.55904
 21
  38.96621
 31
    .00000
  0
LINE
  8
LAYE
 10
  -7.58404
 20
  39.00951
 30
    .00000
 11
  -7.60904
 21
  38.96621
 31
    .00000
  0
LINE
  8
LAYE
 10
  -7.25875
 20
  38.83989
 30
    .00000
 11
  -7.25875
 21
  39.00989
 31
    .00000
  0
LINE
  8
LAYE
 10
  -7.25875
 20
  39.00989
 30
    .00000
 11
  -7.23375
 21
  38.96659
 31
    .00000
  0
LINE
  8
LAYE
 10
  -7.25875
 20
  39.00989
 30
    .00000
 11
  -7.28375
 21
  38.96659
 31
    .00000
  0
LINE
  8
LAYE
 10
  -8.90027
 20
  38.56616
 30
    .00000
 11
  -8.90027
 21
  38.29616
 31
    .00000
  0
LINE
  8
LAYE
 10
  -8.90027
 20
  38.29616
 30
    .00000
 11
  -8.92527
 21
  38.33946
 31
    .00000
  0
LINE
  8
LAYE
 10
  -8.90027
 20
  38.29616
 30
    .00000
 11
  -8.87527
 21
  38.33946
 31
    .00000
  0
LINE
  8
LAYE
 10
  -9.10678
 20
  38.45280
 30
    .00000
 11
  -9.10678
 21
  38.10280
 31
    .00000
  0
LINE
  8
LAYE
 10
  -9.10678
 20
  38.10280
 30
    .00000
 11
  -9.13178
 21
  38.14610
 31
    .00000
  0
LINE
  8
LAYE
 10
  -9.10678
 20
  38.10280
 30
    .00000
 11
  -9.08178
 21
  38.14610
 31
    .00000
  0
LINE
  8
LAYE
 10
  -8.52310
 20
  38.49190
 30
    .00000
 11
  -8.52310
 21
  38.37190
 31
    .00000
  0
LINE
  8
LAYE
 10
  -8.52310
 20
  38.37190
 30
    .00000
 11
  -8.54810
 21
  38.41520
 31
    .00000
  0
LINE
  8
LAYE
 10
  -8.52310
 20
  38.37190
 30
    .00000
 11
  -8.49810
 21
  38.41520
 31
    .00000
  0
LINE
  8
LAYE
 10
  -8.18995
 20
  38.56915
 30
    .00000
 11
  -8.18995
 21
  38.91915
 31
    .00000
  0
LINE
  8
LAYE
 10
  -8.18995
 20
  38.91915
 30
    .00000
 11
  -8.16495
 21
  38.87585
 31
    .00000
  0
LINE
  8
LAYE
 10
  -8.18995
 20
  38.91915
 30
    .00000
 11
  -8.21495
 21
  38.87585
 31
    .00000
  0
LINE
  8
LAYE
 10
  -8.23479
 20
  38.24582
 30
    .00000
 11
  -8.23479
 21
  38.42582
 31
    .00000
  0
LINE
  8
LAYE
 10
  -8.23479
 20
  38.42582
 30
    .00000
 11
  -8.20979
 21
  38.38252
 31
    .00000
  0
LINE
  8
LAYE
 10
  -8.23479
 20
  38.42582
 30
    .00000
 11
  -8.25979
 21
  38.38252
 31
    .00000
  0
LINE
  8
LAYE
 10
  -7.80087
 20
  38.44828
 30
    .00000
 11
  -7.80087
 21
  38.43828
 31
    .00000
  0
LINE
  8
LAYE
 10
  -7.80087
 20
  38.43828
 30
    .00000
 11
  -7.82587
 21
  38.48158
 31
    .00000
  0
LINE
  8
LAYE
 10
  -7.80087
 20
  38.43828
 30
    .00000
 11
  -7.77587
 21
  38.48158
 31
    .00000
  0
LINE
  8
LAYE
 10
  -7.78391
 20
  38.24618
 30
    .00000
 11
  -7.78391
 21
  38.53618
 31
    .00000
  0
LINE
  8
LAYE
 10
  -7.78391
 20
  38.53618
 30
    .00000
 11
  -7.75891
 21
  38.49288
 31
    .00000
  0
LINE
  8
LAYE
 10
  -7.78391
 20
  38.53618
 30
    .00000
 11
  -7.80891
 21
  38.49288
 31
    .00000
  0
LINE
  8
LAYE
 10
  -8.00515
 20
  38.32214
 30
    .00000
 11
  -8.00515
 21
  38.64214
 31
    .00000
  0
LINE
  8
LAYE
 10
  -8.00515
 20
  38.64214
 30
    .00000
 11
  -7.98015
 21
  38.59884
 31
    .00000
  0
LINE
  8
LAYE
 10
  -8.00515
 20
  38.64214
 30
    .00000
 11
  -8.03015
 21
  38.59884
 31
    .00000
  0
LINE
  8
LAYE
 10
  -7.38159
 20
  38.44237
 30
    .00000
 11
  -7.38159
 21
  38.45237
 31
    .00000
  0
LINE
  8
LAYE
 10
  -7.38159
 20
  38.45237
 30
    .00000
 11
  -7.35659
 21
  38.40907
 31
    .00000
  0
LINE
  8
LAYE
 10
  -7.38159
 20
  38.45237
 30
    .00000
 11
  -7.40659
 21
  38.40907
 31
    .00000
  0
LINE
  8
LAYE
 10
  -7.15384
 20
  38.22847
 30
    .00000
 11
  -7.15384
 21
  38.41847
 31
    .00000
  0
LINE
  8
LAYE
 10
  -7.15384
 20
  38.41847
 30
    .00000
 11
  -7.12884
 21
  38.37517
 31
    .00000
  0
LINE
  8
LAYE
 10
  -7.15384
 20
  38.41847
 30
    .00000
 11
  -7.17884
 21
  38.37517
 31
    .00000
  0
LINE
  8
LAYE
 10
  -8.64557
 20
  38.16926
 30
    .00000
 11
  -8.64557
 21
  38.33926
 31
    .00000
  0
LINE
  8
LAYE
 10
  -8.64557
 20
  38.33926
 30
    .00000
 11
  -8.62057
 21
  38.29596
 31
    .00000
  0
LINE
  8
LAYE
 10
  -8.64557
 20
  38.33926
 30
    .00000
 11
  -8.67057
 21
  38.29596
 31
    .00000
  0
LINE
  8
LAYE
 10
  -8.43560
 20
  38.05136
 30
    .00000
 11
  -8.43560
 21
  38.16136
 31
    .00000
  0
LINE
  8
LAYE
 10
  -8.43560
 20
  38.16136
 30
    .00000
 11
  -8.41060
 21
  38.11806
 31
    .00000
  0
LINE
  8
LAYE
 10
  -8.43560
 20
  38.16136
 30
    .00000
 11
  -8.46060
 21
  38.11806
 31
    .00000
  0
LINE
  8
LAYE
 10
  -8.16754
 20
  37.88158
 30
    .00000
 11
  -8.16754
 21
  38.04158
 31
    .00000
  0
LINE
  8
LAYE
 10
  -8.16754
 20
  38.04158
 30
    .00000
 11
  -8.14254
 21
  37.99828
 31
    .00000
  0
LINE
  8
LAYE
 10
  -8.16754
 20
  38.04158
 30
    .00000
 11
  -8.19254
 21
  37.99828
 31
    .00000
  0
LINE
  8
LAYE
 10
  -7.44611
 20
  38.09417
 30
    .00000
 11
  -7.44611
 21
  38.39417
 31
    .00000
  0
LINE
  8
LAYE
 10
  -7.44611
 20
  38.39417
 30
    .00000
 11
  -7.42111
 21
  38.35087
 31
    .00000
  0
LINE
  8
LAYE
 10
  -7.44611
 20
  38.39417
 30
    .00000
 11
  -7.47111
 21
  38.35087
 31
    .00000
  0
LINE
  8
LAYE
 10
  -7.86555
 20
  38.01732
 30
    .00000
 11
  -7.86555
 21
  38.29732
 31
    .00000
  0
LINE
  8
LAYE
 10
  -7.86555
 20
  38.29732
 30
    .00000
 11
  -7.84055
 21
  38.25402
 31
    .00000
  0
LINE
  8
LAYE
 10
  -7.86555
 20
  38.29732
 30
    .00000
 11
  -7.89055
 21
  38.25402
 31
    .00000
  0
LINE
  8
LAYE
 10
  -7.59349
 20
  37.92970
 30
    .00000
 11
  -7.59349
 21
  38.26970
 31
    .00000
  0
LINE
  8
LAYE
 10
  -7.59349
 20
  38.26970
 30
    .00000
 11
  -7.56849
 21
  38.22640
 31
    .00000
  0
LINE
  8
LAYE
 10
  -7.59349
 20
  38.26970
 30
    .00000
 11
  -7.61849
 21
  38.22640
 31
    .00000
  0
LINE
  8
LAYE
 10
  -7.28435
 20
  37.96437
 30
    .00000
 11
  -7.28435
 21
  39.13437
 31
    .00000
  0
LINE
  8
LAYE
 10
  -7.28435
 20
  39.13437
 30
    .00000
 11
  -7.25935
 21
  39.09107
 31
    .00000
  0
LINE
  8
LAYE
 10
  -7.28435
 20
  39.13437
 30
    .00000
 11
  -7.30935
 21
  39.09107
 31
    .00000
  0
LINE
  8
LAYE
 10
  -8.71875
 20
  37.79439
 30
    .00000
 11
  -8.71875
 21
  37.87439
 31
    .00000
  0
LINE
  8
LAYE
 10
  -8.71875
 20
  37.87439
 30
    .00000
 11
  -8.69375
 21
  37.83109
 31
    .00000
  0
LINE
  8
LAYE
 10
  -8.71875
 20
  37.87439
 30
    .00000
 11
  -8.74375
 21
  37.83109
 31
    .00000
  0
LINE
  8
LAYE
 10
  -8.42487
 20
  37.86601
 30
    .00000
 11
  -8.42487
 21
  38.01601
 31
    .00000
  0
LINE
  8
LAYE
 10
  -8.42487
 20
  38.01601
 30
    .00000
 11
  -8.39987
 21
  37.97271
 31
    .00000
  0
LINE
  8
LAYE
 10
  -8.42487
 20
  38.01601
 30
    .00000
 11
  -8.44987
 21
  37.97271
 31
    .00000
  0
LINE
  8
LAYE
 10
  -8.71673
 20
  37.50729
 30
    .00000
 11
  -8.71673
 21
  37.77729
 31
    .00000
  0
LINE
  8
LAYE
 10
  -8.71673
 20
  37.77729
 30
    .00000
 11
  -8.69173
 21
  37.73399
 31
    .00000
  0
LINE
  8
LAYE
 10
  -8.71673
 20
  37.77729
 30
    .00000
 11
  -8.74173
 21
  37.73399
 31
    .00000
  0
LINE
  8
LAYE
 10
  -8.38640
 20
  37.61504
 30
    .00000
 11
  -8.38640
 21
  37.87504
 31
    .00000
  0
LINE
  8
LAYE
 10
  -8.38640
 20
  37.87504
 30
    .00000
 11
  -8.36140
 21
  37.83174
 31
    .00000
  0
LINE
  8
LAYE
 10
  -8.38640
 20
  37.87504
 30
    .00000
 11
  -8.41140
 21
  37.83174
 31
    .00000
  0
LINE
  8
LAYE
 10
  -7.45052
 20
  37.79474
 30
    .00000
 11
  -7.45052
 21
  38.12474
 31
    .00000
  0
LINE
  8
LAYE
 10
  -7.45052
 20
  38.12474
 30
    .00000
 11
  -7.42552
 21
  38.08144
 31
    .00000
  0
LINE
  8
LAYE
 10
  -7.45052
 20
  38.12474
 30
    .00000
 11
  -7.47552
 21
  38.08144
 31
    .00000
  0
LINE
  8
LAYE
 10
  -7.76163
 20
  37.70038
 30
    .00000
 11
  -7.76163
 21
  38.08038
 31
    .00000
  0
LINE
  8
LAYE
 10
  -7.76163
 20
  38.08038
 30
    .00000
 11
  -7.73663
 21
  38.03708
 31
    .00000
  0
LINE
  8
LAYE
 10
  -7.76163
 20
  38.08038
 30
    .00000
 11
  -7.78663
 21
  38.03708
 31
    .00000
  0
LINE
  8
LAYE
 10
  -8.07268
 20
  37.61840
 30
    .00000
 11
  -8.07268
 21
  37.82840
 31
    .00000
  0
LINE
  8
LAYE
 10
  -8.07268
 20
  37.82840
 30
    .00000
 11
  -8.04768
 21
  37.78510
 31
    .00000
  0
LINE
  8
LAYE
 10
  -8.07268
 20
  37.82840
 30
    .00000
 11
  -8.09768
 21
  37.78510
 31
    .00000
  0
LINE
  8
LAYE
 10
  -7.45089
 20
  37.53873
 30
    .00000
 11
  -7.45089
 21
  37.17873
 31
    .00000
  0
LINE
  8
LAYE
 10
  -7.45089
 20
  37.17873
 30
    .00000
 11
  -7.47589
 21
  37.22203
 31
    .00000
  0
LINE
  8
LAYE
 10
  -7.45089
 20
  37.17873
 30
    .00000
 11
  -7.42589
 21
  37.22203
 31
    .00000
  0
LINE
  8
LAYE
 10
  -8.86016
 20
  37.28354
 30
    .00000
 11
  -8.86016
 21
  37.71354
 31
    .00000
  0
LINE
  8
LAYE
 10
  -8.86016
 20
  37.71354
 30
    .00000
 11
  -8.83516
 21
  37.67024
 31
    .00000
  0
LINE
  8
LAYE
 10
  -8.86016
 20
  37.71354
 30
    .00000
 11
  -8.88516
 21
  37.67024
 31
    .00000
  0
LINE
  8
LAYE
 10
  -8.59639
 20
  37.31556
 30
    .00000
 11
  -8.59639
 21
  38.23556
 31
    .00000
  0
LINE
  8
LAYE
 10
  -8.59639
 20
  38.23556
 30
    .00000
 11
  -8.57139
 21
  38.19226
 31
    .00000
  0
LINE
  8
LAYE
 10
  -8.59639
 20
  38.23556
 30
    .00000
 11
  -8.62139
 21
  38.19226
 31
    .00000
  0
LINE
  8
LAYE
 10
  -8.78024
 20
  37.21926
 30
    .00000
 11
  -8.78024
 21
  37.56926
 31
    .00000
  0
LINE
  8
LAYE
 10
  -8.78024
 20
  37.56926
 30
    .00000
 11
  -8.75524
 21
  37.52596
 31
    .00000
  0
LINE
  8
LAYE
 10
  -8.78024
 20
  37.56926
 30
    .00000
 11
  -8.80524
 21
  37.52596
 31
    .00000
  0
LINE
  8
LAYE
 10
  -8.08036
 20
  37.37074
 30
    .00000
 11
  -8.08036
 21
  38.15074
 31
    .00000
  0
LINE
  8
LAYE
 10
  -8.08036
 20
  38.15074
 30
    .00000
 11
  -8.05536
 21
  38.10744
 31
    .00000
  0
LINE
  8
LAYE
 10
  -8.08036
 20
  38.15074
 30
    .00000
 11
  -8.10536
 21
  38.10744
 31
    .00000
  0
LINE
  8
LAYE
 10
  -7.85131
 20
  37.48296
 30
    .00000
 11
  -7.85131
 21
  38.03296
 31
    .00000
  0
LINE
  8
LAYE
 10
  -7.85131
 20
  38.03296
 30
    .00000
 11
  -7.82631
 21
  37.98966
 31
    .00000
  0
LINE
  8
LAYE
 10
  -7.85131
 20
  38.03296
 30
    .00000
 11
  -7.87631
 21
  37.98966
 31
    .00000
  0
LINE
  8
LAYE
 10
  -7.40821
 20
  37.33173
 30
    .00000
 11
  -7.40821
 21
  36.93173
 31
    .00000
  0
LINE
  8
LAYE
 10
  -7.40821
 20
  36.93173
 30
    .00000
 11
  -7.43321
 21
  36.97503
 31
    .00000
  0
LINE
  8
LAYE
 10
  -7.40821
 20
  36.93173
 30
    .00000
 11
  -7.38321
 21
  36.97503
 31
    .00000
  0
LINE
  8
LAYE
 10
  -7.73905
 20
  37.24346
 30
    .00000
 11
  -7.73905
 21
  37.54346
 31
    .00000
  0
LINE
  8
LAYE
 10
  -7.73905
 20
  37.54346
 30
    .00000
 11
  -7.71405
 21
  37.50016
 31
    .00000
  0
LINE
  8
LAYE
 10
  -7.73905
 20
  37.54346
 30
    .00000
 11
  -7.76405
 21
  37.50016
 31
    .00000
  0
LINE
  8
LAYE
 10
  -7.48736
 20
  37.18656
 30
    .00000
 11
  -7.48736
 21
  36.82656
 31
    .00000
  0
LINE
  8
LAYE
 10
  -7.48736
 20
  36.82656
 30
    .00000
 11
  -7.51236
 21
  36.86986
 31
    .00000
  0
LINE
  8
LAYE
 10
  -7.48736
 20
  36.82656
 30
    .00000
 11
  -7.46236
 21
  36.86986
 31
    .00000
  0
LINE
  8
LAYE
 10
  -8.95176
 20
  37.08551
 30
    .00000
 11
  -8.95176
 21
  37.44551
 31
    .00000
  0
LINE
  8
LAYE
 10
  -8.95176
 20
  37.44551
 30
    .00000
 11
  -8.92676
 21
  37.40221
 31
    .00000
  0
LINE
  8
LAYE
 10
  -8.95176
 20
  37.44551
 30
    .00000
 11
  -8.97676
 21
  37.40221
 31
    .00000
  0
LINE
  8
LAYE
 10
  -8.71854
 20
  37.08815
 30
    .00000
 11
  -8.71854
 21
  37.32815
 31
    .00000
  0
LINE
  8
LAYE
 10
  -8.71854
 20
  37.32815
 30
    .00000
 11
  -8.69354
 21
  37.28485
 31
    .00000
  0
LINE
  8
LAYE
 10
  -8.71854
 20
  37.32815
 30
    .00000
 11
  -8.74354
 21
  37.28485
 31
    .00000
  0
LINE
  8
LAYE
 10
  -8.39457
 20
  37.13836
 30
    .00000
 11
  -8.39457
 21
  37.19836
 31
    .00000
  0
LINE
  8
LAYE
 10
  -8.39457
 20
  37.19836
 30
    .00000
 11
  -8.36957
 21
  37.15506
 31
    .00000
  0
LINE
  8
LAYE
 10
  -8.39457
 20
  37.19836
 30
    .00000
 11
  -8.41957
 21
  37.15506
 31
    .00000
  0
LINE
  8
LAYE
 10
  -7.93304
 20
  37.10118
 30
    .00000
 11
  -7.93304
 21
  37.21118
 31
    .00000
  0
LINE
  8
LAYE
 10
  -7.93304
 20
  37.21118
 30
    .00000
 11
  -7.90804
 21
  37.16788
 31
    .00000
  0
LINE
  8
LAYE
 10
  -7.93304
 20
  37.21118
 30
    .00000
 11
  -7.95804
 21
  37.16788
 31
    .00000
  0
LINE
  8
LAYE
 10
  -7.86518
 20
  36.97460
 30
    .00000
 11
  -7.86518
 21
  37.01460
 31
    .00000
  0
LINE
  8
LAYE
 10
  -7.86518
 20
  37.01460
 30
    .00000
 11
  -7.84018
 21
  36.97130
 31
    .00000
  0
LINE
  8
LAYE
 10
  -7.86518
 20
  37.01460
 30
    .00000
 11
  -7.89018
 21
  36.97130
 31
    .00000
  0
ENDSEC
  0
EOF
