  0
SECTION
  2
ENTITIES
  0
LINE
  8
LAYE
 10
  -8.67396
 20
  42.16832
 30
    .00000
 11
  -8.94496
 21
  41.84132
 31
    .00000
  0
LINE
  8
LAYE
 10
  -8.94496
 20
  41.84132
 30
    .00000
 11
  -8.93658
 21
  41.89061
 31
    .00000
  0
LINE
  8
LAYE
 10
  -8.94496
 20
  41.84132
 30
    .00000
 11
  -8.89808
 21
  41.85871
 31
    .00000
  0
LINE
  8
LAYE
 10
  -8.38670
 20
  42.15791
 30
    .00000
 11
  -8.64970
 21
  41.92591
 31
    .00000
  0
LINE
  8
LAYE
 10
  -8.64970
 20
  41.92591
 30
    .00000
 11
  -8.63377
 21
  41.97330
 31
    .00000
  0
LINE
  8
LAYE
 10
  -8.64970
 20
  41.92591
 30
    .00000
 11
  -8.60069
 21
  41.93581
 31
    .00000
  0
LINE
  8
LAYE
 10
  -8.70003
 20
  41.95297
 30
    .00000
 11
  -8.84703
 21
  41.63897
 31
    .00000
  0
LINE
  8
LAYE
 10
  -8.84703
 20
  41.63897
 30
    .00000
 11
  -8.85131
 21
  41.68879
 31
    .00000
  0
LINE
  8
LAYE
 10
  -8.84703
 20
  41.63897
 30
    .00000
 11
  -8.80603
 21
  41.66759
 31
    .00000
  0
LINE
  8
LAYE
 10
  -8.85692
 20
  41.92422
 30
    .00000
 11
  -9.00192
 21
  41.56222
 31
    .00000
  0
LINE
  8
LAYE
 10
  -9.00192
 20
  41.56222
 30
    .00000
 11
  -9.00903
 21
  41.61171
 31
    .00000
  0
LINE
  8
LAYE
 10
  -9.00192
 20
  41.56222
 30
    .00000
 11
  -8.96261
 21
  41.59312
 31
    .00000
  0
LINE
  8
LAYE
 10
  -8.28742
 20
  41.99568
 30
    .00000
 11
  -8.48942
 21
  41.72968
 31
    .00000
  0
LINE
  8
LAYE
 10
  -8.48942
 20
  41.72968
 30
    .00000
 11
  -8.48314
 21
  41.77928
 31
    .00000
  0
LINE
  8
LAYE
 10
  -8.48942
 20
  41.72968
 30
    .00000
 11
  -8.44332
 21
  41.74905
 31
    .00000
  0
LINE
  8
LAYE
 10
  -7.68682
 20
  41.89608
 30
    .00000
 11
  -8.02182
 21
  41.73908
 31
    .00000
  0
LINE
  8
LAYE
 10
  -8.02182
 20
  41.73908
 30
    .00000
 11
  -7.99322
 21
  41.78009
 31
    .00000
  0
LINE
  8
LAYE
 10
  -8.02182
 20
  41.73908
 30
    .00000
 11
  -7.97200
 21
  41.73482
 31
    .00000
  0
LINE
  8
LAYE
 10
  -6.97010
 20
  41.90613
 30
    .00000
 11
  -7.30510
 21
  41.99313
 31
    .00000
  0
LINE
  8
LAYE
 10
  -7.30510
 20
  41.99313
 30
    .00000
 11
  -7.25690
 21
  42.00644
 31
    .00000
  0
LINE
  8
LAYE
 10
  -7.30510
 20
  41.99313
 30
    .00000
 11
  -7.26947
 21
  41.95805
 31
    .00000
  0
LINE
  8
LAYE
 10
  -7.29622
 20
  41.85040
 30
    .00000
 11
  -7.66622
 21
  41.83240
 31
    .00000
  0
LINE
  8
LAYE
 10
  -7.66622
 20
  41.83240
 30
    .00000
 11
  -7.62418
 21
  41.85947
 31
    .00000
  0
LINE
  8
LAYE
 10
  -7.66622
 20
  41.83240
 30
    .00000
 11
  -7.62176
 21
  41.80953
 31
    .00000
  0
LINE
  8
LAYE
 10
  -6.55669
 20
  41.83504
 30
    .00000
 11
  -6.90069
 21
  41.97904
 31
    .00000
  0
LINE
  8
LAYE
 10
  -6.90069
 20
  41.97904
 30
    .00000
 11
  -6.85109
 21
  41.98538
 31
    .00000
  0
LINE
  8
LAYE
 10
  -6.90069
 20
  41.97904
 30
    .00000
 11
  -6.87040
 21
  41.93926
 31
    .00000
  0
LINE
  8
LAYE
 10
  -8.79880
 20
  41.80285
 30
    .00000
 11
  -8.88880
 21
  41.40385
 31
    .00000
  0
LINE
  8
LAYE
 10
  -8.88880
 20
  41.40385
 30
    .00000
 11
  -8.90366
 21
  41.45159
 31
    .00000
  0
LINE
  8
LAYE
 10
  -8.88880
 20
  41.40385
 30
    .00000
 11
  -8.85488
 21
  41.44059
 31
    .00000
  0
LINE
  8
LAYE
 10
  -8.44407
 20
  41.75441
 30
    .00000
 11
  -8.59707
 21
  41.49741
 31
    .00000
  0
LINE
  8
LAYE
 10
  -8.59707
 20
  41.49741
 30
    .00000
 11
  -8.59640
 21
  41.54741
 31
    .00000
  0
LINE
  8
LAYE
 10
  -8.59707
 20
  41.49741
 30
    .00000
 11
  -8.55344
 21
  41.52183
 31
    .00000
  0
LINE
  8
LAYE
 10
  -8.02709
 20
  41.65347
 30
    .00000
 11
  -8.18909
 21
  41.50847
 31
    .00000
  0
LINE
  8
LAYE
 10
  -8.18909
 20
  41.50847
 30
    .00000
 11
  -8.17350
 21
  41.55598
 31
    .00000
  0
LINE
  8
LAYE
 10
  -8.18909
 20
  41.50847
 30
    .00000
 11
  -8.14015
 21
  41.51872
 31
    .00000
  0
LINE
  8
LAYE
 10
  -7.49509
 20
  41.56591
 30
    .00000
 11
  -7.71509
 21
  41.52891
 31
    .00000
  0
LINE
  8
LAYE
 10
  -7.71509
 20
  41.52891
 30
    .00000
 11
  -7.67653
 21
  41.56075
 31
    .00000
  0
LINE
  8
LAYE
 10
  -7.71509
 20
  41.52891
 30
    .00000
 11
  -7.66824
 21
  41.51144
 31
    .00000
  0
LINE
  8
LAYE
 10
  -6.82771
 20
  41.70488
 30
    .00000
 11
  -7.10571
 21
  41.82888
 31
    .00000
  0
LINE
  8
LAYE
 10
  -7.10571
 20
  41.82888
 30
    .00000
 11
  -7.05598
 21
  41.83407
 31
    .00000
  0
LINE
  8
LAYE
 10
  -7.10571
 20
  41.82888
 30
    .00000
 11
  -7.07635
 21
  41.78841
 31
    .00000
  0
LINE
  8
LAYE
 10
  -6.27802
 20
  41.64628
 30
    .00000
 11
  -6.56802
 21
  41.81328
 31
    .00000
  0
LINE
  8
LAYE
 10
  -6.56802
 20
  41.81328
 30
    .00000
 11
  -6.51802
 21
  41.81334
 31
    .00000
  0
LINE
  8
LAYE
 10
  -6.56802
 20
  41.81328
 30
    .00000
 11
  -6.54297
 21
  41.77001
 31
    .00000
  0
LINE
  8
LAYE
 10
  -6.53730
 20
  41.51166
 30
    .00000
 11
  -6.79830
 21
  41.70666
 31
    .00000
  0
LINE
  8
LAYE
 10
  -6.79830
 20
  41.70666
 30
    .00000
 11
  -6.74865
 21
  41.70077
 31
    .00000
  0
LINE
  8
LAYE
 10
  -6.79830
 20
  41.70666
 30
    .00000
 11
  -6.77857
 21
  41.66072
 31
    .00000
  0
LINE
  8
LAYE
 10
  -8.71460
 20
  41.45697
 30
    .00000
 11
  -8.72160
 21
  41.23697
 31
    .00000
  0
LINE
  8
LAYE
 10
  -8.72160
 20
  41.23697
 30
    .00000
 11
  -8.74521
 21
  41.28104
 31
    .00000
  0
LINE
  8
LAYE
 10
  -8.72160
 20
  41.23697
 30
    .00000
 11
  -8.69524
 21
  41.27945
 31
    .00000
  0
LINE
  8
LAYE
 10
  -8.37910
 20
  41.33766
 30
    .00000
 11
  -8.44810
 21
  41.19966
 31
    .00000
  0
LINE
  8
LAYE
 10
  -8.44810
 20
  41.19966
 30
    .00000
 11
  -8.45110
 21
  41.24957
 31
    .00000
  0
LINE
  8
LAYE
 10
  -8.44810
 20
  41.19966
 30
    .00000
 11
  -8.40637
 21
  41.22721
 31
    .00000
  0
LINE
  8
LAYE
 10
  -8.26000
 20
  41.17880
 30
    .00000
 11
  -8.29400
 21
  41.06580
 31
    .00000
  0
LINE
  8
LAYE
 10
  -8.29400
 20
  41.06580
 30
    .00000
 11
  -8.30546
 21
  41.11447
 31
    .00000
  0
LINE
  8
LAYE
 10
  -8.29400
 20
  41.06580
 30
    .00000
 11
  -8.25758
 21
  41.10006
 31
    .00000
  0
LINE
  8
LAYE
 10
  -7.88281
 20
  41.25487
 30
    .00000
 11
  -7.92381
 21
  41.19087
 31
    .00000
  0
LINE
  8
LAYE
 10
  -7.92381
 20
  41.19087
 30
    .00000
 11
  -7.92150
 21
  41.24082
 31
    .00000
  0
LINE
  8
LAYE
 10
  -7.92381
 20
  41.19087
 30
    .00000
 11
  -7.87940
 21
  41.21385
 31
    .00000
  0
LINE
  8
LAYE
 10
  -6.98728
 20
  41.42455
 30
    .00000
 11
  -7.18428
 21
  41.51955
 31
    .00000
  0
LINE
  8
LAYE
 10
  -7.18428
 20
  41.51955
 30
    .00000
 11
  -7.13442
 21
  41.52326
 31
    .00000
  0
LINE
  8
LAYE
 10
  -7.18428
 20
  41.51955
 30
    .00000
 11
  -7.15614
 21
  41.47822
 31
    .00000
  0
LINE
  8
LAYE
 10
  -7.24293
 20
  41.23392
 30
    .00000
 11
  -7.41193
 21
  41.24292
 31
    .00000
  0
LINE
  8
LAYE
 10
  -7.41193
 20
  41.24292
 30
    .00000
 11
  -7.36736
 21
  41.26558
 31
    .00000
  0
LINE
  8
LAYE
 10
  -7.41193
 20
  41.24292
 30
    .00000
 11
  -7.37002
 21
  41.21565
 31
    .00000
  0
LINE
  8
LAYE
 10
  -6.73584
 20
  41.19498
 30
    .00000
 11
  -6.96284
 21
  41.35198
 31
    .00000
  0
LINE
  8
LAYE
 10
  -6.96284
 20
  41.35198
 30
    .00000
 11
  -6.91301
 21
  41.34791
 31
    .00000
  0
LINE
  8
LAYE
 10
  -6.96284
 20
  41.35198
 30
    .00000
 11
  -6.94145
 21
  41.30679
 31
    .00000
  0
LINE
  8
LAYE
 10
  -6.30130
 20
  41.33582
 30
    .00000
 11
  -6.50330
 21
  41.55482
 31
    .00000
  0
LINE
  8
LAYE
 10
  -6.50330
 20
  41.55482
 30
    .00000
 11
  -6.45557
 21
  41.53994
 31
    .00000
  0
LINE
  8
LAYE
 10
  -6.50330
 20
  41.55482
 30
    .00000
 11
  -6.49232
 21
  41.50604
 31
    .00000
  0
LINE
  8
LAYE
 10
  -8.59031
 20
  41.12152
 30
    .00000
 11
  -8.55931
 21
  40.98552
 31
    .00000
  0
LINE
  8
LAYE
 10
  -8.55931
 20
  40.98552
 30
    .00000
 11
  -8.59331
 21
  41.02218
 31
    .00000
  0
LINE
  8
LAYE
 10
  -8.55931
 20
  40.98552
 30
    .00000
 11
  -8.54456
 21
  41.03329
 31
    .00000
  0
LINE
  8
LAYE
 10
  -8.28165
 20
  40.88097
 30
    .00000
 11
  -8.27265
 21
  40.82297
 31
    .00000
  0
LINE
  8
LAYE
 10
  -8.27265
 20
  40.82297
 30
    .00000
 11
  -8.30399
 21
  40.86193
 31
    .00000
  0
LINE
  8
LAYE
 10
  -8.27265
 20
  40.82297
 30
    .00000
 11
  -8.25459
 21
  40.86959
 31
    .00000
  0
LINE
  8
LAYE
 10
  -7.99012
 20
  40.97705
 30
    .00000
 11
  -7.96712
 21
  40.94705
 31
    .00000
  0
LINE
  8
LAYE
 10
  -7.96712
 20
  40.94705
 30
    .00000
 11
  -8.01331
 21
  40.96620
 31
    .00000
  0
LINE
  8
LAYE
 10
  -7.96712
 20
  40.94705
 30
    .00000
 11
  -7.97363
 21
  40.99662
 31
    .00000
  0
LINE
  8
LAYE
 10
  -7.65667
 20
  40.95394
 30
    .00000
 11
  -7.65167
 21
  40.97094
 31
    .00000
  0
LINE
  8
LAYE
 10
  -7.65167
 20
  40.97094
 30
    .00000
 11
  -7.63990
 21
  40.92234
 31
    .00000
  0
LINE
  8
LAYE
 10
  -7.65167
 20
  40.97094
 30
    .00000
 11
  -7.68787
 21
  40.93645
 31
    .00000
  0
LINE
  8
LAYE
 10
  -7.42824
 20
  40.76594
 30
    .00000
 11
  -7.38724
 21
  40.80894
 31
    .00000
  0
LINE
  8
LAYE
 10
  -7.38724
 20
  40.80894
 30
    .00000
 11
  -7.39903
 21
  40.76035
 31
    .00000
  0
LINE
  8
LAYE
 10
  -7.38724
 20
  40.80894
 30
    .00000
 11
  -7.43521
 21
  40.79485
 31
    .00000
  0
LINE
  8
LAYE
 10
  -6.98363
 20
  40.85192
 30
    .00000
 11
  -7.06463
 21
  40.97392
 31
    .00000
  0
LINE
  8
LAYE
 10
  -7.06463
 20
  40.97392
 30
    .00000
 11
  -7.01985
 21
  40.95167
 31
    .00000
  0
LINE
  8
LAYE
 10
  -7.06463
 20
  40.97392
 30
    .00000
 11
  -7.06151
 21
  40.92402
 31
    .00000
  0
LINE
  8
LAYE
 10
  -8.75854
 20
  40.65263
 30
    .00000
 11
  -8.65154
 21
  40.55463
 31
    .00000
  0
LINE
  8
LAYE
 10
  -8.65154
 20
  40.55463
 30
    .00000
 11
  -8.70036
 21
  40.56544
 31
    .00000
  0
LINE
  8
LAYE
 10
  -8.65154
 20
  40.55463
 30
    .00000
 11
  -8.66659
 21
  40.60231
 31
    .00000
  0
LINE
  8
LAYE
 10
  -8.81807
 20
  40.46169
 30
    .00000
 11
  -8.65607
 21
  40.44169
 31
    .00000
  0
LINE
  8
LAYE
 10
  -8.65607
 20
  40.44169
 30
    .00000
 11
  -8.70211
 21
  40.42218
 31
    .00000
  0
LINE
  8
LAYE
 10
  -8.65607
 20
  40.44169
 30
    .00000
 11
  -8.69598
 21
  40.47181
 31
    .00000
  0
LINE
  8
LAYE
 10
  -8.21225
 20
  40.55067
 30
    .00000
 11
  -8.11025
 21
  40.51667
 31
    .00000
  0
LINE
  8
LAYE
 10
  -8.11025
 20
  40.51667
 30
    .00000
 11
  -8.15923
 21
  40.50665
 31
    .00000
  0
LINE
  8
LAYE
 10
  -8.11025
 20
  40.51667
 30
    .00000
 11
  -8.14342
 21
  40.55408
 31
    .00000
  0
LINE
  8
LAYE
 10
  -7.76467
 20
  40.60203
 30
    .00000
 11
  -7.55367
 21
  40.70603
 31
    .00000
  0
LINE
  8
LAYE
 10
  -7.55367
 20
  40.70603
 30
    .00000
 11
  -7.58146
 21
  40.66446
 31
    .00000
  0
LINE
  8
LAYE
 10
  -7.55367
 20
  40.70603
 30
    .00000
 11
  -7.60356
 21
  40.70931
 31
    .00000
  0
LINE
  8
LAYE
 10
  -7.42942
 20
  40.52258
 30
    .00000
 11
  -7.38742
 21
  40.63458
 31
    .00000
  0
LINE
  8
LAYE
 10
  -7.38742
 20
  40.63458
 30
    .00000
 11
  -7.37922
 21
  40.58526
 31
    .00000
  0
LINE
  8
LAYE
 10
  -7.38742
 20
  40.63458
 30
    .00000
 11
  -7.42603
 21
  40.60281
 31
    .00000
  0
LINE
  8
LAYE
 10
  -7.13369
 20
  40.57783
 30
    .00000
 11
  -7.12469
 21
  40.71183
 31
    .00000
  0
LINE
  8
LAYE
 10
  -7.12469
 20
  40.71183
 30
    .00000
 11
  -7.10265
 21
  40.66695
 31
    .00000
  0
LINE
  8
LAYE
 10
  -7.12469
 20
  40.71183
 30
    .00000
 11
  -7.15254
 21
  40.67030
 31
    .00000
  0
LINE
  8
LAYE
 10
  -6.85768
 20
  40.58634
 30
    .00000
 11
  -6.83968
 21
  40.76734
 31
    .00000
  0
LINE
  8
LAYE
 10
  -6.83968
 20
  40.76734
 30
    .00000
 11
  -6.81909
 21
  40.72178
 31
    .00000
  0
LINE
  8
LAYE
 10
  -6.83968
 20
  40.76734
 30
    .00000
 11
  -6.86884
 21
  40.72673
 31
    .00000
  0
LINE
  8
LAYE
 10
  -6.88366
 20
  40.43724
 30
    .00000
 11
  -6.82966
 21
  40.61324
 31
    .00000
  0
LINE
  8
LAYE
 10
  -6.82966
 20
  40.61324
 30
    .00000
 11
  -6.81846
 21
  40.56451
 31
    .00000
  0
LINE
  8
LAYE
 10
  -6.82966
 20
  40.61324
 30
    .00000
 11
  -6.86626
 21
  40.57918
 31
    .00000
  0
LINE
  8
LAYE
 10
  -8.37048
 20
  40.36216
 30
    .00000
 11
  -8.21248
 21
  40.35916
 31
    .00000
  0
LINE
  8
LAYE
 10
  -8.21248
 20
  40.35916
 30
    .00000
 11
  -8.25625
 21
  40.33499
 31
    .00000
  0
LINE
  8
LAYE
 10
  -8.21248
 20
  40.35916
 30
    .00000
 11
  -8.25530
 21
  40.38498
 31
    .00000
  0
LINE
  8
LAYE
 10
  -8.87530
 20
  40.19727
 30
    .00000
 11
  -8.66230
 21
  40.18027
 31
    .00000
  0
LINE
  8
LAYE
 10
  -8.66230
 20
  40.18027
 30
    .00000
 11
  -8.70745
 21
  40.15879
 31
    .00000
  0
LINE
  8
LAYE
 10
  -8.66230
 20
  40.18027
 30
    .00000
 11
  -8.70348
 21
  40.20864
 31
    .00000
  0
LINE
  8
LAYE
 10
  -8.19113
 20
  40.08454
 30
    .00000
 11
  -8.07113
 21
  40.13554
 31
    .00000
  0
LINE
  8
LAYE
 10
  -8.07113
 20
  40.13554
 30
    .00000
 11
  -8.10120
 21
  40.09559
 31
    .00000
  0
LINE
  8
LAYE
 10
  -8.07113
 20
  40.13554
 30
    .00000
 11
  -8.12076
 21
  40.14161
 31
    .00000
  0
LINE
  8
LAYE
 10
  -7.95218
 20
  40.38274
 30
    .00000
 11
  -7.82118
 21
  40.41374
 31
    .00000
  0
LINE
  8
LAYE
 10
  -7.82118
 20
  40.41374
 30
    .00000
 11
  -7.85756
 21
  40.37944
 31
    .00000
  0
LINE
  8
LAYE
 10
  -7.82118
 20
  40.41374
 30
    .00000
 11
  -7.86907
 21
  40.42810
 31
    .00000
  0
LINE
  8
LAYE
 10
  -7.82993
 20
  40.20468
 30
    .00000
 11
  -7.71093
 21
  40.31368
 31
    .00000
  0
LINE
  8
LAYE
 10
  -7.71093
 20
  40.31368
 30
    .00000
 11
  -7.72597
 21
  40.26600
 31
    .00000
  0
LINE
  8
LAYE
 10
  -7.71093
 20
  40.31368
 30
    .00000
 11
  -7.75975
 21
  40.30287
 31
    .00000
  0
LINE
  8
LAYE
 10
  -7.62272
 20
  40.31170
 30
    .00000
 11
  -7.52472
 21
  40.41370
 31
    .00000
  0
LINE
  8
LAYE
 10
  -7.52472
 20
  40.41370
 30
    .00000
 11
  -7.53669
 21
  40.36515
 31
    .00000
  0
LINE
  8
LAYE
 10
  -7.52472
 20
  40.41370
 30
    .00000
 11
  -7.57275
 21
  40.39980
 31
    .00000
  0
LINE
  8
LAYE
 10
  -7.53920
 20
  40.07237
 30
    .00000
 11
  -7.39720
 21
  40.15437
 31
    .00000
  0
LINE
  8
LAYE
 10
  -7.39720
 20
  40.15437
 30
    .00000
 11
  -7.42220
 21
  40.11107
 31
    .00000
  0
LINE
  8
LAYE
 10
  -7.39720
 20
  40.15437
 30
    .00000
 11
  -7.44720
 21
  40.15437
 31
    .00000
  0
LINE
  8
LAYE
 10
  -7.19052
 20
  40.34080
 30
    .00000
 11
  -7.09352
 21
  40.44680
 31
    .00000
  0
LINE
  8
LAYE
 10
  -7.09352
 20
  40.44680
 30
    .00000
 11
  -7.10431
 21
  40.39798
 31
    .00000
  0
LINE
  8
LAYE
 10
  -7.09352
 20
  40.44680
 30
    .00000
 11
  -7.14120
 21
  40.43173
 31
    .00000
  0
LINE
  8
LAYE
 10
  -6.87303
 20
  40.25679
 30
    .00000
 11
  -6.74503
 21
  40.41079
 31
    .00000
  0
LINE
  8
LAYE
 10
  -6.74503
 20
  40.41079
 30
    .00000
 11
  -6.75348
 21
  40.36151
 31
    .00000
  0
LINE
  8
LAYE
 10
  -6.74503
 20
  40.41079
 30
    .00000
 11
  -6.79193
 21
  40.39347
 31
    .00000
  0
LINE
  8
LAYE
 10
  -7.13001
 20
  40.01847
 30
    .00000
 11
  -6.97401
 21
  40.19147
 31
    .00000
  0
LINE
  8
LAYE
 10
  -6.97401
 20
  40.19147
 30
    .00000
 11
  -6.98444
 21
  40.14257
 31
    .00000
  0
LINE
  8
LAYE
 10
  -6.97401
 20
  40.19147
 30
    .00000
 11
  -7.02157
 21
  40.17605
 31
    .00000
  0
LINE
  8
LAYE
 10
  -9.02604
 20
  39.67097
 30
    .00000
 11
  -8.79104
 21
  39.83297
 31
    .00000
  0
LINE
  8
LAYE
 10
  -8.79104
 20
  39.83297
 30
    .00000
 11
  -8.81250
 21
  39.78781
 31
    .00000
  0
LINE
  8
LAYE
 10
  -8.79104
 20
  39.83297
 30
    .00000
 11
  -8.84088
 21
  39.82898
 31
    .00000
  0
LINE
  8
LAYE
 10
  -8.85952
 20
  39.88577
 30
    .00000
 11
  -8.69352
 21
  39.94877
 31
    .00000
  0
LINE
  8
LAYE
 10
  -8.69352
 20
  39.94877
 30
    .00000
 11
  -8.72513
 21
  39.91003
 31
    .00000
  0
LINE
  8
LAYE
 10
  -8.69352
 20
  39.94877
 30
    .00000
 11
  -8.74287
 21
  39.95678
 31
    .00000
  0
LINE
  8
LAYE
 10
  -8.54874
 20
  39.91169
 30
    .00000
 11
  -8.46074
 21
  39.99869
 31
    .00000
  0
LINE
  8
LAYE
 10
  -8.46074
 20
  39.99869
 30
    .00000
 11
  -8.47396
 21
  39.95047
 31
    .00000
  0
LINE
  8
LAYE
 10
  -8.46074
 20
  39.99869
 30
    .00000
 11
  -8.50911
 21
  39.98603
 31
    .00000
  0
LINE
  8
LAYE
 10
  -7.93981
 20
  39.83769
 30
    .00000
 11
  -7.79781
 21
  39.94669
 31
    .00000
  0
LINE
  8
LAYE
 10
  -7.79781
 20
  39.94669
 30
    .00000
 11
  -7.81694
 21
  39.90049
 31
    .00000
  0
LINE
  8
LAYE
 10
  -7.79781
 20
  39.94669
 30
    .00000
 11
  -7.84738
 21
  39.94015
 31
    .00000
  0
LINE
  8
LAYE
 10
  -8.15225
 20
  39.68154
 30
    .00000
 11
  -7.93125
 21
  39.80754
 31
    .00000
  0
LINE
  8
LAYE
 10
  -7.93125
 20
  39.80754
 30
    .00000
 11
  -7.95648
 21
  39.76438
 31
    .00000
  0
LINE
  8
LAYE
 10
  -7.93125
 20
  39.80754
 30
    .00000
 11
  -7.98125
 21
  39.80781
 31
    .00000
  0
LINE
  8
LAYE
 10
  -7.48202
 20
  39.79347
 30
    .00000
 11
  -7.29802
 21
  39.88847
 31
    .00000
  0
LINE
  8
LAYE
 10
  -7.29802
 20
  39.88847
 30
    .00000
 11
  -7.32503
 21
  39.84639
 31
    .00000
  0
LINE
  8
LAYE
 10
  -7.29802
 20
  39.88847
 30
    .00000
 11
  -7.34796
 21
  39.89082
 31
    .00000
  0
LINE
  8
LAYE
 10
  -7.06258
 20
  39.71659
 30
    .00000
 11
  -6.83658
 21
  39.89559
 31
    .00000
  0
LINE
  8
LAYE
 10
  -6.83658
 20
  39.89559
 30
    .00000
 11
  -6.85500
 21
  39.84911
 31
    .00000
  0
LINE
  8
LAYE
 10
  -6.83658
 20
  39.89559
 30
    .00000
 11
  -6.88605
 21
  39.88830
 31
    .00000
  0
LINE
  8
LAYE
 10
  -9.44009
 20
  39.34240
 30
    .00000
 11
  -9.11709
 21
  39.52440
 31
    .00000
  0
LINE
  8
LAYE
 10
  -9.11709
 20
  39.52440
 30
    .00000
 11
  -9.14254
 21
  39.48136
 31
    .00000
  0
LINE
  8
LAYE
 10
  -9.11709
 20
  39.52440
 30
    .00000
 11
  -9.16709
 21
  39.52492
 31
    .00000
  0
LINE
  8
LAYE
 10
  -9.23705
 20
  39.43916
 30
    .00000
 11
  -8.87805
 21
  39.58616
 31
    .00000
  0
LINE
  8
LAYE
 10
  -8.87805
 20
  39.58616
 30
    .00000
 11
  -8.90865
 21
  39.54662
 31
    .00000
  0
LINE
  8
LAYE
 10
  -8.87805
 20
  39.58616
 30
    .00000
 11
  -8.92760
 21
  39.59289
 31
    .00000
  0
LINE
  8
LAYE
 10
  -8.94379
 20
  39.42542
 30
    .00000
 11
  -8.69179
 21
  39.54542
 31
    .00000
  0
LINE
  8
LAYE
 10
  -8.69179
 20
  39.54542
 30
    .00000
 11
  -8.72014
 21
  39.50423
 31
    .00000
  0
LINE
  8
LAYE
 10
  -8.69179
 20
  39.54542
 30
    .00000
 11
  -8.74163
 21
  39.54937
 31
    .00000
  0
LINE
  8
LAYE
 10
  -8.65240
 20
  39.52340
 30
    .00000
 11
  -8.49440
 21
  39.64740
 31
    .00000
  0
LINE
  8
LAYE
 10
  -8.49440
 20
  39.64740
 30
    .00000
 11
  -8.51303
 21
  39.60100
 31
    .00000
  0
LINE
  8
LAYE
 10
  -8.49440
 20
  39.64740
 30
    .00000
 11
  -8.54390
 21
  39.64033
 31
    .00000
  0
LINE
  8
LAYE
 10
  -8.31078
 20
  39.50943
 30
    .00000
 11
  -8.13278
 21
  39.62443
 31
    .00000
  0
LINE
  8
LAYE
 10
  -8.13278
 20
  39.62443
 30
    .00000
 11
  -8.15558
 21
  39.57993
 31
    .00000
  0
LINE
  8
LAYE
 10
  -8.13278
 20
  39.62443
 30
    .00000
 11
  -8.18272
 21
  39.62193
 31
    .00000
  0
LINE
  8
LAYE
 10
  -8.76843
 20
  39.32151
 30
    .00000
 11
  -8.58843
 21
  39.45351
 31
    .00000
  0
LINE
  8
LAYE
 10
  -8.58843
 20
  39.45351
 30
    .00000
 11
  -8.60856
 21
  39.40774
 31
    .00000
  0
LINE
  8
LAYE
 10
  -8.58843
 20
  39.45351
 30
    .00000
 11
  -8.63813
 21
  39.44806
 31
    .00000
  0
LINE
  8
LAYE
 10
  -8.43613
 20
  39.32326
 30
    .00000
 11
  -8.24813
 21
  39.45226
 31
    .00000
  0
LINE
  8
LAYE
 10
  -8.24813
 20
  39.45226
 30
    .00000
 11
  -8.26969
 21
  39.40715
 31
    .00000
  0
LINE
  8
LAYE
 10
  -8.24813
 20
  39.45226
 30
    .00000
 11
  -8.29798
 21
  39.44837
 31
    .00000
  0
LINE
  8
LAYE
 10
  -7.65365
 20
  39.55981
 30
    .00000
 11
  -7.41765
 21
  39.71481
 31
    .00000
  0
LINE
  8
LAYE
 10
  -7.41765
 20
  39.71481
 30
    .00000
 11
  -7.44012
 21
  39.67014
 31
    .00000
  0
LINE
  8
LAYE
 10
  -7.41765
 20
  39.71481
 30
    .00000
 11
  -7.46757
 21
  39.71194
 31
    .00000
  0
LINE
  8
LAYE
 10
  -8.03221
 20
  39.35545
 30
    .00000
 11
  -7.82421
 21
  39.47145
 31
    .00000
  0
LINE
  8
LAYE
 10
  -7.82421
 20
  39.47145
 30
    .00000
 11
  -7.84985
 21
  39.42853
 31
    .00000
  0
LINE
  8
LAYE
 10
  -7.82421
 20
  39.47145
 30
    .00000
 11
  -7.87420
 21
  39.47219
 31
    .00000
  0
LINE
  8
LAYE
 10
  -7.24751
 20
  39.59291
 30
    .00000
 11
  -6.93551
 21
  39.70391
 31
    .00000
  0
LINE
  8
LAYE
 10
  -6.93551
 20
  39.70391
 30
    .00000
 11
  -6.96793
 21
  39.66584
 31
    .00000
  0
LINE
  8
LAYE
 10
  -6.93551
 20
  39.70391
 30
    .00000
 11
  -6.98469
 21
  39.71295
 31
    .00000
  0
LINE
  8
LAYE
 10
  -7.38887
 20
  39.30010
 30
    .00000
 11
  -7.10587
 21
  39.43410
 31
    .00000
  0
LINE
  8
LAYE
 10
  -7.10587
 20
  39.43410
 30
    .00000
 11
  -7.13431
 21
  39.39297
 31
    .00000
  0
LINE
  8
LAYE
 10
  -7.10587
 20
  39.43410
 30
    .00000
 11
  -7.15570
 21
  39.43816
 31
    .00000
  0
LINE
  8
LAYE
 10
  -9.07524
 20
  39.15758
 30
    .00000
 11
  -8.80824
 21
  39.31558
 31
    .00000
  0
LINE
  8
LAYE
 10
  -8.80824
 20
  39.31558
 30
    .00000
 11
  -8.83277
 21
  39.27201
 31
    .00000
  0
LINE
  8
LAYE
 10
  -8.80824
 20
  39.31558
 30
    .00000
 11
  -8.85824
 21
  39.31504
 31
    .00000
  0
LINE
  8
LAYE
 10
  -9.33708
 20
  38.99284
 30
    .00000
 11
  -9.13208
 21
  39.18784
 31
    .00000
  0
LINE
  8
LAYE
 10
  -9.13208
 20
  39.18784
 30
    .00000
 11
  -9.14622
 21
  39.13988
 31
    .00000
  0
LINE
  8
LAYE
 10
  -9.13208
 20
  39.18784
 30
    .00000
 11
  -9.18068
 21
  39.17611
 31
    .00000
  0
LINE
  8
LAYE
 10
  -8.60665
 20
  39.12884
 30
    .00000
 11
  -8.40665
 21
  39.26284
 31
    .00000
  0
LINE
  8
LAYE
 10
  -8.40665
 20
  39.26284
 30
    .00000
 11
  -8.42871
 21
  39.21797
 31
    .00000
  0
LINE
  8
LAYE
 10
  -8.40665
 20
  39.26284
 30
    .00000
 11
  -8.45654
 21
  39.25951
 31
    .00000
  0
LINE
  8
LAYE
 10
  -8.20803
 20
  39.06601
 30
    .00000
 11
  -8.00103
 21
  39.17901
 31
    .00000
  0
LINE
  8
LAYE
 10
  -8.00103
 20
  39.17901
 30
    .00000
 11
  -8.02706
 21
  39.13632
 31
    .00000
  0
LINE
  8
LAYE
 10
  -8.00103
 20
  39.17901
 30
    .00000
 11
  -8.05102
 21
  39.18021
 31
    .00000
  0
LINE
  8
LAYE
 10
  -7.64823
 20
  39.17963
 30
    .00000
 11
  -7.39323
 21
  39.27463
 31
    .00000
  0
LINE
  8
LAYE
 10
  -7.39323
 20
  39.27463
 30
    .00000
 11
  -7.42508
 21
  39.23609
 31
    .00000
  0
LINE
  8
LAYE
 10
  -7.39323
 20
  39.27463
 30
    .00000
 11
  -7.44253
 21
  39.28294
 31
    .00000
  0
LINE
  8
LAYE
 10
  -7.13936
 20
  39.02421
 30
    .00000
 11
  -6.81736
 21
  39.09321
 31
    .00000
  0
LINE
  8
LAYE
 10
  -6.81736
 20
  39.09321
 30
    .00000
 11
  -6.85446
 21
  39.05969
 31
    .00000
  0
LINE
  8
LAYE
 10
  -6.81736
 20
  39.09321
 30
    .00000
 11
  -6.86494
 21
  39.10858
 31
    .00000
  0
LINE
  8
LAYE
 10
  -9.45659
 20
  38.75502
 30
    .00000
 11
  -9.30559
 21
  38.94802
 31
    .00000
  0
LINE
  8
LAYE
 10
  -9.30559
 20
  38.94802
 30
    .00000
 11
  -9.31258
 21
  38.89851
 31
    .00000
  0
LINE
  8
LAYE
 10
  -9.30559
 20
  38.94802
 30
    .00000
 11
  -9.35196
 21
  38.92932
 31
    .00000
  0
LINE
  8
LAYE
 10
  -9.10952
 20
  38.87564
 30
    .00000
 11
  -8.92452
 21
  39.06164
 31
    .00000
  0
LINE
  8
LAYE
 10
  -8.92452
 20
  39.06164
 30
    .00000
 11
  -8.93733
 21
  39.01331
 31
    .00000
  0
LINE
  8
LAYE
 10
  -8.92452
 20
  39.06164
 30
    .00000
 11
  -8.97278
 21
  39.04857
 31
    .00000
  0
LINE
  8
LAYE
 10
  -9.14706
 20
  38.69690
 30
    .00000
 11
  -9.00806
 21
  38.86490
 31
    .00000
  0
LINE
  8
LAYE
 10
  -9.00806
 20
  38.86490
 30
    .00000
 11
  -9.01640
 21
  38.81560
 31
    .00000
  0
LINE
  8
LAYE
 10
  -9.00806
 20
  38.86490
 30
    .00000
 11
  -9.05493
 21
  38.84747
 31
    .00000
  0
LINE
  8
LAYE
 10
  -8.53895
 20
  38.82697
 30
    .00000
 11
  -8.33995
 21
  38.96297
 31
    .00000
  0
LINE
  8
LAYE
 10
  -8.33995
 20
  38.96297
 30
    .00000
 11
  -8.36159
 21
  38.91790
 31
    .00000
  0
LINE
  8
LAYE
 10
  -8.33995
 20
  38.96297
 30
    .00000
 11
  -8.38981
 21
  38.95918
 31
    .00000
  0
LINE
  8
LAYE
 10
  -8.55432
 20
  38.67285
 30
    .00000
 11
  -8.41232
 21
  38.83185
 31
    .00000
  0
LINE
  8
LAYE
 10
  -8.41232
 20
  38.83185
 30
    .00000
 11
  -8.42252
 21
  38.78290
 31
    .00000
  0
LINE
  8
LAYE
 10
  -8.41232
 20
  38.83185
 30
    .00000
 11
  -8.45981
 21
  38.81621
 31
    .00000
  0
LINE
  8
LAYE
 10
  -7.67828
 20
  38.90644
 30
    .00000
 11
  -7.43628
 21
  39.00544
 31
    .00000
  0
LINE
  8
LAYE
 10
  -7.43628
 20
  39.00544
 30
    .00000
 11
  -7.46689
 21
  38.96591
 31
    .00000
  0
LINE
  8
LAYE
 10
  -7.43628
 20
  39.00544
 30
    .00000
 11
  -7.48582
 21
  39.01218
 31
    .00000
  0
LINE
  8
LAYE
 10
  -8.00783
 20
  38.71440
 30
    .00000
 11
  -7.81083
 21
  38.82740
 31
    .00000
  0
LINE
  8
LAYE
 10
  -7.81083
 20
  38.82740
 30
    .00000
 11
  -7.83595
 21
  38.78417
 31
    .00000
  0
LINE
  8
LAYE
 10
  -7.81083
 20
  38.82740
 30
    .00000
 11
  -7.86083
 21
  38.82754
 31
    .00000
  0
LINE
  8
LAYE
 10
  -7.60824
 20
  38.73291
 30
    .00000
 11
  -7.36624
 21
  38.79891
 31
    .00000
  0
LINE
  8
LAYE
 10
  -7.36624
 20
  38.79891
 30
    .00000
 11
  -7.40144
 21
  38.76340
 31
    .00000
  0
LINE
  8
LAYE
 10
  -7.36624
 20
  38.79891
 30
    .00000
 11
  -7.41459
 21
  38.81164
 31
    .00000
  0
LINE
  8
LAYE
 10
  -7.28525
 20
  38.83289
 30
    .00000
 11
  -7.02025
 21
  38.90289
 31
    .00000
  0
LINE
  8
LAYE
 10
  -7.02025
 20
  38.90289
 30
    .00000
 11
  -7.05573
 21
  38.86766
 31
    .00000
  0
LINE
  8
LAYE
 10
  -7.02025
 20
  38.90289
 30
    .00000
 11
  -7.06850
 21
  38.91600
 31
    .00000
  0
LINE
  8
LAYE
 10
  -8.91377
 20
  38.54786
 30
    .00000
 11
  -8.77877
 21
  38.73086
 31
    .00000
  0
LINE
  8
LAYE
 10
  -8.77877
 20
  38.73086
 30
    .00000
 11
  -8.78436
 21
  38.68117
 31
    .00000
  0
LINE
  8
LAYE
 10
  -8.77877
 20
  38.73086
 30
    .00000
 11
  -8.82459
 21
  38.71086
 31
    .00000
  0
LINE
  8
LAYE
 10
  -9.11568
 20
  38.43360
 30
    .00000
 11
  -9.02668
 21
  38.62560
 31
    .00000
  0
LINE
  8
LAYE
 10
  -9.02668
 20
  38.62560
 30
    .00000
 11
  -9.02221
 21
  38.57580
 31
    .00000
  0
LINE
  8
LAYE
 10
  -9.02668
 20
  38.62560
 30
    .00000
 11
  -9.06757
 21
  38.59683
 31
    .00000
  0
LINE
  8
LAYE
 10
  -8.53280
 20
  38.48070
 30
    .00000
 11
  -8.43580
 21
  38.59270
 31
    .00000
  0
LINE
  8
LAYE
 10
  -8.43580
 20
  38.59270
 30
    .00000
 11
  -8.44525
 21
  38.54360
 31
    .00000
  0
LINE
  8
LAYE
 10
  -8.43580
 20
  38.59270
 30
    .00000
 11
  -8.48305
 21
  38.57633
 31
    .00000
  0
LINE
  8
LAYE
 10
  -8.20345
 20
  38.55995
 30
    .00000
 11
  -8.06845
 21
  38.65195
 31
    .00000
  0
LINE
  8
LAYE
 10
  -8.06845
 20
  38.65195
 30
    .00000
 11
  -8.09015
 21
  38.60691
 31
    .00000
  0
LINE
  8
LAYE
 10
  -8.06845
 20
  38.65195
 30
    .00000
 11
  -8.11831
 21
  38.64822
 31
    .00000
  0
LINE
  8
LAYE
 10
  -8.24379
 20
  38.23692
 30
    .00000
 11
  -8.15379
 21
  38.32592
 31
    .00000
  0
LINE
  8
LAYE
 10
  -8.15379
 20
  38.32592
 30
    .00000
 11
  -8.16700
 21
  38.27770
 31
    .00000
  0
LINE
  8
LAYE
 10
  -8.15379
 20
  38.32592
 30
    .00000
 11
  -8.20216
 21
  38.31325
 31
    .00000
  0
LINE
  8
LAYE
 10
  -7.81797
 20
  38.44308
 30
    .00000
 11
  -7.64697
 21
  38.49508
 31
    .00000
  0
LINE
  8
LAYE
 10
  -7.64697
 20
  38.49508
 30
    .00000
 11
  -7.68112
 21
  38.45856
 31
    .00000
  0
LINE
  8
LAYE
 10
  -7.64697
 20
  38.49508
 30
    .00000
 11
  -7.69567
 21
  38.50640
 31
    .00000
  0
LINE
  8
LAYE
 10
  -7.79801
 20
  38.24248
 30
    .00000
 11
  -7.65701
 21
  38.27948
 31
    .00000
  0
LINE
  8
LAYE
 10
  -7.65701
 20
  38.27948
 30
    .00000
 11
  -7.69255
 21
  38.24431
 31
    .00000
  0
LINE
  8
LAYE
 10
  -7.65701
 20
  38.27948
 30
    .00000
 11
  -7.70524
 21
  38.29267
 31
    .00000
  0
LINE
  8
LAYE
 10
  -8.01765
 20
  38.31544
 30
    .00000
 11
  -7.89265
 21
  38.38244
 31
    .00000
  0
LINE
  8
LAYE
 10
  -7.89265
 20
  38.38244
 30
    .00000
 11
  -7.91900
 21
  38.33995
 31
    .00000
  0
LINE
  8
LAYE
 10
  -7.89265
 20
  38.38244
 30
    .00000
 11
  -7.94263
 21
  38.38402
 31
    .00000
  0
LINE
  8
LAYE
 10
  -7.40329
 20
  38.44117
 30
    .00000
 11
  -7.18629
 21
  38.45317
 31
    .00000
  0
LINE
  8
LAYE
 10
  -7.18629
 20
  38.45317
 30
    .00000
 11
  -7.22814
 21
  38.42582
 31
    .00000
  0
LINE
  8
LAYE
 10
  -7.18629
 20
  38.45317
 30
    .00000
 11
  -7.23091
 21
  38.47574
 31
    .00000
  0
LINE
  8
LAYE
 10
  -7.17564
 20
  38.23157
 30
    .00000
 11
  -6.95764
 21
  38.20057
 31
    .00000
  0
LINE
  8
LAYE
 10
  -6.95764
 20
  38.20057
 30
    .00000
 11
  -7.00403
 21
  38.18192
 31
    .00000
  0
LINE
  8
LAYE
 10
  -6.95764
 20
  38.20057
 30
    .00000
 11
  -6.99699
 21
  38.23142
 31
    .00000
  0
LINE
  8
LAYE
 10
  -8.65047
 20
  38.15626
 30
    .00000
 11
  -8.60147
 21
  38.28626
 31
    .00000
  0
LINE
  8
LAYE
 10
  -8.60147
 20
  38.28626
 30
    .00000
 11
  -8.59335
 21
  38.23692
 31
    .00000
  0
LINE
  8
LAYE
 10
  -8.60147
 20
  38.28626
 30
    .00000
 11
  -8.64014
 21
  38.25456
 31
    .00000
  0
LINE
  8
LAYE
 10
  -8.43680
 20
  38.04166
 30
    .00000
 11
  -8.42480
 21
  38.13866
 31
    .00000
  0
LINE
  8
LAYE
 10
  -8.42480
 20
  38.13866
 30
    .00000
 11
  -8.40531
 21
  38.09262
 31
    .00000
  0
LINE
  8
LAYE
 10
  -8.42480
 20
  38.13866
 30
    .00000
 11
  -8.45493
 21
  38.09876
 31
    .00000
  0
LINE
  8
LAYE
 10
  -8.16714
 20
  37.87918
 30
    .00000
 11
  -8.17114
 21
  37.90318
 31
    .00000
  0
LINE
  8
LAYE
 10
  -8.17114
 20
  37.90318
 30
    .00000
 11
  -8.13936
 21
  37.86458
 31
    .00000
  0
LINE
  8
LAYE
 10
  -8.17114
 20
  37.90318
 30
    .00000
 11
  -8.18868
 21
  37.85636
 31
    .00000
  0
LINE
  8
LAYE
 10
  -7.46501
 20
  38.09687
 30
    .00000
 11
  -7.27601
 21
  38.06987
 31
    .00000
  0
LINE
  8
LAYE
 10
  -7.27601
 20
  38.06987
 30
    .00000
 11
  -7.32241
 21
  38.05124
 31
    .00000
  0
LINE
  8
LAYE
 10
  -7.27601
 20
  38.06987
 30
    .00000
 11
  -7.31534
 21
  38.10074
 31
    .00000
  0
LINE
  8
LAYE
 10
  -7.87455
 20
  38.01662
 30
    .00000
 11
  -7.78455
 21
  38.02362
 31
    .00000
  0
LINE
  8
LAYE
 10
  -7.78455
 20
  38.02362
 30
    .00000
 11
  -7.82578
 21
  37.99534
 31
    .00000
  0
LINE
  8
LAYE
 10
  -7.78455
 20
  38.02362
 30
    .00000
 11
  -7.82966
 21
  38.04519
 31
    .00000
  0
LINE
  8
LAYE
 10
  -7.61049
 20
  37.93340
 30
    .00000
 11
  -7.44049
 21
  37.89640
 31
    .00000
  0
LINE
  8
LAYE
 10
  -7.44049
 20
  37.89640
 30
    .00000
 11
  -7.48812
 21
  37.88118
 31
    .00000
  0
LINE
  8
LAYE
 10
  -7.44049
 20
  37.89640
 30
    .00000
 11
  -7.47748
 21
  37.93004
 31
    .00000
  0
LINE
  8
LAYE
 10
  -7.30505
 20
  37.97067
 30
    .00000
 11
  -7.09805
 21
  37.90767
 31
    .00000
  0
LINE
  8
LAYE
 10
  -7.09805
 20
  37.90767
 30
    .00000
 11
  -7.14675
 21
  37.89636
 31
    .00000
  0
LINE
  8
LAYE
 10
  -7.09805
 20
  37.90767
 30
    .00000
 11
  -7.13220
 21
  37.94419
 31
    .00000
  0
LINE
  8
LAYE
 10
  -8.70785
 20
  37.78519
 30
    .00000
 11
  -8.81685
 21
  37.87719
 31
    .00000
  0
LINE
  8
LAYE
 10
  -8.81685
 20
  37.87719
 30
    .00000
 11
  -8.76763
 21
  37.86837
 31
    .00000
  0
LINE
  8
LAYE
 10
  -8.81685
 20
  37.87719
 30
    .00000
 11
  -8.79988
 21
  37.83016
 31
    .00000
  0
LINE
  8
LAYE
 10
  -8.42227
 20
  37.86221
 30
    .00000
 11
  -8.44827
 21
  37.90021
 31
    .00000
  0
LINE
  8
LAYE
 10
  -8.44827
 20
  37.90021
 30
    .00000
 11
  -8.40319
 21
  37.87859
 31
    .00000
  0
LINE
  8
LAYE
 10
  -8.44827
 20
  37.90021
 30
    .00000
 11
  -8.44445
 21
  37.85036
 31
    .00000
  0
LINE
  8
LAYE
 10
  -8.69453
 20
  37.50369
 30
    .00000
 11
  -8.91653
 21
  37.53969
 31
    .00000
  0
LINE
  8
LAYE
 10
  -8.91653
 20
  37.53969
 30
    .00000
 11
  -8.86979
 21
  37.55744
 31
    .00000
  0
LINE
  8
LAYE
 10
  -8.91653
 20
  37.53969
 30
    .00000
 11
  -8.87779
 21
  37.50808
 31
    .00000
  0
LINE
  8
LAYE
 10
  -8.37970
 20
  37.61384
 30
    .00000
 11
  -8.44670
 21
  37.62584
 31
    .00000
  0
LINE
  8
LAYE
 10
  -8.44670
 20
  37.62584
 30
    .00000
 11
  -8.39967
 21
  37.64281
 31
    .00000
  0
LINE
  8
LAYE
 10
  -8.44670
 20
  37.62584
 30
    .00000
 11
  -8.40848
 21
  37.59360
 31
    .00000
  0
LINE
  8
LAYE
 10
  -7.46762
 20
  37.80314
 30
    .00000
 11
  -7.29662
 21
  37.71914
 31
    .00000
  0
LINE
  8
LAYE
 10
  -7.29662
 20
  37.71914
 30
    .00000
 11
  -7.34651
 21
  37.71579
 31
    .00000
  0
LINE
  8
LAYE
 10
  -7.29662
 20
  37.71914
 30
    .00000
 11
  -7.32446
 21
  37.76067
 31
    .00000
  0
LINE
  8
LAYE
 10
  -7.76983
 20
  37.70948
 30
    .00000
 11
  -7.68783
 21
  37.61848
 31
    .00000
  0
LINE
  8
LAYE
 10
  -7.68783
 20
  37.61848
 30
    .00000
 11
  -7.73539
 21
  37.63391
 31
    .00000
  0
LINE
  8
LAYE
 10
  -7.68783
 20
  37.61848
 30
    .00000
 11
  -7.69824
 21
  37.66738
 31
    .00000
  0
LINE
  8
LAYE
 10
  -8.07658
 20
  37.62500
 30
    .00000
 11
  -8.03758
 21
  37.55900
 31
    .00000
  0
LINE
  8
LAYE
 10
  -8.03758
 20
  37.55900
 30
    .00000
 11
  -8.08113
 21
  37.58356
 31
    .00000
  0
LINE
  8
LAYE
 10
  -8.03758
 20
  37.55900
 30
    .00000
 11
  -8.03809
 21
  37.60900
 31
    .00000
  0
LINE
  8
LAYE
 10
  -7.46129
 20
  37.55613
 30
    .00000
 11
  -7.35729
 21
  37.38213
 31
    .00000
  0
LINE
  8
LAYE
 10
  -7.35729
 20
  37.38213
 30
    .00000
 11
  -7.40096
 21
  37.40647
 31
    .00000
  0
LINE
  8
LAYE
 10
  -7.35729
 20
  37.38213
 30
    .00000
 11
  -7.35805
 21
  37.43212
 31
    .00000
  0
LINE
  8
LAYE
 10
  -8.82886
 20
  37.27824
 30
    .00000
 11
  -9.14186
 21
  37.33124
 31
    .00000
  0
LINE
  8
LAYE
 10
  -9.14186
 20
  37.33124
 30
    .00000
 11
  -9.09499
 21
  37.34866
 31
    .00000
  0
LINE
  8
LAYE
 10
  -9.14186
 20
  37.33124
 30
    .00000
 11
  -9.10334
 21
  37.29936
 31
    .00000
  0
LINE
  8
LAYE
 10
  -8.57429
 20
  37.31576
 30
    .00000
 11
  -8.79529
 21
  37.31376
 31
    .00000
  0
LINE
  8
LAYE
 10
  -8.79529
 20
  37.31376
 30
    .00000
 11
  -8.75222
 21
  37.33915
 31
    .00000
  0
LINE
  8
LAYE
 10
  -8.79529
 20
  37.31376
 30
    .00000
 11
  -8.75176
 21
  37.28915
 31
    .00000
  0
LINE
  8
LAYE
 10
  -8.74734
 20
  37.21706
 30
    .00000
 11
  -9.07634
 21
  37.23906
 31
    .00000
  0
LINE
  8
LAYE
 10
  -9.07634
 20
  37.23906
 30
    .00000
 11
  -9.03147
 21
  37.26112
 31
    .00000
  0
LINE
  8
LAYE
 10
  -9.07634
 20
  37.23906
 30
    .00000
 11
  -9.03480
 21
  37.21123
 31
    .00000
  0
LINE
  8
LAYE
 10
  -8.07836
 20
  37.37894
 30
    .00000
 11
  -8.09836
 21
  37.29694
 31
    .00000
  0
LINE
  8
LAYE
 10
  -8.09836
 20
  37.29694
 30
    .00000
 11
  -8.11239
 21
  37.34493
 31
    .00000
  0
LINE
  8
LAYE
 10
  -8.09836
 20
  37.29694
 30
    .00000
 11
  -8.06381
 21
  37.33308
 31
    .00000
  0
LINE
  8
LAYE
 10
  -7.85341
 20
  37.49426
 30
    .00000
 11
  -7.83241
 21
  37.38126
 31
    .00000
  0
LINE
  8
LAYE
 10
  -7.83241
 20
  37.38126
 30
    .00000
 11
  -7.86490
 21
  37.41926
 31
    .00000
  0
LINE
  8
LAYE
 10
  -7.83241
 20
  37.38126
 30
    .00000
 11
  -7.81574
 21
  37.42840
 31
    .00000
  0
LINE
  8
LAYE
 10
  -7.41511
 20
  37.35823
 30
    .00000
 11
  -7.34611
 21
  37.09323
 31
    .00000
  0
LINE
  8
LAYE
 10
  -7.34611
 20
  37.09323
 30
    .00000
 11
  -7.38121
 21
  37.12883
 31
    .00000
  0
LINE
  8
LAYE
 10
  -7.34611
 20
  37.09323
 30
    .00000
 11
  -7.33283
 21
  37.14143
 31
    .00000
  0
LINE
  8
LAYE
 10
  -7.73605
 20
  37.26126
 30
    .00000
 11
  -7.76605
 21
  37.08326
 31
    .00000
  0
LINE
  8
LAYE
 10
  -7.76605
 20
  37.08326
 30
    .00000
 11
  -7.78351
 21
  37.13011
 31
    .00000
  0
LINE
  8
LAYE
 10
  -7.76605
 20
  37.08326
 30
    .00000
 11
  -7.73420
 21
  37.12180
 31
    .00000
  0
LINE
  8
LAYE
 10
  -7.48256
 20
  37.21166
 30
    .00000
 11
  -7.53056
 21
  36.96066
 31
    .00000
  0
LINE
  8
LAYE
 10
  -7.53056
 20
  36.96066
 30
    .00000
 11
  -7.54698
 21
  37.00789
 31
    .00000
  0
LINE
  8
LAYE
 10
  -7.53056
 20
  36.96066
 30
    .00000
 11
  -7.49787
 21
  36.99849
 31
    .00000
  0
LINE
  8
LAYE
 10
  -8.90766
 20
  37.08571
 30
    .00000
 11
  -9.34866
 21
  37.08371
 31
    .00000
  0
LINE
  8
LAYE
 10
  -9.34866
 20
  37.08371
 30
    .00000
 11
  -9.30547
 21
  37.10891
 31
    .00000
  0
LINE
  8
LAYE
 10
  -9.34866
 20
  37.08371
 30
    .00000
 11
  -9.30525
 21
  37.05891
 31
    .00000
  0
LINE
  8
LAYE
 10
  -8.68844
 20
  37.09255
 30
    .00000
 11
  -8.98944
 21
  37.04855
 31
    .00000
  0
LINE
  8
LAYE
 10
  -8.98944
 20
  37.04855
 30
    .00000
 11
  -8.95021
 21
  37.07955
 31
    .00000
  0
LINE
  8
LAYE
 10
  -8.98944
 20
  37.04855
 30
    .00000
 11
  -8.94298
 21
  37.03008
 31
    .00000
  0
LINE
  8
LAYE
 10
  -8.37567
 20
  37.14706
 30
    .00000
 11
  -8.56467
 21
  37.06006
 31
    .00000
  0
LINE
  8
LAYE
 10
  -8.56467
 20
  37.06006
 30
    .00000
 11
  -8.53579
 21
  37.10088
 31
    .00000
  0
LINE
  8
LAYE
 10
  -8.56467
 20
  37.06006
 30
    .00000
 11
  -8.51488
 21
  37.05546
 31
    .00000
  0
LINE
  8
LAYE
 10
  -7.92324
 20
  37.11848
 30
    .00000
 11
  -8.02124
 21
  36.94548
 31
    .00000
  0
LINE
  8
LAYE
 10
  -8.02124
 20
  36.94548
 30
    .00000
 11
  -8.02165
 21
  36.99548
 31
    .00000
  0
LINE
  8
LAYE
 10
  -8.02124
 20
  36.94548
 30
    .00000
 11
  -7.97815
 21
  36.97083
 31
    .00000
  0
LINE
  8
LAYE
 10
  -7.85628
 20
  36.99080
 30
    .00000
 11
  -7.94528
 21
  36.82880
 31
    .00000
  0
LINE
  8
LAYE
 10
  -7.94528
 20
  36.82880
 30
    .00000
 11
  -7.94634
 21
  36.87879
 31
    .00000
  0
LINE
  8
LAYE
 10
  -7.94528
 20
  36.82880
 30
    .00000
 11
  -7.90252
 21
  36.85471
 31
    .00000
  0
ENDSEC
  0
EOF
