  0
SECTION
  2
ENTITIES
  0
LINE
  8
LAYE
 10
  -8.67766
 20
  42.16742
 30
    .00000
 11
  -8.91166
 21
  41.84942
 31
    .00000
  0
LINE
  8
LAYE
 10
  -8.91166
 20
  41.84942
 30
    .00000
 11
  -8.90613
 21
  41.89911
 31
    .00000
  0
LINE
  8
LAYE
 10
  -8.91166
 20
  41.84942
 30
    .00000
 11
  -8.86586
 21
  41.86948
 31
    .00000
  0
LINE
  8
LAYE
 10
  -8.39060
 20
  42.15741
 30
    .00000
 11
  -8.61460
 21
  41.93041
 31
    .00000
  0
LINE
  8
LAYE
 10
  -8.61460
 20
  41.93041
 30
    .00000
 11
  -8.60198
 21
  41.97879
 31
    .00000
  0
LINE
  8
LAYE
 10
  -8.61460
 20
  41.93041
 30
    .00000
 11
  -8.56639
 21
  41.94367
 31
    .00000
  0
LINE
  8
LAYE
 10
  -8.70313
 20
  41.95217
 30
    .00000
 11
  -8.81913
 21
  41.64617
 31
    .00000
  0
LINE
  8
LAYE
 10
  -8.81913
 20
  41.64617
 30
    .00000
 11
  -8.82716
 21
  41.69552
 31
    .00000
  0
LINE
  8
LAYE
 10
  -8.81913
 20
  41.64617
 30
    .00000
 11
  -8.78040
 21
  41.67780
 31
    .00000
  0
LINE
  8
LAYE
 10
  -8.85972
 20
  41.92312
 30
    .00000
 11
  -8.97672
 21
  41.57212
 31
    .00000
  0
LINE
  8
LAYE
 10
  -8.97672
 20
  41.57212
 30
    .00000
 11
  -8.98674
 21
  41.62110
 31
    .00000
  0
LINE
  8
LAYE
 10
  -8.97672
 20
  41.57212
 30
    .00000
 11
  -8.93931
 21
  41.60529
 31
    .00000
  0
LINE
  8
LAYE
 10
  -8.29112
 20
  41.99558
 30
    .00000
 11
  -8.45612
 21
  41.73058
 31
    .00000
  0
LINE
  8
LAYE
 10
  -8.45612
 20
  41.73058
 30
    .00000
 11
  -8.45446
 21
  41.78055
 31
    .00000
  0
LINE
  8
LAYE
 10
  -8.45612
 20
  41.73058
 30
    .00000
 11
  -8.41201
 21
  41.75412
 31
    .00000
  0
LINE
  8
LAYE
 10
  -7.69082
 20
  41.89698
 30
    .00000
 11
  -7.98582
 21
  41.73098
 31
    .00000
  0
LINE
  8
LAYE
 10
  -7.98582
 20
  41.73098
 30
    .00000
 11
  -7.96034
 21
  41.77400
 31
    .00000
  0
LINE
  8
LAYE
 10
  -7.98582
 20
  41.73098
 30
    .00000
 11
  -7.93582
 21
  41.73043
 31
    .00000
  0
LINE
  8
LAYE
 10
  -6.97480
 20
  41.90803
 30
    .00000
 11
  -7.26280
 21
  41.97603
 31
    .00000
  0
LINE
  8
LAYE
 10
  -7.26280
 20
  41.97603
 30
    .00000
 11
  -7.21491
 21
  41.99041
 31
    .00000
  0
LINE
  8
LAYE
 10
  -7.26280
 20
  41.97603
 30
    .00000
 11
  -7.22640
 21
  41.94175
 31
    .00000
  0
LINE
  8
LAYE
 10
  -7.30042
 20
  41.85190
 30
    .00000
 11
  -7.62842
 21
  41.81890
 31
    .00000
  0
LINE
  8
LAYE
 10
  -7.62842
 20
  41.81890
 30
    .00000
 11
  -7.58784
 21
  41.84811
 31
    .00000
  0
LINE
  8
LAYE
 10
  -7.62842
 20
  41.81890
 30
    .00000
 11
  -7.58283
 21
  41.79836
 31
    .00000
  0
LINE
  8
LAYE
 10
  -6.56169
 20
  41.83764
 30
    .00000
 11
  -6.85569
 21
  41.95564
 31
    .00000
  0
LINE
  8
LAYE
 10
  -6.85569
 20
  41.95564
 30
    .00000
 11
  -6.80619
 21
  41.96271
 31
    .00000
  0
LINE
  8
LAYE
 10
  -6.85569
 20
  41.95564
 30
    .00000
 11
  -6.82482
 21
  41.91631
 31
    .00000
  0
LINE
  8
LAYE
 10
  -8.80130
 20
  41.80195
 30
    .00000
 11
  -8.86630
 21
  41.41195
 31
    .00000
  0
LINE
  8
LAYE
 10
  -8.86630
 20
  41.41195
 30
    .00000
 11
  -8.88384
 21
  41.45877
 31
    .00000
  0
LINE
  8
LAYE
 10
  -8.86630
 20
  41.41195
 30
    .00000
 11
  -8.83452
 21
  41.45055
 31
    .00000
  0
LINE
  8
LAYE
 10
  -8.44687
 20
  41.75421
 30
    .00000
 11
  -8.57187
 21
  41.49921
 31
    .00000
  0
LINE
  8
LAYE
 10
  -8.57187
 20
  41.49921
 30
    .00000
 11
  -8.57526
 21
  41.54910
 31
    .00000
  0
LINE
  8
LAYE
 10
  -8.57187
 20
  41.49921
 30
    .00000
 11
  -8.53036
 21
  41.52709
 31
    .00000
  0
LINE
  8
LAYE
 10
  -8.02999
 20
  41.65407
 30
    .00000
 11
  -8.16299
 21
  41.50307
 31
    .00000
  0
LINE
  8
LAYE
 10
  -8.16299
 20
  41.50307
 30
    .00000
 11
  -8.15313
 21
  41.55209
 31
    .00000
  0
LINE
  8
LAYE
 10
  -8.16299
 20
  41.50307
 30
    .00000
 11
  -8.11561
 21
  41.51904
 31
    .00000
  0
LINE
  8
LAYE
 10
  -7.49829
 20
  41.56741
 30
    .00000
 11
  -7.68629
 21
  41.51541
 31
    .00000
  0
LINE
  8
LAYE
 10
  -7.68629
 20
  41.51541
 30
    .00000
 11
  -7.65122
 21
  41.55105
 31
    .00000
  0
LINE
  8
LAYE
 10
  -7.68629
 20
  41.51541
 30
    .00000
 11
  -7.63789
 21
  41.50286
 31
    .00000
  0
LINE
  8
LAYE
 10
  -6.83211
 20
  41.70728
 30
    .00000
 11
  -7.06611
 21
  41.80728
 31
    .00000
  0
LINE
  8
LAYE
 10
  -7.06611
 20
  41.80728
 30
    .00000
 11
  -7.01647
 21
  41.81325
 31
    .00000
  0
LINE
  8
LAYE
 10
  -7.06611
 20
  41.80728
 30
    .00000
 11
  -7.03612
 21
  41.76728
 31
    .00000
  0
LINE
  8
LAYE
 10
  -6.28282
 20
  41.64948
 30
    .00000
 11
  -6.52482
 21
  41.78448
 31
    .00000
  0
LINE
  8
LAYE
 10
  -6.52482
 20
  41.78448
 30
    .00000
 11
  -6.47483
 21
  41.78522
 31
    .00000
  0
LINE
  8
LAYE
 10
  -6.52482
 20
  41.78448
 30
    .00000
 11
  -6.49918
 21
  41.74155
 31
    .00000
  0
LINE
  8
LAYE
 10
  -6.54130
 20
  41.51466
 30
    .00000
 11
  -6.76230
 21
  41.67966
 31
    .00000
  0
LINE
  8
LAYE
 10
  -6.76230
 20
  41.67966
 30
    .00000
 11
  -6.71265
 21
  41.67379
 31
    .00000
  0
LINE
  8
LAYE
 10
  -6.76230
 20
  41.67966
 30
    .00000
 11
  -6.74256
 21
  41.63372
 31
    .00000
  0
LINE
  8
LAYE
 10
  -8.71620
 20
  41.45647
 30
    .00000
 11
  -8.70720
 21
  41.24147
 31
    .00000
  0
LINE
  8
LAYE
 10
  -8.70720
 20
  41.24147
 30
    .00000
 11
  -8.73399
 21
  41.28369
 31
    .00000
  0
LINE
  8
LAYE
 10
  -8.70720
 20
  41.24147
 30
    .00000
 11
  -8.68403
 21
  41.28578
 31
    .00000
  0
LINE
  8
LAYE
 10
  -8.38070
 20
  41.33786
 30
    .00000
 11
  -8.43370
 21
  41.19786
 31
    .00000
  0
LINE
  8
LAYE
 10
  -8.43370
 20
  41.19786
 30
    .00000
 11
  -8.44175
 21
  41.24721
 31
    .00000
  0
LINE
  8
LAYE
 10
  -8.43370
 20
  41.19786
 30
    .00000
 11
  -8.39499
 21
  41.22951
 31
    .00000
  0
LINE
  8
LAYE
 10
  -8.26130
 20
  41.17940
 30
    .00000
 11
  -8.28230
 21
  41.06040
 31
    .00000
  0
LINE
  8
LAYE
 10
  -8.28230
 20
  41.06040
 30
    .00000
 11
  -8.29939
 21
  41.10739
 31
    .00000
  0
LINE
  8
LAYE
 10
  -8.28230
 20
  41.06040
 30
    .00000
 11
  -8.25016
 21
  41.09870
 31
    .00000
  0
LINE
  8
LAYE
 10
  -7.88481
 20
  41.25607
 30
    .00000
 11
  -7.90581
 21
  41.18007
 31
    .00000
  0
LINE
  8
LAYE
 10
  -7.90581
 20
  41.18007
 30
    .00000
 11
  -7.91837
 21
  41.22847
 31
    .00000
  0
LINE
  8
LAYE
 10
  -7.90581
 20
  41.18007
 30
    .00000
 11
  -7.87018
 21
  41.21515
 31
    .00000
  0
LINE
  8
LAYE
 10
  -6.99068
 20
  41.42695
 30
    .00000
 11
  -7.15368
 21
  41.49795
 31
    .00000
  0
LINE
  8
LAYE
 10
  -7.15368
 20
  41.49795
 30
    .00000
 11
  -7.10400
 21
  41.50358
 31
    .00000
  0
LINE
  8
LAYE
 10
  -7.15368
 20
  41.49795
 30
    .00000
 11
  -7.12396
 21
  41.45774
 31
    .00000
  0
LINE
  8
LAYE
 10
  -7.24543
 20
  41.23612
 30
    .00000
 11
  -7.38943
 21
  41.22312
 31
    .00000
  0
LINE
  8
LAYE
 10
  -7.38943
 20
  41.22312
 30
    .00000
 11
  -7.34855
 21
  41.25191
 31
    .00000
  0
LINE
  8
LAYE
 10
  -7.38943
 20
  41.22312
 30
    .00000
 11
  -7.34406
 21
  41.20211
 31
    .00000
  0
LINE
  8
LAYE
 10
  -6.73874
 20
  41.19808
 30
    .00000
 11
  -6.93674
 21
  41.32408
 31
    .00000
  0
LINE
  8
LAYE
 10
  -6.93674
 20
  41.32408
 30
    .00000
 11
  -6.88679
 21
  41.32192
 31
    .00000
  0
LINE
  8
LAYE
 10
  -6.93674
 20
  41.32408
 30
    .00000
 11
  -6.91363
 21
  41.27974
 31
    .00000
  0
LINE
  8
LAYE
 10
  -6.30520
 20
  41.33942
 30
    .00000
 11
  -6.46820
 21
  41.52242
 31
    .00000
  0
LINE
  8
LAYE
 10
  -6.46820
 20
  41.52242
 30
    .00000
 11
  -6.42073
 21
  41.50671
 31
    .00000
  0
LINE
  8
LAYE
 10
  -6.46820
 20
  41.52242
 30
    .00000
 11
  -6.45807
 21
  41.47346
 31
    .00000
  0
LINE
  8
LAYE
 10
  -8.59111
 20
  41.12162
 30
    .00000
 11
  -8.55211
 21
  40.98462
 31
    .00000
  0
LINE
  8
LAYE
 10
  -8.55211
 20
  40.98462
 30
    .00000
 11
  -8.58801
 21
  41.01942
 31
    .00000
  0
LINE
  8
LAYE
 10
  -8.55211
 20
  40.98462
 30
    .00000
 11
  -8.53992
 21
  41.03311
 31
    .00000
  0
LINE
  8
LAYE
 10
  -8.28205
 20
  40.88187
 30
    .00000
 11
  -8.26905
 21
  40.81487
 31
    .00000
  0
LINE
  8
LAYE
 10
  -8.26905
 20
  40.81487
 30
    .00000
 11
  -8.30184
 21
  40.85262
 31
    .00000
  0
LINE
  8
LAYE
 10
  -8.26905
 20
  40.81487
 30
    .00000
 11
  -8.25276
 21
  40.86214
 31
    .00000
  0
LINE
  8
LAYE
 10
  -7.99112
 20
  40.97835
 30
    .00000
 11
  -7.95812
 21
  40.93535
 31
    .00000
  0
LINE
  8
LAYE
 10
  -7.95812
 20
  40.93535
 30
    .00000
 11
  -8.00432
 21
  40.95448
 31
    .00000
  0
LINE
  8
LAYE
 10
  -7.95812
 20
  40.93535
 30
    .00000
 11
  -7.96465
 21
  40.98492
 31
    .00000
  0
LINE
  8
LAYE
 10
  -7.65797
 20
  40.95584
 30
    .00000
 11
  -7.63997
 21
  40.95384
 31
    .00000
  0
LINE
  8
LAYE
 10
  -7.63997
 20
  40.95384
 30
    .00000
 11
  -7.68577
 21
  40.93377
 31
    .00000
  0
LINE
  8
LAYE
 10
  -7.63997
 20
  40.95384
 30
    .00000
 11
  -7.68025
 21
  40.98347
 31
    .00000
  0
LINE
  8
LAYE
 10
  -7.42924
 20
  40.76844
 30
    .00000
 11
  -7.37824
 21
  40.78644
 31
    .00000
  0
LINE
  8
LAYE
 10
  -7.37824
 20
  40.78644
 30
    .00000
 11
  -7.41075
 21
  40.74845
 31
    .00000
  0
LINE
  8
LAYE
 10
  -7.37824
 20
  40.78644
 30
    .00000
 11
  -7.42739
 21
  40.79560
 31
    .00000
  0
LINE
  8
LAYE
 10
  -6.98543
 20
  40.85502
 30
    .00000
 11
  -7.04843
 21
  40.94602
 31
    .00000
  0
LINE
  8
LAYE
 10
  -7.04843
 20
  40.94602
 30
    .00000
 11
  -7.00323
 21
  40.92465
 31
    .00000
  0
LINE
  8
LAYE
 10
  -7.04843
 20
  40.94602
 30
    .00000
 11
  -7.04434
 21
  40.89619
 31
    .00000
  0
LINE
  8
LAYE
 10
  -8.75774
 20
  40.65283
 30
    .00000
 11
  -8.65874
 21
  40.55283
 31
    .00000
  0
LINE
  8
LAYE
 10
  -8.65874
 20
  40.55283
 30
    .00000
 11
  -8.70697
 21
  40.56601
 31
    .00000
  0
LINE
  8
LAYE
 10
  -8.65874
 20
  40.55283
 30
    .00000
 11
  -8.67144
 21
  40.60119
 31
    .00000
  0
LINE
  8
LAYE
 10
  -8.81667
 20
  40.46199
 30
    .00000
 11
  -8.66867
 21
  40.43899
 31
    .00000
  0
LINE
  8
LAYE
 10
  -8.66867
 20
  40.43899
 30
    .00000
 11
  -8.71530
 21
  40.42094
 31
    .00000
  0
LINE
  8
LAYE
 10
  -8.66867
 20
  40.43899
 30
    .00000
 11
  -8.70762
 21
  40.47034
 31
    .00000
  0
LINE
  8
LAYE
 10
  -8.21175
 20
  40.55207
 30
    .00000
 11
  -8.11475
 21
  40.50407
 31
    .00000
  0
LINE
  8
LAYE
 10
  -8.11475
 20
  40.50407
 30
    .00000
 11
  -8.16465
 21
  40.50087
 31
    .00000
  0
LINE
  8
LAYE
 10
  -8.11475
 20
  40.50407
 30
    .00000
 11
  -8.14247
 21
  40.54568
 31
    .00000
  0
LINE
  8
LAYE
 10
  -7.76477
 20
  40.60413
 30
    .00000
 11
  -7.55277
 21
  40.68713
 31
    .00000
  0
LINE
  8
LAYE
 10
  -7.55277
 20
  40.68713
 30
    .00000
 11
  -7.58398
 21
  40.64806
 31
    .00000
  0
LINE
  8
LAYE
 10
  -7.55277
 20
  40.68713
 30
    .00000
 11
  -7.60221
 21
  40.69462
 31
    .00000
  0
LINE
  8
LAYE
 10
  -7.42972
 20
  40.52538
 30
    .00000
 11
  -7.38472
 21
  40.60938
 31
    .00000
  0
LINE
  8
LAYE
 10
  -7.38472
 20
  40.60938
 30
    .00000
 11
  -7.38313
 21
  40.55941
 31
    .00000
  0
LINE
  8
LAYE
 10
  -7.38472
 20
  40.60938
 30
    .00000
 11
  -7.42720
 21
  40.58302
 31
    .00000
  0
LINE
  8
LAYE
 10
  -7.13449
 20
  40.58103
 30
    .00000
 11
  -7.11749
 21
  40.68303
 31
    .00000
  0
LINE
  8
LAYE
 10
  -7.11749
 20
  40.68303
 30
    .00000
 11
  -7.09995
 21
  40.63621
 31
    .00000
  0
LINE
  8
LAYE
 10
  -7.11749
 20
  40.68303
 30
    .00000
 11
  -7.14927
 21
  40.64443
 31
    .00000
  0
LINE
  8
LAYE
 10
  -6.85878
 20
  40.58994
 30
    .00000
 11
  -6.82978
 21
  40.73494
 31
    .00000
  0
LINE
  8
LAYE
 10
  -6.82978
 20
  40.73494
 30
    .00000
 11
  -6.81376
 21
  40.68758
 31
    .00000
  0
LINE
  8
LAYE
 10
  -6.82978
 20
  40.73494
 30
    .00000
 11
  -6.86279
 21
  40.69738
 31
    .00000
  0
LINE
  8
LAYE
 10
  -6.88436
 20
  40.44104
 30
    .00000
 11
  -6.82336
 21
  40.57904
 31
    .00000
  0
LINE
  8
LAYE
 10
  -6.82336
 20
  40.57904
 30
    .00000
 11
  -6.81800
 21
  40.52933
 31
    .00000
  0
LINE
  8
LAYE
 10
  -6.82336
 20
  40.57904
 30
    .00000
 11
  -6.86373
 21
  40.54954
 31
    .00000
  0
LINE
  8
LAYE
 10
  -8.36928
 20
  40.36346
 30
    .00000
 11
  -8.22328
 21
  40.34746
 31
    .00000
  0
LINE
  8
LAYE
 10
  -8.22328
 20
  40.34746
 30
    .00000
 11
  -8.26905
 21
  40.32733
 31
    .00000
  0
LINE
  8
LAYE
 10
  -8.22328
 20
  40.34746
 30
    .00000
 11
  -8.26360
 21
  40.37703
 31
    .00000
  0
LINE
  8
LAYE
 10
  -8.87300
 20
  40.19777
 30
    .00000
 11
  -8.68300
 21
  40.17577
 31
    .00000
  0
LINE
  8
LAYE
 10
  -8.68300
 20
  40.17577
 30
    .00000
 11
  -8.72889
 21
  40.15592
 31
    .00000
  0
LINE
  8
LAYE
 10
  -8.68300
 20
  40.17577
 30
    .00000
 11
  -8.72314
 21
  40.20558
 31
    .00000
  0
LINE
  8
LAYE
 10
  -8.18933
 20
  40.08634
 30
    .00000
 11
  -8.08733
 21
  40.11934
 31
    .00000
  0
LINE
  8
LAYE
 10
  -8.08733
 20
  40.11934
 30
    .00000
 11
  -8.12083
 21
  40.08222
 31
    .00000
  0
LINE
  8
LAYE
 10
  -8.08733
 20
  40.11934
 30
    .00000
 11
  -8.13622
 21
  40.12980
 31
    .00000
  0
LINE
  8
LAYE
 10
  -7.95138
 20
  40.38464
 30
    .00000
 11
  -7.82838
 21
  40.39664
 31
    .00000
  0
LINE
  8
LAYE
 10
  -7.82838
 20
  40.39664
 30
    .00000
 11
  -7.86905
 21
  40.36755
 31
    .00000
  0
LINE
  8
LAYE
 10
  -7.82838
 20
  40.39664
 30
    .00000
 11
  -7.87390
 21
  40.41732
 31
    .00000
  0
LINE
  8
LAYE
 10
  -7.82883
 20
  40.20708
 30
    .00000
 11
  -7.72083
 21
  40.29208
 31
    .00000
  0
LINE
  8
LAYE
 10
  -7.72083
 20
  40.29208
 30
    .00000
 11
  -7.73940
 21
  40.24565
 31
    .00000
  0
LINE
  8
LAYE
 10
  -7.72083
 20
  40.29208
 30
    .00000
 11
  -7.77032
 21
  40.28495
 31
    .00000
  0
LINE
  8
LAYE
 10
  -7.62222
 20
  40.31440
 30
    .00000
 11
  -7.52922
 21
  40.38940
 31
    .00000
  0
LINE
  8
LAYE
 10
  -7.52922
 20
  40.38940
 30
    .00000
 11
  -7.54723
 21
  40.34276
 31
    .00000
  0
LINE
  8
LAYE
 10
  -7.52922
 20
  40.38940
 30
    .00000
 11
  -7.57862
 21
  40.38168
 31
    .00000
  0
LINE
  8
LAYE
 10
  -7.53800
 20
  40.07547
 30
    .00000
 11
  -7.40800
 21
  40.12647
 31
    .00000
  0
LINE
  8
LAYE
 10
  -7.40800
 20
  40.12647
 30
    .00000
 11
  -7.43918
 21
  40.08738
 31
    .00000
  0
LINE
  8
LAYE
 10
  -7.40800
 20
  40.12647
 30
    .00000
 11
  -7.45744
 21
  40.13393
 31
    .00000
  0
LINE
  8
LAYE
 10
  -7.19052
 20
  40.34420
 30
    .00000
 11
  -7.09352
 21
  40.41620
 31
    .00000
  0
LINE
  8
LAYE
 10
  -7.09352
 20
  40.41620
 30
    .00000
 11
  -7.11339
 21
  40.37032
 31
    .00000
  0
LINE
  8
LAYE
 10
  -7.09352
 20
  40.41620
 30
    .00000
 11
  -7.14319
 21
  40.41047
 31
    .00000
  0
LINE
  8
LAYE
 10
  -6.87313
 20
  40.26079
 30
    .00000
 11
  -6.74413
 21
  40.37479
 31
    .00000
  0
LINE
  8
LAYE
 10
  -6.74413
 20
  40.37479
 30
    .00000
 11
  -6.76002
 21
  40.32738
 31
    .00000
  0
LINE
  8
LAYE
 10
  -6.74413
 20
  40.37479
 30
    .00000
 11
  -6.79313
 21
  40.36485
 31
    .00000
  0
LINE
  8
LAYE
 10
  -7.12921
 20
  40.02227
 30
    .00000
 11
  -6.98121
 21
  40.15727
 31
    .00000
  0
LINE
  8
LAYE
 10
  -6.98121
 20
  40.15727
 30
    .00000
 11
  -6.99635
 21
  40.10962
 31
    .00000
  0
LINE
  8
LAYE
 10
  -6.98121
 20
  40.15727
 30
    .00000
 11
  -7.03005
 21
  40.14656
 31
    .00000
  0
LINE
  8
LAYE
 10
  -9.02194
 20
  39.67167
 30
    .00000
 11
  -8.82794
 21
  39.82667
 31
    .00000
  0
LINE
  8
LAYE
 10
  -8.82794
 20
  39.82667
 30
    .00000
 11
  -8.84616
 21
  39.78011
 31
    .00000
  0
LINE
  8
LAYE
 10
  -8.82794
 20
  39.82667
 30
    .00000
 11
  -8.87737
 21
  39.81917
 31
    .00000
  0
LINE
  8
LAYE
 10
  -8.85622
 20
  39.88657
 30
    .00000
 11
  -8.72322
 21
  39.94157
 31
    .00000
  0
LINE
  8
LAYE
 10
  -8.72322
 20
  39.94157
 30
    .00000
 11
  -8.75368
 21
  39.90192
 31
    .00000
  0
LINE
  8
LAYE
 10
  -8.72322
 20
  39.94157
 30
    .00000
 11
  -8.77279
 21
  39.94813
 31
    .00000
  0
LINE
  8
LAYE
 10
  -8.54594
 20
  39.91299
 30
    .00000
 11
  -8.48594
 21
  39.98699
 31
    .00000
  0
LINE
  8
LAYE
 10
  -8.48594
 20
  39.98699
 30
    .00000
 11
  -8.49379
 21
  39.93761
 31
    .00000
  0
LINE
  8
LAYE
 10
  -8.48594
 20
  39.98699
 30
    .00000
 11
  -8.53263
 21
  39.96910
 31
    .00000
  0
LINE
  8
LAYE
 10
  -7.93741
 20
  39.84029
 30
    .00000
 11
  -7.81941
 21
  39.92329
 31
    .00000
  0
LINE
  8
LAYE
 10
  -7.81941
 20
  39.92329
 30
    .00000
 11
  -7.84044
 21
  39.87793
 31
    .00000
  0
LINE
  8
LAYE
 10
  -7.81941
 20
  39.92329
 30
    .00000
 11
  -7.86921
 21
  39.91883
 31
    .00000
  0
LINE
  8
LAYE
 10
  -8.14915
 20
  39.68394
 30
    .00000
 11
  -7.95915
 21
  39.78594
 31
    .00000
  0
LINE
  8
LAYE
 10
  -7.95915
 20
  39.78594
 30
    .00000
 11
  -7.98548
 21
  39.74343
 31
    .00000
  0
LINE
  8
LAYE
 10
  -7.95915
 20
  39.78594
 30
    .00000
 11
  -8.00913
 21
  39.78749
 31
    .00000
  0
LINE
  8
LAYE
 10
  -7.47992
 20
  39.79697
 30
    .00000
 11
  -7.31692
 21
  39.85697
 31
    .00000
  0
LINE
  8
LAYE
 10
  -7.31692
 20
  39.85697
 30
    .00000
 11
  -7.34892
 21
  39.81855
 31
    .00000
  0
LINE
  8
LAYE
 10
  -7.31692
 20
  39.85697
 30
    .00000
 11
  -7.36619
 21
  39.86547
 31
    .00000
  0
LINE
  8
LAYE
 10
  -7.06088
 20
  39.72099
 30
    .00000
 11
  -6.85188
 21
  39.85599
 31
    .00000
  0
LINE
  8
LAYE
 10
  -6.85188
 20
  39.85599
 30
    .00000
 11
  -6.87469
 21
  39.81150
 31
    .00000
  0
LINE
  8
LAYE
 10
  -6.85188
 20
  39.85599
 30
    .00000
 11
  -6.90182
 21
  39.85350
 31
    .00000
  0
LINE
  8
LAYE
 10
  -9.43459
 20
  39.34270
 30
    .00000
 11
  -9.16659
 21
  39.52170
 31
    .00000
  0
LINE
  8
LAYE
 10
  -9.16659
 20
  39.52170
 30
    .00000
 11
  -9.18871
 21
  39.47686
 31
    .00000
  0
LINE
  8
LAYE
 10
  -9.16659
 20
  39.52170
 30
    .00000
 11
  -9.21648
 21
  39.51844
 31
    .00000
  0
LINE
  8
LAYE
 10
  -9.23205
 20
  39.43966
 30
    .00000
 11
  -8.92305
 21
  39.58166
 31
    .00000
  0
LINE
  8
LAYE
 10
  -8.92305
 20
  39.58166
 30
    .00000
 11
  -8.95196
 21
  39.54086
 31
    .00000
  0
LINE
  8
LAYE
 10
  -8.92305
 20
  39.58166
 30
    .00000
 11
  -8.97283
 21
  39.58630
 31
    .00000
  0
LINE
  8
LAYE
 10
  -8.93899
 20
  39.42652
 30
    .00000
 11
  -8.73499
 21
  39.53552
 31
    .00000
  0
LINE
  8
LAYE
 10
  -8.73499
 20
  39.53552
 30
    .00000
 11
  -8.76140
 21
  39.49306
 31
    .00000
  0
LINE
  8
LAYE
 10
  -8.73499
 20
  39.53552
 30
    .00000
 11
  -8.78496
 21
  39.53716
 31
    .00000
  0
LINE
  8
LAYE
 10
  -8.64830
 20
  39.52490
 30
    .00000
 11
  -8.53130
 21
  39.63390
 31
    .00000
  0
LINE
  8
LAYE
 10
  -8.53130
 20
  39.63390
 30
    .00000
 11
  -8.54594
 21
  39.58609
 31
    .00000
  0
LINE
  8
LAYE
 10
  -8.53130
 20
  39.63390
 30
    .00000
 11
  -8.58002
 21
  39.62268
 31
    .00000
  0
LINE
  8
LAYE
 10
  -8.30698
 20
  39.51173
 30
    .00000
 11
  -8.16698
 21
  39.60373
 31
    .00000
  0
LINE
  8
LAYE
 10
  -8.16698
 20
  39.60373
 30
    .00000
 11
  -8.18944
 21
  39.55906
 31
    .00000
  0
LINE
  8
LAYE
 10
  -8.16698
 20
  39.60373
 30
    .00000
 11
  -8.21690
 21
  39.60084
 31
    .00000
  0
LINE
  8
LAYE
 10
  -8.76353
 20
  39.32301
 30
    .00000
 11
  -8.63253
 21
  39.44001
 31
    .00000
  0
LINE
  8
LAYE
 10
  -8.63253
 20
  39.44001
 30
    .00000
 11
  -8.64817
 21
  39.39252
 31
    .00000
  0
LINE
  8
LAYE
 10
  -8.63253
 20
  39.44001
 30
    .00000
 11
  -8.68148
 21
  39.42981
 31
    .00000
  0
LINE
  8
LAYE
 10
  -8.43153
 20
  39.32546
 30
    .00000
 11
  -8.28953
 21
  39.43246
 31
    .00000
  0
LINE
  8
LAYE
 10
  -8.28953
 20
  39.43246
 30
    .00000
 11
  -8.30907
 21
  39.38644
 31
    .00000
  0
LINE
  8
LAYE
 10
  -8.28953
 20
  39.43246
 30
    .00000
 11
  -8.33916
 21
  39.42637
 31
    .00000
  0
LINE
  8
LAYE
 10
  -7.65075
 20
  39.56321
 30
    .00000
 11
  -7.44375
 21
  39.68421
 31
    .00000
  0
LINE
  8
LAYE
 10
  -7.44375
 20
  39.68421
 30
    .00000
 11
  -7.46852
 21
  39.64077
 31
    .00000
  0
LINE
  8
LAYE
 10
  -7.44375
 20
  39.68421
 30
    .00000
 11
  -7.49375
 21
  39.68394
 31
    .00000
  0
LINE
  8
LAYE
 10
  -8.02821
 20
  39.35835
 30
    .00000
 11
  -7.86021
 21
  39.44535
 31
    .00000
  0
LINE
  8
LAYE
 10
  -7.86021
 20
  39.44535
 30
    .00000
 11
  -7.88716
 21
  39.40324
 31
    .00000
  0
LINE
  8
LAYE
 10
  -7.86021
 20
  39.44535
 30
    .00000
 11
  -7.91016
 21
  39.44764
 31
    .00000
  0
LINE
  8
LAYE
 10
  -7.24521
 20
  39.59711
 30
    .00000
 11
  -6.95621
 21
  39.66611
 31
    .00000
  0
LINE
  8
LAYE
 10
  -6.95621
 20
  39.66611
 30
    .00000
 11
  -6.99252
 21
  39.63174
 31
    .00000
  0
LINE
  8
LAYE
 10
  -6.95621
 20
  39.66611
 30
    .00000
 11
  -7.00413
 21
  39.68037
 31
    .00000
  0
LINE
  8
LAYE
 10
  -7.38547
 20
  39.30440
 30
    .00000
 11
  -7.13647
 21
  39.39540
 31
    .00000
  0
LINE
  8
LAYE
 10
  -7.13647
 20
  39.39540
 30
    .00000
 11
  -7.16856
 21
  39.35706
 31
    .00000
  0
LINE
  8
LAYE
 10
  -7.13647
 20
  39.39540
 30
    .00000
 11
  -7.18572
 21
  39.40402
 31
    .00000
  0
LINE
  8
LAYE
 10
  -9.06954
 20
  39.15868
 30
    .00000
 11
  -8.85954
 21
  39.30568
 31
    .00000
  0
LINE
  8
LAYE
 10
  -8.85954
 20
  39.30568
 30
    .00000
 11
  -8.88068
 21
  39.26037
 31
    .00000
  0
LINE
  8
LAYE
 10
  -8.85954
 20
  39.30568
 30
    .00000
 11
  -8.90935
 21
  39.30133
 31
    .00000
  0
LINE
  8
LAYE
 10
  -9.33048
 20
  38.99364
 30
    .00000
 11
  -9.19148
 21
  39.18064
 31
    .00000
  0
LINE
  8
LAYE
 10
  -9.19148
 20
  39.18064
 30
    .00000
 11
  -9.19725
 21
  39.13097
 31
    .00000
  0
LINE
  8
LAYE
 10
  -9.19148
 20
  39.18064
 30
    .00000
 11
  -9.23738
 21
  39.16080
 31
    .00000
  0
LINE
  8
LAYE
 10
  -8.60125
 20
  39.13084
 30
    .00000
 11
  -8.45525
 21
  39.24484
 31
    .00000
  0
LINE
  8
LAYE
 10
  -8.45525
 20
  39.24484
 30
    .00000
 11
  -8.47399
 21
  39.19849
 31
    .00000
  0
LINE
  8
LAYE
 10
  -8.45525
 20
  39.24484
 30
    .00000
 11
  -8.50477
 21
  39.23790
 31
    .00000
  0
LINE
  8
LAYE
 10
  -8.20293
 20
  39.06891
 30
    .00000
 11
  -8.04693
 21
  39.15291
 31
    .00000
  0
LINE
  8
LAYE
 10
  -8.04693
 20
  39.15291
 30
    .00000
 11
  -8.07320
 21
  39.11037
 31
    .00000
  0
LINE
  8
LAYE
 10
  -8.04693
 20
  39.15291
 30
    .00000
 11
  -8.09691
 21
  39.15439
 31
    .00000
  0
LINE
  8
LAYE
 10
  -7.64403
 20
  39.18363
 30
    .00000
 11
  -7.43103
 21
  39.23863
 31
    .00000
  0
LINE
  8
LAYE
 10
  -7.43103
 20
  39.23863
 30
    .00000
 11
  -7.46671
 21
  39.20360
 31
    .00000
  0
LINE
  8
LAYE
 10
  -7.43103
 20
  39.23863
 30
    .00000
 11
  -7.47921
 21
  39.25201
 31
    .00000
  0
LINE
  8
LAYE
 10
  -7.13536
 20
  39.02931
 30
    .00000
 11
  -6.85336
 21
  39.04731
 31
    .00000
  0
LINE
  8
LAYE
 10
  -6.85336
 20
  39.04731
 30
    .00000
 11
  -6.89498
 21
  39.01960
 31
    .00000
  0
LINE
  8
LAYE
 10
  -6.85336
 20
  39.04731
 30
    .00000
 11
  -6.89817
 21
  39.06950
 31
    .00000
  0
LINE
  8
LAYE
 10
  -9.44919
 20
  38.75572
 30
    .00000
 11
  -9.37219
 21
  38.94172
 31
    .00000
  0
LINE
  8
LAYE
 10
  -9.37219
 20
  38.94172
 30
    .00000
 11
  -9.36565
 21
  38.89215
 31
    .00000
  0
LINE
  8
LAYE
 10
  -9.37219
 20
  38.94172
 30
    .00000
 11
  -9.41185
 21
  38.91127
 31
    .00000
  0
LINE
  8
LAYE
 10
  -9.10282
 20
  38.87694
 30
    .00000
 11
  -8.98482
 21
  39.04994
 31
    .00000
  0
LINE
  8
LAYE
 10
  -8.98482
 20
  39.04994
 30
    .00000
 11
  -8.98857
 21
  39.00008
 31
    .00000
  0
LINE
  8
LAYE
 10
  -8.98482
 20
  39.04994
 30
    .00000
 11
  -9.02987
 21
  39.02825
 31
    .00000
  0
LINE
  8
LAYE
 10
  -9.13976
 20
  38.69830
 30
    .00000
 11
  -9.07376
 21
  38.85230
 31
    .00000
  0
LINE
  8
LAYE
 10
  -9.07376
 20
  38.85230
 30
    .00000
 11
  -9.06784
 21
  38.80265
 31
    .00000
  0
LINE
  8
LAYE
 10
  -9.07376
 20
  38.85230
 30
    .00000
 11
  -9.11380
 21
  38.82235
 31
    .00000
  0
LINE
  8
LAYE
 10
  -8.53265
 20
  38.82947
 30
    .00000
 11
  -8.39665
 21
  38.94047
 31
    .00000
  0
LINE
  8
LAYE
 10
  -8.39665
 20
  38.94047
 30
    .00000
 11
  -8.41439
 21
  38.89372
 31
    .00000
  0
LINE
  8
LAYE
 10
  -8.39665
 20
  38.94047
 30
    .00000
 11
  -8.44600
 21
  38.93246
 31
    .00000
  0
LINE
  8
LAYE
 10
  -8.54752
 20
  38.67555
 30
    .00000
 11
  -8.47352
 21
  38.80755
 31
    .00000
  0
LINE
  8
LAYE
 10
  -8.47352
 20
  38.80755
 30
    .00000
 11
  -8.47289
 21
  38.75755
 31
    .00000
  0
LINE
  8
LAYE
 10
  -8.47352
 20
  38.80755
 30
    .00000
 11
  -8.51650
 21
  38.78200
 31
    .00000
  0
LINE
  8
LAYE
 10
  -7.67318
 20
  38.91064
 30
    .00000
 11
  -7.48218
 21
  38.96764
 31
    .00000
  0
LINE
  8
LAYE
 10
  -7.48218
 20
  38.96764
 30
    .00000
 11
  -7.51652
 21
  38.93130
 31
    .00000
  0
LINE
  8
LAYE
 10
  -7.48218
 20
  38.96764
 30
    .00000
 11
  -7.53082
 21
  38.97921
 31
    .00000
  0
LINE
  8
LAYE
 10
  -8.00173
 20
  38.71820
 30
    .00000
 11
  -7.86573
 21
  38.79320
 31
    .00000
  0
LINE
  8
LAYE
 10
  -7.86573
 20
  38.79320
 30
    .00000
 11
  -7.89158
 21
  38.75040
 31
    .00000
  0
LINE
  8
LAYE
 10
  -7.86573
 20
  38.79320
 30
    .00000
 11
  -7.91572
 21
  38.79418
 31
    .00000
  0
LINE
  8
LAYE
 10
  -7.60274
 20
  38.73751
 30
    .00000
 11
  -7.41574
 21
  38.75751
 31
    .00000
  0
LINE
  8
LAYE
 10
  -7.41574
 20
  38.75751
 30
    .00000
 11
  -7.45614
 21
  38.72805
 31
    .00000
  0
LINE
  8
LAYE
 10
  -7.41574
 20
  38.75751
 30
    .00000
 11
  -7.46145
 21
  38.77776
 31
    .00000
  0
LINE
  8
LAYE
 10
  -7.28045
 20
  38.83789
 30
    .00000
 11
  -7.06345
 21
  38.85789
 31
    .00000
  0
LINE
  8
LAYE
 10
  -7.06345
 20
  38.85789
 30
    .00000
 11
  -7.10427
 21
  38.82902
 31
    .00000
  0
LINE
  8
LAYE
 10
  -7.06345
 20
  38.85789
 30
    .00000
 11
  -7.10886
 21
  38.87881
 31
    .00000
  0
LINE
  8
LAYE
 10
  -8.90617
 20
  38.54986
 30
    .00000
 11
  -8.84717
 21
  38.71286
 31
    .00000
  0
LINE
  8
LAYE
 10
  -8.84717
 20
  38.71286
 30
    .00000
 11
  -8.83840
 21
  38.66364
 31
    .00000
  0
LINE
  8
LAYE
 10
  -8.84717
 20
  38.71286
 30
    .00000
 11
  -8.88542
 21
  38.68065
 31
    .00000
  0
LINE
  8
LAYE
 10
  -9.10748
 20
  38.43540
 30
    .00000
 11
  -9.10048
 21
  38.60940
 31
    .00000
  0
LINE
  8
LAYE
 10
  -9.10048
 20
  38.60940
 30
    .00000
 11
  -9.07724
 21
  38.56513
 31
    .00000
  0
LINE
  8
LAYE
 10
  -9.10048
 20
  38.60940
 30
    .00000
 11
  -9.12720
 21
  38.56714
 31
    .00000
  0
LINE
  8
LAYE
 10
  -8.52540
 20
  38.48360
 30
    .00000
 11
  -8.50240
 21
  38.56660
 31
    .00000
  0
LINE
  8
LAYE
 10
  -8.50240
 20
  38.56660
 30
    .00000
 11
  -8.48987
 21
  38.51820
 31
    .00000
  0
LINE
  8
LAYE
 10
  -8.50240
 20
  38.56660
 30
    .00000
 11
  -8.53806
 21
  38.53155
 31
    .00000
  0
LINE
  8
LAYE
 10
  -8.19665
 20
  38.56345
 30
    .00000
 11
  -8.12965
 21
  38.62045
 31
    .00000
  0
LINE
  8
LAYE
 10
  -8.12965
 20
  38.62045
 30
    .00000
 11
  -8.14643
 21
  38.57335
 31
    .00000
  0
LINE
  8
LAYE
 10
  -8.12965
 20
  38.62045
 30
    .00000
 11
  -8.17883
 21
  38.61143
 31
    .00000
  0
LINE
  8
LAYE
 10
  -8.23589
 20
  38.24072
 30
    .00000
 11
  -8.22489
 21
  38.29172
 31
    .00000
  0
LINE
  8
LAYE
 10
  -8.22489
 20
  38.29172
 30
    .00000
 11
  -8.20958
 21
  38.24412
 31
    .00000
  0
LINE
  8
LAYE
 10
  -8.22489
 20
  38.29172
 30
    .00000
 11
  -8.25846
 21
  38.25466
 31
    .00000
  0
LINE
  8
LAYE
 10
  -7.81117
 20
  38.44758
 30
    .00000
 11
  -7.70817
 21
  38.45458
 31
    .00000
  0
LINE
  8
LAYE
 10
  -7.70817
 20
  38.45458
 30
    .00000
 11
  -7.74968
 21
  38.42670
 31
    .00000
  0
LINE
  8
LAYE
 10
  -7.70817
 20
  38.45458
 30
    .00000
 11
  -7.75307
 21
  38.47659
 31
    .00000
  0
LINE
  8
LAYE
 10
  -7.79061
 20
  38.24718
 30
    .00000
 11
  -7.72361
 21
  38.23718
 31
    .00000
  0
LINE
  8
LAYE
 10
  -7.72361
 20
  38.23718
 30
    .00000
 11
  -7.77013
 21
  38.21885
 31
    .00000
  0
LINE
  8
LAYE
 10
  -7.72361
 20
  38.23718
 30
    .00000
 11
  -7.76275
 21
  38.26830
 31
    .00000
  0
LINE
  8
LAYE
 10
  -8.01025
 20
  38.31964
 30
    .00000
 11
  -7.95925
 21
  38.34464
 31
    .00000
  0
LINE
  8
LAYE
 10
  -7.95925
 20
  38.34464
 30
    .00000
 11
  -7.98713
 21
  38.30313
 31
    .00000
  0
LINE
  8
LAYE
 10
  -7.95925
 20
  38.34464
 30
    .00000
 11
  -8.00914
 21
  38.34803
 31
    .00000
  0
LINE
  8
LAYE
 10
  -7.39699
 20
  38.44657
 30
    .00000
 11
  -7.24299
 21
  38.40457
 31
    .00000
  0
LINE
  8
LAYE
 10
  -7.24299
 20
  38.40457
 30
    .00000
 11
  -7.29134
 21
  38.39184
 31
    .00000
  0
LINE
  8
LAYE
 10
  -7.24299
 20
  38.40457
 30
    .00000
 11
  -7.27819
 21
  38.44008
 31
    .00000
  0
LINE
  8
LAYE
 10
  -7.16894
 20
  38.23767
 30
    .00000
 11
  -7.01794
 21
  38.14567
 31
    .00000
  0
LINE
  8
LAYE
 10
  -7.01794
 20
  38.14567
 30
    .00000
 11
  -7.06793
 21
  38.14685
 31
    .00000
  0
LINE
  8
LAYE
 10
  -7.01794
 20
  38.14567
 30
    .00000
 11
  -7.04191
 21
  38.18955
 31
    .00000
  0
LINE
  8
LAYE
 10
  -8.64177
 20
  38.15936
 30
    .00000
 11
  -8.67977
 21
  38.25836
 31
    .00000
  0
LINE
  8
LAYE
 10
  -8.67977
 20
  38.25836
 30
    .00000
 11
  -8.64091
 21
  38.22689
 31
    .00000
  0
LINE
  8
LAYE
 10
  -8.67977
 20
  38.25836
 30
    .00000
 11
  -8.68759
 21
  38.20898
 31
    .00000
  0
LINE
  8
LAYE
 10
  -8.42790
 20
  38.04526
 30
    .00000
 11
  -8.50490
 21
  38.10626
 31
    .00000
  0
LINE
  8
LAYE
 10
  -8.50490
 20
  38.10626
 30
    .00000
 11
  -8.45543
 21
  38.09897
 31
    .00000
  0
LINE
  8
LAYE
 10
  -8.50490
 20
  38.10626
 30
    .00000
 11
  -8.48648
 21
  38.05978
 31
    .00000
  0
LINE
  8
LAYE
 10
  -8.15804
 20
  37.88358
 30
    .00000
 11
  -8.25304
 21
  37.86358
 31
    .00000
  0
LINE
  8
LAYE
 10
  -8.25304
 20
  37.86358
 30
    .00000
 11
  -8.21582
 21
  37.89696
 31
    .00000
  0
LINE
  8
LAYE
 10
  -8.25304
 20
  37.86358
 30
    .00000
 11
  -8.20552
 21
  37.84804
 31
    .00000
  0
LINE
  8
LAYE
 10
  -7.45751
 20
  38.10247
 30
    .00000
 11
  -7.34351
 21
  38.01947
 31
    .00000
  0
LINE
  8
LAYE
 10
  -7.34351
 20
  38.01947
 30
    .00000
 11
  -7.39323
 21
  38.02475
 31
    .00000
  0
LINE
  8
LAYE
 10
  -7.34351
 20
  38.01947
 30
    .00000
 11
  -7.36380
 21
  38.06517
 31
    .00000
  0
LINE
  8
LAYE
 10
  -7.86625
 20
  38.02152
 30
    .00000
 11
  -7.85925
 21
  37.97952
 31
    .00000
  0
LINE
  8
LAYE
 10
  -7.85925
 20
  37.97952
 30
    .00000
 11
  -7.89103
 21
  38.01812
 31
    .00000
  0
LINE
  8
LAYE
 10
  -7.85925
 20
  37.97952
 30
    .00000
 11
  -7.84171
 21
  38.02634
 31
    .00000
  0
LINE
  8
LAYE
 10
  -7.60229
 20
  37.93890
 30
    .00000
 11
  -7.51429
 21
  37.84690
 31
    .00000
  0
LINE
  8
LAYE
 10
  -7.51429
 20
  37.84690
 30
    .00000
 11
  -7.56229
 21
  37.86091
 31
    .00000
  0
LINE
  8
LAYE
 10
  -7.51429
 20
  37.84690
 30
    .00000
 11
  -7.52615
 21
  37.89547
 31
    .00000
  0
LINE
  8
LAYE
 10
  -7.29735
 20
  37.97687
 30
    .00000
 11
  -7.16735
 21
  37.85187
 31
    .00000
  0
LINE
  8
LAYE
 10
  -7.16735
 20
  37.85187
 30
    .00000
 11
  -7.21589
 21
  37.86386
 31
    .00000
  0
LINE
  8
LAYE
 10
  -7.16735
 20
  37.85187
 30
    .00000
 11
  -7.18124
 21
  37.89990
 31
    .00000
  0
LINE
  8
LAYE
 10
  -8.69785
 20
  37.78849
 30
    .00000
 11
  -8.90685
 21
  37.84749
 31
    .00000
  0
LINE
  8
LAYE
 10
  -8.90685
 20
  37.84749
 30
    .00000
 11
  -8.85839
 21
  37.85979
 31
    .00000
  0
LINE
  8
LAYE
 10
  -8.90685
 20
  37.84749
 30
    .00000
 11
  -8.87197
 21
  37.81167
 31
    .00000
  0
LINE
  8
LAYE
 10
  -8.41287
 20
  37.86611
 30
    .00000
 11
  -8.53287
 21
  37.86511
 31
    .00000
  0
LINE
  8
LAYE
 10
  -8.53287
 20
  37.86511
 30
    .00000
 11
  -8.48978
 21
  37.89047
 31
    .00000
  0
LINE
  8
LAYE
 10
  -8.53287
 20
  37.86511
 30
    .00000
 11
  -8.48936
 21
  37.84047
 31
    .00000
  0
LINE
  8
LAYE
 10
  -8.68353
 20
  37.50729
 30
    .00000
 11
  -9.01553
 21
  37.50729
 31
    .00000
  0
LINE
  8
LAYE
 10
  -9.01553
 20
  37.50729
 30
    .00000
 11
  -8.97223
 21
  37.53229
 31
    .00000
  0
LINE
  8
LAYE
 10
  -9.01553
 20
  37.50729
 30
    .00000
 11
  -8.97223
 21
  37.48229
 31
    .00000
  0
LINE
  8
LAYE
 10
  -8.36950
 20
  37.61804
 30
    .00000
 11
  -8.53850
 21
  37.58804
 31
    .00000
  0
LINE
  8
LAYE
 10
  -8.53850
 20
  37.58804
 30
    .00000
 11
  -8.50023
 21
  37.62022
 31
    .00000
  0
LINE
  8
LAYE
 10
  -8.53850
 20
  37.58804
 30
    .00000
 11
  -8.49150
 21
  37.57099
 31
    .00000
  0
LINE
  8
LAYE
 10
  -7.45912
 20
  37.80914
 30
    .00000
 11
  -7.37312
 21
  37.66514
 31
    .00000
  0
LINE
  8
LAYE
 10
  -7.37312
 20
  37.66514
 30
    .00000
 11
  -7.41679
 21
  37.68950
 31
    .00000
  0
LINE
  8
LAYE
 10
  -7.37312
 20
  37.66514
 30
    .00000
 11
  -7.37386
 21
  37.71513
 31
    .00000
  0
LINE
  8
LAYE
 10
  -7.76063
 20
  37.71498
 30
    .00000
 11
  -7.77063
 21
  37.56898
 31
    .00000
  0
LINE
  8
LAYE
 10
  -7.77063
 20
  37.56898
 30
    .00000
 11
  -7.79261
 21
  37.61389
 31
    .00000
  0
LINE
  8
LAYE
 10
  -7.77063
 20
  37.56898
 30
    .00000
 11
  -7.74273
 21
  37.61047
 31
    .00000
  0
LINE
  8
LAYE
 10
  -8.06668
 20
  37.62990
 30
    .00000
 11
  -8.12668
 21
  37.51490
 31
    .00000
  0
LINE
  8
LAYE
 10
  -8.12668
 20
  37.51490
 30
    .00000
 11
  -8.12881
 21
  37.56485
 31
    .00000
  0
LINE
  8
LAYE
 10
  -8.12668
 20
  37.51490
 30
    .00000
 11
  -8.08449
 21
  37.54173
 31
    .00000
  0
LINE
  8
LAYE
 10
  -7.45199
 20
  37.56253
 30
    .00000
 11
  -7.44099
 21
  37.32453
 31
    .00000
  0
LINE
  8
LAYE
 10
  -7.44099
 20
  37.32453
 30
    .00000
 11
  -7.46796
 21
  37.36663
 31
    .00000
  0
LINE
  8
LAYE
 10
  -7.44099
 20
  37.32453
 30
    .00000
 11
  -7.41802
 21
  37.36894
 31
    .00000
  0
LINE
  8
LAYE
 10
  -8.81696
 20
  37.28184
 30
    .00000
 11
  -9.24896
 21
  37.29884
 31
    .00000
  0
LINE
  8
LAYE
 10
  -9.24896
 20
  37.29884
 30
    .00000
 11
  -9.20471
 21
  37.32212
 31
    .00000
  0
LINE
  8
LAYE
 10
  -9.24896
 20
  37.29884
 30
    .00000
 11
  -9.20668
 21
  37.27216
 31
    .00000
  0
LINE
  8
LAYE
 10
  -8.56289
 20
  37.31996
 30
    .00000
 11
  -8.89789
 21
  37.27596
 31
    .00000
  0
LINE
  8
LAYE
 10
  -8.89789
 20
  37.27596
 30
    .00000
 11
  -8.85821
 21
  37.30639
 31
    .00000
  0
LINE
  8
LAYE
 10
  -8.89789
 20
  37.27596
 30
    .00000
 11
  -8.85170
 21
  37.25681
 31
    .00000
  0
LINE
  8
LAYE
 10
  -8.73524
 20
  37.22096
 30
    .00000
 11
  -9.18524
 21
  37.20396
 31
    .00000
  0
LINE
  8
LAYE
 10
  -9.18524
 20
  37.20396
 30
    .00000
 11
  -9.14291
 21
  37.23058
 31
    .00000
  0
LINE
  8
LAYE
 10
  -9.18524
 20
  37.20396
 30
    .00000
 11
  -9.14103
 21
  37.18061
 31
    .00000
  0
LINE
  8
LAYE
 10
  -8.06766
 20
  37.38424
 30
    .00000
 11
  -8.19466
 21
  37.24924
 31
    .00000
  0
LINE
  8
LAYE
 10
  -8.19466
 20
  37.24924
 30
    .00000
 11
  -8.18320
 21
  37.29791
 31
    .00000
  0
LINE
  8
LAYE
 10
  -8.19466
 20
  37.24924
 30
    .00000
 11
  -8.14678
 21
  37.26365
 31
    .00000
  0
LINE
  8
LAYE
 10
  -7.84341
 20
  37.49986
 30
    .00000
 11
  -7.92241
 21
  37.33086
 31
    .00000
  0
LINE
  8
LAYE
 10
  -7.92241
 20
  37.33086
 30
    .00000
 11
  -7.92672
 21
  37.38067
 31
    .00000
  0
LINE
  8
LAYE
 10
  -7.92241
 20
  37.33086
 30
    .00000
 11
  -7.88143
 21
  37.35950
 31
    .00000
  0
LINE
  8
LAYE
 10
  -7.40511
 20
  37.36503
 30
    .00000
 11
  -7.43611
 21
  37.03203
 31
    .00000
  0
LINE
  8
LAYE
 10
  -7.43611
 20
  37.03203
 30
    .00000
 11
  -7.45699
 21
  37.07746
 31
    .00000
  0
LINE
  8
LAYE
 10
  -7.43611
 20
  37.03203
 30
    .00000
 11
  -7.40720
 21
  37.07283
 31
    .00000
  0
LINE
  8
LAYE
 10
  -7.72535
 20
  37.26746
 30
    .00000
 11
  -7.86235
 21
  37.02746
 31
    .00000
  0
LINE
  8
LAYE
 10
  -7.86235
 20
  37.02746
 30
    .00000
 11
  -7.86260
 21
  37.07746
 31
    .00000
  0
LINE
  8
LAYE
 10
  -7.86235
 20
  37.02746
 30
    .00000
 11
  -7.81917
 21
  37.05267
 31
    .00000
  0
LINE
  8
LAYE
 10
  -7.47186
 20
  37.21846
 30
    .00000
 11
  -7.62686
 21
  36.89946
 31
    .00000
  0
LINE
  8
LAYE
 10
  -7.62686
 20
  36.89946
 30
    .00000
 11
  -7.63042
 21
  36.94933
 31
    .00000
  0
LINE
  8
LAYE
 10
  -7.62686
 20
  36.89946
 30
    .00000
 11
  -7.58545
 21
  36.92748
 31
    .00000
  0
LINE
  8
LAYE
 10
  -8.89486
 20
  37.08941
 30
    .00000
 11
  -9.46386
 21
  37.05041
 31
    .00000
  0
LINE
  8
LAYE
 10
  -9.46386
 20
  37.05041
 30
    .00000
 11
  -9.42237
 21
  37.07831
 31
    .00000
  0
LINE
  8
LAYE
 10
  -9.46386
 20
  37.05041
 30
    .00000
 11
  -9.41895
 21
  37.02843
 31
    .00000
  0
LINE
  8
LAYE
 10
  -8.67594
 20
  37.09675
 30
    .00000
 11
  -9.10194
 21
  37.01075
 31
    .00000
  0
LINE
  8
LAYE
 10
  -9.10194
 20
  37.01075
 30
    .00000
 11
  -9.06444
 21
  37.04382
 31
    .00000
  0
LINE
  8
LAYE
 10
  -9.10194
 20
  37.01075
 30
    .00000
 11
  -9.05455
 21
  36.99481
 31
    .00000
  0
LINE
  8
LAYE
 10
  -8.36377
 20
  37.15186
 30
    .00000
 11
  -8.67177
 21
  37.01686
 31
    .00000
  0
LINE
  8
LAYE
 10
  -8.67177
 20
  37.01686
 30
    .00000
 11
  -8.64215
 21
  37.05714
 31
    .00000
  0
LINE
  8
LAYE
 10
  -8.67177
 20
  37.01686
 30
    .00000
 11
  -8.62207
 21
  37.01135
 31
    .00000
  0
LINE
  8
LAYE
 10
  -7.91174
 20
  37.12438
 30
    .00000
 11
  -8.12474
 21
  36.89238
 31
    .00000
  0
LINE
  8
LAYE
 10
  -8.12474
 20
  36.89238
 30
    .00000
 11
  -8.11387
 21
  36.94118
 31
    .00000
  0
LINE
  8
LAYE
 10
  -8.12474
 20
  36.89238
 30
    .00000
 11
  -8.07704
 21
  36.90737
 31
    .00000
  0
LINE
  8
LAYE
 10
  -7.84438
 20
  36.99700
 30
    .00000
 11
  -8.05238
 21
  36.77300
 31
    .00000
  0
LINE
  8
LAYE
 10
  -8.05238
 20
  36.77300
 30
    .00000
 11
  -8.04124
 21
  36.82174
 31
    .00000
  0
LINE
  8
LAYE
 10
  -8.05238
 20
  36.77300
 30
    .00000
 11
  -8.00460
 21
  36.78772
 31
    .00000
  0
ENDSEC
  0
EOF
