  0
SECTION
  2
ENTITIES
  0
LINE
  8
LAYE
 10
  -8.59846
 20
  42.23132
 30
    .00000
 11
  -9.62446
 21
  41.27432
 31
    .00000
  0
LINE
  8
LAYE
 10
  -9.62446
 20
  41.27432
 30
    .00000
 11
  -9.60985
 21
  41.32214
 31
    .00000
  0
LINE
  8
LAYE
 10
  -9.62446
 20
  41.27432
 30
    .00000
 11
  -9.57574
 21
  41.28557
 31
    .00000
  0
LINE
  8
LAYE
 10
  -8.30700
 20
  42.21771
 30
    .00000
 11
  -9.36700
 21
  41.38771
 31
    .00000
  0
LINE
  8
LAYE
 10
  -9.36700
 20
  41.38771
 30
    .00000
 11
  -9.34832
 21
  41.43409
 31
    .00000
  0
LINE
  8
LAYE
 10
  -9.36700
 20
  41.38771
 30
    .00000
 11
  -9.31749
 21
  41.39472
 31
    .00000
  0
LINE
  8
LAYE
 10
  -8.62893
 20
  42.01327
 30
    .00000
 11
  -9.48693
 21
  41.09627
 31
    .00000
  0
LINE
  8
LAYE
 10
  -9.48693
 20
  41.09627
 30
    .00000
 11
  -9.47560
 21
  41.14497
 31
    .00000
  0
LINE
  8
LAYE
 10
  -9.48693
 20
  41.09627
 30
    .00000
 11
  -9.43909
 21
  41.11081
 31
    .00000
  0
LINE
  8
LAYE
 10
  -8.78872
 20
  41.98562
 30
    .00000
 11
  -9.61572
 21
  41.00962
 31
    .00000
  0
LINE
  8
LAYE
 10
  -9.61572
 20
  41.00962
 30
    .00000
 11
  -9.60680
 21
  41.05882
 31
    .00000
  0
LINE
  8
LAYE
 10
  -9.61572
 20
  41.00962
 30
    .00000
 11
  -9.56865
 21
  41.02649
 31
    .00000
  0
LINE
  8
LAYE
 10
  -8.20962
 20
  42.05218
 30
    .00000
 11
  -9.18962
 21
  41.22118
 31
    .00000
  0
LINE
  8
LAYE
 10
  -9.18962
 20
  41.22118
 30
    .00000
 11
  -9.17276
 21
  41.26825
 31
    .00000
  0
LINE
  8
LAYE
 10
  -9.18962
 20
  41.22118
 30
    .00000
 11
  -9.14043
 21
  41.23012
 31
    .00000
  0
LINE
  8
LAYE
 10
  -7.60232
 20
  41.94488
 30
    .00000
 11
  -8.78232
 21
  41.29988
 31
    .00000
  0
LINE
  8
LAYE
 10
  -8.78232
 20
  41.29988
 30
    .00000
 11
  -8.75632
 21
  41.34259
 31
    .00000
  0
LINE
  8
LAYE
 10
  -8.78232
 20
  41.29988
 30
    .00000
 11
  -8.73233
 21
  41.29871
 31
    .00000
  0
LINE
  8
LAYE
 10
  -6.87480
 20
  41.94723
 30
    .00000
 11
  -8.16280
 21
  41.62323
 31
    .00000
  0
LINE
  8
LAYE
 10
  -8.16280
 20
  41.62323
 30
    .00000
 11
  -8.12691
 21
  41.65804
 31
    .00000
  0
LINE
  8
LAYE
 10
  -8.16280
 20
  41.62323
 30
    .00000
 11
  -8.11471
 21
  41.60955
 31
    .00000
  0
LINE
  8
LAYE
 10
  -7.20692
 20
  41.89440
 30
    .00000
 11
  -8.46992
 21
  41.43640
 31
    .00000
  0
LINE
  8
LAYE
 10
  -8.46992
 20
  41.43640
 30
    .00000
 11
  -8.43774
 21
  41.47466
 31
    .00000
  0
LINE
  8
LAYE
 10
  -8.46992
 20
  41.43640
 30
    .00000
 11
  -8.42069
 21
  41.42766
 31
    .00000
  0
LINE
  8
LAYE
 10
  -6.45699
 20
  41.87064
 30
    .00000
 11
  -7.79799
 21
  41.65864
 31
    .00000
  0
LINE
  8
LAYE
 10
  -7.79799
 20
  41.65864
 30
    .00000
 11
  -7.75912
 21
  41.69009
 31
    .00000
  0
LINE
  8
LAYE
 10
  -7.79799
 20
  41.65864
 30
    .00000
 11
  -7.75132
 21
  41.64071
 31
    .00000
  0
LINE
  8
LAYE
 10
  -8.73210
 20
  41.86195
 30
    .00000
 11
  -9.48910
 21
  40.87195
 31
    .00000
  0
LINE
  8
LAYE
 10
  -9.48910
 20
  40.87195
 30
    .00000
 11
  -9.48266
 21
  40.92153
 31
    .00000
  0
LINE
  8
LAYE
 10
  -9.48910
 20
  40.87195
 30
    .00000
 11
  -9.44294
 21
  40.89116
 31
    .00000
  0
LINE
  8
LAYE
 10
  -8.37307
 20
  41.80921
 30
    .00000
 11
  -9.23607
 21
  41.00421
 31
    .00000
  0
LINE
  8
LAYE
 10
  -9.23607
 20
  41.00421
 30
    .00000
 11
  -9.22146
 21
  41.05203
 31
    .00000
  0
LINE
  8
LAYE
 10
  -9.23607
 20
  41.00421
 30
    .00000
 11
  -9.18735
 21
  41.01546
 31
    .00000
  0
LINE
  8
LAYE
 10
  -7.95199
 20
  41.70257
 30
    .00000
 11
  -8.86499
 21
  41.06657
 31
    .00000
  0
LINE
  8
LAYE
 10
  -8.86499
 20
  41.06657
 30
    .00000
 11
  -8.84375
 21
  41.11183
 31
    .00000
  0
LINE
  8
LAYE
 10
  -8.86499
 20
  41.06657
 30
    .00000
 11
  -8.81517
 21
  41.07081
 31
    .00000
  0
LINE
  8
LAYE
 10
  -7.41409
 20
  41.60811
 30
    .00000
 11
  -8.44409
 21
  41.14911
 31
    .00000
  0
LINE
  8
LAYE
 10
  -8.44409
 20
  41.14911
 30
    .00000
 11
  -8.41471
 21
  41.18957
 31
    .00000
  0
LINE
  8
LAYE
 10
  -8.44409
 20
  41.14911
 30
    .00000
 11
  -8.39436
 21
  41.14390
 31
    .00000
  0
LINE
  8
LAYE
 10
  -6.73441
 20
  41.74168
 30
    .00000
 11
  -7.94541
 21
  41.49768
 31
    .00000
  0
LINE
  8
LAYE
 10
  -7.94541
 20
  41.49768
 30
    .00000
 11
  -7.90790
 21
  41.53074
 31
    .00000
  0
LINE
  8
LAYE
 10
  -7.94541
 20
  41.49768
 30
    .00000
 11
  -7.89802
 21
  41.48173
 31
    .00000
  0
LINE
  8
LAYE
 10
  -6.17822
 20
  41.67608
 30
    .00000
 11
  -7.46622
 21
  41.54508
 31
    .00000
  0
LINE
  8
LAYE
 10
  -7.46622
 20
  41.54508
 30
    .00000
 11
  -7.42567
 21
  41.57433
 31
    .00000
  0
LINE
  8
LAYE
 10
  -7.46622
 20
  41.54508
 30
    .00000
 11
  -7.42061
 21
  41.52459
 31
    .00000
  0
LINE
  8
LAYE
 10
  -6.44360
 20
  41.54266
 30
    .00000
 11
  -7.64160
 21
  41.42766
 31
    .00000
  0
LINE
  8
LAYE
 10
  -7.64160
 20
  41.42766
 30
    .00000
 11
  -7.60089
 21
  41.45668
 31
    .00000
  0
LINE
  8
LAYE
 10
  -7.64160
 20
  41.42766
 30
    .00000
 11
  -7.59611
 21
  41.40691
 31
    .00000
  0
LINE
  8
LAYE
 10
  -8.65290
 20
  41.51057
 30
    .00000
 11
  -9.27690
 21
  40.75457
 31
    .00000
  0
LINE
  8
LAYE
 10
  -9.27690
 20
  40.75457
 30
    .00000
 11
  -9.26862
 21
  40.80388
 31
    .00000
  0
LINE
  8
LAYE
 10
  -9.27690
 20
  40.75457
 30
    .00000
 11
  -9.23006
 21
  40.77205
 31
    .00000
  0
LINE
  8
LAYE
 10
  -8.31490
 20
  41.38626
 30
    .00000
 11
  -9.02590
 21
  40.76226
 31
    .00000
  0
LINE
  8
LAYE
 10
  -9.02590
 20
  40.76226
 30
    .00000
 11
  -9.00985
 21
  40.80961
 31
    .00000
  0
LINE
  8
LAYE
 10
  -9.02590
 20
  40.76226
 30
    .00000
 11
  -8.97686
 21
  40.77203
 31
    .00000
  0
LINE
  8
LAYE
 10
  -8.19710
 20
  41.22390
 30
    .00000
 11
  -8.86010
 21
  40.65990
 31
    .00000
  0
LINE
  8
LAYE
 10
  -8.86010
 20
  40.65990
 30
    .00000
 11
  -8.84332
 21
  40.70700
 31
    .00000
  0
LINE
  8
LAYE
 10
  -8.86010
 20
  40.65990
 30
    .00000
 11
  -8.81092
 21
  40.66891
 31
    .00000
  0
LINE
  8
LAYE
 10
  -7.81311
 20
  41.29697
 30
    .00000
 11
  -8.55111
 21
  40.81197
 31
    .00000
  0
LINE
  8
LAYE
 10
  -8.55111
 20
  40.81197
 30
    .00000
 11
  -8.52865
 21
  40.85664
 31
    .00000
  0
LINE
  8
LAYE
 10
  -8.55111
 20
  40.81197
 30
    .00000
 11
  -8.50119
 21
  40.81486
 31
    .00000
  0
LINE
  8
LAYE
 10
  -6.90168
 20
  41.45935
 30
    .00000
 11
  -7.95468
 21
  41.20635
 31
    .00000
  0
LINE
  8
LAYE
 10
  -7.95468
 20
  41.20635
 30
    .00000
 11
  -7.91842
 21
  41.24077
 31
    .00000
  0
LINE
  8
LAYE
 10
  -7.95468
 20
  41.20635
 30
    .00000
 11
  -7.90674
 21
  41.19216
 31
    .00000
  0
LINE
  8
LAYE
 10
  -7.16473
 20
  41.26882
 30
    .00000
 11
  -8.11573
 21
  40.92882
 31
    .00000
  0
LINE
  8
LAYE
 10
  -8.11573
 20
  40.92882
 30
    .00000
 11
  -8.08337
 21
  40.96694
 31
    .00000
  0
LINE
  8
LAYE
 10
  -8.11573
 20
  40.92882
 30
    .00000
 11
  -8.06654
 21
  40.91986
 31
    .00000
  0
LINE
  8
LAYE
 10
  -6.65124
 20
  41.22398
 30
    .00000
 11
  -7.72424
 21
  41.09098
 31
    .00000
  0
LINE
  8
LAYE
 10
  -7.72424
 20
  41.09098
 30
    .00000
 11
  -7.68434
 21
  41.12112
 31
    .00000
  0
LINE
  8
LAYE
 10
  -7.72424
 20
  41.09098
 30
    .00000
 11
  -7.67819
 21
  41.07150
 31
    .00000
  0
LINE
  8
LAYE
 10
  -6.20790
 20
  41.36182
 30
    .00000
 11
  -7.34390
 21
  41.32082
 31
    .00000
  0
LINE
  8
LAYE
 10
  -7.34390
 20
  41.32082
 30
    .00000
 11
  -7.30153
 21
  41.34737
 31
    .00000
  0
LINE
  8
LAYE
 10
  -7.34390
 20
  41.32082
 30
    .00000
 11
  -7.29973
 21
  41.29740
 31
    .00000
  0
LINE
  8
LAYE
 10
  -8.53311
 20
  41.16932
 30
    .00000
 11
  -9.07411
 21
  40.55532
 31
    .00000
  0
LINE
  8
LAYE
 10
  -9.07411
 20
  40.55532
 30
    .00000
 11
  -9.06424
 21
  40.60434
 31
    .00000
  0
LINE
  8
LAYE
 10
  -9.07411
 20
  40.55532
 30
    .00000
 11
  -9.02673
 21
  40.57128
 31
    .00000
  0
LINE
  8
LAYE
 10
  -8.22465
 20
  40.92247
 30
    .00000
 11
  -8.78565
 21
  40.44947
 31
    .00000
  0
LINE
  8
LAYE
 10
  -8.78565
 20
  40.44947
 30
    .00000
 11
  -8.76866
 21
  40.49649
 31
    .00000
  0
LINE
  8
LAYE
 10
  -8.78565
 20
  40.44947
 30
    .00000
 11
  -8.73643
 21
  40.45827
 31
    .00000
  0
LINE
  8
LAYE
 10
  -7.92712
 20
  41.01665
 30
    .00000
 11
  -8.53412
 21
  40.59065
 31
    .00000
  0
LINE
  8
LAYE
 10
  -8.53412
 20
  40.59065
 30
    .00000
 11
  -8.51304
 21
  40.63599
 31
    .00000
  0
LINE
  8
LAYE
 10
  -8.53412
 20
  40.59065
 30
    .00000
 11
  -8.48431
 21
  40.59506
 31
    .00000
  0
LINE
  8
LAYE
 10
  -7.58937
 20
  40.98964
 30
    .00000
 11
  -8.25737
 21
  40.64964
 31
    .00000
  0
LINE
  8
LAYE
 10
  -8.25737
 20
  40.64964
 30
    .00000
 11
  -8.23012
 21
  40.69156
 31
    .00000
  0
LINE
  8
LAYE
 10
  -8.25737
 20
  40.64964
 30
    .00000
 11
  -8.20744
 21
  40.64700
 31
    .00000
  0
LINE
  8
LAYE
 10
  -7.36134
 20
  40.79654
 30
    .00000
 11
  -7.98934
 21
  40.53354
 31
    .00000
  0
LINE
  8
LAYE
 10
  -7.98934
 20
  40.53354
 30
    .00000
 11
  -7.95906
 21
  40.57333
 31
    .00000
  0
LINE
  8
LAYE
 10
  -7.98934
 20
  40.53354
 30
    .00000
 11
  -7.93974
 21
  40.52721
 31
    .00000
  0
LINE
  8
LAYE
 10
  -6.90903
 20
  40.87892
 30
    .00000
 11
  -7.73603
 21
  40.73092
 31
    .00000
  0
LINE
  8
LAYE
 10
  -7.73603
 20
  40.73092
 30
    .00000
 11
  -7.69781
 21
  40.76316
 31
    .00000
  0
LINE
  8
LAYE
 10
  -7.73603
 20
  40.73092
 30
    .00000
 11
  -7.68900
 21
  40.71394
 31
    .00000
  0
LINE
  8
LAYE
 10
  -8.71224
 20
  40.69593
 30
    .00000
 11
  -9.06824
 21
  40.16493
 31
    .00000
  0
LINE
  8
LAYE
 10
  -9.06824
 20
  40.16493
 30
    .00000
 11
  -9.06489
 21
  40.21482
 31
    .00000
  0
LINE
  8
LAYE
 10
  -9.06824
 20
  40.16493
 30
    .00000
 11
  -9.02336
 21
  40.18697
 31
    .00000
  0
LINE
  8
LAYE
 10
  -8.77597
 20
  40.50319
 30
    .00000
 11
  -9.03497
 21
  40.06819
 31
    .00000
  0
LINE
  8
LAYE
 10
  -9.03497
 20
  40.06819
 30
    .00000
 11
  -9.03430
 21
  40.11819
 31
    .00000
  0
LINE
  8
LAYE
 10
  -9.03497
 20
  40.06819
 30
    .00000
 11
  -8.99134
 21
  40.09261
 31
    .00000
  0
LINE
  8
LAYE
 10
  -8.16025
 20
  40.58697
 30
    .00000
 11
  -8.57825
 21
  40.18997
 31
    .00000
  0
LINE
  8
LAYE
 10
  -8.57825
 20
  40.18997
 30
    .00000
 11
  -8.56407
 21
  40.23792
 31
    .00000
  0
LINE
  8
LAYE
 10
  -8.57825
 20
  40.18997
 30
    .00000
 11
  -8.52964
 21
  40.20166
 31
    .00000
  0
LINE
  8
LAYE
 10
  -7.70517
 20
  40.63413
 30
    .00000
 11
  -8.08917
 21
  40.41713
 31
    .00000
  0
LINE
  8
LAYE
 10
  -8.08917
 20
  40.41713
 30
    .00000
 11
  -8.06377
 21
  40.46020
 31
    .00000
  0
LINE
  8
LAYE
 10
  -8.08917
 20
  40.41713
 30
    .00000
 11
  -8.03917
 21
  40.41667
 31
    .00000
  0
LINE
  8
LAYE
 10
  -7.36712
 20
  40.55018
 30
    .00000
 11
  -7.94812
 21
  40.38618
 31
    .00000
  0
LINE
  8
LAYE
 10
  -7.94812
 20
  40.38618
 30
    .00000
 11
  -7.91324
 21
  40.42200
 31
    .00000
  0
LINE
  8
LAYE
 10
  -7.94812
 20
  40.38618
 30
    .00000
 11
  -7.89966
 21
  40.37388
 31
    .00000
  0
LINE
  8
LAYE
 10
  -7.06629
 20
  40.60283
 30
    .00000
 11
  -7.73129
 21
  40.48683
 31
    .00000
  0
LINE
  8
LAYE
 10
  -7.73129
 20
  40.48683
 30
    .00000
 11
  -7.69293
 21
  40.51890
 31
    .00000
  0
LINE
  8
LAYE
 10
  -7.73129
 20
  40.48683
 30
    .00000
 11
  -7.68434
 21
  40.46964
 31
    .00000
  0
LINE
  8
LAYE
 10
  -6.78628
 20
  40.60844
 30
    .00000
 11
  -7.48228
 21
  40.56844
 31
    .00000
  0
LINE
  8
LAYE
 10
  -7.48228
 20
  40.56844
 30
    .00000
 11
  -7.44048
 21
  40.59588
 31
    .00000
  0
LINE
  8
LAYE
 10
  -7.48228
 20
  40.56844
 30
    .00000
 11
  -7.43762
 21
  40.54597
 31
    .00000
  0
LINE
  8
LAYE
 10
  -6.81546
 20
  40.45774
 30
    .00000
 11
  -7.44346
 21
  40.42874
 31
    .00000
  0
LINE
  8
LAYE
 10
  -7.44346
 20
  40.42874
 30
    .00000
 11
  -7.40136
 21
  40.45571
 31
    .00000
  0
LINE
  8
LAYE
 10
  -7.44346
 20
  40.42874
 30
    .00000
 11
  -7.39905
 21
  40.40576
 31
    .00000
  0
LINE
  8
LAYE
 10
  -8.32408
 20
  40.39766
 30
    .00000
 11
  -8.63008
 21
  40.03966
 31
    .00000
  0
LINE
  8
LAYE
 10
  -8.63008
 20
  40.03966
 30
    .00000
 11
  -8.62095
 21
  40.08882
 31
    .00000
  0
LINE
  8
LAYE
 10
  -8.63008
 20
  40.03966
 30
    .00000
 11
  -8.58294
 21
  40.05633
 31
    .00000
  0
LINE
  8
LAYE
 10
  -8.83880
 20
  40.23587
 30
    .00000
 11
  -8.99080
 21
  39.83287
 31
    .00000
  0
LINE
  8
LAYE
 10
  -8.99080
 20
  39.83287
 30
    .00000
 11
  -8.99891
 21
  39.88221
 31
    .00000
  0
LINE
  8
LAYE
 10
  -8.99080
 20
  39.83287
 30
    .00000
 11
  -8.95213
 21
  39.86456
 31
    .00000
  0
LINE
  8
LAYE
 10
  -8.14743
 20
  40.11444
 30
    .00000
 11
  -8.46443
 21
  39.86644
 31
    .00000
  0
LINE
  8
LAYE
 10
  -8.46443
 20
  39.86644
 30
    .00000
 11
  -8.44573
 21
  39.91281
 31
    .00000
  0
LINE
  8
LAYE
 10
  -8.46443
 20
  39.86644
 30
    .00000
 11
  -8.41492
 21
  39.87343
 31
    .00000
  0
LINE
  8
LAYE
 10
  -7.89948
 20
  40.41394
 30
    .00000
 11
  -8.29548
 21
  40.13294
 31
    .00000
  0
LINE
  8
LAYE
 10
  -8.29548
 20
  40.13294
 30
    .00000
 11
  -8.27463
 21
  40.17839
 31
    .00000
  0
LINE
  8
LAYE
 10
  -8.29548
 20
  40.13294
 30
    .00000
 11
  -8.24570
 21
  40.13761
 31
    .00000
  0
LINE
  8
LAYE
 10
  -7.77893
 20
  40.23238
 30
    .00000
 11
  -8.16993
 21
  40.06438
 31
    .00000
  0
LINE
  8
LAYE
 10
  -8.16993
 20
  40.06438
 30
    .00000
 11
  -8.14001
 21
  40.10444
 31
    .00000
  0
LINE
  8
LAYE
 10
  -8.16993
 20
  40.06438
 30
    .00000
 11
  -8.12028
 21
  40.05850
 31
    .00000
  0
LINE
  8
LAYE
 10
  -7.56702
 20
  40.33860
 30
    .00000
 11
  -8.02602
 21
  40.17160
 31
    .00000
  0
LINE
  8
LAYE
 10
  -8.02602
 20
  40.17160
 30
    .00000
 11
  -7.99388
 21
  40.20990
 31
    .00000
  0
LINE
  8
LAYE
 10
  -8.02602
 20
  40.17160
 30
    .00000
 11
  -7.97678
 21
  40.16291
 31
    .00000
  0
LINE
  8
LAYE
 10
  -7.48670
 20
  40.09507
 30
    .00000
 11
  -7.86970
 21
  39.95007
 31
    .00000
  0
LINE
  8
LAYE
 10
  -7.86970
 20
  39.95007
 30
    .00000
 11
  -7.83806
 21
  39.98878
 31
    .00000
  0
LINE
  8
LAYE
 10
  -7.86970
 20
  39.95007
 30
    .00000
 11
  -7.82035
 21
  39.94202
 31
    .00000
  0
LINE
  8
LAYE
 10
  -7.12842
 20
  40.36330
 30
    .00000
 11
  -7.65242
 21
  40.24430
 31
    .00000
  0
LINE
  8
LAYE
 10
  -7.65242
 20
  40.24430
 30
    .00000
 11
  -7.61573
 21
  40.27827
 31
    .00000
  0
LINE
  8
LAYE
 10
  -7.65242
 20
  40.24430
 30
    .00000
 11
  -7.60466
 21
  40.22951
 31
    .00000
  0
LINE
  8
LAYE
 10
  -6.80803
 20
  40.27469
 30
    .00000
 11
  -7.33003
 21
  40.24969
 31
    .00000
  0
LINE
  8
LAYE
 10
  -7.33003
 20
  40.24969
 30
    .00000
 11
  -7.28797
 21
  40.27673
 31
    .00000
  0
LINE
  8
LAYE
 10
  -7.33003
 20
  40.24969
 30
    .00000
 11
  -7.28558
 21
  40.22679
 31
    .00000
  0
LINE
  8
LAYE
 10
  -7.07291
 20
  40.03597
 30
    .00000
 11
  -7.48791
 21
  40.03397
 31
    .00000
  0
LINE
  8
LAYE
 10
  -7.48791
 20
  40.03397
 30
    .00000
 11
  -7.44473
 21
  40.05918
 31
    .00000
  0
LINE
  8
LAYE
 10
  -7.48791
 20
  40.03397
 30
    .00000
 11
  -7.44449
 21
  40.00918
 31
    .00000
  0
LINE
  8
LAYE
 10
  -9.00064
 20
  39.70437
 30
    .00000
 11
  -9.01964
 21
  39.53237
 31
    .00000
  0
LINE
  8
LAYE
 10
  -9.01964
 20
  39.53237
 30
    .00000
 11
  -9.03973
 21
  39.57815
 31
    .00000
  0
LINE
  8
LAYE
 10
  -9.01964
 20
  39.53237
 30
    .00000
 11
  -8.99004
 21
  39.57266
 31
    .00000
  0
LINE
  8
LAYE
 10
  -8.82832
 20
  39.92017
 30
    .00000
 11
  -8.97432
 21
  39.63917
 31
    .00000
  0
LINE
  8
LAYE
 10
  -8.97432
 20
  39.63917
 30
    .00000
 11
  -8.97654
 21
  39.68912
 31
    .00000
  0
LINE
  8
LAYE
 10
  -8.97432
 20
  39.63917
 30
    .00000
 11
  -8.93217
 21
  39.66607
 31
    .00000
  0
LINE
  8
LAYE
 10
  -8.51294
 20
  39.94329
 30
    .00000
 11
  -8.78294
 21
  39.71429
 31
    .00000
  0
LINE
  8
LAYE
 10
  -8.78294
 20
  39.71429
 30
    .00000
 11
  -8.76609
 21
  39.76136
 31
    .00000
  0
LINE
  8
LAYE
 10
  -8.78294
 20
  39.71429
 30
    .00000
 11
  -8.73375
 21
  39.72323
 31
    .00000
  0
LINE
  8
LAYE
 10
  -7.89701
 20
  39.86179
 30
    .00000
 11
  -8.18301
 21
  39.72979
 31
    .00000
  0
LINE
  8
LAYE
 10
  -8.18301
 20
  39.72979
 30
    .00000
 11
  -8.15417
 21
  39.77063
 31
    .00000
  0
LINE
  8
LAYE
 10
  -8.18301
 20
  39.72979
 30
    .00000
 11
  -8.13322
 21
  39.72524
 31
    .00000
  0
LINE
  8
LAYE
 10
  -8.11495
 20
  39.70574
 30
    .00000
 11
  -8.26695
 21
  39.58974
 31
    .00000
  0
LINE
  8
LAYE
 10
  -8.26695
 20
  39.58974
 30
    .00000
 11
  -8.24769
 21
  39.63588
 31
    .00000
  0
LINE
  8
LAYE
 10
  -8.26695
 20
  39.58974
 30
    .00000
 11
  -8.21736
 21
  39.59614
 31
    .00000
  0
LINE
  8
LAYE
 10
  -7.43382
 20
  39.81177
 30
    .00000
 11
  -7.73182
 21
  39.72377
 31
    .00000
  0
LINE
  8
LAYE
 10
  -7.73182
 20
  39.72377
 30
    .00000
 11
  -7.69737
 21
  39.76001
 31
    .00000
  0
LINE
  8
LAYE
 10
  -7.73182
 20
  39.72377
 30
    .00000
 11
  -7.68321
 21
  39.71206
 31
    .00000
  0
LINE
  8
LAYE
 10
  -7.01008
 20
  39.72939
 30
    .00000
 11
  -7.30908
 21
  39.78039
 31
    .00000
  0
LINE
  8
LAYE
 10
  -7.30908
 20
  39.78039
 30
    .00000
 11
  -7.26219
 21
  39.79775
 31
    .00000
  0
LINE
  8
LAYE
 10
  -7.30908
 20
  39.78039
 30
    .00000
 11
  -7.27060
 21
  39.74847
 31
    .00000
  0
LINE
  8
LAYE
 10
  -9.42609
 20
  39.37580
 30
    .00000
 11
  -9.24309
 21
  39.22380
 31
    .00000
  0
LINE
  8
LAYE
 10
  -9.24309
 20
  39.22380
 30
    .00000
 11
  -9.29237
 21
  39.23224
 31
    .00000
  0
LINE
  8
LAYE
 10
  -9.24309
 20
  39.22380
 30
    .00000
 11
  -9.26043
 21
  39.27070
 31
    .00000
  0
LINE
  8
LAYE
 10
  -9.21855
 20
  39.47156
 30
    .00000
 11
  -9.04455
 21
  39.29456
 31
    .00000
  0
LINE
  8
LAYE
 10
  -9.04455
 20
  39.29456
 30
    .00000
 11
  -9.09273
 21
  39.30791
 31
    .00000
  0
LINE
  8
LAYE
 10
  -9.04455
 20
  39.29456
 30
    .00000
 11
  -9.05708
 21
  39.34297
 31
    .00000
  0
LINE
  8
LAYE
 10
  -8.92169
 20
  39.45462
 30
    .00000
 11
  -8.89069
 21
  39.28262
 31
    .00000
  0
LINE
  8
LAYE
 10
  -8.89069
 20
  39.28262
 30
    .00000
 11
  -8.92297
 21
  39.32080
 31
    .00000
  0
LINE
  8
LAYE
 10
  -8.89069
 20
  39.28262
 30
    .00000
 11
  -8.87377
 21
  39.32967
 31
    .00000
  0
LINE
  8
LAYE
 10
  -8.62490
 20
  39.55090
 30
    .00000
 11
  -8.74190
 21
  39.39990
 31
    .00000
  0
LINE
  8
LAYE
 10
  -8.74190
 20
  39.39990
 30
    .00000
 11
  -8.73514
 21
  39.44944
 31
    .00000
  0
LINE
  8
LAYE
 10
  -8.74190
 20
  39.39990
 30
    .00000
 11
  -8.69562
 21
  39.41882
 31
    .00000
  0
LINE
  8
LAYE
 10
  -8.27888
 20
  39.53313
 30
    .00000
 11
  -8.41988
 21
  39.41113
 31
    .00000
  0
LINE
  8
LAYE
 10
  -8.41988
 20
  39.41113
 30
    .00000
 11
  -8.40349
 21
  39.45837
 31
    .00000
  0
LINE
  8
LAYE
 10
  -8.41988
 20
  39.41113
 30
    .00000
 11
  -8.37078
 21
  39.42056
 31
    .00000
  0
LINE
  8
LAYE
 10
  -8.74593
 20
  39.34761
 30
    .00000
 11
  -8.79093
 21
  39.21861
 31
    .00000
  0
LINE
  8
LAYE
 10
  -8.79093
 20
  39.21861
 30
    .00000
 11
  -8.80027
 21
  39.26773
 31
    .00000
  0
LINE
  8
LAYE
 10
  -8.79093
 20
  39.21861
 30
    .00000
 11
  -8.75306
 21
  39.25126
 31
    .00000
  0
LINE
  8
LAYE
 10
  -8.40913
 20
  39.34586
 30
    .00000
 11
  -8.49113
 21
  39.24886
 31
    .00000
  0
LINE
  8
LAYE
 10
  -8.49113
 20
  39.24886
 30
    .00000
 11
  -8.48227
 21
  39.29807
 31
    .00000
  0
LINE
  8
LAYE
 10
  -8.49113
 20
  39.24886
 30
    .00000
 11
  -8.44408
 21
  39.26579
 31
    .00000
  0
LINE
  8
LAYE
 10
  -7.61185
 20
  39.57701
 30
    .00000
 11
  -7.79385
 21
  39.56001
 31
    .00000
  0
LINE
  8
LAYE
 10
  -7.79385
 20
  39.56001
 30
    .00000
 11
  -7.75306
 21
  39.58893
 31
    .00000
  0
LINE
  8
LAYE
 10
  -7.79385
 20
  39.56001
 30
    .00000
 11
  -7.74841
 21
  39.53915
 31
    .00000
  0
LINE
  8
LAYE
 10
  -7.99921
 20
  39.37405
 30
    .00000
 11
  -8.12121
 21
  39.30405
 31
    .00000
  0
LINE
  8
LAYE
 10
  -8.12121
 20
  39.30405
 30
    .00000
 11
  -8.09609
 21
  39.34728
 31
    .00000
  0
LINE
  8
LAYE
 10
  -8.12121
 20
  39.30405
 30
    .00000
 11
  -8.07121
 21
  39.30392
 31
    .00000
  0
LINE
  8
LAYE
 10
  -7.19971
 20
  39.60591
 30
    .00000
 11
  -7.36571
 21
  39.58691
 31
    .00000
  0
LINE
  8
LAYE
 10
  -7.36571
 20
  39.58691
 30
    .00000
 11
  -7.32553
 21
  39.61667
 31
    .00000
  0
LINE
  8
LAYE
 10
  -7.36571
 20
  39.58691
 30
    .00000
 11
  -7.31985
 21
  39.56700
 31
    .00000
  0
LINE
  8
LAYE
 10
  -7.34827
 20
  39.31100
 30
    .00000
 11
  -7.47127
 21
  39.33600
 31
    .00000
  0
LINE
  8
LAYE
 10
  -7.47127
 20
  39.33600
 30
    .00000
 11
  -7.42386
 21
  39.35187
 31
    .00000
  0
LINE
  8
LAYE
 10
  -7.47127
 20
  39.33600
 30
    .00000
 11
  -7.43382
 21
  39.30288
 31
    .00000
  0
LINE
  8
LAYE
 10
  -9.05964
 20
  39.18478
 30
    .00000
 11
  -8.94864
 21
  39.07078
 31
    .00000
  0
LINE
  8
LAYE
 10
  -8.94864
 20
  39.07078
 30
    .00000
 11
  -8.99676
 21
  39.08436
 31
    .00000
  0
LINE
  8
LAYE
 10
  -8.94864
 20
  39.07078
 30
    .00000
 11
  -8.96094
 21
  39.11924
 31
    .00000
  0
LINE
  8
LAYE
 10
  -9.32778
 20
  39.02074
 30
    .00000
 11
  -9.21578
 21
  38.93674
 31
    .00000
  0
LINE
  8
LAYE
 10
  -9.21578
 20
  38.93674
 30
    .00000
 11
  -9.26542
 21
  38.94272
 31
    .00000
  0
LINE
  8
LAYE
 10
  -9.21578
 20
  38.93674
 30
    .00000
 11
  -9.23542
 21
  38.98272
 31
    .00000
  0
LINE
  8
LAYE
 10
  -8.58535
 20
  39.15064
 30
    .00000
 11
  -8.59835
 21
  39.06664
 31
    .00000
  0
LINE
  8
LAYE
 10
  -8.59835
 20
  39.06664
 30
    .00000
 11
  -8.61643
 21
  39.11326
 31
    .00000
  0
LINE
  8
LAYE
 10
  -8.59835
 20
  39.06664
 30
    .00000
 11
  -8.56702
 21
  39.10561
 31
    .00000
  0
LINE
  8
LAYE
 10
  -8.18253
 20
  39.08271
 30
    .00000
 11
  -8.23053
 21
  39.02871
 31
    .00000
  0
LINE
  8
LAYE
 10
  -8.23053
 20
  39.02871
 30
    .00000
 11
  -8.22045
 21
  39.07768
 31
    .00000
  0
LINE
  8
LAYE
 10
  -8.23053
 20
  39.02871
 30
    .00000
 11
  -8.18308
 21
  39.04446
 31
    .00000
  0
LINE
  8
LAYE
 10
  -7.61333
 20
  39.19173
 30
    .00000
 11
  -7.70733
 21
  39.16573
 31
    .00000
  0
LINE
  8
LAYE
 10
  -7.70733
 20
  39.16573
 30
    .00000
 11
  -7.67226
 21
  39.20137
 31
    .00000
  0
LINE
  8
LAYE
 10
  -7.70733
 20
  39.16573
 30
    .00000
 11
  -7.65893
 21
  39.15318
 31
    .00000
  0
LINE
  8
LAYE
 10
  -7.10056
 20
  39.02871
 30
    .00000
 11
  -7.16656
 21
  39.05271
 31
    .00000
  0
LINE
  8
LAYE
 10
  -7.16656
 20
  39.05271
 30
    .00000
 11
  -7.11732
 21
  39.06141
 31
    .00000
  0
LINE
  8
LAYE
 10
  -7.16656
 20
  39.05271
 30
    .00000
 11
  -7.13441
 21
  39.01442
 31
    .00000
  0
LINE
  8
LAYE
 10
  -9.45319
 20
  38.78102
 30
    .00000
 11
  -9.33619
 21
  38.71402
 31
    .00000
  0
LINE
  8
LAYE
 10
  -9.33619
 20
  38.71402
 30
    .00000
 11
  -9.38619
 21
  38.71384
 31
    .00000
  0
LINE
  8
LAYE
 10
  -9.33619
 20
  38.71402
 30
    .00000
 11
  -9.36134
 21
  38.75723
 31
    .00000
  0
LINE
  8
LAYE
 10
  -9.09932
 20
  38.89954
 30
    .00000
 11
  -9.01632
 21
  38.84654
 31
    .00000
  0
LINE
  8
LAYE
 10
  -9.01632
 20
  38.84654
 30
    .00000
 11
  -9.06627
 21
  38.84877
 31
    .00000
  0
LINE
  8
LAYE
 10
  -9.01632
 20
  38.84654
 30
    .00000
 11
  -9.03936
 21
  38.89091
 31
    .00000
  0
LINE
  8
LAYE
 10
  -9.14046
 20
  38.71890
 30
    .00000
 11
  -9.06746
 21
  38.66690
 31
    .00000
  0
LINE
  8
LAYE
 10
  -9.06746
 20
  38.66690
 30
    .00000
 11
  -9.11723
 21
  38.67166
 31
    .00000
  0
LINE
  8
LAYE
 10
  -9.06746
 20
  38.66690
 30
    .00000
 11
  -9.08822
 21
  38.71238
 31
    .00000
  0
LINE
  8
LAYE
 10
  -8.52205
 20
  38.84417
 30
    .00000
 11
  -8.49205
 21
  38.80817
 31
    .00000
  0
LINE
  8
LAYE
 10
  -8.49205
 20
  38.80817
 30
    .00000
 11
  -8.53898
 21
  38.82543
 31
    .00000
  0
LINE
  8
LAYE
 10
  -8.49205
 20
  38.80817
 30
    .00000
 11
  -8.50057
 21
  38.85744
 31
    .00000
  0
LINE
  8
LAYE
 10
  -8.54032
 20
  38.68825
 30
    .00000
 11
  -8.53832
 21
  38.69325
 31
    .00000
  0
LINE
  8
LAYE
 10
  -8.53832
 20
  38.69325
 30
    .00000
 11
  -8.53119
 21
  38.64376
 31
    .00000
  0
LINE
  8
LAYE
 10
  -8.53832
 20
  38.69325
 30
    .00000
 11
  -8.57761
 21
  38.66233
 31
    .00000
  0
LINE
  8
LAYE
 10
  -7.64858
 20
  38.91534
 30
    .00000
 11
  -7.70358
 21
  38.92534
 31
    .00000
  0
LINE
  8
LAYE
 10
  -7.70358
 20
  38.92534
 30
    .00000
 11
  -7.65651
 21
  38.94219
 31
    .00000
  0
LINE
  8
LAYE
 10
  -7.70358
 20
  38.92534
 30
    .00000
 11
  -7.66545
 21
  38.89300
 31
    .00000
  0
LINE
  8
LAYE
 10
  -7.98593
 20
  38.72440
 30
    .00000
 11
  -8.00793
 21
  38.73740
 31
    .00000
  0
LINE
  8
LAYE
 10
  -8.00793
 20
  38.73740
 30
    .00000
 11
  -7.95793
 21
  38.73689
 31
    .00000
  0
LINE
  8
LAYE
 10
  -8.00793
 20
  38.73740
 30
    .00000
 11
  -7.98337
 21
  38.69385
 31
    .00000
  0
LINE
  8
LAYE
 10
  -7.58084
 20
  38.73881
 30
    .00000
 11
  -7.61284
 21
  38.74581
 31
    .00000
  0
LINE
  8
LAYE
 10
  -7.61284
 20
  38.74581
 30
    .00000
 11
  -7.56520
 21
  38.76098
 31
    .00000
  0
LINE
  8
LAYE
 10
  -7.61284
 20
  38.74581
 30
    .00000
 11
  -7.57588
 21
  38.71213
 31
    .00000
  0
LINE
  8
LAYE
 10
  -7.25185
 20
  38.83649
 30
    .00000
 11
  -7.32085
 21
  38.87049
 31
    .00000
  0
LINE
  8
LAYE
 10
  -7.32085
 20
  38.87049
 30
    .00000
 11
  -7.27096
 21
  38.87378
 31
    .00000
  0
LINE
  8
LAYE
 10
  -7.32085
 20
  38.87049
 30
    .00000
 11
  -7.29306
 21
  38.82893
 31
    .00000
  0
LINE
  8
LAYE
 10
  -8.90657
 20
  38.56546
 30
    .00000
 11
  -8.84357
 21
  38.57246
 31
    .00000
  0
LINE
  8
LAYE
 10
  -8.84357
 20
  38.57246
 30
    .00000
 11
  -8.88385
 21
  38.54283
 31
    .00000
  0
LINE
  8
LAYE
 10
  -8.84357
 20
  38.57246
 30
    .00000
 11
  -8.88937
 21
  38.59253
 31
    .00000
  0
LINE
  8
LAYE
 10
  -9.11318
 20
  38.45190
 30
    .00000
 11
  -9.04918
 21
  38.46090
 31
    .00000
  0
LINE
  8
LAYE
 10
  -9.04918
 20
  38.46090
 30
    .00000
 11
  -9.08858
 21
  38.43011
 31
    .00000
  0
LINE
  8
LAYE
 10
  -9.04918
 20
  38.46090
 30
    .00000
 11
  -9.09554
 21
  38.47963
 31
    .00000
  0
LINE
  8
LAYE
 10
  -8.52190
 20
  38.49340
 30
    .00000
 11
  -8.53390
 21
  38.47840
 31
    .00000
  0
LINE
  8
LAYE
 10
  -8.53390
 20
  38.47840
 30
    .00000
 11
  -8.52637
 21
  38.52783
 31
    .00000
  0
LINE
  8
LAYE
 10
  -8.53390
 20
  38.47840
 30
    .00000
 11
  -8.48733
 21
  38.49660
 31
    .00000
  0
LINE
  8
LAYE
 10
  -8.18695
 20
  38.57005
 30
    .00000
 11
  -8.21695
 21
  38.56105
 31
    .00000
  0
LINE
  8
LAYE
 10
  -8.21695
 20
  38.56105
 30
    .00000
 11
  -8.18266
 21
  38.59744
 31
    .00000
  0
LINE
  8
LAYE
 10
  -8.21695
 20
  38.56105
 30
    .00000
 11
  -8.16829
 21
  38.54955
 31
    .00000
  0
LINE
  8
LAYE
 10
  -8.23339
 20
  38.24332
 30
    .00000
 11
  -8.24739
 21
  38.26832
 31
    .00000
  0
LINE
  8
LAYE
 10
  -8.24739
 20
  38.26832
 30
    .00000
 11
  -8.20442
 21
  38.24275
 31
    .00000
  0
LINE
  8
LAYE
 10
  -8.24739
 20
  38.26832
 30
    .00000
 11
  -8.24805
 21
  38.21832
 31
    .00000
  0
LINE
  8
LAYE
 10
  -7.79837
 20
  38.44758
 30
    .00000
 11
  -7.82337
 21
  38.45458
 31
    .00000
  0
LINE
  8
LAYE
 10
  -7.82337
 20
  38.45458
 30
    .00000
 11
  -7.77493
 21
  38.46698
 31
    .00000
  0
LINE
  8
LAYE
 10
  -7.82337
 20
  38.45458
 30
    .00000
 11
  -7.78841
 21
  38.41883
 31
    .00000
  0
LINE
  8
LAYE
 10
  -7.78171
 20
  38.24408
 30
    .00000
 11
  -7.80371
 21
  38.26508
 31
    .00000
  0
LINE
  8
LAYE
 10
  -7.80371
 20
  38.26508
 30
    .00000
 11
  -7.75513
 21
  38.25327
 31
    .00000
  0
LINE
  8
LAYE
 10
  -7.80371
 20
  38.26508
 30
    .00000
 11
  -7.78965
 21
  38.21710
 31
    .00000
  0
LINE
  8
LAYE
 10
  -8.00295
 20
  38.32044
 30
    .00000
 11
  -8.02495
 21
  38.33744
 31
    .00000
  0
LINE
  8
LAYE
 10
  -8.02495
 20
  38.33744
 30
    .00000
 11
  -7.97540
 21
  38.33075
 31
    .00000
  0
LINE
  8
LAYE
 10
  -8.02495
 20
  38.33744
 30
    .00000
 11
  -8.00597
 21
  38.29118
 31
    .00000
  0
LINE
  8
LAYE
 10
  -7.37849
 20
  38.44107
 30
    .00000
 11
  -7.40949
 21
  38.45407
 31
    .00000
  0
LINE
  8
LAYE
 10
  -7.40949
 20
  38.45407
 30
    .00000
 11
  -7.35989
 21
  38.46038
 31
    .00000
  0
LINE
  8
LAYE
 10
  -7.40949
 20
  38.45407
 30
    .00000
 11
  -7.37923
 21
  38.41427
 31
    .00000
  0
LINE
  8
LAYE
 10
  -7.15164
 20
  38.22627
 30
    .00000
 11
  -7.17364
 21
  38.24827
 31
    .00000
  0
LINE
  8
LAYE
 10
  -7.17364
 20
  38.24827
 30
    .00000
 11
  -7.12534
 21
  38.23533
 31
    .00000
  0
LINE
  8
LAYE
 10
  -7.17364
 20
  38.24827
 30
    .00000
 11
  -7.16070
 21
  38.19997
 31
    .00000
  0
LINE
  8
LAYE
 10
  -8.64667
 20
  38.16606
 30
    .00000
 11
  -8.63567
 21
  38.19806
 31
    .00000
  0
LINE
  8
LAYE
 10
  -8.63567
 20
  38.19806
 30
    .00000
 11
  -8.62610
 21
  38.14898
 31
    .00000
  0
LINE
  8
LAYE
 10
  -8.63567
 20
  38.19806
 30
    .00000
 11
  -8.67339
 21
  38.16524
 31
    .00000
  0
LINE
  8
LAYE
 10
  -8.43220
 20
  38.04766
 30
    .00000
 11
  -8.46620
 21
  38.08466
 31
    .00000
  0
LINE
  8
LAYE
 10
  -8.46620
 20
  38.08466
 30
    .00000
 11
  -8.41849
 21
  38.06969
 31
    .00000
  0
LINE
  8
LAYE
 10
  -8.46620
 20
  38.08466
 30
    .00000
 11
  -8.45531
 21
  38.03586
 31
    .00000
  0
LINE
  8
LAYE
 10
  -8.16204
 20
  37.88028
 30
    .00000
 11
  -8.21704
 21
  37.89328
 31
    .00000
  0
LINE
  8
LAYE
 10
  -8.21704
 20
  37.89328
 30
    .00000
 11
  -8.16915
 21
  37.90765
 31
    .00000
  0
LINE
  8
LAYE
 10
  -8.21704
 20
  37.89328
 30
    .00000
 11
  -8.18065
 21
  37.85899
 31
    .00000
  0
LINE
  8
LAYE
 10
  -7.44711
 20
  38.09297
 30
    .00000
 11
  -7.43711
 21
  38.10497
 31
    .00000
  0
LINE
  8
LAYE
 10
  -7.43711
 20
  38.10497
 30
    .00000
 11
  -7.44563
 21
  38.05570
 31
    .00000
  0
LINE
  8
LAYE
 10
  -7.43711
 20
  38.10497
 30
    .00000
 11
  -7.48404
 21
  38.08771
 31
    .00000
  0
LINE
  8
LAYE
 10
  -7.86325
 20
  38.01622
 30
    .00000
 11
  -7.88625
 21
  38.02722
 31
    .00000
  0
LINE
  8
LAYE
 10
  -7.88625
 20
  38.02722
 30
    .00000
 11
  -7.83640
 21
  38.03109
 31
    .00000
  0
LINE
  8
LAYE
 10
  -7.88625
 20
  38.02722
 30
    .00000
 11
  -7.85797
 21
  37.98598
 31
    .00000
  0
LINE
  8
LAYE
 10
  -7.59729
 20
  37.92890
 30
    .00000
 11
  -7.55929
 21
  37.93690
 31
    .00000
  0
LINE
  8
LAYE
 10
  -7.55929
 20
  37.93690
 30
    .00000
 11
  -7.59651
 21
  37.90352
 31
    .00000
  0
LINE
  8
LAYE
 10
  -7.55929
 20
  37.93690
 30
    .00000
 11
  -7.60681
 21
  37.95244
 31
    .00000
  0
LINE
  8
LAYE
 10
  -7.28725
 20
  37.96337
 30
    .00000
 11
  -7.25825
 21
  37.97337
 31
    .00000
  0
LINE
  8
LAYE
 10
  -7.25825
 20
  37.97337
 30
    .00000
 11
  -7.29104
 21
  37.93562
 31
    .00000
  0
LINE
  8
LAYE
 10
  -7.25825
 20
  37.97337
 30
    .00000
 11
  -7.30734
 21
  37.98289
 31
    .00000
  0
LINE
  8
LAYE
 10
  -8.71125
 20
  37.79089
 30
    .00000
 11
  -8.78625
 21
  37.82589
 31
    .00000
  0
LINE
  8
LAYE
 10
  -8.78625
 20
  37.82589
 30
    .00000
 11
  -8.73644
 21
  37.83023
 31
    .00000
  0
LINE
  8
LAYE
 10
  -8.78625
 20
  37.82589
 30
    .00000
 11
  -8.75758
 21
  37.78492
 31
    .00000
  0
LINE
  8
LAYE
 10
  -8.42077
 20
  37.86581
 30
    .00000
 11
  -8.46177
 21
  37.86781
 31
    .00000
  0
LINE
  8
LAYE
 10
  -8.46177
 20
  37.86781
 30
    .00000
 11
  -8.41730
 21
  37.89067
 31
    .00000
  0
LINE
  8
LAYE
 10
  -8.46177
 20
  37.86781
 30
    .00000
 11
  -8.41974
 21
  37.84073
 31
    .00000
  0
LINE
  8
LAYE
 10
  -8.70273
 20
  37.50569
 30
    .00000
 11
  -8.84273
 21
  37.52169
 31
    .00000
  0
LINE
  8
LAYE
 10
  -8.84273
 20
  37.52169
 30
    .00000
 11
  -8.79687
 21
  37.54161
 31
    .00000
  0
LINE
  8
LAYE
 10
  -8.84273
 20
  37.52169
 30
    .00000
 11
  -8.80255
 21
  37.49193
 31
    .00000
  0
LINE
  8
LAYE
 10
  -8.38190
 20
  37.61374
 30
    .00000
 11
  -8.42690
 21
  37.62674
 31
    .00000
  0
LINE
  8
LAYE
 10
  -8.42690
 20
  37.62674
 30
    .00000
 11
  -8.37836
 21
  37.63874
 31
    .00000
  0
LINE
  8
LAYE
 10
  -8.42690
 20
  37.62674
 30
    .00000
 11
  -8.39224
 21
  37.59070
 31
    .00000
  0
LINE
  8
LAYE
 10
  -7.45482
 20
  37.79544
 30
    .00000
 11
  -7.41182
 21
  37.78844
 31
    .00000
  0
LINE
  8
LAYE
 10
  -7.41182
 20
  37.78844
 30
    .00000
 11
  -7.45858
 21
  37.77072
 31
    .00000
  0
LINE
  8
LAYE
 10
  -7.41182
 20
  37.78844
 30
    .00000
 11
  -7.45054
 21
  37.82007
 31
    .00000
  0
LINE
  8
LAYE
 10
  -7.76263
 20
  37.70388
 30
    .00000
 11
  -7.75263
 21
  37.66888
 31
    .00000
  0
LINE
  8
LAYE
 10
  -7.75263
 20
  37.66888
 30
    .00000
 11
  -7.78856
 21
  37.70365
 31
    .00000
  0
LINE
  8
LAYE
 10
  -7.75263
 20
  37.66888
 30
    .00000
 11
  -7.74049
 21
  37.71738
 31
    .00000
  0
LINE
  8
LAYE
 10
  -8.07468
 20
  37.62170
 30
    .00000
 11
  -8.05468
 21
  37.58870
 31
    .00000
  0
LINE
  8
LAYE
 10
  -8.05468
 20
  37.58870
 30
    .00000
 11
  -8.09850
 21
  37.61277
 31
    .00000
  0
LINE
  8
LAYE
 10
  -8.05468
 20
  37.58870
 30
    .00000
 11
  -8.05574
 21
  37.63869
 31
    .00000
  0
LINE
  8
LAYE
 10
  -7.45289
 20
  37.54523
 30
    .00000
 11
  -7.43289
 21
  37.48023
 31
    .00000
  0
LINE
  8
LAYE
 10
  -7.43289
 20
  37.48023
 30
    .00000
 11
  -7.46952
 21
  37.51426
 31
    .00000
  0
LINE
  8
LAYE
 10
  -7.43289
 20
  37.48023
 30
    .00000
 11
  -7.42173
 21
  37.52897
 31
    .00000
  0
LINE
  8
LAYE
 10
  -8.84256
 20
  37.27884
 30
    .00000
 11
  -9.01856
 21
  37.32584
 31
    .00000
  0
LINE
  8
LAYE
 10
  -9.01856
 20
  37.32584
 30
    .00000
 11
  -8.97027
 21
  37.33882
 31
    .00000
  0
LINE
  8
LAYE
 10
  -9.01856
 20
  37.32584
 30
    .00000
 11
  -8.98317
 21
  37.29051
 31
    .00000
  0
LINE
  8
LAYE
 10
  -8.58419
 20
  37.31416
 30
    .00000
 11
  -8.70619
 21
  37.32816
 31
    .00000
  0
LINE
  8
LAYE
 10
  -8.70619
 20
  37.32816
 30
    .00000
 11
  -8.66032
 21
  37.34806
 31
    .00000
  0
LINE
  8
LAYE
 10
  -8.70619
 20
  37.32816
 30
    .00000
 11
  -8.66602
 21
  37.29839
 31
    .00000
  0
LINE
  8
LAYE
 10
  -8.76104
 20
  37.21606
 30
    .00000
 11
  -8.95304
 21
  37.24806
 31
    .00000
  0
LINE
  8
LAYE
 10
  -8.95304
 20
  37.24806
 30
    .00000
 11
  -8.90622
 21
  37.26560
 31
    .00000
  0
LINE
  8
LAYE
 10
  -8.95304
 20
  37.24806
 30
    .00000
 11
  -8.91444
 21
  37.21628
 31
    .00000
  0
LINE
  8
LAYE
 10
  -8.08066
 20
  37.37264
 30
    .00000
 11
  -8.07766
 21
  37.35364
 31
    .00000
  0
LINE
  8
LAYE
 10
  -8.07766
 20
  37.35364
 30
    .00000
 11
  -8.10911
 21
  37.39251
 31
    .00000
  0
LINE
  8
LAYE
 10
  -8.07766
 20
  37.35364
 30
    .00000
 11
  -8.05972
 21
  37.40031
 31
    .00000
  0
LINE
  8
LAYE
 10
  -7.85091
 20
  37.48686
 30
    .00000
 11
  -7.85491
 21
  37.44786
 31
    .00000
  0
LINE
  8
LAYE
 10
  -7.85491
 20
  37.44786
 30
    .00000
 11
  -7.87536
 21
  37.49349
 31
    .00000
  0
LINE
  8
LAYE
 10
  -7.85491
 20
  37.44786
 30
    .00000
 11
  -7.82562
 21
  37.48838
 31
    .00000
  0
LINE
  8
LAYE
 10
  -7.40961
 20
  37.34423
 30
    .00000
 11
  -7.39561
 21
  37.21923
 31
    .00000
  0
LINE
  8
LAYE
 10
  -7.39561
 20
  37.21923
 30
    .00000
 11
  -7.42527
 21
  37.25948
 31
    .00000
  0
LINE
  8
LAYE
 10
  -7.39561
 20
  37.21923
 30
    .00000
 11
  -7.37558
 21
  37.26504
 31
    .00000
  0
LINE
  8
LAYE
 10
  -7.73625
 20
  37.24976
 30
    .00000
 11
  -7.76425
 21
  37.18676
 31
    .00000
  0
LINE
  8
LAYE
 10
  -7.76425
 20
  37.18676
 30
    .00000
 11
  -7.76951
 21
  37.23648
 31
    .00000
  0
LINE
  8
LAYE
 10
  -7.76425
 20
  37.18676
 30
    .00000
 11
  -7.72382
 21
  37.21618
 31
    .00000
  0
LINE
  8
LAYE
 10
  -7.48046
 20
  37.19666
 30
    .00000
 11
  -7.54946
 21
  37.09566
 31
    .00000
  0
LINE
  8
LAYE
 10
  -7.54946
 20
  37.09566
 30
    .00000
 11
  -7.54568
 21
  37.14552
 31
    .00000
  0
LINE
  8
LAYE
 10
  -7.54946
 20
  37.09566
 30
    .00000
 11
  -7.50439
 21
  37.11731
 31
    .00000
  0
LINE
  8
LAYE
 10
  -8.92566
 20
  37.08481
 30
    .00000
 11
  -9.18666
 21
  37.09181
 31
    .00000
  0
LINE
  8
LAYE
 10
  -9.18666
 20
  37.09181
 30
    .00000
 11
  -9.14270
 21
  37.11564
 31
    .00000
  0
LINE
  8
LAYE
 10
  -9.18666
 20
  37.09181
 30
    .00000
 11
  -9.14404
 21
  37.06566
 31
    .00000
  0
LINE
  8
LAYE
 10
  -8.70344
 20
  37.08925
 30
    .00000
 11
  -8.85444
 21
  37.07825
 31
    .00000
  0
LINE
  8
LAYE
 10
  -8.85444
 20
  37.07825
 30
    .00000
 11
  -8.81307
 21
  37.10633
 31
    .00000
  0
LINE
  8
LAYE
 10
  -8.85444
 20
  37.07825
 30
    .00000
 11
  -8.80944
 21
  37.05646
 31
    .00000
  0
LINE
  8
LAYE
 10
  -8.38577
 20
  37.14096
 30
    .00000
 11
  -8.47377
 21
  37.11496
 31
    .00000
  0
LINE
  8
LAYE
 10
  -8.47377
 20
  37.11496
 30
    .00000
 11
  -8.43933
 21
  37.15120
 31
    .00000
  0
LINE
  8
LAYE
 10
  -8.47377
 20
  37.11496
 30
    .00000
 11
  -8.42516
 21
  37.10325
 31
    .00000
  0
LINE
  8
LAYE
 10
  -7.92814
 20
  37.10718
 30
    .00000
 11
  -7.97714
 21
  37.04718
 31
    .00000
  0
LINE
  8
LAYE
 10
  -7.97714
 20
  37.04718
 30
    .00000
 11
  -7.96911
 21
  37.09653
 31
    .00000
  0
LINE
  8
LAYE
 10
  -7.97714
 20
  37.04718
 30
    .00000
 11
  -7.93039
 21
  37.06490
 31
    .00000
  0
LINE
  8
LAYE
 10
  -7.86238
 20
  36.97710
 30
    .00000
 11
  -7.89038
 21
  36.95210
 31
    .00000
  0
LINE
  8
LAYE
 10
  -7.89038
 20
  36.95210
 30
    .00000
 11
  -7.87473
 21
  36.99959
 31
    .00000
  0
LINE
  8
LAYE
 10
  -7.89038
 20
  36.95210
 30
    .00000
 11
  -7.84143
 21
  36.96229
 31
    .00000
  0
ENDSEC
  0
EOF
