  0
SECTION
  2
ENTITIES
  0
LINE
  8
LAYE
 10
  -8.67186
 20
  42.17242
 30
    .00000
 11
  -8.96386
 21
  41.80442
 31
    .00000
  0
LINE
  8
LAYE
 10
  -8.96386
 20
  41.80442
 30
    .00000
 11
  -8.95653
 21
  41.85388
 31
    .00000
  0
LINE
  8
LAYE
 10
  -8.96386
 20
  41.80442
 30
    .00000
 11
  -8.91736
 21
  41.82280
 31
    .00000
  0
LINE
  8
LAYE
 10
  -8.38430
 20
  42.16211
 30
    .00000
 11
  -8.67130
 21
  41.88811
 31
    .00000
  0
LINE
  8
LAYE
 10
  -8.67130
 20
  41.88811
 30
    .00000
 11
  -8.65724
 21
  41.93609
 31
    .00000
  0
LINE
  8
LAYE
 10
  -8.67130
 20
  41.88811
 30
    .00000
 11
  -8.62272
 21
  41.89993
 31
    .00000
  0
LINE
  8
LAYE
 10
  -8.69783
 20
  41.95687
 30
    .00000
 11
  -8.86683
 21
  41.60387
 31
    .00000
  0
LINE
  8
LAYE
 10
  -8.86683
 20
  41.60387
 30
    .00000
 11
  -8.87068
 21
  41.65372
 31
    .00000
  0
LINE
  8
LAYE
 10
  -8.86683
 20
  41.60387
 30
    .00000
 11
  -8.82558
 21
  41.63213
 31
    .00000
  0
LINE
  8
LAYE
 10
  -8.85482
 20
  41.92802
 30
    .00000
 11
  -9.02082
 21
  41.52802
 31
    .00000
  0
LINE
  8
LAYE
 10
  -9.02082
 20
  41.52802
 30
    .00000
 11
  -9.02731
 21
  41.57760
 31
    .00000
  0
LINE
  8
LAYE
 10
  -9.02082
 20
  41.52802
 30
    .00000
 11
  -8.98113
 21
  41.55843
 31
    .00000
  0
LINE
  8
LAYE
 10
  -8.28492
 20
  41.99978
 30
    .00000
 11
  -8.51192
 21
  41.69278
 31
    .00000
  0
LINE
  8
LAYE
 10
  -8.51192
 20
  41.69278
 30
    .00000
 11
  -8.50628
 21
  41.74246
 31
    .00000
  0
LINE
  8
LAYE
 10
  -8.51192
 20
  41.69278
 30
    .00000
 11
  -8.46607
 21
  41.71273
 31
    .00000
  0
LINE
  8
LAYE
 10
  -7.68382
 20
  41.90028
 30
    .00000
 11
  -8.04882
 21
  41.70128
 31
    .00000
  0
LINE
  8
LAYE
 10
  -8.04882
 20
  41.70128
 30
    .00000
 11
  -8.02277
 21
  41.74396
 31
    .00000
  0
LINE
  8
LAYE
 10
  -8.04882
 20
  41.70128
 30
    .00000
 11
  -7.99883
 21
  41.70006
 31
    .00000
  0
LINE
  8
LAYE
 10
  -6.96650
 20
  41.91043
 30
    .00000
 11
  -7.33750
 21
  41.95443
 31
    .00000
  0
LINE
  8
LAYE
 10
  -7.33750
 20
  41.95443
 30
    .00000
 11
  -7.29156
 21
  41.97416
 31
    .00000
  0
LINE
  8
LAYE
 10
  -7.33750
 20
  41.95443
 30
    .00000
 11
  -7.29744
 21
  41.92450
 31
    .00000
  0
LINE
  8
LAYE
 10
  -7.29292
 20
  41.85460
 30
    .00000
 11
  -7.69592
 21
  41.79460
 31
    .00000
  0
LINE
  8
LAYE
 10
  -7.69592
 20
  41.79460
 30
    .00000
 11
  -7.65677
 21
  41.82570
 31
    .00000
  0
LINE
  8
LAYE
 10
  -7.69592
 20
  41.79460
 30
    .00000
 11
  -7.64941
 21
  41.77625
 31
    .00000
  0
LINE
  8
LAYE
 10
  -6.55279
 20
  41.83944
 30
    .00000
 11
  -6.93579
 21
  41.93944
 31
    .00000
  0
LINE
  8
LAYE
 10
  -6.93579
 20
  41.93944
 30
    .00000
 11
  -6.88758
 21
  41.95269
 31
    .00000
  0
LINE
  8
LAYE
 10
  -6.93579
 20
  41.93944
 30
    .00000
 11
  -6.90021
 21
  41.90431
 31
    .00000
  0
LINE
  8
LAYE
 10
  -8.79660
 20
  41.80665
 30
    .00000
 11
  -8.90860
 21
  41.36965
 31
    .00000
  0
LINE
  8
LAYE
 10
  -8.90860
 20
  41.36965
 30
    .00000
 11
  -8.92207
 21
  41.41780
 31
    .00000
  0
LINE
  8
LAYE
 10
  -8.90860
 20
  41.36965
 30
    .00000
 11
  -8.87363
 21
  41.40539
 31
    .00000
  0
LINE
  8
LAYE
 10
  -8.44157
 20
  41.75831
 30
    .00000
 11
  -8.61957
 21
  41.46231
 31
    .00000
  0
LINE
  8
LAYE
 10
  -8.61957
 20
  41.46231
 30
    .00000
 11
  -8.61868
 21
  41.51230
 31
    .00000
  0
LINE
  8
LAYE
 10
  -8.61957
 20
  41.46231
 30
    .00000
 11
  -8.57583
 21
  41.48653
 31
    .00000
  0
LINE
  8
LAYE
 10
  -8.02419
 20
  41.65747
 30
    .00000
 11
  -8.21519
 21
  41.47247
 31
    .00000
  0
LINE
  8
LAYE
 10
  -8.21519
 20
  41.47247
 30
    .00000
 11
  -8.20148
 21
  41.52055
 31
    .00000
  0
LINE
  8
LAYE
 10
  -8.21519
 20
  41.47247
 30
    .00000
 11
  -8.16669
 21
  41.48464
 31
    .00000
  0
LINE
  8
LAYE
 10
  -7.49179
 20
  41.56991
 30
    .00000
 11
  -7.74479
 21
  41.49291
 31
    .00000
  0
LINE
  8
LAYE
 10
  -7.74479
 20
  41.49291
 30
    .00000
 11
  -7.71064
 21
  41.52943
 31
    .00000
  0
LINE
  8
LAYE
 10
  -7.74479
 20
  41.49291
 30
    .00000
 11
  -7.69609
 21
  41.48160
 31
    .00000
  0
LINE
  8
LAYE
 10
  -6.82401
 20
  41.70908
 30
    .00000
 11
  -7.13901
 21
  41.79108
 31
    .00000
  0
LINE
  8
LAYE
 10
  -7.13901
 20
  41.79108
 30
    .00000
 11
  -7.09081
 21
  41.80437
 31
    .00000
  0
LINE
  8
LAYE
 10
  -7.13901
 20
  41.79108
 30
    .00000
 11
  -7.10340
 21
  41.75598
 31
    .00000
  0
LINE
  8
LAYE
 10
  -6.27392
 20
  41.65058
 30
    .00000
 11
  -6.60492
 21
  41.77458
 31
    .00000
  0
LINE
  8
LAYE
 10
  -6.60492
 20
  41.77458
 30
    .00000
 11
  -6.55560
 21
  41.78280
 31
    .00000
  0
LINE
  8
LAYE
 10
  -6.60492
 20
  41.77458
 30
    .00000
 11
  -6.57314
 21
  41.73598
 31
    .00000
  0
LINE
  8
LAYE
 10
  -6.53320
 20
  41.51586
 30
    .00000
 11
  -6.83520
 21
  41.66886
 31
    .00000
  0
LINE
  8
LAYE
 10
  -6.83520
 20
  41.66886
 30
    .00000
 11
  -6.78527
 21
  41.67159
 31
    .00000
  0
LINE
  8
LAYE
 10
  -6.83520
 20
  41.66886
 30
    .00000
 11
  -6.80787
 21
  41.62699
 31
    .00000
  0
LINE
  8
LAYE
 10
  -8.71210
 20
  41.46047
 30
    .00000
 11
  -8.74410
 21
  41.20547
 31
    .00000
  0
LINE
  8
LAYE
 10
  -8.74410
 20
  41.20547
 30
    .00000
 11
  -8.76351
 21
  41.25155
 31
    .00000
  0
LINE
  8
LAYE
 10
  -8.74410
 20
  41.20547
 30
    .00000
 11
  -8.71390
 21
  41.24532
 31
    .00000
  0
LINE
  8
LAYE
 10
  -8.37640
 20
  41.34126
 30
    .00000
 11
  -8.47240
 21
  41.16726
 31
    .00000
  0
LINE
  8
LAYE
 10
  -8.47240
 20
  41.16726
 30
    .00000
 11
  -8.47337
 21
  41.21725
 31
    .00000
  0
LINE
  8
LAYE
 10
  -8.47240
 20
  41.16726
 30
    .00000
 11
  -8.42959
 21
  41.19310
 31
    .00000
  0
LINE
  8
LAYE
 10
  -8.25710
 20
  41.18230
 30
    .00000
 11
  -8.32010
 21
  41.03430
 31
    .00000
  0
LINE
  8
LAYE
 10
  -8.32010
 20
  41.03430
 30
    .00000
 11
  -8.32614
 21
  41.08393
 31
    .00000
  0
LINE
  8
LAYE
 10
  -8.32010
 20
  41.03430
 30
    .00000
 11
  -8.28014
 21
  41.06435
 31
    .00000
  0
LINE
  8
LAYE
 10
  -7.87961
 20
  41.25847
 30
    .00000
 11
  -7.95261
 21
  41.15847
 31
    .00000
  0
LINE
  8
LAYE
 10
  -7.95261
 20
  41.15847
 30
    .00000
 11
  -7.94727
 21
  41.20818
 31
    .00000
  0
LINE
  8
LAYE
 10
  -7.95261
 20
  41.15847
 30
    .00000
 11
  -7.90689
 21
  41.17870
 31
    .00000
  0
LINE
  8
LAYE
 10
  -6.98348
 20
  41.42855
 30
    .00000
 11
  -7.21848
 21
  41.48355
 31
    .00000
  0
LINE
  8
LAYE
 10
  -7.21848
 20
  41.48355
 30
    .00000
 11
  -7.17062
 21
  41.49802
 31
    .00000
  0
LINE
  8
LAYE
 10
  -7.21848
 20
  41.48355
 30
    .00000
 11
  -7.18202
 21
  41.44934
 31
    .00000
  0
LINE
  8
LAYE
 10
  -7.23923
 20
  41.23772
 30
    .00000
 11
  -7.44523
 21
  41.20872
 31
    .00000
  0
LINE
  8
LAYE
 10
  -7.44523
 20
  41.20872
 30
    .00000
 11
  -7.40584
 21
  41.23951
 31
    .00000
  0
LINE
  8
LAYE
 10
  -7.44523
 20
  41.20872
 30
    .00000
 11
  -7.39887
 21
  41.19000
 31
    .00000
  0
LINE
  8
LAYE
 10
  -6.73174
 20
  41.19888
 30
    .00000
 11
  -6.99974
 21
  41.31688
 31
    .00000
  0
LINE
  8
LAYE
 10
  -6.99974
 20
  41.31688
 30
    .00000
 11
  -6.95004
 21
  41.32231
 31
    .00000
  0
LINE
  8
LAYE
 10
  -6.99974
 20
  41.31688
 30
    .00000
 11
  -6.97018
 21
  41.27655
 31
    .00000
  0
LINE
  8
LAYE
 10
  -6.29710
 20
  41.33992
 30
    .00000
 11
  -6.54110
 21
  41.51792
 31
    .00000
  0
LINE
  8
LAYE
 10
  -6.54110
 20
  41.51792
 30
    .00000
 11
  -6.49138
 21
  41.51260
 31
    .00000
  0
LINE
  8
LAYE
 10
  -6.54110
 20
  41.51792
 30
    .00000
 11
  -6.52085
 21
  41.47220
 31
    .00000
  0
LINE
  8
LAYE
 10
  -8.58761
 20
  41.12482
 30
    .00000
 11
  -8.58361
 21
  40.95582
 31
    .00000
  0
LINE
  8
LAYE
 10
  -8.58361
 20
  40.95582
 30
    .00000
 11
  -8.60963
 21
  40.99852
 31
    .00000
  0
LINE
  8
LAYE
 10
  -8.58361
 20
  40.95582
 30
    .00000
 11
  -8.55964
 21
  40.99970
 31
    .00000
  0
LINE
  8
LAYE
 10
  -8.27865
 20
  40.88427
 30
    .00000
 11
  -8.29965
 21
  40.79327
 31
    .00000
  0
LINE
  8
LAYE
 10
  -8.29965
 20
  40.79327
 30
    .00000
 11
  -8.31427
 21
  40.84108
 31
    .00000
  0
LINE
  8
LAYE
 10
  -8.29965
 20
  40.79327
 30
    .00000
 11
  -8.26555
 21
  40.82984
 31
    .00000
  0
LINE
  8
LAYE
 10
  -7.98692
 20
  40.98045
 30
    .00000
 11
  -7.99592
 21
  40.91645
 31
    .00000
  0
LINE
  8
LAYE
 10
  -7.99592
 20
  40.91645
 30
    .00000
 11
  -8.01465
 21
  40.96281
 31
    .00000
  0
LINE
  8
LAYE
 10
  -7.99592
 20
  40.91645
 30
    .00000
 11
  -7.96513
 21
  40.95585
 31
    .00000
  0
LINE
  8
LAYE
 10
  -7.65317
 20
  40.95744
 30
    .00000
 11
  -7.68317
 21
  40.93944
 31
    .00000
  0
LINE
  8
LAYE
 10
  -7.68317
 20
  40.93944
 30
    .00000
 11
  -7.65890
 21
  40.98316
 31
    .00000
  0
LINE
  8
LAYE
 10
  -7.68317
 20
  40.93944
 30
    .00000
 11
  -7.63318
 21
  40.94028
 31
    .00000
  0
LINE
  8
LAYE
 10
  -7.42454
 20
  40.76944
 30
    .00000
 11
  -7.42054
 21
  40.77744
 31
    .00000
  0
LINE
  8
LAYE
 10
  -7.42054
 20
  40.77744
 30
    .00000
 11
  -7.41754
 21
  40.72753
 31
    .00000
  0
LINE
  8
LAYE
 10
  -7.42054
 20
  40.77744
 30
    .00000
 11
  -7.46227
 21
  40.74989
 31
    .00000
  0
LINE
  8
LAYE
 10
  -6.97963
 20
  40.85552
 30
    .00000
 11
  -7.10063
 21
  40.94152
 31
    .00000
  0
LINE
  8
LAYE
 10
  -7.10063
 20
  40.94152
 30
    .00000
 11
  -7.05085
 21
  40.93681
 31
    .00000
  0
LINE
  8
LAYE
 10
  -7.10063
 20
  40.94152
 30
    .00000
 11
  -7.07982
 21
  40.89606
 31
    .00000
  0
LINE
  8
LAYE
 10
  -8.75574
 20
  40.65563
 30
    .00000
 11
  -8.67674
 21
  40.52763
 31
    .00000
  0
LINE
  8
LAYE
 10
  -8.67674
 20
  40.52763
 30
    .00000
 11
  -8.72076
 21
  40.55135
 31
    .00000
  0
LINE
  8
LAYE
 10
  -8.67674
 20
  40.52763
 30
    .00000
 11
  -8.67821
 21
  40.57761
 31
    .00000
  0
LINE
  8
LAYE
 10
  -8.81517
 20
  40.46449
 30
    .00000
 11
  -8.68217
 21
  40.41649
 31
    .00000
  0
LINE
  8
LAYE
 10
  -8.68217
 20
  40.41649
 30
    .00000
 11
  -8.73139
 21
  40.40767
 31
    .00000
  0
LINE
  8
LAYE
 10
  -8.68217
 20
  40.41649
 30
    .00000
 11
  -8.71441
 21
  40.45470
 31
    .00000
  0
LINE
  8
LAYE
 10
  -8.20895
 20
  40.55377
 30
    .00000
 11
  -8.13995
 21
  40.48877
 31
    .00000
  0
LINE
  8
LAYE
 10
  -8.13995
 20
  40.48877
 30
    .00000
 11
  -8.18861
 21
  40.50026
 31
    .00000
  0
LINE
  8
LAYE
 10
  -8.13995
 20
  40.48877
 30
    .00000
 11
  -8.15433
 21
  40.53666
 31
    .00000
  0
LINE
  8
LAYE
 10
  -7.76107
 20
  40.60533
 30
    .00000
 11
  -7.58607
 21
  40.67633
 31
    .00000
  0
LINE
  8
LAYE
 10
  -7.58607
 20
  40.67633
 30
    .00000
 11
  -7.61680
 21
  40.63688
 31
    .00000
  0
LINE
  8
LAYE
 10
  -7.58607
 20
  40.67633
 30
    .00000
 11
  -7.63559
 21
  40.68322
 31
    .00000
  0
LINE
  8
LAYE
 10
  -7.42562
 20
  40.52588
 30
    .00000
 11
  -7.42162
 21
  40.60488
 31
    .00000
  0
LINE
  8
LAYE
 10
  -7.42162
 20
  40.60488
 30
    .00000
 11
  -7.39884
 21
  40.56037
 31
    .00000
  0
LINE
  8
LAYE
 10
  -7.42162
 20
  40.60488
 30
    .00000
 11
  -7.44878
 21
  40.56290
 31
    .00000
  0
LINE
  8
LAYE
 10
  -7.12969
 20
  40.58123
 30
    .00000
 11
  -7.16069
 21
  40.68123
 31
    .00000
  0
LINE
  8
LAYE
 10
  -7.16069
 20
  40.68123
 30
    .00000
 11
  -7.12399
 21
  40.64727
 31
    .00000
  0
LINE
  8
LAYE
 10
  -7.16069
 20
  40.68123
 30
    .00000
 11
  -7.17175
 21
  40.63247
 31
    .00000
  0
LINE
  8
LAYE
 10
  -6.85348
 20
  40.58984
 30
    .00000
 11
  -6.87748
 21
  40.73584
 31
    .00000
  0
LINE
  8
LAYE
 10
  -6.87748
 20
  40.73584
 30
    .00000
 11
  -6.84579
 21
  40.69717
 31
    .00000
  0
LINE
  8
LAYE
 10
  -6.87748
 20
  40.73584
 30
    .00000
 11
  -6.89513
 21
  40.68906
 31
    .00000
  0
LINE
  8
LAYE
 10
  -6.87946
 20
  40.44064
 30
    .00000
 11
  -6.86746
 21
  40.58264
 31
    .00000
  0
LINE
  8
LAYE
 10
  -6.86746
 20
  40.58264
 30
    .00000
 11
  -6.84620
 21
  40.53739
 31
    .00000
  0
LINE
  8
LAYE
 10
  -6.86746
 20
  40.58264
 30
    .00000
 11
  -6.89602
 21
  40.54160
 31
    .00000
  0
LINE
  8
LAYE
 10
  -8.36728
 20
  40.36506
 30
    .00000
 11
  -8.24128
 21
  40.33306
 31
    .00000
  0
LINE
  8
LAYE
 10
  -8.24128
 20
  40.33306
 30
    .00000
 11
  -8.28940
 21
  40.31949
 31
    .00000
  0
LINE
  8
LAYE
 10
  -8.24128
 20
  40.33306
 30
    .00000
 11
  -8.27710
 21
  40.36795
 31
    .00000
  0
LINE
  8
LAYE
 10
  -8.87230
 20
  40.19987
 30
    .00000
 11
  -8.68930
 21
  40.15687
 31
    .00000
  0
LINE
  8
LAYE
 10
  -8.68930
 20
  40.15687
 30
    .00000
 11
  -8.73717
 21
  40.14244
 31
    .00000
  0
LINE
  8
LAYE
 10
  -8.68930
 20
  40.15687
 30
    .00000
 11
  -8.72573
 21
  40.19111
 31
    .00000
  0
LINE
  8
LAYE
 10
  -8.18763
 20
  40.08724
 30
    .00000
 11
  -8.10263
 21
  40.11124
 31
    .00000
  0
LINE
  8
LAYE
 10
  -8.10263
 20
  40.11124
 30
    .00000
 11
  -8.13751
 21
  40.07541
 31
    .00000
  0
LINE
  8
LAYE
 10
  -8.10263
 20
  40.11124
 30
    .00000
 11
  -8.15110
 21
  40.12353
 31
    .00000
  0
LINE
  8
LAYE
 10
  -7.94858
 20
  40.38574
 30
    .00000
 11
  -7.85358
 21
  40.38674
 31
    .00000
  0
LINE
  8
LAYE
 10
  -7.85358
 20
  40.38674
 30
    .00000
 11
  -7.89662
 21
  40.36129
 31
    .00000
  0
LINE
  8
LAYE
 10
  -7.85358
 20
  40.38674
 30
    .00000
 11
  -7.89714
 21
  40.41128
 31
    .00000
  0
LINE
  8
LAYE
 10
  -7.82623
 20
  40.20768
 30
    .00000
 11
  -7.74423
 21
  40.28668
 31
    .00000
  0
LINE
  8
LAYE
 10
  -7.74423
 20
  40.28668
 30
    .00000
 11
  -7.75807
 21
  40.23863
 31
    .00000
  0
LINE
  8
LAYE
 10
  -7.74423
 20
  40.28668
 30
    .00000
 11
  -7.79276
 21
  40.27464
 31
    .00000
  0
LINE
  8
LAYE
 10
  -7.61892
 20
  40.31480
 30
    .00000
 11
  -7.55892
 21
  40.38580
 31
    .00000
  0
LINE
  8
LAYE
 10
  -7.55892
 20
  40.38580
 30
    .00000
 11
  -7.56777
 21
  40.33659
 31
    .00000
  0
LINE
  8
LAYE
 10
  -7.55892
 20
  40.38580
 30
    .00000
 11
  -7.60596
 21
  40.36886
 31
    .00000
  0
LINE
  8
LAYE
 10
  -7.53520
 20
  40.07537
 30
    .00000
 11
  -7.43320
 21
  40.12737
 31
    .00000
  0
LINE
  8
LAYE
 10
  -7.43320
 20
  40.12737
 30
    .00000
 11
  -7.46042
 21
  40.08543
 31
    .00000
  0
LINE
  8
LAYE
 10
  -7.43320
 20
  40.12737
 30
    .00000
 11
  -7.48313
 21
  40.12998
 31
    .00000
  0
LINE
  8
LAYE
 10
  -7.18642
 20
  40.34410
 30
    .00000
 11
  -7.13042
 21
  40.41710
 31
    .00000
  0
LINE
  8
LAYE
 10
  -7.13042
 20
  40.41710
 30
    .00000
 11
  -7.13694
 21
  40.36753
 31
    .00000
  0
LINE
  8
LAYE
 10
  -7.13042
 20
  40.41710
 30
    .00000
 11
  -7.17661
 21
  40.39796
 31
    .00000
  0
LINE
  8
LAYE
 10
  -6.86863
 20
  40.26009
 30
    .00000
 11
  -6.78463
 21
  40.38109
 31
    .00000
  0
LINE
  8
LAYE
 10
  -6.78463
 20
  40.38109
 30
    .00000
 11
  -6.78879
 21
  40.33126
 31
    .00000
  0
LINE
  8
LAYE
 10
  -6.78463
 20
  40.38109
 30
    .00000
 11
  -6.82986
 21
  40.35978
 31
    .00000
  0
LINE
  8
LAYE
 10
  -7.12571
 20
  40.02147
 30
    .00000
 11
  -7.01271
 21
  40.16447
 31
    .00000
  0
LINE
  8
LAYE
 10
  -7.01271
 20
  40.16447
 30
    .00000
 11
  -7.01994
 21
  40.11500
 31
    .00000
  0
LINE
  8
LAYE
 10
  -7.01271
 20
  40.16447
 30
    .00000
 11
  -7.05917
 21
  40.14600
 31
    .00000
  0
LINE
  8
LAYE
 10
  -9.02284
 20
  39.67317
 30
    .00000
 11
  -8.81984
 21
  39.81317
 31
    .00000
  0
LINE
  8
LAYE
 10
  -8.81984
 20
  39.81317
 30
    .00000
 11
  -8.84129
 21
  39.76801
 31
    .00000
  0
LINE
  8
LAYE
 10
  -8.81984
 20
  39.81317
 30
    .00000
 11
  -8.86968
 21
  39.80917
 31
    .00000
  0
LINE
  8
LAYE
 10
  -8.85632
 20
  39.88817
 30
    .00000
 11
  -8.72232
 21
  39.92717
 31
    .00000
  0
LINE
  8
LAYE
 10
  -8.72232
 20
  39.92717
 30
    .00000
 11
  -8.75691
 21
  39.89107
 31
    .00000
  0
LINE
  8
LAYE
 10
  -8.72232
 20
  39.92717
 30
    .00000
 11
  -8.77088
 21
  39.93907
 31
    .00000
  0
LINE
  8
LAYE
 10
  -8.54544
 20
  39.91419
 30
    .00000
 11
  -8.49044
 21
  39.97619
 31
    .00000
  0
LINE
  8
LAYE
 10
  -8.49044
 20
  39.97619
 30
    .00000
 11
  -8.50047
 21
  39.92721
 31
    .00000
  0
LINE
  8
LAYE
 10
  -8.49044
 20
  39.97619
 30
    .00000
 11
  -8.53788
 21
  39.96039
 31
    .00000
  0
LINE
  8
LAYE
 10
  -7.93591
 20
  39.84039
 30
    .00000
 11
  -7.83291
 21
  39.92239
 31
    .00000
  0
LINE
  8
LAYE
 10
  -7.83291
 20
  39.92239
 30
    .00000
 11
  -7.85122
 21
  39.87586
 31
    .00000
  0
LINE
  8
LAYE
 10
  -7.83291
 20
  39.92239
 30
    .00000
 11
  -7.88236
 21
  39.91498
 31
    .00000
  0
LINE
  8
LAYE
 10
  -8.14845
 20
  39.68414
 30
    .00000
 11
  -7.96545
 21
  39.78414
 31
    .00000
  0
LINE
  8
LAYE
 10
  -7.96545
 20
  39.78414
 30
    .00000
 11
  -7.99146
 21
  39.74144
 31
    .00000
  0
LINE
  8
LAYE
 10
  -7.96545
 20
  39.78414
 30
    .00000
 11
  -8.01544
 21
  39.78531
 31
    .00000
  0
LINE
  8
LAYE
 10
  -7.47782
 20
  39.79627
 30
    .00000
 11
  -7.33582
 21
  39.86327
 31
    .00000
  0
LINE
  8
LAYE
 10
  -7.33582
 20
  39.86327
 30
    .00000
 11
  -7.36431
 21
  39.82218
 31
    .00000
  0
LINE
  8
LAYE
 10
  -7.33582
 20
  39.86327
 30
    .00000
 11
  -7.38565
 21
  39.86740
 31
    .00000
  0
LINE
  8
LAYE
 10
  -7.05808
 20
  39.71949
 30
    .00000
 11
  -6.87708
 21
  39.86949
 31
    .00000
  0
LINE
  8
LAYE
 10
  -6.87708
 20
  39.86949
 30
    .00000
 11
  -6.89447
 21
  39.82261
 31
    .00000
  0
LINE
  8
LAYE
 10
  -6.87708
 20
  39.86949
 30
    .00000
 11
  -6.92637
 21
  39.86111
 31
    .00000
  0
LINE
  8
LAYE
 10
  -9.43709
 20
  39.34430
 30
    .00000
 11
  -9.14409
 21
  39.50730
 31
    .00000
  0
LINE
  8
LAYE
 10
  -9.14409
 20
  39.50730
 30
    .00000
 11
  -9.16978
 21
  39.46440
 31
    .00000
  0
LINE
  8
LAYE
 10
  -9.14409
 20
  39.50730
 30
    .00000
 11
  -9.19408
 21
  39.50810
 31
    .00000
  0
LINE
  8
LAYE
 10
  -9.23385
 20
  39.44116
 30
    .00000
 11
  -8.90685
 21
  39.56816
 31
    .00000
  0
LINE
  8
LAYE
 10
  -8.90685
 20
  39.56816
 30
    .00000
 11
  -8.93816
 21
  39.52918
 31
    .00000
  0
LINE
  8
LAYE
 10
  -8.90685
 20
  39.56816
 30
    .00000
 11
  -8.95626
 21
  39.57579
 31
    .00000
  0
LINE
  8
LAYE
 10
  -8.94039
 20
  39.42752
 30
    .00000
 11
  -8.72239
 21
  39.52652
 31
    .00000
  0
LINE
  8
LAYE
 10
  -8.72239
 20
  39.52652
 30
    .00000
 11
  -8.75148
 21
  39.48585
 31
    .00000
  0
LINE
  8
LAYE
 10
  -8.72239
 20
  39.52652
 30
    .00000
 11
  -8.77215
 21
  39.53138
 31
    .00000
  0
LINE
  8
LAYE
 10
  -8.64890
 20
  39.52560
 30
    .00000
 11
  -8.52590
 21
  39.62760
 31
    .00000
  0
LINE
  8
LAYE
 10
  -8.52590
 20
  39.62760
 30
    .00000
 11
  -8.54327
 21
  39.58072
 31
    .00000
  0
LINE
  8
LAYE
 10
  -8.52590
 20
  39.62760
 30
    .00000
 11
  -8.57519
 21
  39.61920
 31
    .00000
  0
LINE
  8
LAYE
 10
  -8.30708
 20
  39.51183
 30
    .00000
 11
  -8.16608
 21
  39.60283
 31
    .00000
  0
LINE
  8
LAYE
 10
  -8.16608
 20
  39.60283
 30
    .00000
 11
  -8.18891
 21
  39.55834
 31
    .00000
  0
LINE
  8
LAYE
 10
  -8.16608
 20
  39.60283
 30
    .00000
 11
  -8.21602
 21
  39.60035
 31
    .00000
  0
LINE
  8
LAYE
 10
  -8.76493
 20
  39.32361
 30
    .00000
 11
  -8.61993
 21
  39.43461
 31
    .00000
  0
LINE
  8
LAYE
 10
  -8.61993
 20
  39.43461
 30
    .00000
 11
  -8.63912
 21
  39.38844
 31
    .00000
  0
LINE
  8
LAYE
 10
  -8.61993
 20
  39.43461
 30
    .00000
 11
  -8.66951
 21
  39.42814
 31
    .00000
  0
LINE
  8
LAYE
 10
  -8.43243
 20
  39.32546
 30
    .00000
 11
  -8.28143
 21
  39.43246
 31
    .00000
  0
LINE
  8
LAYE
 10
  -8.28143
 20
  39.43246
 30
    .00000
 11
  -8.30231
 21
  39.38703
 31
    .00000
  0
LINE
  8
LAYE
 10
  -8.28143
 20
  39.43246
 30
    .00000
 11
  -8.33121
 21
  39.42782
 31
    .00000
  0
LINE
  8
LAYE
 10
  -7.64955
 20
  39.56241
 30
    .00000
 11
  -7.45455
 21
  39.69141
 31
    .00000
  0
LINE
  8
LAYE
 10
  -7.45455
 20
  39.69141
 30
    .00000
 11
  -7.47687
 21
  39.64667
 31
    .00000
  0
LINE
  8
LAYE
 10
  -7.45455
 20
  39.69141
 30
    .00000
 11
  -7.50446
 21
  39.68837
 31
    .00000
  0
LINE
  8
LAYE
 10
  -8.02821
 20
  39.35775
 30
    .00000
 11
  -7.86021
 21
  39.45075
 31
    .00000
  0
LINE
  8
LAYE
 10
  -7.86021
 20
  39.45075
 30
    .00000
 11
  -7.88599
 21
  39.40791
 31
    .00000
  0
LINE
  8
LAYE
 10
  -7.86021
 20
  39.45075
 30
    .00000
 11
  -7.91020
 21
  39.45165
 31
    .00000
  0
LINE
  8
LAYE
 10
  -7.24311
 20
  39.59561
 30
    .00000
 11
  -6.97511
 21
  39.67961
 31
    .00000
  0
LINE
  8
LAYE
 10
  -6.97511
 20
  39.67961
 30
    .00000
 11
  -7.00895
 21
  39.64280
 31
    .00000
  0
LINE
  8
LAYE
 10
  -6.97511
 20
  39.67961
 30
    .00000
 11
  -7.02391
 21
  39.69051
 31
    .00000
  0
LINE
  8
LAYE
 10
  -7.38437
 20
  39.30260
 30
    .00000
 11
  -7.14637
 21
  39.41160
 31
    .00000
  0
LINE
  8
LAYE
 10
  -7.14637
 20
  39.41160
 30
    .00000
 11
  -7.17533
 21
  39.37084
 31
    .00000
  0
LINE
  8
LAYE
 10
  -7.14637
 20
  39.41160
 30
    .00000
 11
  -7.19615
 21
  39.41630
 31
    .00000
  0
LINE
  8
LAYE
 10
  -9.07184
 20
  39.15948
 30
    .00000
 11
  -8.83884
 21
  39.29848
 31
    .00000
  0
LINE
  8
LAYE
 10
  -8.83884
 20
  39.29848
 30
    .00000
 11
  -8.86322
 21
  39.25483
 31
    .00000
  0
LINE
  8
LAYE
 10
  -8.83884
 20
  39.29848
 30
    .00000
 11
  -8.88883
 21
  39.29777
 31
    .00000
  0
LINE
  8
LAYE
 10
  -9.33378
 20
  38.99454
 30
    .00000
 11
  -9.16178
 21
  39.17254
 31
    .00000
  0
LINE
  8
LAYE
 10
  -9.16178
 20
  39.17254
 30
    .00000
 11
  -9.17389
 21
  39.12403
 31
    .00000
  0
LINE
  8
LAYE
 10
  -9.16178
 20
  39.17254
 30
    .00000
 11
  -9.20985
 21
  39.15877
 31
    .00000
  0
LINE
  8
LAYE
 10
  -8.60295
 20
  39.13084
 30
    .00000
 11
  -8.43995
 21
  39.24484
 31
    .00000
  0
LINE
  8
LAYE
 10
  -8.43995
 20
  39.24484
 30
    .00000
 11
  -8.46111
 21
  39.19954
 31
    .00000
  0
LINE
  8
LAYE
 10
  -8.43995
 20
  39.24484
 30
    .00000
 11
  -8.48976
 21
  39.24051
 31
    .00000
  0
LINE
  8
LAYE
 10
  -8.20403
 20
  39.06811
 30
    .00000
 11
  -8.03703
 21
  39.16011
 31
    .00000
  0
LINE
  8
LAYE
 10
  -8.03703
 20
  39.16011
 30
    .00000
 11
  -8.06289
 21
  39.11732
 31
    .00000
  0
LINE
  8
LAYE
 10
  -8.03703
 20
  39.16011
 30
    .00000
 11
  -8.08702
 21
  39.16111
 31
    .00000
  0
LINE
  8
LAYE
 10
  -7.64383
 20
  39.18203
 30
    .00000
 11
  -7.43283
 21
  39.25303
 31
    .00000
  0
LINE
  8
LAYE
 10
  -7.43283
 20
  39.25303
 30
    .00000
 11
  -7.46590
 21
  39.21553
 31
    .00000
  0
LINE
  8
LAYE
 10
  -7.43283
 20
  39.25303
 30
    .00000
 11
  -7.48184
 21
  39.26291
 31
    .00000
  0
LINE
  8
LAYE
 10
  -7.13456
 20
  39.02661
 30
    .00000
 11
  -6.86056
 21
  39.07161
 31
    .00000
  0
LINE
  8
LAYE
 10
  -6.86056
 20
  39.07161
 30
    .00000
 11
  -6.89924
 21
  39.03992
 31
    .00000
  0
LINE
  8
LAYE
 10
  -6.86056
 20
  39.07161
 30
    .00000
 11
  -6.90734
 21
  39.08926
 31
    .00000
  0
LINE
  8
LAYE
 10
  -9.45329
 20
  38.75642
 30
    .00000
 11
  -9.33529
 21
  38.93542
 31
    .00000
  0
LINE
  8
LAYE
 10
  -9.33529
 20
  38.93542
 30
    .00000
 11
  -9.33825
 21
  38.88551
 31
    .00000
  0
LINE
  8
LAYE
 10
  -9.33529
 20
  38.93542
 30
    .00000
 11
  -9.38000
 21
  38.91303
 31
    .00000
  0
LINE
  8
LAYE
 10
  -9.10602
 20
  38.87724
 30
    .00000
 11
  -8.95602
 21
  39.04724
 31
    .00000
  0
LINE
  8
LAYE
 10
  -8.95602
 20
  39.04724
 30
    .00000
 11
  -8.96592
 21
  38.99823
 31
    .00000
  0
LINE
  8
LAYE
 10
  -8.95602
 20
  39.04724
 30
    .00000
 11
  -9.00342
 21
  39.03131
 31
    .00000
  0
LINE
  8
LAYE
 10
  -9.14346
 20
  38.69840
 30
    .00000
 11
  -9.04046
 21
  38.85140
 31
    .00000
  0
LINE
  8
LAYE
 10
  -9.04046
 20
  38.85140
 30
    .00000
 11
  -9.04390
 21
  38.80152
 31
    .00000
  0
LINE
  8
LAYE
 10
  -9.04046
 20
  38.85140
 30
    .00000
 11
  -9.08538
 21
  38.82944
 31
    .00000
  0
LINE
  8
LAYE
 10
  -8.53505
 20
  38.82877
 30
    .00000
 11
  -8.37505
 21
  38.94677
 31
    .00000
  0
LINE
  8
LAYE
 10
  -8.37505
 20
  38.94677
 30
    .00000
 11
  -8.39506
 21
  38.90095
 31
    .00000
  0
LINE
  8
LAYE
 10
  -8.37505
 20
  38.94677
 30
    .00000
 11
  -8.42474
 21
  38.94119
 31
    .00000
  0
LINE
  8
LAYE
 10
  -8.55032
 20
  38.67455
 30
    .00000
 11
  -8.44832
 21
  38.81655
 31
    .00000
  0
LINE
  8
LAYE
 10
  -8.44832
 20
  38.81655
 30
    .00000
 11
  -8.45328
 21
  38.76680
 31
    .00000
  0
LINE
  8
LAYE
 10
  -8.44832
 20
  38.81655
 30
    .00000
 11
  -8.49389
 21
  38.79597
 31
    .00000
  0
LINE
  8
LAYE
 10
  -7.67378
 20
  38.90864
 30
    .00000
 11
  -7.47678
 21
  38.98564
 31
    .00000
  0
LINE
  8
LAYE
 10
  -7.47678
 20
  38.98564
 30
    .00000
 11
  -7.50801
 21
  38.94659
 31
    .00000
  0
LINE
  8
LAYE
 10
  -7.47678
 20
  38.98564
 30
    .00000
 11
  -7.52621
 21
  38.99316
 31
    .00000
  0
LINE
  8
LAYE
 10
  -8.00343
 20
  38.71630
 30
    .00000
 11
  -7.85043
 21
  38.81030
 31
    .00000
  0
LINE
  8
LAYE
 10
  -7.85043
 20
  38.81030
 30
    .00000
 11
  -7.87424
 21
  38.76633
 31
    .00000
  0
LINE
  8
LAYE
 10
  -7.85043
 20
  38.81030
 30
    .00000
 11
  -7.90041
 21
  38.80893
 31
    .00000
  0
LINE
  8
LAYE
 10
  -7.60364
 20
  38.73501
 30
    .00000
 11
  -7.40764
 21
  38.78001
 31
    .00000
  0
LINE
  8
LAYE
 10
  -7.40764
 20
  38.78001
 30
    .00000
 11
  -7.44425
 21
  38.74595
 31
    .00000
  0
LINE
  8
LAYE
 10
  -7.40764
 20
  38.78001
 30
    .00000
 11
  -7.45544
 21
  38.79469
 31
    .00000
  0
LINE
  8
LAYE
 10
  -7.28045
 20
  38.83509
 30
    .00000
 11
  -7.06345
 21
  38.88309
 31
    .00000
  0
LINE
  8
LAYE
 10
  -7.06345
 20
  38.88309
 30
    .00000
 11
  -7.10033
 21
  38.84933
 31
    .00000
  0
LINE
  8
LAYE
 10
  -7.06345
 20
  38.88309
 30
    .00000
 11
  -7.11113
 21
  38.89815
 31
    .00000
  0
LINE
  8
LAYE
 10
  -8.90987
 20
  38.54936
 30
    .00000
 11
  -8.81387
 21
  38.71736
 31
    .00000
  0
LINE
  8
LAYE
 10
  -8.81387
 20
  38.71736
 30
    .00000
 11
  -8.81365
 21
  38.66736
 31
    .00000
  0
LINE
  8
LAYE
 10
  -8.81387
 20
  38.71736
 30
    .00000
 11
  -8.85706
 21
  38.69217
 31
    .00000
  0
LINE
  8
LAYE
 10
  -9.11188
 20
  38.43500
 30
    .00000
 11
  -9.06088
 21
  38.61300
 31
    .00000
  0
LINE
  8
LAYE
 10
  -9.06088
 20
  38.61300
 30
    .00000
 11
  -9.04877
 21
  38.56449
 31
    .00000
  0
LINE
  8
LAYE
 10
  -9.06088
 20
  38.61300
 30
    .00000
 11
  -9.09684
 21
  38.57826
 31
    .00000
  0
LINE
  8
LAYE
 10
  -8.52870
 20
  38.48230
 30
    .00000
 11
  -8.47270
 21
  38.57830
 31
    .00000
  0
LINE
  8
LAYE
 10
  -8.47270
 20
  38.57830
 30
    .00000
 11
  -8.47292
 21
  38.52830
 31
    .00000
  0
LINE
  8
LAYE
 10
  -8.47270
 20
  38.57830
 30
    .00000
 11
  -8.51611
 21
  38.55349
 31
    .00000
  0
LINE
  8
LAYE
 10
  -8.19915
 20
  38.56165
 30
    .00000
 11
  -8.10715
 21
  38.63665
 31
    .00000
  0
LINE
  8
LAYE
 10
  -8.10715
 20
  38.63665
 30
    .00000
 11
  -8.12492
 21
  38.58991
 31
    .00000
  0
LINE
  8
LAYE
 10
  -8.10715
 20
  38.63665
 30
    .00000
 11
  -8.15651
 21
  38.62867
 31
    .00000
  0
LINE
  8
LAYE
 10
  -8.23939
 20
  38.23842
 30
    .00000
 11
  -8.19339
 21
  38.31242
 31
    .00000
  0
LINE
  8
LAYE
 10
  -8.19339
 20
  38.31242
 30
    .00000
 11
  -8.19502
 21
  38.26245
 31
    .00000
  0
LINE
  8
LAYE
 10
  -8.19339
 20
  38.31242
 30
    .00000
 11
  -8.23748
 21
  38.28884
 31
    .00000
  0
LINE
  8
LAYE
 10
  -7.81327
 20
  38.44488
 30
    .00000
 11
  -7.68927
 21
  38.47888
 31
    .00000
  0
LINE
  8
LAYE
 10
  -7.68927
 20
  38.47888
 30
    .00000
 11
  -7.72442
 21
  38.44332
 31
    .00000
  0
LINE
  8
LAYE
 10
  -7.68927
 20
  38.47888
 30
    .00000
 11
  -7.73764
 21
  38.49154
 31
    .00000
  0
LINE
  8
LAYE
 10
  -7.79321
 20
  38.24408
 30
    .00000
 11
  -7.70021
 21
  38.26508
 31
    .00000
  0
LINE
  8
LAYE
 10
  -7.70021
 20
  38.26508
 30
    .00000
 11
  -7.73694
 21
  38.23116
 31
    .00000
  0
LINE
  8
LAYE
 10
  -7.70021
 20
  38.26508
 30
    .00000
 11
  -7.74795
 21
  38.27993
 31
    .00000
  0
LINE
  8
LAYE
 10
  -8.01305
 20
  38.31714
 30
    .00000
 11
  -7.93405
 21
  38.36714
 31
    .00000
  0
LINE
  8
LAYE
 10
  -7.93405
 20
  38.36714
 30
    .00000
 11
  -7.95727
 21
  38.32286
 31
    .00000
  0
LINE
  8
LAYE
 10
  -7.93405
 20
  38.36714
 30
    .00000
 11
  -7.98401
 21
  38.36511
 31
    .00000
  0
LINE
  8
LAYE
 10
  -7.39829
 20
  38.44317
 30
    .00000
 11
  -7.23129
 21
  38.43517
 31
    .00000
  0
LINE
  8
LAYE
 10
  -7.23129
 20
  38.43517
 30
    .00000
 11
  -7.27574
 21
  38.41227
 31
    .00000
  0
LINE
  8
LAYE
 10
  -7.23129
 20
  38.43517
 30
    .00000
 11
  -7.27335
 21
  38.46221
 31
    .00000
  0
LINE
  8
LAYE
 10
  -7.17044
 20
  38.23347
 30
    .00000
 11
  -7.00444
 21
  38.18347
 31
    .00000
  0
LINE
  8
LAYE
 10
  -7.00444
 20
  38.18347
 30
    .00000
 11
  -7.05311
 21
  38.17202
 31
    .00000
  0
LINE
  8
LAYE
 10
  -7.00444
 20
  38.18347
 30
    .00000
 11
  -7.03869
 21
  38.21990
 31
    .00000
  0
LINE
  8
LAYE
 10
  -8.64617
 20
  38.15756
 30
    .00000
 11
  -8.64017
 21
  38.27456
 31
    .00000
  0
LINE
  8
LAYE
 10
  -8.64017
 20
  38.27456
 30
    .00000
 11
  -8.61742
 21
  38.23004
 31
    .00000
  0
LINE
  8
LAYE
 10
  -8.64017
 20
  38.27456
 30
    .00000
 11
  -8.66735
 21
  38.23260
 31
    .00000
  0
LINE
  8
LAYE
 10
  -8.43230
 20
  38.04296
 30
    .00000
 11
  -8.46530
 21
  38.12696
 31
    .00000
  0
LINE
  8
LAYE
 10
  -8.46530
 20
  38.12696
 30
    .00000
 11
  -8.42620
 21
  38.09580
 31
    .00000
  0
LINE
  8
LAYE
 10
  -8.46530
 20
  38.12696
 30
    .00000
 11
  -8.47274
 21
  38.07752
 31
    .00000
  0
LINE
  8
LAYE
 10
  -8.16244
 20
  37.88048
 30
    .00000
 11
  -8.21344
 21
  37.89148
 31
    .00000
  0
LINE
  8
LAYE
 10
  -8.21344
 20
  37.89148
 30
    .00000
 11
  -8.16584
 21
  37.90679
 31
    .00000
  0
LINE
  8
LAYE
 10
  -8.21344
 20
  37.89148
 30
    .00000
 11
  -8.17638
 21
  37.85791
 31
    .00000
  0
LINE
  8
LAYE
 10
  -7.45991
 20
  38.09857
 30
    .00000
 11
  -7.32191
 21
  38.05457
 31
    .00000
  0
LINE
  8
LAYE
 10
  -7.32191
 20
  38.05457
 30
    .00000
 11
  -7.37076
 21
  38.04391
 31
    .00000
  0
LINE
  8
LAYE
 10
  -7.32191
 20
  38.05457
 30
    .00000
 11
  -7.35557
 21
  38.09154
 31
    .00000
  0
LINE
  8
LAYE
 10
  -7.86975
 20
  38.01812
 30
    .00000
 11
  -7.82775
 21
  38.01012
 31
    .00000
  0
LINE
  8
LAYE
 10
  -7.82775
 20
  38.01012
 30
    .00000
 11
  -7.87496
 21
  37.99366
 31
    .00000
  0
LINE
  8
LAYE
 10
  -7.82775
 20
  38.01012
 30
    .00000
 11
  -7.86561
 21
  38.04278
 31
    .00000
  0
LINE
  8
LAYE
 10
  -7.60539
 20
  37.93490
 30
    .00000
 11
  -7.48639
 21
  37.88290
 31
    .00000
  0
LINE
  8
LAYE
 10
  -7.48639
 20
  37.88290
 30
    .00000
 11
  -7.53608
 21
  37.87733
 31
    .00000
  0
LINE
  8
LAYE
 10
  -7.48639
 20
  37.88290
 30
    .00000
 11
  -7.51606
 21
  37.92315
 31
    .00000
  0
LINE
  8
LAYE
 10
  -7.29975
 20
  37.97237
 30
    .00000
 11
  -7.14575
 21
  37.89237
 31
    .00000
  0
LINE
  8
LAYE
 10
  -7.14575
 20
  37.89237
 30
    .00000
 11
  -7.19570
 21
  37.89015
 31
    .00000
  0
LINE
  8
LAYE
 10
  -7.14575
 20
  37.89237
 30
    .00000
 11
  -7.17265
 21
  37.93452
 31
    .00000
  0
LINE
  8
LAYE
 10
  -8.70345
 20
  37.78619
 30
    .00000
 11
  -8.85645
 21
  37.86819
 31
    .00000
  0
LINE
  8
LAYE
 10
  -8.85645
 20
  37.86819
 30
    .00000
 11
  -8.80647
 21
  37.86977
 31
    .00000
  0
LINE
  8
LAYE
 10
  -8.85645
 20
  37.86819
 30
    .00000
 11
  -8.83009
 21
  37.82570
 31
    .00000
  0
LINE
  8
LAYE
 10
  -8.41767
 20
  37.86341
 30
    .00000
 11
  -8.48967
 21
  37.88941
 31
    .00000
  0
LINE
  8
LAYE
 10
  -8.48967
 20
  37.88941
 30
    .00000
 11
  -8.44045
 21
  37.89822
 31
    .00000
  0
LINE
  8
LAYE
 10
  -8.48967
 20
  37.88941
 30
    .00000
 11
  -8.45743
 21
  37.85119
 31
    .00000
  0
LINE
  8
LAYE
 10
  -8.68993
 20
  37.50449
 30
    .00000
 11
  -8.95793
 21
  37.53249
 31
    .00000
  0
LINE
  8
LAYE
 10
  -8.95793
 20
  37.53249
 30
    .00000
 11
  -8.91227
 21
  37.55286
 31
    .00000
  0
LINE
  8
LAYE
 10
  -8.95793
 20
  37.53249
 30
    .00000
 11
  -8.91746
 21
  37.50313
 31
    .00000
  0
LINE
  8
LAYE
 10
  -8.37500
 20
  37.61484
 30
    .00000
 11
  -8.48900
 21
  37.61684
 31
    .00000
  0
LINE
  8
LAYE
 10
  -8.48900
 20
  37.61684
 30
    .00000
 11
  -8.44527
 21
  37.64108
 31
    .00000
  0
LINE
  8
LAYE
 10
  -8.48900
 20
  37.61684
 30
    .00000
 11
  -8.44614
 21
  37.59108
 31
    .00000
  0
LINE
  8
LAYE
 10
  -7.46232
 20
  37.80464
 30
    .00000
 11
  -7.34432
 21
  37.70564
 31
    .00000
  0
LINE
  8
LAYE
 10
  -7.34432
 20
  37.70564
 30
    .00000
 11
  -7.39356
 21
  37.71432
 31
    .00000
  0
LINE
  8
LAYE
 10
  -7.34432
 20
  37.70564
 30
    .00000
 11
  -7.36142
 21
  37.75262
 31
    .00000
  0
LINE
  8
LAYE
 10
  -7.76473
 20
  37.71078
 30
    .00000
 11
  -7.73373
 21
  37.60678
 31
    .00000
  0
LINE
  8
LAYE
 10
  -7.73373
 20
  37.60678
 30
    .00000
 11
  -7.77006
 21
  37.64114
 31
    .00000
  0
LINE
  8
LAYE
 10
  -7.73373
 20
  37.60678
 30
    .00000
 11
  -7.72214
 21
  37.65542
 31
    .00000
  0
LINE
  8
LAYE
 10
  -8.07168
 20
  37.62620
 30
    .00000
 11
  -8.08168
 21
  37.54820
 31
    .00000
  0
LINE
  8
LAYE
 10
  -8.08168
 20
  37.54820
 30
    .00000
 11
  -8.10097
 21
  37.59433
 31
    .00000
  0
LINE
  8
LAYE
 10
  -8.08168
 20
  37.54820
 30
    .00000
 11
  -8.05138
 21
  37.58797
 31
    .00000
  0
LINE
  8
LAYE
 10
  -7.45589
 20
  37.55743
 30
    .00000
 11
  -7.40589
 21
  37.37043
 31
    .00000
  0
LINE
  8
LAYE
 10
  -7.40589
 20
  37.37043
 30
    .00000
 11
  -7.44123
 21
  37.40580
 31
    .00000
  0
LINE
  8
LAYE
 10
  -7.40589
 20
  37.37043
 30
    .00000
 11
  -7.39292
 21
  37.41872
 31
    .00000
  0
LINE
  8
LAYE
 10
  -8.82426
 20
  37.27894
 30
    .00000
 11
  -9.18326
 21
  37.32494
 31
    .00000
  0
LINE
  8
LAYE
 10
  -9.18326
 20
  37.32494
 30
    .00000
 11
  -9.13713
 21
  37.34423
 31
    .00000
  0
LINE
  8
LAYE
 10
  -9.18326
 20
  37.32494
 30
    .00000
 11
  -9.14349
 21
  37.29464
 31
    .00000
  0
LINE
  8
LAYE
 10
  -8.56959
 20
  37.31656
 30
    .00000
 11
  -8.83759
 21
  37.30656
 31
    .00000
  0
LINE
  8
LAYE
 10
  -8.83759
 20
  37.30656
 30
    .00000
 11
  -8.79525
 21
  37.33316
 31
    .00000
  0
LINE
  8
LAYE
 10
  -8.83759
 20
  37.30656
 30
    .00000
 11
  -8.79339
 21
  37.28319
 31
    .00000
  0
LINE
  8
LAYE
 10
  -8.74254
 20
  37.21776
 30
    .00000
 11
  -9.11954
 21
  37.23276
 31
    .00000
  0
LINE
  8
LAYE
 10
  -9.11954
 20
  37.23276
 30
    .00000
 11
  -9.07528
 21
  37.25602
 31
    .00000
  0
LINE
  8
LAYE
 10
  -9.11954
 20
  37.23276
 30
    .00000
 11
  -9.07727
 21
  37.20606
 31
    .00000
  0
LINE
  8
LAYE
 10
  -8.07326
 20
  37.37994
 30
    .00000
 11
  -8.14426
 21
  37.28794
 31
    .00000
  0
LINE
  8
LAYE
 10
  -8.14426
 20
  37.28794
 30
    .00000
 11
  -8.13760
 21
  37.33749
 31
    .00000
  0
LINE
  8
LAYE
 10
  -8.14426
 20
  37.28794
 30
    .00000
 11
  -8.09801
 21
  37.30695
 31
    .00000
  0
LINE
  8
LAYE
 10
  -7.84821
 20
  37.49546
 30
    .00000
 11
  -7.87921
 21
  37.37046
 31
    .00000
  0
LINE
  8
LAYE
 10
  -7.87921
 20
  37.37046
 30
    .00000
 11
  -7.89305
 21
  37.41851
 31
    .00000
  0
LINE
  8
LAYE
 10
  -7.87921
 20
  37.37046
 30
    .00000
 11
  -7.84452
 21
  37.40647
 31
    .00000
  0
LINE
  8
LAYE
 10
  -7.40951
 20
  37.35953
 30
    .00000
 11
  -7.39651
 21
  37.08153
 31
    .00000
  0
LINE
  8
LAYE
 10
  -7.39651
 20
  37.08153
 30
    .00000
 11
  -7.42351
 21
  37.12362
 31
    .00000
  0
LINE
  8
LAYE
 10
  -7.39651
 20
  37.08153
 30
    .00000
 11
  -7.37356
 21
  37.12595
 31
    .00000
  0
LINE
  8
LAYE
 10
  -7.73075
 20
  37.26236
 30
    .00000
 11
  -7.81375
 21
  37.07336
 31
    .00000
  0
LINE
  8
LAYE
 10
  -7.81375
 20
  37.07336
 30
    .00000
 11
  -7.81923
 21
  37.12306
 31
    .00000
  0
LINE
  8
LAYE
 10
  -7.81375
 20
  37.07336
 30
    .00000
 11
  -7.77345
 21
  37.10295
 31
    .00000
  0
LINE
  8
LAYE
 10
  -7.47696
 20
  37.21276
 30
    .00000
 11
  -7.58096
 21
  36.95076
 31
    .00000
  0
LINE
  8
LAYE
 10
  -7.58096
 20
  36.95076
 30
    .00000
 11
  -7.58822
 21
  37.00023
 31
    .00000
  0
LINE
  8
LAYE
 10
  -7.58096
 20
  36.95076
 30
    .00000
 11
  -7.54175
 21
  36.98178
 31
    .00000
  0
LINE
  8
LAYE
 10
  -8.90296
 20
  37.08621
 30
    .00000
 11
  -9.39096
 21
  37.07921
 31
    .00000
  0
LINE
  8
LAYE
 10
  -9.39096
 20
  37.07921
 30
    .00000
 11
  -9.34802
 21
  37.10483
 31
    .00000
  0
LINE
  8
LAYE
 10
  -9.39096
 20
  37.07921
 30
    .00000
 11
  -9.34730
 21
  37.05483
 31
    .00000
  0
LINE
  8
LAYE
 10
  -8.68364
 20
  37.09315
 30
    .00000
 11
  -9.03264
 21
  37.04315
 31
    .00000
  0
LINE
  8
LAYE
 10
  -9.03264
 20
  37.04315
 30
    .00000
 11
  -8.99332
 21
  37.07404
 31
    .00000
  0
LINE
  8
LAYE
 10
  -9.03264
 20
  37.04315
 30
    .00000
 11
  -8.98623
 21
  37.02454
 31
    .00000
  0
LINE
  8
LAYE
 10
  -8.37057
 20
  37.14776
 30
    .00000
 11
  -8.61057
 21
  37.05376
 31
    .00000
  0
LINE
  8
LAYE
 10
  -8.61057
 20
  37.05376
 30
    .00000
 11
  -8.57937
 21
  37.09283
 31
    .00000
  0
LINE
  8
LAYE
 10
  -8.61057
 20
  37.05376
 30
    .00000
 11
  -8.56113
 21
  37.04627
 31
    .00000
  0
LINE
  8
LAYE
 10
  -7.91784
 20
  37.11938
 30
    .00000
 11
  -8.06984
 21
  36.93738
 31
    .00000
  0
LINE
  8
LAYE
 10
  -8.06984
 20
  36.93738
 30
    .00000
 11
  -8.06127
 21
  36.98664
 31
    .00000
  0
LINE
  8
LAYE
 10
  -8.06984
 20
  36.93738
 30
    .00000
 11
  -8.02290
 21
  36.95459
 31
    .00000
  0
LINE
  8
LAYE
 10
  -7.85078
 20
  36.99160
 30
    .00000
 11
  -7.99478
 21
  36.82160
 31
    .00000
  0
LINE
  8
LAYE
 10
  -7.99478
 20
  36.82160
 30
    .00000
 11
  -7.98587
 21
  36.87080
 31
    .00000
  0
LINE
  8
LAYE
 10
  -7.99478
 20
  36.82160
 30
    .00000
 11
  -7.94772
 21
  36.83848
 31
    .00000
  0
ENDSEC
  0
EOF
