  0
SECTION
  2
ENTITIES
  0
LINE
  8
LAYE
 10
  -8.67186
 20
  42.17172
 30
    .00000
 11
  -8.96386
 21
  41.81072
 31
    .00000
  0
LINE
  8
LAYE
 10
  -8.96386
 20
  41.81072
 30
    .00000
 11
  -8.95607
 21
  41.86011
 31
    .00000
  0
LINE
  8
LAYE
 10
  -8.96386
 20
  41.81072
 30
    .00000
 11
  -8.91719
 21
  41.82866
 31
    .00000
  0
LINE
  8
LAYE
 10
  -8.38480
 20
  42.16181
 30
    .00000
 11
  -8.66680
 21
  41.89081
 31
    .00000
  0
LINE
  8
LAYE
 10
  -8.66680
 20
  41.89081
 30
    .00000
 11
  -8.65290
 21
  41.93884
 31
    .00000
  0
LINE
  8
LAYE
 10
  -8.66680
 20
  41.89081
 30
    .00000
 11
  -8.61826
 21
  41.90279
 31
    .00000
  0
LINE
  8
LAYE
 10
  -8.69723
 20
  41.95647
 30
    .00000
 11
  -8.87223
 21
  41.60747
 31
    .00000
  0
LINE
  8
LAYE
 10
  -8.87223
 20
  41.60747
 30
    .00000
 11
  -8.87517
 21
  41.65738
 31
    .00000
  0
LINE
  8
LAYE
 10
  -8.87223
 20
  41.60747
 30
    .00000
 11
  -8.83047
 21
  41.63497
 31
    .00000
  0
LINE
  8
LAYE
 10
  -8.85392
 20
  41.92742
 30
    .00000
 11
  -9.02892
 21
  41.53342
 31
    .00000
  0
LINE
  8
LAYE
 10
  -9.02892
 20
  41.53342
 30
    .00000
 11
  -9.03419
 21
  41.58314
 31
    .00000
  0
LINE
  8
LAYE
 10
  -9.02892
 20
  41.53342
 30
    .00000
 11
  -8.98850
 21
  41.56285
 31
    .00000
  0
LINE
  8
LAYE
 10
  -8.28522
 20
  41.99988
 30
    .00000
 11
  -8.50922
 21
  41.69188
 31
    .00000
  0
LINE
  8
LAYE
 10
  -8.50922
 20
  41.69188
 30
    .00000
 11
  -8.50397
 21
  41.74160
 31
    .00000
  0
LINE
  8
LAYE
 10
  -8.50922
 20
  41.69188
 30
    .00000
 11
  -8.46353
 21
  41.71220
 31
    .00000
  0
LINE
  8
LAYE
 10
  -7.68482
 20
  41.90148
 30
    .00000
 11
  -8.03982
 21
  41.69048
 31
    .00000
  0
LINE
  8
LAYE
 10
  -8.03982
 20
  41.69048
 30
    .00000
 11
  -8.01537
 21
  41.73409
 31
    .00000
  0
LINE
  8
LAYE
 10
  -8.03982
 20
  41.69048
 30
    .00000
 11
  -7.98982
 21
  41.69111
 31
    .00000
  0
LINE
  8
LAYE
 10
  -6.96880
 20
  41.91263
 30
    .00000
 11
  -7.31680
 21
  41.93463
 31
    .00000
  0
LINE
  8
LAYE
 10
  -7.31680
 20
  41.93463
 30
    .00000
 11
  -7.27201
 21
  41.95685
 31
    .00000
  0
LINE
  8
LAYE
 10
  -7.31680
 20
  41.93463
 30
    .00000
 11
  -7.27516
 21
  41.90695
 31
    .00000
  0
LINE
  8
LAYE
 10
  -7.29432
 20
  41.85640
 30
    .00000
 11
  -7.68332
 21
  41.77840
 31
    .00000
  0
LINE
  8
LAYE
 10
  -7.68332
 20
  41.77840
 30
    .00000
 11
  -7.64578
 21
  41.81143
 31
    .00000
  0
LINE
  8
LAYE
 10
  -7.68332
 20
  41.77840
 30
    .00000
 11
  -7.63595
 21
  41.76240
 31
    .00000
  0
LINE
  8
LAYE
 10
  -6.55549
 20
  41.84234
 30
    .00000
 11
  -6.91149
 21
  41.91334
 31
    .00000
  0
LINE
  8
LAYE
 10
  -6.91149
 20
  41.91334
 30
    .00000
 11
  -6.86414
 21
  41.92939
 31
    .00000
  0
LINE
  8
LAYE
 10
  -6.91149
 20
  41.91334
 30
    .00000
 11
  -6.87391
 21
  41.88035
 31
    .00000
  0
LINE
  8
LAYE
 10
  -8.79540
 20
  41.80625
 30
    .00000
 11
  -8.91940
 21
  41.37325
 31
    .00000
  0
LINE
  8
LAYE
 10
  -8.91940
 20
  41.37325
 30
    .00000
 11
  -8.93151
 21
  41.42176
 31
    .00000
  0
LINE
  8
LAYE
 10
  -8.91940
 20
  41.37325
 30
    .00000
 11
  -8.88344
 21
  41.40800
 31
    .00000
  0
LINE
  8
LAYE
 10
  -8.44097
 20
  41.75851
 30
    .00000
 11
  -8.62497
 21
  41.46051
 31
    .00000
  0
LINE
  8
LAYE
 10
  -8.62497
 20
  41.46051
 30
    .00000
 11
  -8.62349
 21
  41.51049
 31
    .00000
  0
LINE
  8
LAYE
 10
  -8.62497
 20
  41.46051
 30
    .00000
 11
  -8.58095
 21
  41.48422
 31
    .00000
  0
LINE
  8
LAYE
 10
  -8.02399
 20
  41.65847
 30
    .00000
 11
  -8.21699
 21
  41.46347
 31
    .00000
  0
LINE
  8
LAYE
 10
  -8.21699
 20
  41.46347
 30
    .00000
 11
  -8.20430
 21
  41.51183
 31
    .00000
  0
LINE
  8
LAYE
 10
  -8.21699
 20
  41.46347
 30
    .00000
 11
  -8.16876
 21
  41.47666
 31
    .00000
  0
LINE
  8
LAYE
 10
  -7.49219
 20
  41.57181
 30
    .00000
 11
  -7.74119
 21
  41.47581
 31
    .00000
  0
LINE
  8
LAYE
 10
  -7.74119
 20
  41.47581
 30
    .00000
 11
  -7.70978
 21
  41.51471
 31
    .00000
  0
LINE
  8
LAYE
 10
  -7.74119
 20
  41.47581
 30
    .00000
 11
  -7.69179
 21
  41.46806
 31
    .00000
  0
LINE
  8
LAYE
 10
  -6.82601
 20
  41.71178
 30
    .00000
 11
  -7.12101
 21
  41.76678
 31
    .00000
  0
LINE
  8
LAYE
 10
  -7.12101
 20
  41.76678
 30
    .00000
 11
  -7.07386
 21
  41.78342
 31
    .00000
  0
LINE
  8
LAYE
 10
  -7.12101
 20
  41.76678
 30
    .00000
 11
  -7.08302
 21
  41.73427
 31
    .00000
  0
LINE
  8
LAYE
 10
  -6.27662
 20
  41.65418
 30
    .00000
 11
  -6.58062
 21
  41.74218
 31
    .00000
  0
LINE
  8
LAYE
 10
  -6.58062
 20
  41.74218
 30
    .00000
 11
  -6.53207
 21
  41.75415
 31
    .00000
  0
LINE
  8
LAYE
 10
  -6.58062
 20
  41.74218
 30
    .00000
 11
  -6.54598
 21
  41.70613
 31
    .00000
  0
LINE
  8
LAYE
 10
  -6.53510
 20
  41.51936
 30
    .00000
 11
  -6.81810
 21
  41.63736
 31
    .00000
  0
LINE
  8
LAYE
 10
  -6.81810
 20
  41.63736
 30
    .00000
 11
  -6.76851
 21
  41.64377
 31
    .00000
  0
LINE
  8
LAYE
 10
  -6.81810
 20
  41.63736
 30
    .00000
 11
  -6.78775
 21
  41.59762
 31
    .00000
  0
LINE
  8
LAYE
 10
  -8.71020
 20
  41.46077
 30
    .00000
 11
  -8.76120
 21
  41.20277
 31
    .00000
  0
LINE
  8
LAYE
 10
  -8.76120
 20
  41.20277
 30
    .00000
 11
  -8.77733
 21
  41.25010
 31
    .00000
  0
LINE
  8
LAYE
 10
  -8.76120
 20
  41.20277
 30
    .00000
 11
  -8.72828
 21
  41.24040
 31
    .00000
  0
LINE
  8
LAYE
 10
  -8.37470
 20
  41.34216
 30
    .00000
 11
  -8.48770
 21
  41.15916
 31
    .00000
  0
LINE
  8
LAYE
 10
  -8.48770
 20
  41.15916
 30
    .00000
 11
  -8.48622
 21
  41.20914
 31
    .00000
  0
LINE
  8
LAYE
 10
  -8.48770
 20
  41.15916
 30
    .00000
 11
  -8.44368
 21
  41.18287
 31
    .00000
  0
LINE
  8
LAYE
 10
  -8.25510
 20
  41.18370
 30
    .00000
 11
  -8.33810
 21
  41.02170
 31
    .00000
  0
LINE
  8
LAYE
 10
  -8.33810
 20
  41.02170
 30
    .00000
 11
  -8.34061
 21
  41.07164
 31
    .00000
  0
LINE
  8
LAYE
 10
  -8.33810
 20
  41.02170
 30
    .00000
 11
  -8.29611
 21
  41.04884
 31
    .00000
  0
LINE
  8
LAYE
 10
  -7.87861
 20
  41.26037
 30
    .00000
 11
  -7.96161
 21
  41.14137
 31
    .00000
  0
LINE
  8
LAYE
 10
  -7.96161
 20
  41.14137
 30
    .00000
 11
  -7.95734
 21
  41.19119
 31
    .00000
  0
LINE
  8
LAYE
 10
  -7.96161
 20
  41.14137
 30
    .00000
 11
  -7.91633
 21
  41.16258
 31
    .00000
  0
LINE
  8
LAYE
 10
  -6.98448
 20
  41.43155
 30
    .00000
 11
  -7.20948
 21
  41.45655
 31
    .00000
  0
LINE
  8
LAYE
 10
  -7.20948
 20
  41.45655
 30
    .00000
 11
  -7.16368
 21
  41.47662
 31
    .00000
  0
LINE
  8
LAYE
 10
  -7.20948
 20
  41.45655
 30
    .00000
 11
  -7.16920
 21
  41.42692
 31
    .00000
  0
LINE
  8
LAYE
 10
  -7.23913
 20
  41.24062
 30
    .00000
 11
  -7.44613
 21
  41.18262
 31
    .00000
  0
LINE
  8
LAYE
 10
  -7.44613
 20
  41.18262
 30
    .00000
 11
  -7.41118
 21
  41.21838
 31
    .00000
  0
LINE
  8
LAYE
 10
  -7.44613
 20
  41.18262
 30
    .00000
 11
  -7.39769
 21
  41.17023
 31
    .00000
  0
LINE
  8
LAYE
 10
  -6.73244
 20
  41.20268
 30
    .00000
 11
  -6.99344
 21
  41.28268
 31
    .00000
  0
LINE
  8
LAYE
 10
  -6.99344
 20
  41.28268
 30
    .00000
 11
  -6.94471
 21
  41.29389
 31
    .00000
  0
LINE
  8
LAYE
 10
  -6.99344
 20
  41.28268
 30
    .00000
 11
  -6.95937
 21
  41.24609
 31
    .00000
  0
LINE
  8
LAYE
 10
  -6.29890
 20
  41.34412
 30
    .00000
 11
  -6.52490
 21
  41.48012
 31
    .00000
  0
LINE
  8
LAYE
 10
  -6.52490
 20
  41.48012
 30
    .00000
 11
  -6.47491
 21
  41.47921
 31
    .00000
  0
LINE
  8
LAYE
 10
  -6.52490
 20
  41.48012
 30
    .00000
 11
  -6.50069
 21
  41.43637
 31
    .00000
  0
LINE
  8
LAYE
 10
  -8.58501
 20
  41.12582
 30
    .00000
 11
  -8.60701
 21
  40.94682
 31
    .00000
  0
LINE
  8
LAYE
 10
  -8.60701
 20
  40.94682
 30
    .00000
 11
  -8.62654
 21
  40.99285
 31
    .00000
  0
LINE
  8
LAYE
 10
  -8.60701
 20
  40.94682
 30
    .00000
 11
  -8.57691
 21
  40.98675
 31
    .00000
  0
LINE
  8
LAYE
 10
  -8.27585
 20
  40.88617
 30
    .00000
 11
  -8.32485
 21
  40.77617
 31
    .00000
  0
LINE
  8
LAYE
 10
  -8.32485
 20
  40.77617
 30
    .00000
 11
  -8.33007
 21
  40.82590
 31
    .00000
  0
LINE
  8
LAYE
 10
  -8.32485
 20
  40.77617
 30
    .00000
 11
  -8.28439
 21
  40.80555
 31
    .00000
  0
LINE
  8
LAYE
 10
  -7.98492
 20
  40.98265
 30
    .00000
 11
  -8.01392
 21
  40.89665
 31
    .00000
  0
LINE
  8
LAYE
 10
  -8.01392
 20
  40.89665
 30
    .00000
 11
  -8.02377
 21
  40.94567
 31
    .00000
  0
LINE
  8
LAYE
 10
  -8.01392
 20
  40.89665
 30
    .00000
 11
  -7.97639
 21
  40.92969
 31
    .00000
  0
LINE
  8
LAYE
 10
  -7.65167
 20
  40.96024
 30
    .00000
 11
  -7.69667
 21
  40.91424
 31
    .00000
  0
LINE
  8
LAYE
 10
  -7.69667
 20
  40.91424
 30
    .00000
 11
  -7.68426
 21
  40.96268
 31
    .00000
  0
LINE
  8
LAYE
 10
  -7.69667
 20
  40.91424
 30
    .00000
 11
  -7.64852
 21
  40.92771
 31
    .00000
  0
LINE
  8
LAYE
 10
  -7.42284
 20
  40.77284
 30
    .00000
 11
  -7.43584
 21
  40.74684
 31
    .00000
  0
LINE
  8
LAYE
 10
  -7.43584
 20
  40.74684
 30
    .00000
 11
  -7.43884
 21
  40.79675
 31
    .00000
  0
LINE
  8
LAYE
 10
  -7.43584
 20
  40.74684
 30
    .00000
 11
  -7.39411
 21
  40.77439
 31
    .00000
  0
LINE
  8
LAYE
 10
  -6.97893
 20
  40.85952
 30
    .00000
 11
  -7.10693
 21
  40.90552
 31
    .00000
  0
LINE
  8
LAYE
 10
  -7.10693
 20
  40.90552
 30
    .00000
 11
  -7.05773
 21
  40.91440
 31
    .00000
  0
LINE
  8
LAYE
 10
  -7.10693
 20
  40.90552
 30
    .00000
 11
  -7.07464
 21
  40.86735
 31
    .00000
  0
LINE
  8
LAYE
 10
  -8.75144
 20
  40.65703
 30
    .00000
 11
  -8.71544
 21
  40.51503
 31
    .00000
  0
LINE
  8
LAYE
 10
  -8.71544
 20
  40.51503
 30
    .00000
 11
  -8.75031
 21
  40.55086
 31
    .00000
  0
LINE
  8
LAYE
 10
  -8.71544
 20
  40.51503
 30
    .00000
 11
  -8.70185
 21
  40.56315
 31
    .00000
  0
LINE
  8
LAYE
 10
  -8.81037
 20
  40.46609
 30
    .00000
 11
  -8.72537
 21
  40.40209
 31
    .00000
  0
LINE
  8
LAYE
 10
  -8.72537
 20
  40.40209
 30
    .00000
 11
  -8.77500
 21
  40.40816
 31
    .00000
  0
LINE
  8
LAYE
 10
  -8.72537
 20
  40.40209
 30
    .00000
 11
  -8.74492
 21
  40.44811
 31
    .00000
  0
LINE
  8
LAYE
 10
  -8.20545
 20
  40.55627
 30
    .00000
 11
  -8.17145
 21
  40.46627
 31
    .00000
  0
LINE
  8
LAYE
 10
  -8.17145
 20
  40.46627
 30
    .00000
 11
  -8.21014
 21
  40.49794
 31
    .00000
  0
LINE
  8
LAYE
 10
  -8.17145
 20
  40.46627
 30
    .00000
 11
  -8.16337
 21
  40.51561
 31
    .00000
  0
LINE
  8
LAYE
 10
  -7.75837
 20
  40.60843
 30
    .00000
 11
  -7.61037
 21
  40.64843
 31
    .00000
  0
LINE
  8
LAYE
 10
  -7.61037
 20
  40.64843
 30
    .00000
 11
  -7.64565
 21
  40.61300
 31
    .00000
  0
LINE
  8
LAYE
 10
  -7.61037
 20
  40.64843
 30
    .00000
 11
  -7.65869
 21
  40.66127
 31
    .00000
  0
LINE
  8
LAYE
 10
  -7.42332
 20
  40.52978
 30
    .00000
 11
  -7.44232
 21
  40.56978
 31
    .00000
  0
LINE
  8
LAYE
 10
  -7.44232
 20
  40.56978
 30
    .00000
 11
  -7.40116
 21
  40.54139
 31
    .00000
  0
LINE
  8
LAYE
 10
  -7.44232
 20
  40.56978
 30
    .00000
 11
  -7.44632
 21
  40.51994
 31
    .00000
  0
LINE
  8
LAYE
 10
  -7.12799
 20
  40.58543
 30
    .00000
 11
  -7.17599
 21
  40.64343
 31
    .00000
  0
LINE
  8
LAYE
 10
  -7.17599
 20
  40.64343
 30
    .00000
 11
  -7.12912
 21
  40.62601
 31
    .00000
  0
LINE
  8
LAYE
 10
  -7.17599
 20
  40.64343
 30
    .00000
 11
  -7.16764
 21
  40.59413
 31
    .00000
  0
LINE
  8
LAYE
 10
  -6.85228
 20
  40.59444
 30
    .00000
 11
  -6.88828
 21
  40.69444
 31
    .00000
  0
LINE
  8
LAYE
 10
  -6.88828
 20
  40.69444
 30
    .00000
 11
  -6.85009
 21
  40.66217
 31
    .00000
  0
LINE
  8
LAYE
 10
  -6.88828
 20
  40.69444
 30
    .00000
 11
  -6.89714
 21
  40.64523
 31
    .00000
  0
LINE
  8
LAYE
 10
  -6.87776
 20
  40.44554
 30
    .00000
 11
  -6.88276
 21
  40.53854
 31
    .00000
  0
LINE
  8
LAYE
 10
  -6.88276
 20
  40.53854
 30
    .00000
 11
  -6.85547
 21
  40.49664
 31
    .00000
  0
LINE
  8
LAYE
 10
  -6.88276
 20
  40.53854
 30
    .00000
 11
  -6.90540
 21
  40.49396
 31
    .00000
  0
LINE
  8
LAYE
 10
  -8.36288
 20
  40.36766
 30
    .00000
 11
  -8.28088
 21
  40.30966
 31
    .00000
  0
LINE
  8
LAYE
 10
  -8.28088
 20
  40.30966
 30
    .00000
 11
  -8.33067
 21
  40.31425
 31
    .00000
  0
LINE
  8
LAYE
 10
  -8.28088
 20
  40.30966
 30
    .00000
 11
  -8.30180
 21
  40.35508
 31
    .00000
  0
LINE
  8
LAYE
 10
  -8.86660
 20
  40.20177
 30
    .00000
 11
  -8.74060
 21
  40.13977
 31
    .00000
  0
LINE
  8
LAYE
 10
  -8.74060
 20
  40.13977
 30
    .00000
 11
  -8.79049
 21
  40.13646
 31
    .00000
  0
LINE
  8
LAYE
 10
  -8.74060
 20
  40.13977
 30
    .00000
 11
  -8.76841
 21
  40.18132
 31
    .00000
  0
LINE
  8
LAYE
 10
  -8.18283
 20
  40.09054
 30
    .00000
 11
  -8.14583
 21
  40.08154
 31
    .00000
  0
LINE
  8
LAYE
 10
  -8.14583
 20
  40.08154
 30
    .00000
 11
  -8.19381
 21
  40.06748
 31
    .00000
  0
LINE
  8
LAYE
 10
  -8.14583
 20
  40.08154
 30
    .00000
 11
  -8.18200
 21
  40.11607
 31
    .00000
  0
LINE
  8
LAYE
 10
  -7.94488
 20
  40.38894
 30
    .00000
 11
  -7.88688
 21
  40.35794
 31
    .00000
  0
LINE
  8
LAYE
 10
  -7.88688
 20
  40.35794
 30
    .00000
 11
  -7.93685
 21
  40.35630
 31
    .00000
  0
LINE
  8
LAYE
 10
  -7.88688
 20
  40.35794
 30
    .00000
 11
  -7.91328
 21
  40.40040
 31
    .00000
  0
LINE
  8
LAYE
 10
  -7.82233
 20
  40.21138
 30
    .00000
 11
  -7.77933
 21
  40.25338
 31
    .00000
  0
LINE
  8
LAYE
 10
  -7.77933
 20
  40.25338
 30
    .00000
 11
  -7.79284
 21
  40.20524
 31
    .00000
  0
LINE
  8
LAYE
 10
  -7.77933
 20
  40.25338
 30
    .00000
 11
  -7.82778
 21
  40.24101
 31
    .00000
  0
LINE
  8
LAYE
 10
  -7.61582
 20
  40.31880
 30
    .00000
 11
  -7.58682
 21
  40.34980
 31
    .00000
  0
LINE
  8
LAYE
 10
  -7.58682
 20
  40.34980
 30
    .00000
 11
  -7.59814
 21
  40.30110
 31
    .00000
  0
LINE
  8
LAYE
 10
  -7.58682
 20
  40.34980
 30
    .00000
 11
  -7.63466
 21
  40.33526
 31
    .00000
  0
LINE
  8
LAYE
 10
  -7.53140
 20
  40.07977
 30
    .00000
 11
  -7.46740
 21
  40.08777
 31
    .00000
  0
LINE
  8
LAYE
 10
  -7.46740
 20
  40.08777
 30
    .00000
 11
  -7.50727
 21
  40.05759
 31
    .00000
  0
LINE
  8
LAYE
 10
  -7.46740
 20
  40.08777
 30
    .00000
 11
  -7.51347
 21
  40.10721
 31
    .00000
  0
LINE
  8
LAYE
 10
  -7.18402
 20
  40.34870
 30
    .00000
 11
  -7.15202
 21
  40.37570
 31
    .00000
  0
LINE
  8
LAYE
 10
  -7.15202
 20
  40.37570
 30
    .00000
 11
  -7.16899
 21
  40.32867
 31
    .00000
  0
LINE
  8
LAYE
 10
  -7.15202
 20
  40.37570
 30
    .00000
 11
  -7.20124
 21
  40.36688
 31
    .00000
  0
LINE
  8
LAYE
 10
  -6.86653
 20
  40.26529
 30
    .00000
 11
  -6.80353
 21
  40.33429
 31
    .00000
  0
LINE
  8
LAYE
 10
  -6.80353
 20
  40.33429
 30
    .00000
 11
  -6.81426
 21
  40.28546
 31
    .00000
  0
LINE
  8
LAYE
 10
  -6.80353
 20
  40.33429
 30
    .00000
 11
  -6.85119
 21
  40.31917
 31
    .00000
  0
LINE
  8
LAYE
 10
  -7.12251
 20
  40.02677
 30
    .00000
 11
  -7.04151
 21
  40.11677
 31
    .00000
  0
LINE
  8
LAYE
 10
  -7.04151
 20
  40.11677
 30
    .00000
 11
  -7.05189
 21
  40.06786
 31
    .00000
  0
LINE
  8
LAYE
 10
  -7.04151
 20
  40.11677
 30
    .00000
 11
  -7.08906
 21
  40.10131
 31
    .00000
  0
LINE
  8
LAYE
 10
  -9.01544
 20
  39.67567
 30
    .00000
 11
  -8.88644
 21
  39.79067
 31
    .00000
  0
LINE
  8
LAYE
 10
  -8.88644
 20
  39.79067
 30
    .00000
 11
  -8.90213
 21
  39.74319
 31
    .00000
  0
LINE
  8
LAYE
 10
  -8.88644
 20
  39.79067
 30
    .00000
 11
  -8.93540
 21
  39.78052
 31
    .00000
  0
LINE
  8
LAYE
 10
  -8.84972
 20
  39.89057
 30
    .00000
 11
  -8.78172
 21
  39.90557
 31
    .00000
  0
LINE
  8
LAYE
 10
  -8.78172
 20
  39.90557
 30
    .00000
 11
  -8.81862
 21
  39.87183
 31
    .00000
  0
LINE
  8
LAYE
 10
  -8.78172
 20
  39.90557
 30
    .00000
 11
  -8.82939
 21
  39.92066
 31
    .00000
  0
LINE
  8
LAYE
 10
  -8.53944
 20
  39.91719
 30
    .00000
 11
  -8.54444
 21
  39.94919
 31
    .00000
  0
LINE
  8
LAYE
 10
  -8.54444
 20
  39.94919
 30
    .00000
 11
  -8.51305
 21
  39.91027
 31
    .00000
  0
LINE
  8
LAYE
 10
  -8.54444
 20
  39.94919
 30
    .00000
 11
  -8.56246
 21
  39.90255
 31
    .00000
  0
LINE
  8
LAYE
 10
  -7.93081
 20
  39.84449
 30
    .00000
 11
  -7.87881
 21
  39.88549
 31
    .00000
  0
LINE
  8
LAYE
 10
  -7.87881
 20
  39.88549
 30
    .00000
 11
  -7.89733
 21
  39.83905
 31
    .00000
  0
LINE
  8
LAYE
 10
  -7.87881
 20
  39.88549
 30
    .00000
 11
  -7.92829
 21
  39.87831
 31
    .00000
  0
LINE
  8
LAYE
 10
  -8.14245
 20
  39.68814
 30
    .00000
 11
  -8.01945
 21
  39.74814
 31
    .00000
  0
LINE
  8
LAYE
 10
  -8.01945
 20
  39.74814
 30
    .00000
 11
  -8.04741
 21
  39.70669
 31
    .00000
  0
LINE
  8
LAYE
 10
  -8.01945
 20
  39.74814
 30
    .00000
 11
  -8.06933
 21
  39.75162
 31
    .00000
  0
LINE
  8
LAYE
 10
  -7.47322
 20
  39.80127
 30
    .00000
 11
  -7.37722
 21
  39.81827
 31
    .00000
  0
LINE
  8
LAYE
 10
  -7.37722
 20
  39.81827
 30
    .00000
 11
  -7.41550
 21
  39.78610
 31
    .00000
  0
LINE
  8
LAYE
 10
  -7.37722
 20
  39.81827
 30
    .00000
 11
  -7.42422
 21
  39.83534
 31
    .00000
  0
LINE
  8
LAYE
 10
  -7.05398
 20
  39.72539
 30
    .00000
 11
  -6.91398
 21
  39.81639
 31
    .00000
  0
LINE
  8
LAYE
 10
  -6.91398
 20
  39.81639
 30
    .00000
 11
  -6.93666
 21
  39.77183
 31
    .00000
  0
LINE
  8
LAYE
 10
  -6.91398
 20
  39.81639
 30
    .00000
 11
  -6.96391
 21
  39.81375
 31
    .00000
  0
LINE
  8
LAYE
 10
  -9.42799
 20
  39.34650
 30
    .00000
 11
  -9.22599
 21
  39.48750
 31
    .00000
  0
LINE
  8
LAYE
 10
  -9.22599
 20
  39.48750
 30
    .00000
 11
  -9.24719
 21
  39.44222
 31
    .00000
  0
LINE
  8
LAYE
 10
  -9.22599
 20
  39.48750
 30
    .00000
 11
  -9.27581
 21
  39.48322
 31
    .00000
  0
LINE
  8
LAYE
 10
  -9.22545
 20
  39.44356
 30
    .00000
 11
  -8.98245
 21
  39.54656
 31
    .00000
  0
LINE
  8
LAYE
 10
  -8.98245
 20
  39.54656
 30
    .00000
 11
  -9.01256
 21
  39.50664
 31
    .00000
  0
LINE
  8
LAYE
 10
  -8.98245
 20
  39.54656
 30
    .00000
 11
  -9.03207
 21
  39.55268
 31
    .00000
  0
LINE
  8
LAYE
 10
  -8.93239
 20
  39.43052
 30
    .00000
 11
  -8.79439
 21
  39.49952
 31
    .00000
  0
LINE
  8
LAYE
 10
  -8.79439
 20
  39.49952
 30
    .00000
 11
  -8.82194
 21
  39.45779
 31
    .00000
  0
LINE
  8
LAYE
 10
  -8.79439
 20
  39.49952
 30
    .00000
 11
  -8.84430
 21
  39.50252
 31
    .00000
  0
LINE
  8
LAYE
 10
  -8.64160
 20
  39.52900
 30
    .00000
 11
  -8.59160
 21
  39.59700
 31
    .00000
  0
LINE
  8
LAYE
 10
  -8.59160
 20
  39.59700
 30
    .00000
 11
  -8.59711
 21
  39.54730
 31
    .00000
  0
LINE
  8
LAYE
 10
  -8.59160
 20
  39.59700
 30
    .00000
 11
  -8.63739
 21
  39.57692
 31
    .00000
  0
LINE
  8
LAYE
 10
  -8.30018
 20
  39.51583
 30
    .00000
 11
  -8.22818
 21
  39.56683
 31
    .00000
  0
LINE
  8
LAYE
 10
  -8.22818
 20
  39.56683
 30
    .00000
 11
  -8.24906
 21
  39.52140
 31
    .00000
  0
LINE
  8
LAYE
 10
  -8.22818
 20
  39.56683
 30
    .00000
 11
  -8.27797
 21
  39.56220
 31
    .00000
  0
LINE
  8
LAYE
 10
  -8.75673
 20
  39.32701
 30
    .00000
 11
  -8.69373
 21
  39.40401
 31
    .00000
  0
LINE
  8
LAYE
 10
  -8.69373
 20
  39.40401
 30
    .00000
 11
  -8.70180
 21
  39.35467
 31
    .00000
  0
LINE
  8
LAYE
 10
  -8.69373
 20
  39.40401
 30
    .00000
 11
  -8.74050
 21
  39.38633
 31
    .00000
  0
LINE
  8
LAYE
 10
  -8.42473
 20
  39.32956
 30
    .00000
 11
  -8.35073
 21
  39.39556
 31
    .00000
  0
LINE
  8
LAYE
 10
  -8.35073
 20
  39.39556
 30
    .00000
 11
  -8.36641
 21
  39.34808
 31
    .00000
  0
LINE
  8
LAYE
 10
  -8.35073
 20
  39.39556
 30
    .00000
 11
  -8.39969
 21
  39.38540
 31
    .00000
  0
LINE
  8
LAYE
 10
  -7.64395
 20
  39.56751
 30
    .00000
 11
  -7.50495
 21
  39.64551
 31
    .00000
  0
LINE
  8
LAYE
 10
  -7.50495
 20
  39.64551
 30
    .00000
 11
  -7.53048
 21
  39.60252
 31
    .00000
  0
LINE
  8
LAYE
 10
  -7.50495
 20
  39.64551
 30
    .00000
 11
  -7.55495
 21
  39.64612
 31
    .00000
  0
LINE
  8
LAYE
 10
  -8.02141
 20
  39.36255
 30
    .00000
 11
  -7.92141
 21
  39.40755
 31
    .00000
  0
LINE
  8
LAYE
 10
  -7.92141
 20
  39.40755
 30
    .00000
 11
  -7.95064
 21
  39.36698
 31
    .00000
  0
LINE
  8
LAYE
 10
  -7.92141
 20
  39.40755
 30
    .00000
 11
  -7.97116
 21
  39.41258
 31
    .00000
  0
LINE
  8
LAYE
 10
  -7.23831
 20
  39.60151
 30
    .00000
 11
  -7.01831
 21
  39.62651
 31
    .00000
  0
LINE
  8
LAYE
 10
  -7.01831
 20
  39.62651
 30
    .00000
 11
  -7.05851
 21
  39.59678
 31
    .00000
  0
LINE
  8
LAYE
 10
  -7.01831
 20
  39.62651
 30
    .00000
 11
  -7.06416
 21
  39.64646
 31
    .00000
  0
LINE
  8
LAYE
 10
  -7.37857
 20
  39.30870
 30
    .00000
 11
  -7.19857
 21
  39.35670
 31
    .00000
  0
LINE
  8
LAYE
 10
  -7.19857
 20
  39.35670
 30
    .00000
 11
  -7.23397
 21
  39.32139
 31
    .00000
  0
LINE
  8
LAYE
 10
  -7.19857
 20
  39.35670
 30
    .00000
 11
  -7.24685
 21
  39.36970
 31
    .00000
  0
LINE
  8
LAYE
 10
  -9.06284
 20
  39.16258
 30
    .00000
 11
  -8.91984
 21
  39.27058
 31
    .00000
  0
LINE
  8
LAYE
 10
  -8.91984
 20
  39.27058
 30
    .00000
 11
  -8.93933
 21
  39.22453
 31
    .00000
  0
LINE
  8
LAYE
 10
  -8.91984
 20
  39.27058
 30
    .00000
 11
  -8.96946
 21
  39.26443
 31
    .00000
  0
LINE
  8
LAYE
 10
  -9.32378
 20
  38.99744
 30
    .00000
 11
  -9.25178
 21
  39.14644
 31
    .00000
  0
LINE
  8
LAYE
 10
  -9.25178
 20
  39.14644
 30
    .00000
 11
  -9.24811
 21
  39.09657
 31
    .00000
  0
LINE
  8
LAYE
 10
  -9.25178
 20
  39.14644
 30
    .00000
 11
  -9.29313
 21
  39.11833
 31
    .00000
  0
LINE
  8
LAYE
 10
  -8.59445
 20
  39.13484
 30
    .00000
 11
  -8.51645
 21
  39.20884
 31
    .00000
  0
LINE
  8
LAYE
 10
  -8.51645
 20
  39.20884
 30
    .00000
 11
  -8.53066
 21
  39.16090
 31
    .00000
  0
LINE
  8
LAYE
 10
  -8.51645
 20
  39.20884
 30
    .00000
 11
  -8.56507
 21
  39.19717
 31
    .00000
  0
LINE
  8
LAYE
 10
  -8.19593
 20
  39.07301
 30
    .00000
 11
  -8.10993
 21
  39.11601
 31
    .00000
  0
LINE
  8
LAYE
 10
  -8.10993
 20
  39.11601
 30
    .00000
 11
  -8.13748
 21
  39.07428
 31
    .00000
  0
LINE
  8
LAYE
 10
  -8.10993
 20
  39.11601
 30
    .00000
 11
  -8.15984
 21
  39.11901
 31
    .00000
  0
LINE
  8
LAYE
 10
  -7.63713
 20
  39.18783
 30
    .00000
 11
  -7.49313
 21
  39.20083
 31
    .00000
  0
LINE
  8
LAYE
 10
  -7.49313
 20
  39.20083
 30
    .00000
 11
  -7.53401
 21
  39.17204
 31
    .00000
  0
LINE
  8
LAYE
 10
  -7.49313
 20
  39.20083
 30
    .00000
 11
  -7.53850
 21
  39.22184
 31
    .00000
  0
LINE
  8
LAYE
 10
  -7.12826
 20
  39.03371
 30
    .00000
 11
  -6.91726
 21
  39.00771
 31
    .00000
  0
LINE
  8
LAYE
 10
  -6.91726
 20
  39.00771
 30
    .00000
 11
  -6.96329
 21
  38.98819
 31
    .00000
  0
LINE
  8
LAYE
 10
  -6.91726
 20
  39.00771
 30
    .00000
 11
  -6.95718
 21
  39.03782
 31
    .00000
  0
LINE
  8
LAYE
 10
  -9.44229
 20
  38.75952
 30
    .00000
 11
  -9.43429
 21
  38.90752
 31
    .00000
  0
LINE
  8
LAYE
 10
  -9.43429
 20
  38.90752
 30
    .00000
 11
  -9.41166
 21
  38.86293
 31
    .00000
  0
LINE
  8
LAYE
 10
  -9.43429
 20
  38.90752
 30
    .00000
 11
  -9.46159
 21
  38.86563
 31
    .00000
  0
LINE
  8
LAYE
 10
  -9.09592
 20
  38.88074
 30
    .00000
 11
  -9.04692
 21
  39.01574
 31
    .00000
  0
LINE
  8
LAYE
 10
  -9.04692
 20
  39.01574
 30
    .00000
 11
  -9.03819
 21
  38.96651
 31
    .00000
  0
LINE
  8
LAYE
 10
  -9.04692
 20
  39.01574
 30
    .00000
 11
  -9.08519
 21
  38.98357
 31
    .00000
  0
LINE
  8
LAYE
 10
  -9.13276
 20
  38.70210
 30
    .00000
 11
  -9.13676
 21
  38.81810
 31
    .00000
  0
LINE
  8
LAYE
 10
  -9.13676
 20
  38.81810
 30
    .00000
 11
  -9.11028
 21
  38.77569
 31
    .00000
  0
LINE
  8
LAYE
 10
  -9.13676
 20
  38.81810
 30
    .00000
 11
  -9.16025
 21
  38.77396
 31
    .00000
  0
LINE
  8
LAYE
 10
  -8.52565
 20
  38.83347
 30
    .00000
 11
  -8.45965
 21
  38.90447
 31
    .00000
  0
LINE
  8
LAYE
 10
  -8.45965
 20
  38.90447
 30
    .00000
 11
  -8.47082
 21
  38.85573
 31
    .00000
  0
LINE
  8
LAYE
 10
  -8.45965
 20
  38.90447
 30
    .00000
 11
  -8.50744
 21
  38.88978
 31
    .00000
  0
LINE
  8
LAYE
 10
  -8.54042
 20
  38.67945
 30
    .00000
 11
  -8.53742
 21
  38.77245
 31
    .00000
  0
LINE
  8
LAYE
 10
  -8.53742
 20
  38.77245
 30
    .00000
 11
  -8.51383
 21
  38.72837
 31
    .00000
  0
LINE
  8
LAYE
 10
  -8.53742
 20
  38.77245
 30
    .00000
 11
  -8.56380
 21
  38.72998
 31
    .00000
  0
LINE
  8
LAYE
 10
  -7.66608
 20
  38.91484
 30
    .00000
 11
  -7.54608
 21
  38.92984
 31
    .00000
  0
LINE
  8
LAYE
 10
  -7.54608
 20
  38.92984
 30
    .00000
 11
  -7.58595
 21
  38.89966
 31
    .00000
  0
LINE
  8
LAYE
 10
  -7.54608
 20
  38.92984
 30
    .00000
 11
  -7.59215
 21
  38.94928
 31
    .00000
  0
LINE
  8
LAYE
 10
  -7.99463
 20
  38.72230
 30
    .00000
 11
  -7.92963
 21
  38.75630
 31
    .00000
  0
LINE
  8
LAYE
 10
  -7.92963
 20
  38.75630
 30
    .00000
 11
  -7.95641
 21
  38.71408
 31
    .00000
  0
LINE
  8
LAYE
 10
  -7.92963
 20
  38.75630
 30
    .00000
 11
  -7.97959
 21
  38.75838
 31
    .00000
  0
LINE
  8
LAYE
 10
  -7.59564
 20
  38.74171
 30
    .00000
 11
  -7.47964
 21
  38.71971
 31
    .00000
  0
LINE
  8
LAYE
 10
  -7.47964
 20
  38.71971
 30
    .00000
 11
  -7.52684
 21
  38.70322
 31
    .00000
  0
LINE
  8
LAYE
 10
  -7.47964
 20
  38.71971
 30
    .00000
 11
  -7.51752
 21
  38.75234
 31
    .00000
  0
LINE
  8
LAYE
 10
  -7.27325
 20
  38.84219
 30
    .00000
 11
  -7.12825
 21
  38.81919
 31
    .00000
  0
LINE
  8
LAYE
 10
  -7.12825
 20
  38.81919
 30
    .00000
 11
  -7.17493
 21
  38.80128
 31
    .00000
  0
LINE
  8
LAYE
 10
  -7.12825
 20
  38.81919
 30
    .00000
 11
  -7.16710
 21
  38.85066
 31
    .00000
  0
LINE
  8
LAYE
 10
  -8.89907
 20
  38.55376
 30
    .00000
 11
  -8.91107
 21
  38.67776
 31
    .00000
  0
LINE
  8
LAYE
 10
  -8.91107
 20
  38.67776
 30
    .00000
 11
  -8.88202
 21
  38.63707
 31
    .00000
  0
LINE
  8
LAYE
 10
  -8.91107
 20
  38.67776
 30
    .00000
 11
  -8.93178
 21
  38.63225
 31
    .00000
  0
LINE
  8
LAYE
 10
  -9.10038
 20
  38.43920
 30
    .00000
 11
  -9.16438
 21
  38.57520
 31
    .00000
  0
LINE
  8
LAYE
 10
  -9.16438
 20
  38.57520
 30
    .00000
 11
  -9.12332
 21
  38.54667
 31
    .00000
  0
LINE
  8
LAYE
 10
  -9.16438
 20
  38.57520
 30
    .00000
 11
  -9.16856
 21
  38.52538
 31
    .00000
  0
LINE
  8
LAYE
 10
  -8.51820
 20
  38.48760
 30
    .00000
 11
  -8.56720
 21
  38.53060
 31
    .00000
  0
LINE
  8
LAYE
 10
  -8.56720
 20
  38.53060
 30
    .00000
 11
  -8.51816
 21
  38.52083
 31
    .00000
  0
LINE
  8
LAYE
 10
  -8.56720
 20
  38.53060
 30
    .00000
 11
  -8.55114
 21
  38.48325
 31
    .00000
  0
LINE
  8
LAYE
 10
  -8.18955
 20
  38.56745
 30
    .00000
 11
  -8.19355
 21
  38.58445
 31
    .00000
  0
LINE
  8
LAYE
 10
  -8.19355
 20
  38.58445
 30
    .00000
 11
  -8.15930
 21
  38.54803
 31
    .00000
  0
LINE
  8
LAYE
 10
  -8.19355
 20
  38.58445
 30
    .00000
 11
  -8.20797
 21
  38.53657
 31
    .00000
  0
LINE
  8
LAYE
 10
  -8.22859
 20
  38.24472
 30
    .00000
 11
  -8.29059
 21
  38.25572
 31
    .00000
  0
LINE
  8
LAYE
 10
  -8.29059
 20
  38.25572
 30
    .00000
 11
  -8.24359
 21
  38.27277
 31
    .00000
  0
LINE
  8
LAYE
 10
  -8.29059
 20
  38.25572
 30
    .00000
 11
  -8.25232
 21
  38.22354
 31
    .00000
  0
LINE
  8
LAYE
 10
  -7.80387
 20
  38.45168
 30
    .00000
 11
  -7.77387
 21
  38.41768
 31
    .00000
  0
LINE
  8
LAYE
 10
  -7.77387
 20
  38.41768
 30
    .00000
 11
  -7.82127
 21
  38.43361
 31
    .00000
  0
LINE
  8
LAYE
 10
  -7.77387
 20
  38.41768
 30
    .00000
 11
  -7.78377
 21
  38.46669
 31
    .00000
  0
LINE
  8
LAYE
 10
  -7.78321
 20
  38.25128
 30
    .00000
 11
  -7.79021
 21
  38.20028
 31
    .00000
  0
LINE
  8
LAYE
 10
  -7.79021
 20
  38.20028
 30
    .00000
 11
  -7.80909
 21
  38.24658
 31
    .00000
  0
LINE
  8
LAYE
 10
  -7.79021
 20
  38.20028
 30
    .00000
 11
  -7.75955
 21
  38.23978
 31
    .00000
  0
LINE
  8
LAYE
 10
  -8.00295
 20
  38.32374
 30
    .00000
 11
  -8.02495
 21
  38.30774
 31
    .00000
  0
LINE
  8
LAYE
 10
  -8.02495
 20
  38.30774
 30
    .00000
 11
  -8.00463
 21
  38.35343
 31
    .00000
  0
LINE
  8
LAYE
 10
  -8.02495
 20
  38.30774
 30
    .00000
 11
  -7.97523
 21
  38.31299
 31
    .00000
  0
LINE
  8
LAYE
 10
  -7.38969
 20
  38.45077
 30
    .00000
 11
  -7.30869
 21
  38.36677
 31
    .00000
  0
LINE
  8
LAYE
 10
  -7.30869
 20
  38.36677
 30
    .00000
 11
  -7.35674
 21
  38.38059
 31
    .00000
  0
LINE
  8
LAYE
 10
  -7.30869
 20
  38.36677
 30
    .00000
 11
  -7.32075
 21
  38.41529
 31
    .00000
  0
LINE
  8
LAYE
 10
  -7.16144
 20
  38.24197
 30
    .00000
 11
  -7.08544
 21
  38.10697
 31
    .00000
  0
LINE
  8
LAYE
 10
  -7.08544
 20
  38.10697
 30
    .00000
 11
  -7.12847
 21
  38.13244
 31
    .00000
  0
LINE
  8
LAYE
 10
  -7.08544
 20
  38.10697
 30
    .00000
 11
  -7.08490
 21
  38.15697
 31
    .00000
  0
LINE
  8
LAYE
 10
  -8.63457
 20
  38.16316
 30
    .00000
 11
  -8.74457
 21
  38.22416
 31
    .00000
  0
LINE
  8
LAYE
 10
  -8.74457
 20
  38.22416
 30
    .00000
 11
  -8.69458
 21
  38.22502
 31
    .00000
  0
LINE
  8
LAYE
 10
  -8.74457
 20
  38.22416
 30
    .00000
 11
  -8.71883
 21
  38.18130
 31
    .00000
  0
LINE
  8
LAYE
 10
  -8.42060
 20
  38.04916
 30
    .00000
 11
  -8.57060
 21
  38.07116
 31
    .00000
  0
LINE
  8
LAYE
 10
  -8.57060
 20
  38.07116
 30
    .00000
 11
  -8.52413
 21
  38.08961
 31
    .00000
  0
LINE
  8
LAYE
 10
  -8.57060
 20
  38.07116
 30
    .00000
 11
  -8.53138
 21
  38.04014
 31
    .00000
  0
LINE
  8
LAYE
 10
  -8.15054
 20
  37.88758
 30
    .00000
 11
  -8.32054
 21
  37.82758
 31
    .00000
  0
LINE
  8
LAYE
 10
  -8.32054
 20
  37.82758
 30
    .00000
 11
  -8.28803
 21
  37.86557
 31
    .00000
  0
LINE
  8
LAYE
 10
  -8.32054
 20
  37.82758
 30
    .00000
 11
  -8.27139
 21
  37.81842
 31
    .00000
  0
LINE
  8
LAYE
 10
  -7.45001
 20
  38.10677
 30
    .00000
 11
  -7.41101
 21
  37.98077
 31
    .00000
  0
LINE
  8
LAYE
 10
  -7.41101
 20
  37.98077
 30
    .00000
 11
  -7.44770
 21
  38.01474
 31
    .00000
  0
LINE
  8
LAYE
 10
  -7.41101
 20
  37.98077
 30
    .00000
 11
  -7.39993
 21
  38.02953
 31
    .00000
  0
LINE
  8
LAYE
 10
  -7.85885
 20
  38.02562
 30
    .00000
 11
  -7.92585
 21
  37.94262
 31
    .00000
  0
LINE
  8
LAYE
 10
  -7.92585
 20
  37.94262
 30
    .00000
 11
  -7.91810
 21
  37.99202
 31
    .00000
  0
LINE
  8
LAYE
 10
  -7.92585
 20
  37.94262
 30
    .00000
 11
  -7.87920
 21
  37.96061
 31
    .00000
  0
LINE
  8
LAYE
 10
  -7.59479
 20
  37.94310
 30
    .00000
 11
  -7.58179
 21
  37.80910
 31
    .00000
  0
LINE
  8
LAYE
 10
  -7.58179
 20
  37.80910
 30
    .00000
 11
  -7.61085
 21
  37.84978
 31
    .00000
  0
LINE
  8
LAYE
 10
  -7.58179
 20
  37.80910
 30
    .00000
 11
  -7.56109
 21
  37.85461
 31
    .00000
  0
LINE
  8
LAYE
 10
  -7.28975
 20
  37.98117
 30
    .00000
 11
  -7.23575
 21
  37.81317
 31
    .00000
  0
LINE
  8
LAYE
 10
  -7.23575
 20
  37.81317
 30
    .00000
 11
  -7.27280
 21
  37.84674
 31
    .00000
  0
LINE
  8
LAYE
 10
  -7.23575
 20
  37.81317
 30
    .00000
 11
  -7.22520
 21
  37.86204
 31
    .00000
  0
LINE
  8
LAYE
 10
  -8.69035
 20
  37.79229
 30
    .00000
 11
  -8.97435
 21
  37.81329
 31
    .00000
  0
LINE
  8
LAYE
 10
  -8.97435
 20
  37.81329
 30
    .00000
 11
  -8.92932
 21
  37.83503
 31
    .00000
  0
LINE
  8
LAYE
 10
  -8.97435
 20
  37.81329
 30
    .00000
 11
  -8.93301
 21
  37.78516
 31
    .00000
  0
LINE
  8
LAYE
 10
  -8.40537
 20
  37.87001
 30
    .00000
 11
  -8.60037
 21
  37.83001
 31
    .00000
  0
LINE
  8
LAYE
 10
  -8.60037
 20
  37.83001
 30
    .00000
 11
  -8.56298
 21
  37.86320
 31
    .00000
  0
LINE
  8
LAYE
 10
  -8.60037
 20
  37.83001
 30
    .00000
 11
  -8.55293
 21
  37.81422
 31
    .00000
  0
LINE
  8
LAYE
 10
  -8.67603
 20
  37.51109
 30
    .00000
 11
  -9.08303
 21
  37.47309
 31
    .00000
  0
LINE
  8
LAYE
 10
  -9.08303
 20
  37.47309
 30
    .00000
 11
  -9.04224
 21
  37.50201
 31
    .00000
  0
LINE
  8
LAYE
 10
  -9.08303
 20
  37.47309
 30
    .00000
 11
  -9.03759
 21
  37.45222
 31
    .00000
  0
LINE
  8
LAYE
 10
  -8.36190
 20
  37.62194
 30
    .00000
 11
  -8.60690
 21
  37.55294
 31
    .00000
  0
LINE
  8
LAYE
 10
  -8.60690
 20
  37.55294
 30
    .00000
 11
  -8.57200
 21
  37.58874
 31
    .00000
  0
LINE
  8
LAYE
 10
  -8.60690
 20
  37.55294
 30
    .00000
 11
  -8.55844
 21
  37.54061
 31
    .00000
  0
LINE
  8
LAYE
 10
  -7.45152
 20
  37.81334
 30
    .00000
 11
  -7.44152
 21
  37.62734
 31
    .00000
  0
LINE
  8
LAYE
 10
  -7.44152
 20
  37.62734
 30
    .00000
 11
  -7.46881
 21
  37.66924
 31
    .00000
  0
LINE
  8
LAYE
 10
  -7.44152
 20
  37.62734
 30
    .00000
 11
  -7.41888
 21
  37.67192
 31
    .00000
  0
LINE
  8
LAYE
 10
  -7.75303
 20
  37.71908
 30
    .00000
 11
  -7.83903
 21
  37.53208
 31
    .00000
  0
LINE
  8
LAYE
 10
  -7.83903
 20
  37.53208
 30
    .00000
 11
  -7.84365
 21
  37.58187
 31
    .00000
  0
LINE
  8
LAYE
 10
  -7.83903
 20
  37.53208
 30
    .00000
 11
  -7.79822
 21
  37.56097
 31
    .00000
  0
LINE
  8
LAYE
 10
  -8.05908
 20
  37.63390
 30
    .00000
 11
  -8.19508
 21
  37.47890
 31
    .00000
  0
LINE
  8
LAYE
 10
  -8.19508
 20
  37.47890
 30
    .00000
 11
  -8.18531
 21
  37.52794
 31
    .00000
  0
LINE
  8
LAYE
 10
  -8.19508
 20
  37.47890
 30
    .00000
 11
  -8.14773
 21
  37.49496
 31
    .00000
  0
LINE
  8
LAYE
 10
  -7.44419
 20
  37.56663
 30
    .00000
 11
  -7.51119
 21
  37.28763
 31
    .00000
  0
LINE
  8
LAYE
 10
  -7.51119
 20
  37.28763
 30
    .00000
 11
  -7.52539
 21
  37.33557
 31
    .00000
  0
LINE
  8
LAYE
 10
  -7.51119
 20
  37.28763
 30
    .00000
 11
  -7.47677
 21
  37.32390
 31
    .00000
  0
LINE
  8
LAYE
 10
  -8.80926
 20
  37.28554
 30
    .00000
 11
  -9.31826
 21
  37.26554
 31
    .00000
  0
LINE
  8
LAYE
 10
  -9.31826
 20
  37.26554
 30
    .00000
 11
  -9.27597
 21
  37.29222
 31
    .00000
  0
LINE
  8
LAYE
 10
  -9.31826
 20
  37.26554
 30
    .00000
 11
  -9.27401
 21
  37.24226
 31
    .00000
  0
LINE
  8
LAYE
 10
  -8.55519
 20
  37.32376
 30
    .00000
 11
  -8.96719
 21
  37.24176
 31
    .00000
  0
LINE
  8
LAYE
 10
  -8.96719
 20
  37.24176
 30
    .00000
 11
  -8.92960
 21
  37.27473
 31
    .00000
  0
LINE
  8
LAYE
 10
  -8.96719
 20
  37.24176
 30
    .00000
 11
  -8.91984
 21
  37.22569
 31
    .00000
  0
LINE
  8
LAYE
 10
  -8.72754
 20
  37.22466
 30
    .00000
 11
  -9.25454
 21
  37.17066
 31
    .00000
  0
LINE
  8
LAYE
 10
  -9.25454
 20
  37.17066
 30
    .00000
 11
  -9.21401
 21
  37.19994
 31
    .00000
  0
LINE
  8
LAYE
 10
  -9.25454
 20
  37.17066
 30
    .00000
 11
  -9.20892
 21
  37.15020
 31
    .00000
  0
LINE
  8
LAYE
 10
  -8.05996
 20
  37.38814
 30
    .00000
 11
  -8.26396
 21
  37.21414
 31
    .00000
  0
LINE
  8
LAYE
 10
  -8.26396
 20
  37.21414
 30
    .00000
 11
  -8.24724
 21
  37.26126
 31
    .00000
  0
LINE
  8
LAYE
 10
  -8.26396
 20
  37.21414
 30
    .00000
 11
  -8.21479
 21
  37.22322
 31
    .00000
  0
LINE
  8
LAYE
 10
  -7.83561
 20
  37.50386
 30
    .00000
 11
  -7.99261
 21
  37.29486
 31
    .00000
  0
LINE
  8
LAYE
 10
  -7.99261
 20
  37.29486
 30
    .00000
 11
  -7.98659
 21
  37.34450
 31
    .00000
  0
LINE
  8
LAYE
 10
  -7.99261
 20
  37.29486
 30
    .00000
 11
  -7.94661
 21
  37.31447
 31
    .00000
  0
LINE
  8
LAYE
 10
  -7.39721
 20
  37.36913
 30
    .00000
 11
  -7.50721
 21
  36.99513
 31
    .00000
  0
LINE
  8
LAYE
 10
  -7.50721
 20
  36.99513
 30
    .00000
 11
  -7.51898
 21
  37.04373
 31
    .00000
  0
LINE
  8
LAYE
 10
  -7.50721
 20
  36.99513
 30
    .00000
 11
  -7.47101
 21
  37.02962
 31
    .00000
  0
LINE
  8
LAYE
 10
  -7.71755
 20
  37.27156
 30
    .00000
 11
  -7.93255
 21
  36.99056
 31
    .00000
  0
LINE
  8
LAYE
 10
  -7.93255
 20
  36.99056
 30
    .00000
 11
  -7.92609
 21
  37.04014
 31
    .00000
  0
LINE
  8
LAYE
 10
  -7.93255
 20
  36.99056
 30
    .00000
 11
  -7.88638
 21
  37.00976
 31
    .00000
  0
LINE
  8
LAYE
 10
  -7.46396
 20
  37.22256
 30
    .00000
 11
  -7.69796
 21
  36.86256
 31
    .00000
  0
LINE
  8
LAYE
 10
  -7.69796
 20
  36.86256
 30
    .00000
 11
  -7.69532
 21
  36.91249
 31
    .00000
  0
LINE
  8
LAYE
 10
  -7.69796
 20
  36.86256
 30
    .00000
 11
  -7.65340
 21
  36.88524
 31
    .00000
  0
LINE
  8
LAYE
 10
  -8.88716
 20
  37.09301
 30
    .00000
 11
  -9.53316
 21
  37.01801
 31
    .00000
  0
LINE
  8
LAYE
 10
  -9.53316
 20
  37.01801
 30
    .00000
 11
  -9.49303
 21
  37.04784
 31
    .00000
  0
LINE
  8
LAYE
 10
  -9.53316
 20
  37.01801
 30
    .00000
 11
  -9.48726
 21
  36.99817
 31
    .00000
  0
LINE
  8
LAYE
 10
  -8.66824
 20
  37.10045
 30
    .00000
 11
  -9.17124
 21
  36.97745
 31
    .00000
  0
LINE
  8
LAYE
 10
  -9.17124
 20
  36.97745
 30
    .00000
 11
  -9.13512
 21
  37.01202
 31
    .00000
  0
LINE
  8
LAYE
 10
  -9.17124
 20
  36.97745
 30
    .00000
 11
  -9.12324
 21
  36.96345
 31
    .00000
  0
LINE
  8
LAYE
 10
  -8.35587
 20
  37.15566
 30
    .00000
 11
  -8.74287
 21
  36.98266
 31
    .00000
  0
LINE
  8
LAYE
 10
  -8.74287
 20
  36.98266
 30
    .00000
 11
  -8.71354
 21
  37.02315
 31
    .00000
  0
LINE
  8
LAYE
 10
  -8.74287
 20
  36.98266
 30
    .00000
 11
  -8.69314
 21
  36.97751
 31
    .00000
  0
LINE
  8
LAYE
 10
  -7.90384
 20
  37.12838
 30
    .00000
 11
  -8.19584
 21
  36.85638
 31
    .00000
  0
LINE
  8
LAYE
 10
  -8.19584
 20
  36.85638
 30
    .00000
 11
  -8.18120
 21
  36.90419
 31
    .00000
  0
LINE
  8
LAYE
 10
  -8.19584
 20
  36.85638
 30
    .00000
 11
  -8.14712
 21
  36.86760
 31
    .00000
  0
LINE
  8
LAYE
 10
  -7.83638
 20
  37.00100
 30
    .00000
 11
  -8.12438
 21
  36.73700
 31
    .00000
  0
LINE
  8
LAYE
 10
  -8.12438
 20
  36.73700
 30
    .00000
 11
  -8.10935
 21
  36.78469
 31
    .00000
  0
LINE
  8
LAYE
 10
  -8.12438
 20
  36.73700
 30
    .00000
 11
  -8.07557
 21
  36.74783
 31
    .00000
  0
ENDSEC
  0
EOF
