  0
SECTION
  2
ENTITIES
  0
LINE
  8
LAYE
 10
  -8.70105
 20
  42.13563
 30
    .00000
 11
  -8.70112
 21
  42.13554
 31
    .00000
  0
LINE
  8
LAYE
 10
  -8.70112
 20
  42.13554
 30
    .00000
 11
  -8.69558
 21
  42.18523
 31
    .00000
  0
LINE
  8
LAYE
 10
  -8.70112
 20
  42.13554
 30
    .00000
 11
  -8.65532
 21
  42.15559
 31
    .00000
  0
LINE
  8
LAYE
 10
  -8.41299
 20
  42.13472
 30
    .00000
 11
  -8.41306
 21
  42.13465
 31
    .00000
  0
LINE
  8
LAYE
 10
  -8.41306
 20
  42.13465
 30
    .00000
 11
  -8.40046
 21
  42.18304
 31
    .00000
  0
LINE
  8
LAYE
 10
  -8.41306
 20
  42.13465
 30
    .00000
 11
  -8.36485
 21
  42.14794
 31
    .00000
  0
LINE
  8
LAYE
 10
  -8.71473
 20
  41.92158
 30
    .00000
 11
  -8.71476
 21
  41.92149
 31
    .00000
  0
LINE
  8
LAYE
 10
  -8.71476
 20
  41.92149
 30
    .00000
 11
  -8.72280
 21
  41.97084
 31
    .00000
  0
LINE
  8
LAYE
 10
  -8.71476
 20
  41.92149
 30
    .00000
 11
  -8.67604
 21
  41.95313
 31
    .00000
  0
LINE
  8
LAYE
 10
  -8.87142
 20
  41.88803
 30
    .00000
 11
  -8.87145
 21
  41.88793
 31
    .00000
  0
LINE
  8
LAYE
 10
  -8.87145
 20
  41.88793
 30
    .00000
 11
  -8.88147
 21
  41.93692
 31
    .00000
  0
LINE
  8
LAYE
 10
  -8.87145
 20
  41.88793
 30
    .00000
 11
  -8.83404
 21
  41.92111
 31
    .00000
  0
LINE
  8
LAYE
 10
  -8.30762
 20
  41.96909
 30
    .00000
 11
  -8.30766
 21
  41.96901
 31
    .00000
  0
LINE
  8
LAYE
 10
  -8.30766
 20
  41.96901
 30
    .00000
 11
  -8.30601
 21
  42.01899
 31
    .00000
  0
LINE
  8
LAYE
 10
  -8.30766
 20
  41.96901
 30
    .00000
 11
  -8.26356
 21
  41.99257
 31
    .00000
  0
LINE
  8
LAYE
 10
  -7.72031
 20
  41.88038
 30
    .00000
 11
  -7.72039
 21
  41.88034
 31
    .00000
  0
LINE
  8
LAYE
 10
  -7.72039
 20
  41.88034
 30
    .00000
 11
  -7.69492
 21
  41.92336
 31
    .00000
  0
LINE
  8
LAYE
 10
  -7.72039
 20
  41.88034
 30
    .00000
 11
  -7.67040
 21
  41.87979
 31
    .00000
  0
LINE
  8
LAYE
 10
  -7.00359
 20
  41.91483
 30
    .00000
 11
  -7.00367
 21
  41.91485
 31
    .00000
  0
LINE
  8
LAYE
 10
  -7.00367
 20
  41.91485
 30
    .00000
 11
  -6.95578
 21
  41.92922
 31
    .00000
  0
LINE
  8
LAYE
 10
  -7.00367
 20
  41.91485
 30
    .00000
 11
  -6.96728
 21
  41.88056
 31
    .00000
  0
LINE
  8
LAYE
 10
  -7.33321
 20
  41.84860
 30
    .00000
 11
  -7.33330
 21
  41.84859
 31
    .00000
  0
LINE
  8
LAYE
 10
  -7.33330
 20
  41.84859
 30
    .00000
 11
  -7.29272
 21
  41.87780
 31
    .00000
  0
LINE
  8
LAYE
 10
  -7.33330
 20
  41.84859
 30
    .00000
 11
  -7.28771
 21
  41.82805
 31
    .00000
  0
LINE
  8
LAYE
 10
  -6.59108
 20
  41.84944
 30
    .00000
 11
  -6.59116
 21
  41.84947
 31
    .00000
  0
LINE
  8
LAYE
 10
  -6.59116
 20
  41.84947
 30
    .00000
 11
  -6.54167
 21
  41.85654
 31
    .00000
  0
LINE
  8
LAYE
 10
  -6.59116
 20
  41.84947
 30
    .00000
 11
  -6.56029
 21
  41.81014
 31
    .00000
  0
LINE
  8
LAYE
 10
  -8.80780
 20
  41.76296
 30
    .00000
 11
  -8.80782
 21
  41.76285
 31
    .00000
  0
LINE
  8
LAYE
 10
  -8.80782
 20
  41.76285
 30
    .00000
 11
  -8.82532
 21
  41.80969
 31
    .00000
  0
LINE
  8
LAYE
 10
  -8.80782
 20
  41.76285
 30
    .00000
 11
  -8.77600
 21
  41.80143
 31
    .00000
  0
LINE
  8
LAYE
 10
  -8.45937
 20
  41.72872
 30
    .00000
 11
  -8.45940
 21
  41.72865
 31
    .00000
  0
LINE
  8
LAYE
 10
  -8.45940
 20
  41.72865
 30
    .00000
 11
  -8.46279
 21
  41.77853
 31
    .00000
  0
LINE
  8
LAYE
 10
  -8.45940
 20
  41.72865
 30
    .00000
 11
  -8.41790
 21
  41.75653
 31
    .00000
  0
LINE
  8
LAYE
 10
  -8.04329
 20
  41.63897
 30
    .00000
 11
  -8.04332
 21
  41.63893
 31
    .00000
  0
LINE
  8
LAYE
 10
  -8.04332
 20
  41.63893
 30
    .00000
 11
  -8.03347
 21
  41.68795
 31
    .00000
  0
LINE
  8
LAYE
 10
  -8.04332
 20
  41.63893
 30
    .00000
 11
  -7.99594
 21
  41.65491
 31
    .00000
  0
LINE
  8
LAYE
 10
  -7.51708
 20
  41.56221
 30
    .00000
 11
  -7.51714
 21
  41.56220
 31
    .00000
  0
LINE
  8
LAYE
 10
  -7.51714
 20
  41.56220
 30
    .00000
 11
  -7.48204
 21
  41.59781
 31
    .00000
  0
LINE
  8
LAYE
 10
  -7.51714
 20
  41.56220
 30
    .00000
 11
  -7.46875
 21
  41.54961
 31
    .00000
  0
LINE
  8
LAYE
 10
  -6.85550
 20
  41.71728
 30
    .00000
 11
  -6.85557
 21
  41.71731
 31
    .00000
  0
LINE
  8
LAYE
 10
  -6.85557
 20
  41.71731
 30
    .00000
 11
  -6.80592
 21
  41.72326
 31
    .00000
  0
LINE
  8
LAYE
 10
  -6.85557
 20
  41.71731
 30
    .00000
 11
  -6.82559
 21
  41.67729
 31
    .00000
  0
LINE
  8
LAYE
 10
  -6.30701
 20
  41.66298
 30
    .00000
 11
  -6.30708
 21
  41.66301
 31
    .00000
  0
LINE
  8
LAYE
 10
  -6.30708
 20
  41.66301
 30
    .00000
 11
  -6.25709
 21
  41.66374
 31
    .00000
  0
LINE
  8
LAYE
 10
  -6.30708
 20
  41.66301
 30
    .00000
 11
  -6.28145
 21
  41.62008
 31
    .00000
  0
LINE
  8
LAYE
 10
  -6.56339
 20
  41.53116
 30
    .00000
 11
  -6.56346
 21
  41.53120
 31
    .00000
  0
LINE
  8
LAYE
 10
  -6.56346
 20
  41.53120
 30
    .00000
 11
  -6.51380
 21
  41.52535
 31
    .00000
  0
LINE
  8
LAYE
 10
  -6.56346
 20
  41.53120
 30
    .00000
 11
  -6.54369
 21
  41.48527
 31
    .00000
  0
LINE
  8
LAYE
 10
  -8.71530
 20
  41.43498
 30
    .00000
 11
  -8.71530
 21
  41.43492
 31
    .00000
  0
LINE
  8
LAYE
 10
  -8.71530
 20
  41.43492
 30
    .00000
 11
  -8.74209
 21
  41.47713
 31
    .00000
  0
LINE
  8
LAYE
 10
  -8.71530
 20
  41.43492
 30
    .00000
 11
  -8.69213
 21
  41.47923
 31
    .00000
  0
LINE
  8
LAYE
 10
  -8.38600
 20
  41.32386
 30
    .00000
 11
  -8.38601
 21
  41.32382
 31
    .00000
  0
LINE
  8
LAYE
 10
  -8.38601
 20
  41.32382
 30
    .00000
 11
  -8.39409
 21
  41.37317
 31
    .00000
  0
LINE
  8
LAYE
 10
  -8.38601
 20
  41.32382
 30
    .00000
 11
  -8.34732
 21
  41.35549
 31
    .00000
  0
LINE
  8
LAYE
 10
  -8.26340
 20
  41.16750
 30
    .00000
 11
  -8.26341
 21
  41.16747
 31
    .00000
  0
LINE
  8
LAYE
 10
  -8.26341
 20
  41.16747
 30
    .00000
 11
  -8.28052
 21
  41.21445
 31
    .00000
  0
LINE
  8
LAYE
 10
  -8.26341
 20
  41.16747
 30
    .00000
 11
  -8.23127
 21
  41.20578
 31
    .00000
  0
LINE
  8
LAYE
 10
  -7.88691
 20
  41.24847
 30
    .00000
 11
  -7.88692
 21
  41.24845
 31
    .00000
  0
LINE
  8
LAYE
 10
  -7.88692
 20
  41.24845
 30
    .00000
 11
  -7.89948
 21
  41.29685
 31
    .00000
  0
LINE
  8
LAYE
 10
  -7.88692
 20
  41.24845
 30
    .00000
 11
  -7.85129
 21
  41.28353
 31
    .00000
  0
LINE
  8
LAYE
 10
  -7.00698
 20
  41.43405
 30
    .00000
 11
  -7.00702
 21
  41.43407
 31
    .00000
  0
LINE
  8
LAYE
 10
  -7.00702
 20
  41.43407
 30
    .00000
 11
  -6.95734
 21
  41.43973
 31
    .00000
  0
LINE
  8
LAYE
 10
  -7.00702
 20
  41.43407
 30
    .00000
 11
  -6.97728
 21
  41.39387
 31
    .00000
  0
LINE
  8
LAYE
 10
  -7.25983
 20
  41.23482
 30
    .00000
 11
  -7.25987
 21
  41.23482
 31
    .00000
  0
LINE
  8
LAYE
 10
  -7.25987
 20
  41.23482
 30
    .00000
 11
  -7.21899
 21
  41.26361
 31
    .00000
  0
LINE
  8
LAYE
 10
  -7.25987
 20
  41.23482
 30
    .00000
 11
  -7.21449
 21
  41.21381
 31
    .00000
  0
LINE
  8
LAYE
 10
  -6.75853
 20
  41.21068
 30
    .00000
 11
  -6.75859
 21
  41.21071
 31
    .00000
  0
LINE
  8
LAYE
 10
  -6.75859
 20
  41.21071
 30
    .00000
 11
  -6.70864
 21
  41.20856
 31
    .00000
  0
LINE
  8
LAYE
 10
  -6.75859
 20
  41.21071
 30
    .00000
 11
  -6.73548
 21
  41.16637
 31
    .00000
  0
LINE
  8
LAYE
 10
  -6.32150
 20
  41.35771
 30
    .00000
 11
  -6.32154
 21
  41.35777
 31
    .00000
  0
LINE
  8
LAYE
 10
  -6.32154
 20
  41.35777
 30
    .00000
 11
  -6.27406
 21
  41.34209
 31
    .00000
  0
LINE
  8
LAYE
 10
  -6.32154
 20
  41.35777
 30
    .00000
 11
  -6.31138
 21
  41.30881
 31
    .00000
  0
LINE
  8
LAYE
 10
  -8.58721
 20
  41.10792
 30
    .00000
 11
  -8.58720
 21
  41.10789
 31
    .00000
  0
LINE
  8
LAYE
 10
  -8.58720
 20
  41.10789
 30
    .00000
 11
  -8.62306
 21
  41.14273
 31
    .00000
  0
LINE
  8
LAYE
 10
  -8.58720
 20
  41.10789
 30
    .00000
 11
  -8.57496
 21
  41.15636
 31
    .00000
  0
LINE
  8
LAYE
 10
  -8.28075
 20
  40.87517
 30
    .00000
 11
  -8.28075
 21
  40.87515
 31
    .00000
  0
LINE
  8
LAYE
 10
  -8.28075
 20
  40.87515
 30
    .00000
 11
  -8.31354
 21
  40.91290
 31
    .00000
  0
LINE
  8
LAYE
 10
  -8.28075
 20
  40.87515
 30
    .00000
 11
  -8.26445
 21
  40.92242
 31
    .00000
  0
LINE
  8
LAYE
 10
  -7.98782
 20
  40.97405
 30
    .00000
 11
  -7.98781
 21
  40.97404
 31
    .00000
  0
LINE
  8
LAYE
 10
  -7.98781
 20
  40.97404
 30
    .00000
 11
  -8.03404
 21
  40.99308
 31
    .00000
  0
LINE
  8
LAYE
 10
  -7.98781
 20
  40.97404
 30
    .00000
 11
  -7.99444
 21
  41.02360
 31
    .00000
  0
LINE
  8
LAYE
 10
  -7.65617
 20
  40.95564
 30
    .00000
 11
  -7.65617
 21
  40.95564
 31
    .00000
  0
LINE
  8
LAYE
 10
  -7.65617
 20
  40.95564
 30
    .00000
 11
  -7.70196
 21
  40.93558
 31
    .00000
  0
LINE
  8
LAYE
 10
  -7.65617
 20
  40.95564
 30
    .00000
 11
  -7.69644
 21
  40.98527
 31
    .00000
  0
LINE
  8
LAYE
 10
  -7.42414
 20
  40.77024
 30
    .00000
 11
  -7.42413
 21
  40.77024
 31
    .00000
  0
LINE
  8
LAYE
 10
  -7.42413
 20
  40.77024
 30
    .00000
 11
  -7.45667
 21
  40.73228
 31
    .00000
  0
LINE
  8
LAYE
 10
  -7.42413
 20
  40.77024
 30
    .00000
 11
  -7.47327
 21
  40.77944
 31
    .00000
  0
LINE
  8
LAYE
 10
  -6.99173
 20
  40.86412
 30
    .00000
 11
  -6.99175
 21
  40.86414
 31
    .00000
  0
LINE
  8
LAYE
 10
  -6.99175
 20
  40.86414
 30
    .00000
 11
  -6.94655
 21
  40.84275
 31
    .00000
  0
LINE
  8
LAYE
 10
  -6.99175
 20
  40.86414
 30
    .00000
 11
  -6.98767
 21
  40.81431
 31
    .00000
  0
LINE
  8
LAYE
 10
  -8.74784
 20
  40.64283
 30
    .00000
 11
  -8.74782
 21
  40.64280
 31
    .00000
  0
LINE
  8
LAYE
 10
  -8.74782
 20
  40.64280
 30
    .00000
 11
  -8.79604
 21
  40.65601
 31
    .00000
  0
LINE
  8
LAYE
 10
  -8.74782
 20
  40.64280
 30
    .00000
 11
  -8.76049
 21
  40.69117
 31
    .00000
  0
LINE
  8
LAYE
 10
  -8.80187
 20
  40.45969
 30
    .00000
 11
  -8.80183
 21
  40.45968
 31
    .00000
  0
LINE
  8
LAYE
 10
  -8.80183
 20
  40.45968
 30
    .00000
 11
  -8.84846
 21
  40.44163
 31
    .00000
  0
LINE
  8
LAYE
 10
  -8.80183
 20
  40.45968
 30
    .00000
 11
  -8.84078
 21
  40.49104
 31
    .00000
  0
LINE
  8
LAYE
 10
  -8.20205
 20
  40.54727
 30
    .00000
 11
  -8.20203
 21
  40.54726
 31
    .00000
  0
LINE
  8
LAYE
 10
  -8.20203
 20
  40.54726
 30
    .00000
 11
  -8.25192
 21
  40.54404
 31
    .00000
  0
LINE
  8
LAYE
 10
  -8.20203
 20
  40.54726
 30
    .00000
 11
  -8.22976
 21
  40.58886
 31
    .00000
  0
LINE
  8
LAYE
 10
  -7.74358
 20
  40.61243
 30
    .00000
 11
  -7.74352
 21
  40.61245
 31
    .00000
  0
LINE
  8
LAYE
 10
  -7.74352
 20
  40.61245
 30
    .00000
 11
  -7.77470
 21
  40.57337
 31
    .00000
  0
LINE
  8
LAYE
 10
  -7.74352
 20
  40.61245
 30
    .00000
 11
  -7.79296
 21
  40.61991
 31
    .00000
  0
LINE
  8
LAYE
 10
  -7.42522
 20
  40.53378
 30
    .00000
 11
  -7.42521
 21
  40.53380
 31
    .00000
  0
LINE
  8
LAYE
 10
  -7.42521
 20
  40.53380
 30
    .00000
 11
  -7.42365
 21
  40.48383
 31
    .00000
  0
LINE
  8
LAYE
 10
  -7.42521
 20
  40.53380
 30
    .00000
 11
  -7.46771
 21
  40.50746
 31
    .00000
  0
LINE
  8
LAYE
 10
  -7.13279
 20
  40.59123
 30
    .00000
 11
  -7.13279
 21
  40.59126
 31
    .00000
  0
LINE
  8
LAYE
 10
  -7.13279
 20
  40.59126
 30
    .00000
 11
  -7.11525
 21
  40.54443
 31
    .00000
  0
LINE
  8
LAYE
 10
  -7.13279
 20
  40.59126
 30
    .00000
 11
  -7.16457
 21
  40.55266
 31
    .00000
  0
LINE
  8
LAYE
 10
  -6.85588
 20
  40.60444
 30
    .00000
 11
  -6.85587
 21
  40.60448
 31
    .00000
  0
LINE
  8
LAYE
 10
  -6.85587
 20
  40.60448
 30
    .00000
 11
  -6.83985
 21
  40.55711
 31
    .00000
  0
LINE
  8
LAYE
 10
  -6.85587
 20
  40.60448
 30
    .00000
 11
  -6.88888
 21
  40.56692
 31
    .00000
  0
LINE
  8
LAYE
 10
  -6.87826
 20
  40.45484
 30
    .00000
 11
  -6.87824
 21
  40.45487
 31
    .00000
  0
LINE
  8
LAYE
 10
  -6.87824
 20
  40.45487
 30
    .00000
 11
  -6.87285
 21
  40.40517
 31
    .00000
  0
LINE
  8
LAYE
 10
  -6.87824
 20
  40.45487
 30
    .00000
 11
  -6.91860
 21
  40.42535
 31
    .00000
  0
LINE
  8
LAYE
 10
  -8.35468
 20
  40.36186
 30
    .00000
 11
  -8.35464
 21
  40.36186
 31
    .00000
  0
LINE
  8
LAYE
 10
  -8.35464
 20
  40.36186
 30
    .00000
 11
  -8.40041
 21
  40.34171
 31
    .00000
  0
LINE
  8
LAYE
 10
  -8.35464
 20
  40.36186
 30
    .00000
 11
  -8.39497
 21
  40.39142
 31
    .00000
  0
LINE
  8
LAYE
 10
  -8.85401
 20
  40.19557
 30
    .00000
 11
  -8.85395
 21
  40.19556
 31
    .00000
  0
LINE
  8
LAYE
 10
  -8.85395
 20
  40.19556
 30
    .00000
 11
  -8.89984
 21
  40.17571
 31
    .00000
  0
LINE
  8
LAYE
 10
  -8.85395
 20
  40.19556
 30
    .00000
 11
  -8.89409
 21
  40.22538
 31
    .00000
  0
LINE
  8
LAYE
 10
  -8.17913
 20
  40.08964
 30
    .00000
 11
  -8.17910
 21
  40.08965
 31
    .00000
  0
LINE
  8
LAYE
 10
  -8.17910
 20
  40.08965
 30
    .00000
 11
  -8.21259
 21
  40.05252
 31
    .00000
  0
LINE
  8
LAYE
 10
  -8.17910
 20
  40.08965
 30
    .00000
 11
  -8.22800
 21
  40.10008
 31
    .00000
  0
LINE
  8
LAYE
 10
  -7.93908
 20
  40.38584
 30
    .00000
 11
  -7.93905
 21
  40.38584
 31
    .00000
  0
LINE
  8
LAYE
 10
  -7.93905
 20
  40.38584
 30
    .00000
 11
  -7.97972
 21
  40.35676
 31
    .00000
  0
LINE
  8
LAYE
 10
  -7.93905
 20
  40.38584
 30
    .00000
 11
  -7.98457
 21
  40.40653
 31
    .00000
  0
LINE
  8
LAYE
 10
  -7.81803
 20
  40.21558
 30
    .00000
 11
  -7.81800
 21
  40.21560
 31
    .00000
  0
LINE
  8
LAYE
 10
  -7.81800
 20
  40.21560
 30
    .00000
 11
  -7.83658
 21
  40.16918
 31
    .00000
  0
LINE
  8
LAYE
 10
  -7.81800
 20
  40.21560
 30
    .00000
 11
  -7.86749
 21
  40.20848
 31
    .00000
  0
LINE
  8
LAYE
 10
  -7.61292
 20
  40.32190
 30
    .00000
 11
  -7.61290
 21
  40.32192
 31
    .00000
  0
LINE
  8
LAYE
 10
  -7.61290
 20
  40.32192
 30
    .00000
 11
  -7.63092
 21
  40.27528
 31
    .00000
  0
LINE
  8
LAYE
 10
  -7.61290
 20
  40.32192
 30
    .00000
 11
  -7.66230
 21
  40.31420
 31
    .00000
  0
LINE
  8
LAYE
 10
  -7.52500
 20
  40.08057
 30
    .00000
 11
  -7.52497
 21
  40.08058
 31
    .00000
  0
LINE
  8
LAYE
 10
  -7.52497
 20
  40.08058
 30
    .00000
 11
  -7.55611
 21
  40.04147
 31
    .00000
  0
LINE
  8
LAYE
 10
  -7.52497
 20
  40.08058
 30
    .00000
 11
  -7.57441
 21
  40.08800
 31
    .00000
  0
LINE
  8
LAYE
 10
  -7.18082
 20
  40.35140
 30
    .00000
 11
  -7.18080
 21
  40.35142
 31
    .00000
  0
LINE
  8
LAYE
 10
  -7.18080
 20
  40.35142
 30
    .00000
 11
  -7.20063
 21
  40.30552
 31
    .00000
  0
LINE
  8
LAYE
 10
  -7.18080
 20
  40.35142
 30
    .00000
 11
  -7.23046
 21
  40.34564
 31
    .00000
  0
LINE
  8
LAYE
 10
  -6.86023
 20
  40.27219
 30
    .00000
 11
  -6.86020
 21
  40.27222
 31
    .00000
  0
LINE
  8
LAYE
 10
  -6.86020
 20
  40.27222
 30
    .00000
 11
  -6.87604
 21
  40.22480
 31
    .00000
  0
LINE
  8
LAYE
 10
  -6.86020
 20
  40.27222
 30
    .00000
 11
  -6.90919
 21
  40.26223
 31
    .00000
  0
LINE
  8
LAYE
 10
  -7.11441
 20
  40.03577
 30
    .00000
 11
  -7.11437
 21
  40.03580
 31
    .00000
  0
LINE
  8
LAYE
 10
  -7.11437
 20
  40.03580
 30
    .00000
 11
  -7.12951
 21
  39.98815
 31
    .00000
  0
LINE
  8
LAYE
 10
  -7.11437
 20
  40.03580
 30
    .00000
 11
  -7.16321
 21
  40.02509
 31
    .00000
  0
LINE
  8
LAYE
 10
  -9.00255
 20
  39.68717
 30
    .00000
 11
  -9.00249
 21
  39.68721
 31
    .00000
  0
LINE
  8
LAYE
 10
  -9.00249
 20
  39.68721
 30
    .00000
 11
  -9.02070
 21
  39.64064
 31
    .00000
  0
LINE
  8
LAYE
 10
  -9.00249
 20
  39.68721
 30
    .00000
 11
  -9.05192
 21
  39.67969
 31
    .00000
  0
LINE
  8
LAYE
 10
  -8.84292
 20
  39.89207
 30
    .00000
 11
  -8.84289
 21
  39.89208
 31
    .00000
  0
LINE
  8
LAYE
 10
  -8.84289
 20
  39.89208
 30
    .00000
 11
  -8.87331
 21
  39.85241
 31
    .00000
  0
LINE
  8
LAYE
 10
  -8.84289
 20
  39.89208
 30
    .00000
 11
  -8.89246
 21
  39.89859
 31
    .00000
  0
LINE
  8
LAYE
 10
  -8.53994
 20
  39.92039
 30
    .00000
 11
  -8.53992
 21
  39.92041
 31
    .00000
  0
LINE
  8
LAYE
 10
  -8.53992
 20
  39.92041
 30
    .00000
 11
  -8.54777
 21
  39.87103
 31
    .00000
  0
LINE
  8
LAYE
 10
  -8.53992
 20
  39.92041
 30
    .00000
 11
  -8.58661
 21
  39.90252
 31
    .00000
  0
LINE
  8
LAYE
 10
  -7.92561
 20
  39.84859
 30
    .00000
 11
  -7.92558
 21
  39.84861
 31
    .00000
  0
LINE
  8
LAYE
 10
  -7.92558
 20
  39.84861
 30
    .00000
 11
  -7.94659
 21
  39.80324
 31
    .00000
  0
LINE
  8
LAYE
 10
  -7.92558
 20
  39.84861
 30
    .00000
 11
  -7.97538
 21
  39.84412
 31
    .00000
  0
LINE
  8
LAYE
 10
  -8.13016
 20
  39.69414
 30
    .00000
 11
  -8.13010
 21
  39.69417
 31
    .00000
  0
LINE
  8
LAYE
 10
  -8.13010
 20
  39.69417
 30
    .00000
 11
  -8.15646
 21
  39.65168
 31
    .00000
  0
LINE
  8
LAYE
 10
  -8.13010
 20
  39.69417
 30
    .00000
 11
  -8.18008
 21
  39.69574
 31
    .00000
  0
LINE
  8
LAYE
 10
  -7.46362
 20
  39.80297
 30
    .00000
 11
  -7.46358
 21
  39.80299
 31
    .00000
  0
LINE
  8
LAYE
 10
  -7.46358
 20
  39.80299
 30
    .00000
 11
  -7.49556
 21
  39.76455
 31
    .00000
  0
LINE
  8
LAYE
 10
  -7.46358
 20
  39.80299
 30
    .00000
 11
  -7.51286
 21
  39.81146
 31
    .00000
  0
LINE
  8
LAYE
 10
  -7.03999
 20
  39.73449
 30
    .00000
 11
  -7.03993
 21
  39.73452
 31
    .00000
  0
LINE
  8
LAYE
 10
  -7.03993
 20
  39.73452
 30
    .00000
 11
  -7.06275
 21
  39.69004
 31
    .00000
  0
LINE
  8
LAYE
 10
  -7.03993
 20
  39.73452
 30
    .00000
 11
  -7.08987
 21
  39.73205
 31
    .00000
  0
LINE
  8
LAYE
 10
  -9.40780
 20
  39.36060
 30
    .00000
 11
  -9.40772
 21
  39.36064
 31
    .00000
  0
LINE
  8
LAYE
 10
  -9.40772
 20
  39.36064
 30
    .00000
 11
  -9.42984
 21
  39.31580
 31
    .00000
  0
LINE
  8
LAYE
 10
  -9.40772
 20
  39.36064
 30
    .00000
 11
  -9.45762
 21
  39.35738
 31
    .00000
  0
LINE
  8
LAYE
 10
  -9.20116
 20
  39.45386
 30
    .00000
 11
  -9.20107
 21
  39.45390
 31
    .00000
  0
LINE
  8
LAYE
 10
  -9.20107
 20
  39.45390
 30
    .00000
 11
  -9.22999
 21
  39.41311
 31
    .00000
  0
LINE
  8
LAYE
 10
  -9.20107
 20
  39.45390
 30
    .00000
 11
  -9.25086
 21
  39.45854
 31
    .00000
  0
LINE
  8
LAYE
 10
  -8.91860
 20
  39.43742
 30
    .00000
 11
  -8.91854
 21
  39.43745
 31
    .00000
  0
LINE
  8
LAYE
 10
  -8.91854
 20
  39.43745
 30
    .00000
 11
  -8.94495
 21
  39.39499
 31
    .00000
  0
LINE
  8
LAYE
 10
  -8.91854
 20
  39.43745
 30
    .00000
 11
  -8.96851
 21
  39.43909
 31
    .00000
  0
LINE
  8
LAYE
 10
  -8.63660
 20
  39.53580
 30
    .00000
 11
  -8.63657
 21
  39.53583
 31
    .00000
  0
LINE
  8
LAYE
 10
  -8.63657
 20
  39.53583
 30
    .00000
 11
  -8.65119
 21
  39.48801
 31
    .00000
  0
LINE
  8
LAYE
 10
  -8.63657
 20
  39.53583
 30
    .00000
 11
  -8.68529
 21
  39.52459
 31
    .00000
  0
LINE
  8
LAYE
 10
  -8.29298
 20
  39.52093
 30
    .00000
 11
  -8.29294
 21
  39.52095
 31
    .00000
  0
LINE
  8
LAYE
 10
  -8.29294
 20
  39.52095
 30
    .00000
 11
  -8.31537
 21
  39.47627
 31
    .00000
  0
LINE
  8
LAYE
 10
  -8.29294
 20
  39.52095
 30
    .00000
 11
  -8.34286
 21
  39.51803
 31
    .00000
  0
LINE
  8
LAYE
 10
  -8.75043
 20
  39.33471
 30
    .00000
 11
  -8.75040
 21
  39.33474
 31
    .00000
  0
LINE
  8
LAYE
 10
  -8.75040
 20
  39.33474
 30
    .00000
 11
  -8.76605
 21
  39.28725
 31
    .00000
  0
LINE
  8
LAYE
 10
  -8.75040
 20
  39.33474
 30
    .00000
 11
  -8.79935
 21
  39.32455
 31
    .00000
  0
LINE
  8
LAYE
 10
  -8.41733
 20
  39.33616
 30
    .00000
 11
  -8.41729
 21
  39.33619
 31
    .00000
  0
LINE
  8
LAYE
 10
  -8.41729
 20
  39.33619
 30
    .00000
 11
  -8.43682
 21
  39.29016
 31
    .00000
  0
LINE
  8
LAYE
 10
  -8.41729
 20
  39.33619
 30
    .00000
 11
  -8.46692
 21
  39.33009
 31
    .00000
  0
LINE
  8
LAYE
 10
  -7.63006
 20
  39.57531
 30
    .00000
 11
  -7.63000
 21
  39.57534
 31
    .00000
  0
LINE
  8
LAYE
 10
  -7.63000
 20
  39.57534
 30
    .00000
 11
  -7.65477
 21
  39.53191
 31
    .00000
  0
LINE
  8
LAYE
 10
  -7.63000
 20
  39.57534
 30
    .00000
 11
  -7.68000
 21
  39.57508
 31
    .00000
  0
LINE
  8
LAYE
 10
  -8.01141
 20
  39.36705
 30
    .00000
 11
  -8.01137
 21
  39.36707
 31
    .00000
  0
LINE
  8
LAYE
 10
  -8.01137
 20
  39.36707
 30
    .00000
 11
  -8.03831
 21
  39.32495
 31
    .00000
  0
LINE
  8
LAYE
 10
  -8.01137
 20
  39.36707
 30
    .00000
 11
  -8.06132
 21
  39.36935
 31
    .00000
  0
LINE
  8
LAYE
 10
  -7.21632
 20
  39.60401
 30
    .00000
 11
  -7.21624
 21
  39.60403
 31
    .00000
  0
LINE
  8
LAYE
 10
  -7.21624
 20
  39.60403
 30
    .00000
 11
  -7.25254
 21
  39.56964
 31
    .00000
  0
LINE
  8
LAYE
 10
  -7.21624
 20
  39.60403
 30
    .00000
 11
  -7.26417
 21
  39.61827
 31
    .00000
  0
LINE
  8
LAYE
 10
  -7.36058
 20
  39.31350
 30
    .00000
 11
  -7.36051
 21
  39.31352
 31
    .00000
  0
LINE
  8
LAYE
 10
  -7.36051
 20
  39.31352
 30
    .00000
 11
  -7.39259
 21
  39.27517
 31
    .00000
  0
LINE
  8
LAYE
 10
  -7.36051
 20
  39.31352
 30
    .00000
 11
  -7.40976
 21
  39.32213
 31
    .00000
  0
LINE
  8
LAYE
 10
  -9.04855
 20
  39.17338
 30
    .00000
 11
  -9.04849
 21
  39.17342
 31
    .00000
  0
LINE
  8
LAYE
 10
  -9.04849
 20
  39.17342
 30
    .00000
 11
  -9.06963
 21
  39.12811
 31
    .00000
  0
LINE
  8
LAYE
 10
  -9.04849
 20
  39.17342
 30
    .00000
 11
  -9.09830
 21
  39.16907
 31
    .00000
  0
LINE
  8
LAYE
 10
  -9.31658
 20
  39.01233
 30
    .00000
 11
  -9.31655
 21
  39.01239
 31
    .00000
  0
LINE
  8
LAYE
 10
  -9.31655
 20
  39.01239
 30
    .00000
 11
  -9.32233
 21
  38.96272
 31
    .00000
  0
LINE
  8
LAYE
 10
  -9.31655
 20
  39.01239
 30
    .00000
 11
  -9.36245
 21
  38.99256
 31
    .00000
  0
LINE
  8
LAYE
 10
  -8.58665
 20
  39.14224
 30
    .00000
 11
  -8.58661
 21
  39.14227
 31
    .00000
  0
LINE
  8
LAYE
 10
  -8.58661
 20
  39.14227
 30
    .00000
 11
  -8.60536
 21
  39.09592
 31
    .00000
  0
LINE
  8
LAYE
 10
  -8.58661
 20
  39.14227
 30
    .00000
 11
  -8.63613
 21
  39.13533
 31
    .00000
  0
LINE
  8
LAYE
 10
  -8.18733
 20
  39.07731
 30
    .00000
 11
  -8.18729
 21
  39.07733
 31
    .00000
  0
LINE
  8
LAYE
 10
  -8.18729
 20
  39.07733
 30
    .00000
 11
  -8.21358
 21
  39.03480
 31
    .00000
  0
LINE
  8
LAYE
 10
  -8.18729
 20
  39.07733
 30
    .00000
 11
  -8.23727
 21
  39.07883
 31
    .00000
  0
LINE
  8
LAYE
 10
  -7.62274
 20
  39.18913
 30
    .00000
 11
  -7.62268
 21
  39.18914
 31
    .00000
  0
LINE
  8
LAYE
 10
  -7.62268
 20
  39.18914
 30
    .00000
 11
  -7.65834
 21
  39.15410
 31
    .00000
  0
LINE
  8
LAYE
 10
  -7.62268
 20
  39.18914
 30
    .00000
 11
  -7.67086
 21
  39.20251
 31
    .00000
  0
LINE
  8
LAYE
 10
  -7.10717
 20
  39.03111
 30
    .00000
 11
  -7.10709
 21
  39.03111
 31
    .00000
  0
LINE
  8
LAYE
 10
  -7.10709
 20
  39.03111
 30
    .00000
 11
  -7.14871
 21
  39.00341
 31
    .00000
  0
LINE
  8
LAYE
 10
  -7.10709
 20
  39.03111
 30
    .00000
 11
  -7.15190
 21
  39.05330
 31
    .00000
  0
LINE
  8
LAYE
 10
  -9.44149
 20
  38.77431
 30
    .00000
 11
  -9.44147
 21
  38.77437
 31
    .00000
  0
LINE
  8
LAYE
 10
  -9.44147
 20
  38.77437
 30
    .00000
 11
  -9.43493
 21
  38.72480
 31
    .00000
  0
LINE
  8
LAYE
 10
  -9.44147
 20
  38.77437
 30
    .00000
 11
  -9.48113
 21
  38.74392
 31
    .00000
  0
LINE
  8
LAYE
 10
  -9.09102
 20
  38.89424
 30
    .00000
 11
  -9.09099
 21
  38.89428
 31
    .00000
  0
LINE
  8
LAYE
 10
  -9.09099
 20
  38.89428
 30
    .00000
 11
  -9.09473
 21
  38.84442
 31
    .00000
  0
LINE
  8
LAYE
 10
  -9.09099
 20
  38.89428
 30
    .00000
 11
  -9.13604
 21
  38.87259
 31
    .00000
  0
LINE
  8
LAYE
 10
  -9.13316
 20
  38.71370
 30
    .00000
 11
  -9.13314
 21
  38.71374
 31
    .00000
  0
LINE
  8
LAYE
 10
  -9.13314
 20
  38.71374
 30
    .00000
 11
  -9.12718
 21
  38.66410
 31
    .00000
  0
LINE
  8
LAYE
 10
  -9.13314
 20
  38.71374
 30
    .00000
 11
  -9.17315
 21
  38.68375
 31
    .00000
  0
LINE
  8
LAYE
 10
  -8.51905
 20
  38.84057
 30
    .00000
 11
  -8.51902
 21
  38.84060
 31
    .00000
  0
LINE
  8
LAYE
 10
  -8.51902
 20
  38.84060
 30
    .00000
 11
  -8.53679
 21
  38.79386
 31
    .00000
  0
LINE
  8
LAYE
 10
  -8.51902
 20
  38.84060
 30
    .00000
 11
  -8.56838
 21
  38.83263
 31
    .00000
  0
LINE
  8
LAYE
 10
  -8.54012
 20
  38.68875
 30
    .00000
 11
  -8.54010
 21
  38.68878
 31
    .00000
  0
LINE
  8
LAYE
 10
  -8.54010
 20
  38.68878
 30
    .00000
 11
  -8.53950
 21
  38.63879
 31
    .00000
  0
LINE
  8
LAYE
 10
  -8.54010
 20
  38.68878
 30
    .00000
 11
  -8.58310
 21
  38.66326
 31
    .00000
  0
LINE
  8
LAYE
 10
  -7.65409
 20
  38.91634
 30
    .00000
 11
  -7.65403
 21
  38.91635
 31
    .00000
  0
LINE
  8
LAYE
 10
  -7.65403
 20
  38.91635
 30
    .00000
 11
  -7.68841
 21
  38.88004
 31
    .00000
  0
LINE
  8
LAYE
 10
  -7.65403
 20
  38.91635
 30
    .00000
 11
  -7.70267
 21
  38.92797
 31
    .00000
  0
LINE
  8
LAYE
 10
  -7.98813
 20
  38.72570
 30
    .00000
 11
  -7.98810
 21
  38.72572
 31
    .00000
  0
LINE
  8
LAYE
 10
  -7.98810
 20
  38.72572
 30
    .00000
 11
  -8.01398
 21
  38.68294
 31
    .00000
  0
LINE
  8
LAYE
 10
  -7.98810
 20
  38.72572
 30
    .00000
 11
  -8.03809
 21
  38.72675
 31
    .00000
  0
LINE
  8
LAYE
 10
  -7.58405
 20
  38.73951
 30
    .00000
 11
  -7.58399
 21
  38.73952
 31
    .00000
  0
LINE
  8
LAYE
 10
  -7.58399
 20
  38.73952
 30
    .00000
 11
  -7.62439
 21
  38.71004
 31
    .00000
  0
LINE
  8
LAYE
 10
  -7.58399
 20
  38.73952
 30
    .00000
 11
  -7.62971
 21
  38.75976
 31
    .00000
  0
LINE
  8
LAYE
 10
  -7.25876
 20
  38.83989
 30
    .00000
 11
  -7.25870
 21
  38.83990
 31
    .00000
  0
LINE
  8
LAYE
 10
  -7.25870
 20
  38.83990
 30
    .00000
 11
  -7.29952
 21
  38.81102
 31
    .00000
  0
LINE
  8
LAYE
 10
  -7.25870
 20
  38.83990
 30
    .00000
 11
  -7.30411
 21
  38.86081
 31
    .00000
  0
LINE
  8
LAYE
 10
  -8.90027
 20
  38.56616
 30
    .00000
 11
  -8.90026
 21
  38.56620
 31
    .00000
  0
LINE
  8
LAYE
 10
  -8.90026
 20
  38.56620
 30
    .00000
 11
  -8.89149
 21
  38.51698
 31
    .00000
  0
LINE
  8
LAYE
 10
  -8.90026
 20
  38.56620
 30
    .00000
 11
  -8.93850
 21
  38.53400
 31
    .00000
  0
LINE
  8
LAYE
 10
  -9.10678
 20
  38.45280
 30
    .00000
 11
  -9.10678
 21
  38.45284
 31
    .00000
  0
LINE
  8
LAYE
 10
  -9.10678
 20
  38.45284
 30
    .00000
 11
  -9.08354
 21
  38.40857
 31
    .00000
  0
LINE
  8
LAYE
 10
  -9.10678
 20
  38.45284
 30
    .00000
 11
  -9.13350
 21
  38.41058
 31
    .00000
  0
LINE
  8
LAYE
 10
  -8.52310
 20
  38.49190
 30
    .00000
 11
  -8.52309
 21
  38.49192
 31
    .00000
  0
LINE
  8
LAYE
 10
  -8.52309
 20
  38.49192
 30
    .00000
 11
  -8.51054
 21
  38.44352
 31
    .00000
  0
LINE
  8
LAYE
 10
  -8.52309
 20
  38.49192
 30
    .00000
 11
  -8.55873
 21
  38.45685
 31
    .00000
  0
LINE
  8
LAYE
 10
  -8.18995
 20
  38.56915
 30
    .00000
 11
  -8.18993
 21
  38.56916
 31
    .00000
  0
LINE
  8
LAYE
 10
  -8.18993
 20
  38.56916
 30
    .00000
 11
  -8.20675
 21
  38.52208
 31
    .00000
  0
LINE
  8
LAYE
 10
  -8.18993
 20
  38.56916
 30
    .00000
 11
  -8.23912
 21
  38.56018
 31
    .00000
  0
LINE
  8
LAYE
 10
  -8.23479
 20
  38.24582
 30
    .00000
 11
  -8.23479
 21
  38.24583
 31
    .00000
  0
LINE
  8
LAYE
 10
  -8.23479
 20
  38.24583
 30
    .00000
 11
  -8.21947
 21
  38.19824
 31
    .00000
  0
LINE
  8
LAYE
 10
  -8.23479
 20
  38.24583
 30
    .00000
 11
  -8.26835
 21
  38.20877
 31
    .00000
  0
LINE
  8
LAYE
 10
  -7.80087
 20
  38.44828
 30
    .00000
 11
  -7.80084
 21
  38.44828
 31
    .00000
  0
LINE
  8
LAYE
 10
  -7.80084
 20
  38.44828
 30
    .00000
 11
  -7.84235
 21
  38.42041
 31
    .00000
  0
LINE
  8
LAYE
 10
  -7.80084
 20
  38.44828
 30
    .00000
 11
  -7.84574
 21
  38.47029
 31
    .00000
  0
LINE
  8
LAYE
 10
  -7.78391
 20
  38.24618
 30
    .00000
 11
  -7.78389
 21
  38.24618
 31
    .00000
  0
LINE
  8
LAYE
 10
  -7.78389
 20
  38.24618
 30
    .00000
 11
  -7.83041
 21
  38.22785
 31
    .00000
  0
LINE
  8
LAYE
 10
  -7.78389
 20
  38.24618
 30
    .00000
 11
  -7.82302
 21
  38.27730
 31
    .00000
  0
LINE
  8
LAYE
 10
  -8.00515
 20
  38.32214
 30
    .00000
 11
  -8.00514
 21
  38.32215
 31
    .00000
  0
LINE
  8
LAYE
 10
  -8.00514
 20
  38.32215
 30
    .00000
 11
  -8.03306
 21
  38.28067
 31
    .00000
  0
LINE
  8
LAYE
 10
  -8.00514
 20
  38.32215
 30
    .00000
 11
  -8.05502
 21
  38.32559
 31
    .00000
  0
LINE
  8
LAYE
 10
  -7.38159
 20
  38.44237
 30
    .00000
 11
  -7.38155
 21
  38.44236
 31
    .00000
  0
LINE
  8
LAYE
 10
  -7.38155
 20
  38.44236
 30
    .00000
 11
  -7.42991
 21
  38.42966
 31
    .00000
  0
LINE
  8
LAYE
 10
  -7.38155
 20
  38.44236
 30
    .00000
 11
  -7.41673
 21
  38.47789
 31
    .00000
  0
LINE
  8
LAYE
 10
  -7.15384
 20
  38.22847
 30
    .00000
 11
  -7.15380
 21
  38.22845
 31
    .00000
  0
LINE
  8
LAYE
 10
  -7.15380
 20
  38.22845
 30
    .00000
 11
  -7.20379
 21
  38.22969
 31
    .00000
  0
LINE
  8
LAYE
 10
  -7.15380
 20
  38.22845
 30
    .00000
 11
  -7.17772
 21
  38.27236
 31
    .00000
  0
LINE
  8
LAYE
 10
  -8.64557
 20
  38.16926
 30
    .00000
 11
  -8.64558
 21
  38.16928
 31
    .00000
  0
LINE
  8
LAYE
 10
  -8.64558
 20
  38.16928
 30
    .00000
 11
  -8.60668
 21
  38.13787
 31
    .00000
  0
LINE
  8
LAYE
 10
  -8.64558
 20
  38.16928
 30
    .00000
 11
  -8.65333
 21
  38.11989
 31
    .00000
  0
LINE
  8
LAYE
 10
  -8.43560
 20
  38.05136
 30
    .00000
 11
  -8.43562
 21
  38.05138
 31
    .00000
  0
LINE
  8
LAYE
 10
  -8.43562
 20
  38.05138
 30
    .00000
 11
  -8.38614
 21
  38.04416
 31
    .00000
  0
LINE
  8
LAYE
 10
  -8.43562
 20
  38.05138
 30
    .00000
 11
  -8.41713
 21
  38.00492
 31
    .00000
  0
LINE
  8
LAYE
 10
  -8.16754
 20
  37.88158
 30
    .00000
 11
  -8.16756
 21
  37.88157
 31
    .00000
  0
LINE
  8
LAYE
 10
  -8.16756
 20
  37.88157
 30
    .00000
 11
  -8.13034
 21
  37.91496
 31
    .00000
  0
LINE
  8
LAYE
 10
  -8.16756
 20
  37.88157
 30
    .00000
 11
  -8.12004
 21
  37.86604
 31
    .00000
  0
LINE
  8
LAYE
 10
  -7.44611
 20
  38.09417
 30
    .00000
 11
  -7.44608
 21
  38.09415
 31
    .00000
  0
LINE
  8
LAYE
 10
  -7.44608
 20
  38.09415
 30
    .00000
 11
  -7.49580
 21
  38.09945
 31
    .00000
  0
LINE
  8
LAYE
 10
  -7.44608
 20
  38.09415
 30
    .00000
 11
  -7.46635
 21
  38.13986
 31
    .00000
  0
LINE
  8
LAYE
 10
  -7.86555
 20
  38.01732
 30
    .00000
 11
  -7.86555
 21
  38.01731
 31
    .00000
  0
LINE
  8
LAYE
 10
  -7.86555
 20
  38.01731
 30
    .00000
 11
  -7.89729
 21
  38.05594
 31
    .00000
  0
LINE
  8
LAYE
 10
  -7.86555
 20
  38.01731
 30
    .00000
 11
  -7.84797
 21
  38.06412
 31
    .00000
  0
LINE
  8
LAYE
 10
  -7.59349
 20
  37.92970
 30
    .00000
 11
  -7.59347
 21
  37.92968
 31
    .00000
  0
LINE
  8
LAYE
 10
  -7.59347
 20
  37.92968
 30
    .00000
 11
  -7.64144
 21
  37.94377
 31
    .00000
  0
LINE
  8
LAYE
 10
  -7.59347
 20
  37.92968
 30
    .00000
 11
  -7.60525
 21
  37.97827
 31
    .00000
  0
LINE
  8
LAYE
 10
  -7.28435
 20
  37.96437
 30
    .00000
 11
  -7.28432
 21
  37.96434
 31
    .00000
  0
LINE
  8
LAYE
 10
  -7.28432
 20
  37.96434
 30
    .00000
 11
  -7.33286
 21
  37.97632
 31
    .00000
  0
LINE
  8
LAYE
 10
  -7.28432
 20
  37.96434
 30
    .00000
 11
  -7.29821
 21
  38.01237
 31
    .00000
  0
LINE
  8
LAYE
 10
  -8.71874
 20
  37.79439
 30
    .00000
 11
  -8.71880
 21
  37.79440
 31
    .00000
  0
LINE
  8
LAYE
 10
  -8.71880
 20
  37.79440
 30
    .00000
 11
  -8.67034
 21
  37.80670
 31
    .00000
  0
LINE
  8
LAYE
 10
  -8.71880
 20
  37.79440
 30
    .00000
 11
  -8.68392
 21
  37.75858
 31
    .00000
  0
LINE
  8
LAYE
 10
  -8.42487
 20
  37.86601
 30
    .00000
 11
  -8.42490
 21
  37.86601
 31
    .00000
  0
LINE
  8
LAYE
 10
  -8.42490
 20
  37.86601
 30
    .00000
 11
  -8.38181
 21
  37.89137
 31
    .00000
  0
LINE
  8
LAYE
 10
  -8.42490
 20
  37.86601
 30
    .00000
 11
  -8.38139
 21
  37.84137
 31
    .00000
  0
LINE
  8
LAYE
 10
  -8.71672
 20
  37.50729
 30
    .00000
 11
  -8.71681
 21
  37.50729
 31
    .00000
  0
LINE
  8
LAYE
 10
  -8.71681
 20
  37.50729
 30
    .00000
 11
  -8.67351
 21
  37.53229
 31
    .00000
  0
LINE
  8
LAYE
 10
  -8.71681
 20
  37.50729
 30
    .00000
 11
  -8.67351
 21
  37.48229
 31
    .00000
  0
LINE
  8
LAYE
 10
  -8.38640
 20
  37.61504
 30
    .00000
 11
  -8.38644
 21
  37.61503
 31
    .00000
  0
LINE
  8
LAYE
 10
  -8.38644
 20
  37.61503
 30
    .00000
 11
  -8.34818
 21
  37.64722
 31
    .00000
  0
LINE
  8
LAYE
 10
  -8.38644
 20
  37.61503
 30
    .00000
 11
  -8.33944
 21
  37.59799
 31
    .00000
  0
LINE
  8
LAYE
 10
  -7.45052
 20
  37.79474
 30
    .00000
 11
  -7.45050
 21
  37.79470
 31
    .00000
  0
LINE
  8
LAYE
 10
  -7.45050
 20
  37.79470
 30
    .00000
 11
  -7.49417
 21
  37.81905
 31
    .00000
  0
LINE
  8
LAYE
 10
  -7.45050
 20
  37.79470
 30
    .00000
 11
  -7.45125
 21
  37.84470
 31
    .00000
  0
LINE
  8
LAYE
 10
  -7.76163
 20
  37.70038
 30
    .00000
 11
  -7.76163
 21
  37.70034
 31
    .00000
  0
LINE
  8
LAYE
 10
  -7.76163
 20
  37.70034
 30
    .00000
 11
  -7.78362
 21
  37.74525
 31
    .00000
  0
LINE
  8
LAYE
 10
  -7.76163
 20
  37.70034
 30
    .00000
 11
  -7.73373
 21
  37.74184
 31
    .00000
  0
LINE
  8
LAYE
 10
  -8.07268
 20
  37.61840
 30
    .00000
 11
  -8.07270
 21
  37.61837
 31
    .00000
  0
LINE
  8
LAYE
 10
  -8.07270
 20
  37.61837
 30
    .00000
 11
  -8.07476
 21
  37.66833
 31
    .00000
  0
LINE
  8
LAYE
 10
  -8.07270
 20
  37.61837
 30
    .00000
 11
  -8.03046
 21
  37.64514
 31
    .00000
  0
LINE
  8
LAYE
 10
  -7.45089
 20
  37.53874
 30
    .00000
 11
  -7.45089
 21
  37.53867
 31
    .00000
  0
LINE
  8
LAYE
 10
  -7.45089
 20
  37.53867
 30
    .00000
 11
  -7.47786
 21
  37.58077
 31
    .00000
  0
LINE
  8
LAYE
 10
  -7.45089
 20
  37.53867
 30
    .00000
 11
  -7.42792
 21
  37.58308
 31
    .00000
  0
LINE
  8
LAYE
 10
  -8.86015
 20
  37.28354
 30
    .00000
 11
  -8.86027
 21
  37.28354
 31
    .00000
  0
LINE
  8
LAYE
 10
  -8.86027
 20
  37.28354
 30
    .00000
 11
  -8.81602
 21
  37.30682
 31
    .00000
  0
LINE
  8
LAYE
 10
  -8.86027
 20
  37.28354
 30
    .00000
 11
  -8.81798
 21
  37.25686
 31
    .00000
  0
LINE
  8
LAYE
 10
  -8.59638
 20
  37.31556
 30
    .00000
 11
  -8.59647
 21
  37.31555
 31
    .00000
  0
LINE
  8
LAYE
 10
  -8.59647
 20
  37.31555
 30
    .00000
 11
  -8.55679
 21
  37.34596
 31
    .00000
  0
LINE
  8
LAYE
 10
  -8.59647
 20
  37.31555
 30
    .00000
 11
  -8.55029
 21
  37.29639
 31
    .00000
  0
LINE
  8
LAYE
 10
  -8.78023
 20
  37.21926
 30
    .00000
 11
  -8.78035
 21
  37.21926
 31
    .00000
  0
LINE
  8
LAYE
 10
  -8.78035
 20
  37.21926
 30
    .00000
 11
  -8.73803
 21
  37.24587
 31
    .00000
  0
LINE
  8
LAYE
 10
  -8.78035
 20
  37.21926
 30
    .00000
 11
  -8.73614
 21
  37.19591
 31
    .00000
  0
LINE
  8
LAYE
 10
  -8.08036
 20
  37.37074
 30
    .00000
 11
  -8.08039
 21
  37.37071
 31
    .00000
  0
LINE
  8
LAYE
 10
  -8.08039
 20
  37.37071
 30
    .00000
 11
  -8.06892
 21
  37.41937
 31
    .00000
  0
LINE
  8
LAYE
 10
  -8.08039
 20
  37.37071
 30
    .00000
 11
  -8.03251
 21
  37.38510
 31
    .00000
  0
LINE
  8
LAYE
 10
  -7.85131
 20
  37.48296
 30
    .00000
 11
  -7.85133
 21
  37.48292
 31
    .00000
  0
LINE
  8
LAYE
 10
  -7.85133
 20
  37.48292
 30
    .00000
 11
  -7.85566
 21
  37.53273
 31
    .00000
  0
LINE
  8
LAYE
 10
  -7.85133
 20
  37.48292
 30
    .00000
 11
  -7.81036
 21
  37.51157
 31
    .00000
  0
LINE
  8
LAYE
 10
  -7.40821
 20
  37.33174
 30
    .00000
 11
  -7.40822
 21
  37.33165
 31
    .00000
  0
LINE
  8
LAYE
 10
  -7.40822
 20
  37.33165
 30
    .00000
 11
  -7.42910
 21
  37.37708
 31
    .00000
  0
LINE
  8
LAYE
 10
  -7.40822
 20
  37.33165
 30
    .00000
 11
  -7.37931
 21
  37.37244
 31
    .00000
  0
LINE
  8
LAYE
 10
  -7.73905
 20
  37.24347
 30
    .00000
 11
  -7.73908
 21
  37.24340
 31
    .00000
  0
LINE
  8
LAYE
 10
  -7.73908
 20
  37.24340
 30
    .00000
 11
  -7.73931
 21
  37.29340
 31
    .00000
  0
LINE
  8
LAYE
 10
  -7.73908
 20
  37.24340
 30
    .00000
 11
  -7.69590
 21
  37.26860
 31
    .00000
  0
LINE
  8
LAYE
 10
  -7.48736
 20
  37.18657
 30
    .00000
 11
  -7.48740
 21
  37.18648
 31
    .00000
  0
LINE
  8
LAYE
 10
  -7.48740
 20
  37.18648
 30
    .00000
 11
  -7.49094
 21
  37.23635
 31
    .00000
  0
LINE
  8
LAYE
 10
  -7.48740
 20
  37.18648
 30
    .00000
 11
  -7.44598
 21
  37.21448
 31
    .00000
  0
LINE
  8
LAYE
 10
  -8.95174
 20
  37.08551
 30
    .00000
 11
  -8.95190
 21
  37.08550
 31
    .00000
  0
LINE
  8
LAYE
 10
  -8.95190
 20
  37.08550
 30
    .00000
 11
  -8.91041
 21
  37.11340
 31
    .00000
  0
LINE
  8
LAYE
 10
  -8.95190
 20
  37.08550
 30
    .00000
 11
  -8.90700
 21
  37.06351
 31
    .00000
  0
LINE
  8
LAYE
 10
  -8.71853
 20
  37.08815
 30
    .00000
 11
  -8.71865
 21
  37.08813
 31
    .00000
  0
LINE
  8
LAYE
 10
  -8.71865
 20
  37.08813
 30
    .00000
 11
  -8.68117
 21
  37.12123
 31
    .00000
  0
LINE
  8
LAYE
 10
  -8.71865
 20
  37.08813
 30
    .00000
 11
  -8.67124
 21
  37.07222
 31
    .00000
  0
LINE
  8
LAYE
 10
  -8.39456
 20
  37.13836
 30
    .00000
 11
  -8.39465
 21
  37.13833
 31
    .00000
  0
LINE
  8
LAYE
 10
  -8.39465
 20
  37.13833
 30
    .00000
 11
  -8.36502
 21
  37.17860
 31
    .00000
  0
LINE
  8
LAYE
 10
  -8.39465
 20
  37.13833
 30
    .00000
 11
  -8.34495
 21
  37.13280
 31
    .00000
  0
LINE
  8
LAYE
 10
  -7.93303
 20
  37.10119
 30
    .00000
 11
  -7.93309
 21
  37.10112
 31
    .00000
  0
LINE
  8
LAYE
 10
  -7.93309
 20
  37.10112
 30
    .00000
 11
  -7.92219
 21
  37.14992
 31
    .00000
  0
LINE
  8
LAYE
 10
  -7.93309
 20
  37.10112
 30
    .00000
 11
  -7.88538
 21
  37.11608
 31
    .00000
  0
LINE
  8
LAYE
 10
  -7.86517
 20
  36.97461
 30
    .00000
 11
  -7.86523
 21
  36.97454
 31
    .00000
  0
LINE
  8
LAYE
 10
  -7.86523
 20
  36.97454
 30
    .00000
 11
  -7.85407
 21
  37.02328
 31
    .00000
  0
LINE
  8
LAYE
 10
  -7.86523
 20
  36.97454
 30
    .00000
 11
  -7.81744
 21
  36.98925
 31
    .00000
  0
ENDSEC
  0
EOF
